<?xml version="1.0" encoding="utf-8"?>
<!-- Generator: Adobe Illustrator 24.3.0, SVG Export Plug-In . SVG Version: 6.00 Build 0)  -->
<svg version="1.1" id="Layer_1" xmlns="http://www.w3.org/2000/svg" xmlns:xlink="http://www.w3.org/1999/xlink" x="0px" y="0px"
	 viewBox="0 0 438.8 435.8" style="enable-background:new 0 0 438.8 435.8;" xml:space="preserve">
<style type="text/css">
	.cryptostart0{fill:none;stroke:#55bde5;stroke-width:4;stroke-linecap:round;stroke-linejoin:round;stroke-miterlimit:10;}
	.cryptostart1{fill:none;stroke:#808080;stroke-width:3;stroke-linecap:round;stroke-linejoin:round;stroke-miterlimit:10;}
	.cryptostart2{fill:none;stroke:#55bde5;stroke-width:3;stroke-linecap:round;stroke-linejoin:round;stroke-miterlimit:10;}
	.cryptostart3{fill:none;stroke:#808080;stroke-width:2;stroke-linecap:round;stroke-linejoin:round;stroke-miterlimit:10;}
	.cryptostart4{fill:none;stroke:#808080;stroke-linecap:round;stroke-linejoin:round;stroke-miterlimit:10;}
	.cryptostart5{fill:#55bde5;}
	.cryptostart6{fill:none;stroke:#55bde5;stroke-width:2;stroke-linecap:round;stroke-linejoin:round;stroke-miterlimit:10;}
</style>
<g>
	<line id="svg-concept" class="cryptostart0" x1="195.5" y1="348.6" x2="229.6" y2="348.6"/>
	<line id="svg-concept" class="cryptostart0" x1="195.5" y1="287.7" x2="223.7" y2="287.7"/>
	<line id="svg-concept" class="cryptostart0" x1="208.3" y1="318.3" x2="229.6" y2="318.3"/>
	<path id="svg-concept" class="cryptostart0" d="M223.7,287.7c8.2,0,14.6,6.7,14.6,14.6c0,7.9-6.7,15.7-14.6,15.7"/>
	<path id="svg-concept" class="cryptostart0" d="M229.6,318.3c8.2,0,14.6,7.6,14.6,15.7s-6.7,14.6-14.6,14.6"/>
	<line id="svg-concept" class="cryptostart0" x1="208.3" y1="276.7" x2="208.3" y2="359.6"/>
	<line id="svg-concept" class="cryptostart0" x1="220" y1="348.6" x2="220" y2="359.6"/>
	<line id="svg-concept" class="cryptostart0" x1="220" y1="276.7" x2="220" y2="287.7"/>
	<path class="cryptostart1" d="M138.1,327.3c4.7,41.6,39.6,73.1,81.5,73.1c45.1,0,82.1-37,82.1-82.1c0-45.4-37-82.1-82.1-82.1
		c-41.9,0-77.1,31.4-81.5,73.1"/>
	<path class="cryptostart1" d="M220,378.3c33.2,0,60-27.1,60-60c0-33.2-27.1-60-60-60c-33.2,0-60,27.1-60,60
		C159.7,351.5,186.8,378.3,220,378.3L220,378.3z"/>
	<polyline id="svg-concept" class="cryptostart2" points="352.8,299.3 342.5,347.5 371.1,347.5 	"/>
	<line id="svg-concept" class="cryptostart2" x1="329.6" y1="330.7" x2="363.5" y2="318.8"/>
	<polygon id="svg-concept" class="cryptostart2" points="91.8,292.6 71.6,326.3 91.8,337.7 112,325.8 	"/>
	<polygon id="svg-concept" class="cryptostart2" points="71.6,332.6 91.8,359.2 112,332.2 91.8,344.1 	"/>
	<line id="svg-concept" class="cryptostart2" x1="91.8" y1="292.6" x2="91.8" y2="337.7"/>
	<line id="svg-concept" class="cryptostart2" x1="91.8" y1="344.1" x2="91.8" y2="359.2"/>
	<polyline id="svg-concept" class="cryptostart2" points="71.6,326.3 91.8,317 112,325.8 	"/>
	<path class="cryptostart3" d="M128.8,278.7c-10.7-9-24.6-14.4-39.6-14.4c-31.5,0-57.9,23.7-61.2,54.9"/>
	<path class="cryptostart3" d="M28,332.8c3.5,31.3,29.8,54.9,61.3,54.8c17.8,0,33.9-7.7,45.2-19.9"/>
	<path class="cryptostart3" d="M123.3,296.2c-8.3-9.4-20.4-15.3-33.8-15.3c-24.9,0-45,20.4-45,45.1c-0.2,24.9,20.2,45,45.1,45l0,0
		c15.4,0,29-7.8,37.1-19.6"/>
	<path class="cryptostart3" d="M312.8,373.3c10.7,9,24.6,14.4,39.6,14.4c31.5,0,57.9-23.7,61.2-54.9"/>
	<path class="cryptostart3" d="M413.6,319.1c-3.5-31.3-29.8-54.9-61.3-54.8c-17.8,0-33.9,7.7-45.2,19.9"/>
	<path class="cryptostart3" d="M318.3,355.7c8.3,9.4,20.4,15.3,33.8,15.3c24.9,0,45-20.4,45-45.1c0.2-24.9-20.2-45-45.1-45l0,0
		c-15.4,0-29,7.8-37.1,19.6"/>
	<path class="cryptostart3" d="M417.4,109.9h-57.1l-31.2,26.3l0.5-26.3h-26.3c-8.9,0-16.1-7.2-16.1-16.1V23.7c0-8.9,7.2-16.1,16.1-16.1h114.2
		c8.9,0,16.1,7.2,16.1,16.1v70.2C433.5,102.7,426.3,109.9,417.4,109.9z"/>
	<line class="cryptostart3" x1="322.6" y1="29.8" x2="322.6" y2="83.5"/>
	<line class="cryptostart3" x1="359.1" y1="29.8" x2="359.1" y2="83.5"/>
	<line class="cryptostart3" x1="395.6" y1="29.8" x2="395.6" y2="83.5"/>
	<polyline class="cryptostart4" points="28,361 4.7,406.1 153.2,406.1 434.4,406.1 411,363.2 	"/>
	<line class="cryptostart4" x1="32.4" y1="125.5" x2="32.4" y2="273"/>
	<line class="cryptostart4" x1="269.4" y1="94.9" x2="68.9" y2="94.9"/>
	<line class="cryptostart4" x1="407.7" y1="273" x2="407.7" y2="125.5"/>
	<line class="cryptostart4" x1="437.1" y1="418.9" x2="2" y2="418.9"/>
	<path class="cryptostart4" d="M52,406.1H4.7c-1.5,0-2.7,1.5-2.7,3.2v9.7c0,0,0.3,11.7,22,11.7h391.2c21.7,0,22-11.7,22-11.7v-9.7
		c0-1.7-1.2-3.2-2.7-3.2h-47.3"/>
	<path id="svg-ico" class="cryptostart5" d="M86.1,136.2c0,2.5-1.9,4.4-4.4,4.4s-4.1-1.9-4.1-4.4c0-2.5,1.9-4.1,4.1-4.1
		C84.2,132,86.1,134,86.1,136.2z"/>
	<path class="cryptostart4" d="M97.1,136.2c0,1.5-1.2,2.7-2.7,2.7c-1.5,0-2.5-1.2-2.5-2.7c0-1.5,1.2-2.5,2.5-2.5
		C95.9,133.7,97.1,134.8,97.1,136.2z"/>
	<path class="cryptostart4" d="M109.4,136.2c0,1.5-1.2,2.7-2.7,2.7c-1.5,0-2.5-1.2-2.5-2.7c0-1.5,1.2-2.5,2.5-2.5
		C108.3,133.7,109.4,134.8,109.4,136.2z"/>
	<line class="cryptostart4" x1="259.3" y1="148.6" x2="388.8" y2="148.6"/>
	<line class="cryptostart4" x1="49.1" y1="148.6" x2="189.9" y2="148.6"/>
	<path id="svg-concept" class="cryptostart6" d="M366.3,122.1h22.5v139.5"/>
	<path id="svg-concept" class="cryptostart6" d="M48.8,262.6l0.3-140.5h257.9"/>
	<path class="cryptostart4" d="M407.3,357.1"/>
</g>
<g>
	<polyline id="svg-concept" class="cryptostart6" points="214.4,156.6 233,156.6 214.4,176.9 232.7,176.9 	"/>
	<line id="svg-concept" class="cryptostart6" x1="223.7" y1="176.9" x2="223.7" y2="183.7"/>
	<line id="svg-concept" class="cryptostart6" x1="223.7" y1="149.4" x2="223.7" y2="156.3"/>
	<circle id="svg-concept" class="cryptostart6" cx="223.7" cy="166.1" r="25.5"/>
</g>
<g>
	<polyline id="svg-concept" class="cryptostart6" points="37.1,100.9 26.2,100.9 26.2,90.8 	"/>
	<line id="svg-concept" class="cryptostart6" x1="26.2" y1="69.7" x2="34.2" y2="69.7"/>
	<line id="svg-concept" class="cryptostart6" x1="19.8" y1="85.3" x2="37.1" y2="85.3"/>
	<path id="svg-concept" class="cryptostart6" d="M34.2,69.7c4.1,0,7.5,3.4,7.5,7.5s-3.4,8.1-7.5,8.1"/>
	<path id="svg-concept" class="cryptostart6" d="M37.1,85.3c4.1,0,7.5,3.9,7.5,8.1c0,4.1-3.4,7.5-7.5,7.5"/>
	<line id="svg-concept" class="cryptostart6" x1="26.2" y1="69.7" x2="26.2" y2="85.3"/>
	<circle id="svg-concept" class="cryptostart6" cx="33.1" cy="85.6" r="25.2"/>
	<animateMotion accumulate="none" additive="replace" begin="0s" calcMode="paced" dur="3s" fill="remove" path="M0, 0 -6 0 0 0" repeatCount="indefinite" restart="always">
	</animateMotion>
</g>
<g>
	<path id="svg-concept" class="cryptostart6" d="M157,28c0-3.5-2.9-6.5-6.5-6.5c-3.5,0-6.4,2.9-6.4,6.5c0,3.4,2.7,6,6.5,6.5c4.1,0.5,6.9,3.1,6.9,6.7
		c0,3.7-3,6.7-6.7,6.7l0,0c-3.7,0-6.7-3-6.7-6.7"/>
	<path id="svg-concept" class="cryptostart6" d="M151,47.9v3.5"/>
	<path id="svg-concept" class="cryptostart6" d="M151,17.8v3.9"/>
	<circle id="svg-concept" class="cryptostart6" cx="150.8" cy="35.3" r="23.3"/>
	<animateMotion accumulate="none" additive="replace" begin="0s" calcMode="paced" dur="3s" fill="remove" path="M0, 15 0 0 0 15" repeatCount="indefinite" restart="always">
	</animateMotion>
</g>

<g>
<circle id="svg-ico" class="cryptostart5" cx="322.6" cy="65.2" r="6"/>
<animateMotion accumulate="none" additive="replace" begin="0s" calcMode="paced" dur="3s" fill="remove" path="M0, 15 0 0 0 15" repeatCount="indefinite" restart="always">
</animateMotion>
</g>
<g>
<circle id="svg-ico" class="cryptostart5" cx="359.1" cy="49.5" r="6"/>
<animateMotion accumulate="none" additive="replace" begin="0s" calcMode="paced" dur="2s" fill="remove" path="M0, 25 0 0 0 25" repeatCount="indefinite" restart="always">
</animateMotion>
</g>
<circle id="svg-ico" class="cryptostart5" cx="395.6" cy="79.6" r="6"/>
</svg>
