<?xml version="1.0" encoding="utf-8"?>
<!-- Generator: Adobe Illustrator 24.3.0, SVG Export Plug-In . SVG Version: 6.00 Build 0)  -->
<svg version="1.1" id="Layer_1" xmlns="http://www.w3.org/2000/svg" xmlns:xlink="http://www.w3.org/1999/xlink" x="0px" y="0px"
	 viewBox="0 0 438.8 435.8" style="enable-background:new 0 0 438.8 435.8;" xml:space="preserve">
<style type="text/css">
	.cryptocart0{fill:none;stroke:#55bde5;stroke-width:3;stroke-linecap:round;stroke-linejoin:round;stroke-miterlimit:10;}
	.cryptocart1{fill:none;stroke:#808080;stroke-width:2;stroke-linecap:round;stroke-linejoin:round;stroke-miterlimit:10;}
	.cryptocart2{fill:none;stroke:#55bde5;stroke-width:4;stroke-linecap:round;stroke-linejoin:round;stroke-miterlimit:10;}
	.cryptocart3{fill:none;stroke:#808080;stroke-width:2;stroke-linecap:round;stroke-linejoin:round;stroke-miterlimit:10;}
</style>
<animateMotion  accumulate="none" additive="replace" begin="0s" calcMode="paced" dur="8s" fill="remove" path="M0, 0 -175 0 0 0" repeatCount="indefinite" restart="always">
	</animateMotion>
<polyline id="svg-concept" class="cryptocart0" points="343.1,38.8 379.7,38.8 343.1,78.8 379,78.8 "/>
<line id="svg-concept" class="cryptocart0" x1="361.3" y1="78.8" x2="361.3" y2="85.6"/>
<line id="svg-concept" class="cryptocart0" x1="361.3" y1="24.6" x2="361.3" y2="38.2"/>
<path id="svg-concept" class="cryptocart0" d="M318.3,31.4c8.8-14.5,24.8-24.2,43.1-24.2c27.8,0,50.4,22.6,50.4,50.4
	c0,14.7-6.3,28-16.4,37.2"/>
<path class="cryptocart1" d="M178.8,44c0-8.3-6.9-15.4-15.4-15.4c-8.3,0-15.2,6.9-15.2,15.4c0,8.1,6.4,14.3,15.4,15.4
	c7.3,0.9,12.9,4.6,15.2,10"/>
<path class="cryptocart1" d="M164.5,19.6v9.3"/>
<path class="cryptocart1" d="M116.3,89.2c-4.8-8.2-7.6-17.8-7.6-28c0-30.6,24.8-55.4,55.4-55.4c18.5,0,34.9,9.1,45,23.1
	"/>
<line id="svg-concept" class="cryptocart2" x1="229.8" y1="138.8" x2="271.9" y2="138.8"/>
<line id="svg-concept" class="cryptocart2" x1="229.8" y1="63.6" x2="264.6" y2="63.6"/>
<line id="svg-concept" class="cryptocart2" x1="245.6" y1="101.4" x2="271.9" y2="101.4"/>
<path id="svg-concept" class="cryptocart2" d="M264.6,63.6c10.1,0,18,8.3,18,18s-8.3,19.4-18,19.4"/>
<path id="svg-concept" class="cryptocart2" d="M271.9,101.4c10.1,0,18,9.4,18,19.4s-8.3,18-18,18"/>
<line id="svg-concept" class="cryptocart2" x1="245.6" y1="49.9" x2="245.6" y2="152.4"/>
<line id="svg-concept" class="cryptocart2" x1="259.9" y1="138.8" x2="259.9" y2="152.4"/>
<line id="svg-concept" class="cryptocart2" x1="259.9" y1="49.9" x2="259.9" y2="63.6"/>
<path id="svg-concept" class="cryptocart2" d="M259.9,175.4c41,0,74-33.4,74-74c0-41-33.4-74-74-74c-41,0-74,33.4-74,74C185.7,142.4,219.1,175.4,259.9,175.4
	L259.9,175.4z"/>
<path class="cryptocart3" d="M311.1,178.7c9.5,12.8,24.7,21.1,41.8,21.1l0,0c28.7,0,51.9-23.4,51.9-51.9c0-28.7-23.4-51.9-51.9-51.9"/>
<polygon class="cryptocart3" points="353,110.4 331.1,146.8 353,159.1 374.8,146.2 "/>
<polygon class="cryptocart3" points="331.1,156.5 353,185.2 374.8,156 353,168.9 "/>
<line class="cryptocart3" x1="353" y1="110.4" x2="353" y2="159.1"/>
<line class="cryptocart3" x1="353" y1="168.9" x2="353" y2="185.2"/>
<polyline class="cryptocart3" points="331.1,146.8 353,136.7 374.8,146.2 "/>
<path id="svg-concept" class="cryptocart0" d="M207.7,178.7c-10,16.6-28.3,27.8-49.1,27.8c-31.6,0-57.3-25.6-57.3-57.3S126.9,92,158.6,92
	c3.7,0,7.4,0.4,11,1"/>
<polyline id="svg-concept" class="cryptocart0" points="159,111.5 144.6,178.7 184.5,178.7 "/>
<line id="svg-concept" class="cryptocart0" x1="126.6" y1="155.3" x2="173.9" y2="138.7"/>
<path class="cryptocart1" d="M92.9,120.1H65.1c-3.4,0-6,3-5.5,6.4l31.5,202.8l301.6-46.1l31.6-158.8c0.4-2.2-1.2-4.3-3.5-4.3h-7.5"/>
<line class="cryptocart1" x1="195.7" y1="368.3" x2="302.3" y2="368.3"/>
<polyline class="cryptocart1" points="91.1,329.3 97.7,368.3 127.6,368.3 "/>
<path class="cryptocart1" d="M195.7,368.8c3,5.5,4.7,11.8,4.7,18.5c0,21.4-17.4,38.8-38.8,38.8s-38.8-17.4-38.8-38.8s17.4-38.8,38.8-38.8
	C176.3,348.5,189.1,356.7,195.7,368.8"/>
<circle class="cryptocart1" cx="337" cy="387.3" r="38.8"/>
<line class="cryptocart1" x1="84" y1="86.3" x2="5.9" y2="86.3"/>
</svg>
