<?xml version="1.0" encoding="utf-8"?>
<!-- Generator: Adobe Illustrator 24.3.0, SVG Export Plug-In . SVG Version: 6.00 Build 0)  -->
<svg version="1.1" id="Layer_1" xmlns="http://www.w3.org/2000/svg" xmlns:xlink="http://www.w3.org/1999/xlink" x="0px" y="0px"
	 viewBox="0 0 1100.6 690.4" style="enable-background:new 0 0 1100.6 690.4;" xml:space="preserve">
<style type="text/css">
	.cryptotrad0{fill:none;stroke:#808080;stroke-linecap:round;stroke-linejoin:round;stroke-miterlimit:10;}
	.cryptotrad1{fill:none;stroke:#55bde5;stroke-width:2;stroke-linecap:round;stroke-linejoin:round;stroke-miterlimit:10;}
	.cryptotrad2{fill:none;stroke:#414142;stroke-width:2;stroke-linecap:round;stroke-linejoin:round;stroke-miterlimit:10;}
	.cryptotrad3{fill:none;stroke:#55bde5;stroke-width:4;stroke-linecap:round;stroke-linejoin:round;stroke-miterlimit:10;}
	.cryptotrad4{fill:none;stroke:#414142;stroke-width:3;stroke-linecap:round;stroke-linejoin:round;stroke-miterlimit:10;}
	.cryptotrad5{fill:none;stroke:#55bde5;stroke-width:3;stroke-linecap:round;stroke-linejoin:round;stroke-miterlimit:10;}
	.cryptotrad6{fill:none;stroke:#414142;stroke-linecap:round;stroke-linejoin:round;stroke-miterlimit:10;}
</style>
<g>
	<ellipse transform="matrix(0.7071 -0.7071 0.7071 0.7071 7.2424 235.6419)" class="cryptotrad0" cx="288.1" cy="109.1" rx="5.3" ry="5.3"/>
	<ellipse transform="matrix(0.9732 -0.2298 0.2298 0.9732 -22.715 66.7085)" class="cryptotrad0" cx="275.1" cy="130.9" rx="5.3" ry="5.3"/>
	<ellipse transform="matrix(0.9732 -0.2298 0.2298 0.9732 -26.031 67.5873)" class="cryptotrad0" cx="277.2" cy="145.6" rx="5.3" ry="5.3"/>
	<ellipse transform="matrix(0.7071 -0.7071 0.7071 0.7071 22.8707 227.0869)" class="cryptotrad0" cx="285.6" cy="85.9" rx="5.3" ry="5.3"/>
	<circle class="cryptotrad0" cx="276.3" cy="257.1" r="5.3"/>
	
		<ellipse transform="matrix(0.7071 -0.7071 0.7071 0.7071 -34.9291 230.1036)" class="cryptotrad0" cx="260.3" cy="157.2" rx="5.3" ry="5.3"/>
	<ellipse transform="matrix(0.7071 -0.7071 0.7071 0.7071 -88.3209 258.5733)" class="cryptotrad0" cx="268" cy="235.9" rx="5.3" ry="5.3"/>
	<path class="cryptotrad0" d="M284.4,166.9c0-2.9-2.4-5.2-5.3-5.3c-2.9,0-5.3,2.4-5.3,5.3c0,2.9,2.4,5.3,5.3,5.3
		C282,172.2,284.4,169.8,284.4,166.9z"/>
	<circle class="cryptotrad0" cx="285.8" cy="411.3" r="5.3"/>
	
		<ellipse transform="matrix(0.9732 -0.2298 0.2298 0.9732 -22.5079 71.3953)" class="cryptotrad0" cx="295.3" cy="132.4" rx="5.3" ry="5.3"/>
	<ellipse transform="matrix(0.9732 -0.2298 0.2298 0.9732 -18.5463 65.484)" class="cryptotrad0" cx="271.9" cy="112.4" rx="5.3" ry="5.3"/>
	
		<ellipse transform="matrix(0.3827 -0.9239 0.9239 0.3827 -40.6438 412.2935)" class="cryptotrad0" cx="288.2" cy="236.6" rx="5.3" ry="5.3"/>
	<ellipse transform="matrix(0.9871 -0.1602 0.1602 0.9871 -11.3924 49.8559)" class="cryptotrad0" cx="303.5" cy="95.6" rx="5.3" ry="5.3"/>
	
		<ellipse transform="matrix(0.9732 -0.2298 0.2298 0.9732 -80.5369 76.0578)" class="cryptotrad0" cx="286.3" cy="383.9" rx="5.3" ry="5.3"/>
	
		<ellipse transform="matrix(0.9732 -0.2298 0.2298 0.9732 -56.9474 70.5088)" class="cryptotrad0" cx="274.3" cy="279.8" rx="5.3" ry="5.3"/>
	<circle class="cryptotrad0" cx="255.8" cy="354.7" r="5.3"/>
	
		<ellipse transform="matrix(0.9871 -0.1602 0.1602 0.9871 -67.6266 51.2976)" id="svg-concept" class="cryptotrad1" cx="284.4" cy="445.1" rx="5.3" ry="5.3"/>
	<circle class="cryptotrad0" cx="382.8" cy="73.6" r="5.3"/>
	<circle class="cryptotrad0" cx="347.8" cy="173.3" r="5.3"/>
	<circle class="cryptotrad0" cx="306.4" cy="114.1" r="5.3"/>
	<ellipse transform="matrix(0.7071 -0.7071 0.7071 0.7071 57.9518 272.372)" class="cryptotrad0" cx="357.8" cy="66.2" rx="5.3" ry="5.3"/>
	<path class="cryptotrad0" d="M356.3,53.9c2.9,0,5.3-2.4,5.3-5.3c0-2.9-2.4-5.2-5.3-5.3c-2.9,0-5.3,2.4-5.3,5.3
		C351,51.6,353.4,53.9,356.3,53.9z"/>
	<ellipse transform="matrix(0.7071 -0.7071 0.7071 0.7071 47.6669 279.8092)" class="cryptotrad0" cx="361.6" cy="82.4" rx="5.3" ry="5.3"/>
	<ellipse transform="matrix(0.7071 -0.7071 0.7071 0.7071 85.8358 293.1404)" class="cryptotrad0" cx="396.8" cy="43" rx="5.3" ry="5.3"/>
	
		<ellipse transform="matrix(0.3827 -0.9239 0.9239 0.3827 94.7896 458.9373)" class="cryptotrad0" cx="390.8" cy="158.5" rx="5.3" ry="5.3"/>
	<circle class="cryptotrad0" cx="379.8" cy="136.3" r="5.3"/>
	<circle class="cryptotrad0" cx="383.8" cy="104.6" r="5.3"/>
	<circle id="svg-concept" class="cryptotrad1" cx="430" cy="83.4" r="5.3"/>
	
		<ellipse transform="matrix(0.7071 -0.7071 0.7071 0.7071 -128.1113 264.8666)" class="cryptotrad0" cx="255.7" cy="287.1" rx="5.3" ry="5.3"/>
	
		<ellipse transform="matrix(0.9732 -0.2298 0.2298 0.9732 -33.6759 57.2064)" class="cryptotrad0" cx="228.8" cy="173.2" rx="5.3" ry="5.3"/>
	<circle class="cryptotrad0" cx="252" cy="186.4" r="5.3"/>
	
		<ellipse transform="matrix(0.7071 -0.7071 0.7071 0.7071 -20.3317 215.6216)" class="cryptotrad0" cx="250.1" cy="132.4" rx="5.3" ry="5.3"/>
	<ellipse transform="matrix(0.3827 -0.9239 0.9239 0.3827 37.7247 294.1881)" class="cryptotrad0" cx="239" cy="118.9" rx="5.3" ry="5.3"/>
	
		<ellipse transform="matrix(0.7071 -0.7071 0.7071 0.7071 -146.0677 247.4357)" class="cryptotrad0" cx="225.6" cy="300" rx="5.3" ry="5.3"/>
	
		<ellipse transform="matrix(0.9732 -0.2298 0.2298 0.9732 -40.9072 59.8955)" class="cryptotrad0" cx="236.8" cy="205.6" rx="5.3" ry="5.3"/>
	
		<ellipse transform="matrix(0.7071 -0.7071 0.7071 0.7071 -108.7621 245.4583)" class="cryptotrad0" cx="241.9" cy="254" rx="5.3" ry="5.3"/>
	
		<ellipse transform="matrix(0.7071 -0.7071 0.7071 0.7071 -163.1919 275.1248)" class="cryptotrad0" cx="250.5" cy="334.6" rx="5.3" ry="5.3"/>
	<circle class="cryptotrad0" cx="294.5" cy="56.6" r="5.3"/>
	<ellipse transform="matrix(0.7071 -0.7071 0.7071 0.7071 33.8035 218.8335)" class="cryptotrad0" cx="281.1" cy="68.6" rx="5.3" ry="5.3"/>
	<ellipse transform="matrix(0.7071 -0.7071 0.7071 0.7071 34.3506 206.6656)" class="cryptotrad0" cx="266.6" cy="61.9" rx="5.3" ry="5.3"/>
	<path class="cryptotrad0" d="M339.9,65.2c2.9,0,5.3-2.4,5.3-5.3c0-2.9-2.4-5.2-5.3-5.3c-2.9,0-5.3,2.4-5.3,5.3
		C334.6,62.8,337,65.2,339.9,65.2z"/>
	<ellipse transform="matrix(0.9871 -0.1602 0.1602 0.9871 -6.5463 49.9343)" class="cryptotrad0" cx="306.4" cy="65.6" rx="5.3" ry="5.3"/>
	<ellipse transform="matrix(0.9732 -0.2298 0.2298 0.9732 -4.1788 75.9437)" class="cryptotrad0" cx="324" cy="55.9" rx="5.3" ry="5.3"/>
	<ellipse transform="matrix(0.9732 -0.2298 0.2298 0.9732 -11.1954 79.6862)" class="cryptotrad0" cx="336.6" cy="87.9" rx="5.3" ry="5.3"/>
	<ellipse transform="matrix(0.7071 -0.7071 0.7071 0.7071 34.7301 248.577)" id="svg-concept" class="cryptotrad1" cx="317.4" cy="82.4" rx="5.3" ry="5.3"/>
	<circle class="cryptotrad0" cx="309.2" cy="46.9" r="5.3"/>
	<ellipse transform="matrix(0.9732 -0.2298 0.2298 0.9732 -4.9408 64.6383)" class="cryptotrad0" cx="275.1" cy="53.5" rx="5.3" ry="5.3"/>
	<ellipse transform="matrix(0.7071 -0.7071 0.7071 0.7071 19.1594 210.986)" id="svg-concept" class="cryptotrad1" cx="264.3" cy="82.4" rx="5.3" ry="5.3"/>
	<circle class="cryptotrad0" cx="298.9" cy="148.8" r="5.3"/>
	<circle class="cryptotrad0" cx="223.9" cy="89.1" r="5.3"/>
	
		<ellipse transform="matrix(0.9732 -0.2298 0.2298 0.9732 -19.1629 53.5765)" class="cryptotrad0" cx="220.5" cy="109.1" rx="5.3" ry="5.3"/>
	
		<ellipse transform="matrix(0.7071 -0.7071 0.7071 0.7071 -34.8784 209.5961)" class="cryptotrad0" cx="235.6" cy="146.9" rx="5.3" ry="5.3"/>
	
		<ellipse transform="matrix(0.3827 -0.9239 0.9239 0.3827 64.1798 299.6622)" class="cryptotrad0" cx="256.3" cy="101.8" rx="5.3" ry="5.3"/>
	<ellipse transform="matrix(0.9732 -0.2298 0.2298 0.9732 -7.6049 58.42)" id="svg-concept" class="cryptotrad1" cx="247.1" cy="61.9" rx="5.3" ry="5.3"/>
	<ellipse transform="matrix(0.7071 -0.7071 0.7071 0.7071 17.5652 198.9382)" class="cryptotrad0" cx="248.9" cy="78.3" rx="5.3" ry="5.3"/>
	
		<ellipse transform="matrix(0.9732 -0.2298 0.2298 0.9732 -17.3314 56.8733)" class="cryptotrad0" cx="235.6" cy="102.9" rx="5.3" ry="5.3"/>
	
		<ellipse transform="matrix(0.9732 -0.2298 0.2298 0.9732 -35.3533 80.6213)" class="cryptotrad0" cx="328.5" cy="192.1" rx="5.3" ry="5.3"/>
	
		<ellipse transform="matrix(0.9732 -0.2298 0.2298 0.9732 -29.2461 79.9094)" class="cryptotrad0" cx="328.5" cy="165.5" rx="5.3" ry="5.3"/>
	
		<ellipse transform="matrix(0.9732 -0.2298 0.2298 0.9732 -18.7663 77.6122)" class="cryptotrad0" cx="323.9" cy="119.4" rx="5.3" ry="5.3"/>
	
		<ellipse transform="matrix(0.9732 -0.2298 0.2298 0.9732 -14.7557 77.1452)" class="cryptotrad0" cx="323.9" cy="101.9" rx="5.3" ry="5.3"/>
	<circle class="cryptotrad0" cx="340.7" cy="148.8" r="5.3"/>
	
		<ellipse transform="matrix(0.9732 -0.2298 0.2298 0.9732 -24.2714 77.1437)" class="cryptotrad0" cx="319.1" cy="142.8" rx="5.3" ry="5.3"/>
	<circle class="cryptotrad0" cx="308.8" cy="176.9" r="5.3"/>
	<ellipse transform="matrix(0.9871 -0.1602 0.1602 0.9871 -30.0052 55.9403)" class="cryptotrad0" cx="332" cy="214.1" rx="5.3" ry="5.3"/>
	<ellipse transform="matrix(0.9732 -0.2298 0.2298 0.9732 0.7241 79.4378)" class="cryptotrad0" cx="341.5" cy="36.6" rx="5.3" ry="5.3"/>
	<ellipse transform="matrix(0.9732 -0.2298 0.2298 0.9732 -55.5324 82.662)" class="cryptotrad0" cx="327.2" cy="279.8" rx="5.3" ry="5.3"/>
	<path class="cryptotrad0" d="M318.1,497.1c2.9,0,5.3-2.4,5.3-5.3c0-2.9-2.4-5.2-5.3-5.3c-2.9,0-5.3,2.4-5.3,5.3
		C312.8,494.7,315.2,497.1,318.1,497.1z"/>
	
		<ellipse transform="matrix(0.9732 -0.2298 0.2298 0.9732 -90.4337 89.1902)" class="cryptotrad0" cx="337.8" cy="432.9" rx="5.3" ry="5.3"/>
	<circle id="svg-concept" class="cryptotrad1" cx="344.4" cy="248.3" r="5.3"/>
	
		<ellipse transform="matrix(0.7071 -0.7071 0.7071 0.7071 -97.4003 300.1301)" class="cryptotrad0" cx="313.6" cy="267.6" rx="5.3" ry="5.3"/>
	
		<ellipse transform="matrix(0.9732 -0.2298 0.2298 0.9732 -49.0839 78.8009)" class="cryptotrad0" cx="313.9" cy="250.2" rx="5.3" ry="5.3"/>
	
		<ellipse transform="matrix(0.9732 -0.2298 0.2298 0.9732 -42.3144 78.2291)" class="cryptotrad0" cx="314.8" cy="220.8" rx="5.3" ry="5.3"/>
	<circle class="cryptotrad0" cx="315.7" cy="461.9" r="5.3"/>
	<circle class="cryptotrad0" cx="935.5" cy="421.8" r="5.3"/>
	<ellipse transform="matrix(0.9732 -0.2298 0.2298 0.9732 7.2319 224.4631)" class="cryptotrad0" cx="967.5" cy="81.2" rx="5.3" ry="5.3"/>
	<ellipse transform="matrix(0.7071 -0.7071 0.7071 0.7071 -100.078 854.3748)" class="cryptotrad0" cx="981.3" cy="548" rx="5.3" ry="5.3"/>
	<ellipse transform="matrix(0.9732 -0.2298 0.2298 0.9732 -5.094 228.3618)" class="cryptotrad0" cx="978.1" cy="136.1" rx="5.3" ry="5.3"/>
	<path id="svg-concept" class="cryptotrad1" d="M953.4,119.7c2.9,0,5.3-2.4,5.3-5.3c0-2.9-2.4-5.2-5.3-5.3c-2.9,0-5.3,2.4-5.3,5.3
		C948.1,117.3,950.5,119.7,953.4,119.7z"/>
	<circle class="cryptotrad0" cx="962.9" cy="474.3" r="5.3"/>
	
		<ellipse transform="matrix(0.9732 -0.2298 0.2298 0.9732 -15.4353 110.4512)" class="cryptotrad0" cx="466.6" cy="121.5" rx="5.3" ry="5.3"/>
	
		<ellipse transform="matrix(0.7071 -0.7071 0.7071 0.7071 161.7651 727.1821)" class="cryptotrad0" cx="958.7" cy="168.3" rx="5.3" ry="5.3"/>
	<ellipse transform="matrix(0.9871 -0.1602 0.1602 0.9871 -60.673 160.3038)" class="cryptotrad0" cx="964" cy="456.5" rx="5.3" ry="5.3"/>
	<circle class="cryptotrad0" cx="940.6" cy="220.2" r="5.3"/>
	<circle class="cryptotrad0" cx="966.9" cy="286.5" r="5.3"/>
	<circle class="cryptotrad0" cx="918.1" cy="288.5" r="5.3"/>
	<circle class="cryptotrad0" cx="921" cy="84.6" r="5.3"/>
	<ellipse transform="matrix(0.9732 -0.2298 0.2298 0.9732 -6.0021 212.364)" class="cryptotrad0" cx="908.9" cy="132" rx="5.3" ry="5.3"/>
	
		<ellipse transform="matrix(0.9732 -0.2298 0.2298 0.9732 -33.0692 211.8488)" class="cryptotrad0" cx="893.2" cy="247.9" rx="5.3" ry="5.3"/>
	
		<ellipse transform="matrix(0.9871 -0.1602 0.1602 0.9871 -46.4231 151.6716)" class="cryptotrad0" cx="917.5" cy="363.8" rx="5.3" ry="5.3"/>
	
		<ellipse transform="matrix(0.9732 -0.2298 0.2298 0.9732 -52.5992 217.8797)" class="cryptotrad0" cx="909.3" cy="334.8" rx="5.3" ry="5.3"/>
	<ellipse transform="matrix(0.7071 -0.7071 0.7071 0.7071 145.8753 708.1284)" class="cryptotrad0" cx="927.7" cy="178" rx="5.3" ry="5.3"/>
	
		<ellipse transform="matrix(0.3827 -0.9239 0.9239 0.3827 367.977 978.3458)" class="cryptotrad0" cx="916.1" cy="213.8" rx="5.3" ry="5.3"/>
	
		<ellipse transform="matrix(0.7071 -0.7071 0.7071 0.7071 -39.0378 768.7271)" id="svg-concept" class="cryptotrad1" cx="908.4" cy="431.5" rx="5.3" ry="5.3"/>
	
		<ellipse transform="matrix(0.9732 -0.2298 0.2298 0.9732 -8.7579 231.8063)" class="cryptotrad0" cx="991.1" cy="153.5" rx="5.3" ry="5.3"/>
	
		<ellipse transform="matrix(0.3827 -0.9239 0.9239 0.3827 415.6994 1055.8506)" class="cryptotrad0" cx="997.9" cy="216.9" rx="5.3" ry="5.3"/>
	<ellipse transform="matrix(0.9732 -0.2298 0.2298 0.9732 -30.294 223.7842)" class="cryptotrad0" cx="945.8" cy="242" rx="5.3" ry="5.3"/>
	<circle class="cryptotrad0" cx="989.3" cy="187.5" r="5.3"/>
	
		<ellipse transform="matrix(0.3827 -0.9239 0.9239 0.3827 155.5381 1222.9694)" class="cryptotrad0" cx="992.9" cy="495.1" rx="5.3" ry="5.3"/>
	<circle class="cryptotrad0" cx="1020.4" cy="82" r="5.3"/>
	
		<ellipse transform="matrix(0.7071 -0.7071 0.7071 0.7071 207.1986 755.1423)" class="cryptotrad0" cx="1015.1" cy="127.5" rx="5.3" ry="5.3"/>
	<circle id="svg-concept" class="cryptotrad1" cx="1015.3" cy="481.5" r="5.3"/>
	<ellipse transform="matrix(0.7071 -0.7071 0.7071 0.7071 45.524 760.7602)" class="cryptotrad0" cx="941.1" cy="325.4" rx="5.3" ry="5.3"/>
	
		<ellipse transform="matrix(0.7071 -0.7071 0.7071 0.7071 -24.5139 190.1846)" class="cryptotrad0" cx="217.3" cy="124.7" rx="5.3" ry="5.3"/>
	
		<ellipse transform="matrix(0.7071 -0.7071 0.7071 0.7071 -36.9505 798.0992)" class="cryptotrad0" cx="944.9" cy="443.7" rx="5.3" ry="5.3"/>
	
		<ellipse transform="matrix(0.9732 -0.2298 0.2298 0.9732 -90.0243 229.4455)" class="cryptotrad0" cx="940.3" cy="501.3" rx="5.3" ry="5.3"/>
	
		<ellipse transform="matrix(0.9732 -0.2298 0.2298 0.9732 -46.7982 227.7692)" id="svg-concept" class="cryptotrad1" cx="954.7" cy="314.8" rx="5.3" ry="5.3"/>
	
		<ellipse transform="matrix(0.7071 -0.7071 0.7071 0.7071 82.6169 741.3423)" class="cryptotrad0" cx="936.2" cy="270.9" rx="5.3" ry="5.3"/>
	
		<ellipse transform="matrix(0.3827 -0.9239 0.9239 0.3827 312.9464 1082.978)" id="svg-concept" class="cryptotrad1" cx="966.9" cy="307.3" rx="5.3" ry="5.3"/>
	
		<ellipse transform="matrix(0.9732 -0.2298 0.2298 0.9732 -46.5305 222.1333)" class="cryptotrad0" cx="930.6" cy="310.9" rx="5.3" ry="5.3"/>
	
		<ellipse transform="matrix(0.3827 -0.9239 0.9239 0.3827 195.4406 1110.243)" class="cryptotrad0" cx="928.5" cy="408.9" rx="5.3" ry="5.3"/>
	<circle class="cryptotrad0" cx="971.9" cy="493" r="5.3"/>
	<ellipse transform="matrix(0.7071 -0.7071 0.7071 0.7071 86.408 350.8571)" class="cryptotrad0" cx="466.7" cy="71.1" rx="5.3" ry="5.3"/>
	<path class="cryptotrad0" d="M469,53.9c2.9,0,5.3-2.4,5.3-5.3c0-2.9-2.4-5.2-5.3-5.3c-2.9,0-5.3,2.4-5.3,5.3
		C463.7,51.6,466.1,53.9,469,53.9z"/>
	
		<ellipse transform="matrix(0.7071 -0.7071 0.7071 0.7071 202.1101 630.7158)" class="cryptotrad0" cx="862.4" cy="71.4" rx="5.3" ry="5.3"/>
	<ellipse transform="matrix(0.9732 -0.2298 0.2298 0.9732 -53.2758 208.1062)" class="cryptotrad0" cx="867" cy="332.8" rx="5.3" ry="5.3"/>
	<ellipse transform="matrix(0.9732 -0.2298 0.2298 0.9732 -63.0388 208.627)" class="cryptotrad0" cx="864.4" cy="375" rx="5.3" ry="5.3"/>
	<ellipse transform="matrix(0.9732 -0.2298 0.2298 0.9732 -23.1347 205.3974)" id="svg-concept" class="cryptotrad1" cx="870.5" cy="202" rx="5.3" ry="5.3"/>
	<ellipse transform="matrix(0.9871 -0.1602 0.1602 0.9871 2.7566 139.9464)" class="cryptotrad0" cx="869.4" cy="52.9" rx="5.3" ry="5.3"/>
	<ellipse transform="matrix(0.9732 -0.2298 0.2298 0.9732 3.9589 203.2282)" class="cryptotrad0" cx="874.7" cy="84.6" rx="5.3" ry="5.3"/>
	<circle id="svg-concept" class="cryptotrad1" cx="885.7" cy="446.2" r="5.3"/>
	
		<ellipse transform="matrix(0.3827 -0.9239 0.9239 0.3827 268.5288 1009.0967)" class="cryptotrad0" cx="889.4" cy="303.6" rx="5.3" ry="5.3"/>
	<ellipse transform="matrix(0.7071 -0.7071 0.7071 0.7071 2.368 734.5955)" class="cryptotrad0" cx="887.9" cy="364.4" rx="5.3" ry="5.3"/>
	
		<ellipse transform="matrix(0.3827 -0.9239 0.9239 0.3827 355.0534 740.2748)" class="cryptotrad0" cx="731.5" cy="104.5" rx="5.3" ry="5.3"/>
	<circle class="cryptotrad0" cx="736" cy="140.9" r="5.3"/>
	
		<ellipse transform="matrix(0.7071 -0.7071 0.7071 0.7071 206.3483 614.4991)" id="svg-concept" class="cryptotrad1" cx="844.9" cy="58.2" rx="5.3" ry="5.3"/>
	<circle class="cryptotrad0" cx="776.7" cy="185.9" r="5.3"/>
	
		<ellipse transform="matrix(0.9732 -0.2298 0.2298 0.9732 -52.6971 187.6813)" class="cryptotrad0" cx="779.6" cy="320.1" rx="5.3" ry="5.3"/>
	<ellipse transform="matrix(0.9732 -0.2298 0.2298 0.9732 -1.2866 187.2711)" class="cryptotrad0" cx="803.5" cy="99.2" rx="5.3" ry="5.3"/>
	
		<ellipse transform="matrix(0.7071 -0.7071 0.7071 0.7071 150.6413 581.0441)" class="cryptotrad0" cx="776.7" cy="108.7" rx="5.3" ry="5.3"/>
	<circle class="cryptotrad0" cx="966.9" cy="269.5" r="5.3"/>
	
		<ellipse transform="matrix(0.9871 -0.1602 0.1602 0.9871 -49.4289 126.2865)" class="cryptotrad0" cx="758.6" cy="369.7" rx="5.3" ry="5.3"/>
	<circle class="cryptotrad0" cx="758.5" cy="233.8" r="5.3"/>
	
		<ellipse transform="matrix(0.9732 -0.2298 0.2298 0.9732 -10.5878 181.1788)" id="svg-concept" class="cryptotrad1" cx="772.7" cy="136.1" rx="5.3" ry="5.3"/>
	<path class="cryptotrad0" d="M836.6,93.3c0-2.9-2.4-5.2-5.3-5.3c-2.9,0-5.3,2.4-5.3,5.3c0,2.9,2.4,5.3,5.3,5.3S836.6,96.3,836.6,93.3z"/>
	<ellipse transform="matrix(0.9732 -0.2298 0.2298 0.9732 -43.2044 176.9082)" class="cryptotrad0" cx="738.1" cy="274" rx="5.3" ry="5.3"/>
	
		<ellipse transform="matrix(0.9732 -0.2298 0.2298 0.9732 -30.4262 172.9259)" id="svg-concept" class="cryptotrad1" cx="727.4" cy="217.1" rx="5.3" ry="5.3"/>
	<circle class="cryptotrad0" cx="735" cy="356.4" r="5.3"/>
	<ellipse transform="matrix(0.9732 -0.2298 0.2298 0.9732 6.2887 172.1925)" class="cryptotrad0" cx="742.6" cy="59.1" rx="5.3" ry="5.3"/>
	
		<ellipse transform="matrix(0.9732 -0.2298 0.2298 0.9732 -74.874 189.4935)" id="svg-concept" class="cryptotrad1" cx="776.3" cy="416.3" rx="5.3" ry="5.3"/>
	<path class="cryptotrad0" d="M782,77.5c-2.9,0-5.3,2.4-5.3,5.3c0,2.9,2.4,5.3,5.3,5.3s5.3-2.4,5.3-5.3C787.3,79.9,784.9,77.6,782,77.5z"/>
	
		<ellipse transform="matrix(0.9871 -0.1602 0.1602 0.9871 -47.9686 136.4666)" class="cryptotrad0" cx="822.5" cy="365.8" rx="5.3" ry="5.3"/>
	<circle class="cryptotrad0" cx="807.4" cy="281.9" r="5.3"/>
	<ellipse transform="matrix(0.9871 -0.1602 0.1602 0.9871 -17.9109 133.7664)" class="cryptotrad0" cx="820.7" cy="178" rx="5.3" ry="5.3"/>
	<ellipse transform="matrix(0.9732 -0.2298 0.2298 0.9732 -12.6867 193.8317)" class="cryptotrad0" cx="826" cy="151.4" rx="5.3" ry="5.3"/>
	
		<ellipse transform="matrix(0.9871 -0.1602 0.1602 0.9871 -48.8671 133.2557)" class="cryptotrad0" cx="802.1" cy="369.7" rx="5.3" ry="5.3"/>
	<path id="svg-concept" class="cryptotrad1" d="M729.2,56.6c0-2.9-2.4-5.3-5.3-5.3c-2.8,0-5,2.2-5.2,4.9V57c0.2,2.7,2.5,4.9,5.2,4.9
		C726.8,61.9,729.2,59.5,729.2,56.6z"/>
	
		<ellipse transform="matrix(0.9871 -0.1602 0.1602 0.9871 -52.2668 130.225)" class="cryptotrad0" cx="781.6" cy="389.3" rx="5.3" ry="5.3"/>
	
		<ellipse transform="matrix(0.3827 -0.9239 0.9239 0.3827 280.5378 879.4866)" class="cryptotrad0" cx="798.4" cy="229.8" rx="5.3" ry="5.3"/>
	<ellipse transform="matrix(0.9871 -0.1602 0.1602 0.9871 -2.0787 121.4887)" class="cryptotrad0" cx="752.5" cy="73.6" rx="5.3" ry="5.3"/>
	<ellipse transform="matrix(0.7071 -0.7071 0.7071 0.7071 74.2047 359.7463)" class="cryptotrad0" cx="471.4" cy="90.3" rx="5.3" ry="5.3"/>
	<ellipse transform="matrix(0.9732 -0.2298 0.2298 0.9732 -2.0673 113.9155)" class="cryptotrad0" cx="488.1" cy="65.8" rx="5.3" ry="5.3"/>
	
		<ellipse transform="matrix(0.7071 -0.7071 0.7071 0.7071 18.6929 366.9643)" class="cryptotrad0" cx="452.3" cy="160.9" rx="5.3" ry="5.3"/>
	
		<ellipse transform="matrix(0.7071 -0.7071 0.7071 0.7071 105.5635 330.9813)" class="cryptotrad0" cx="452.3" cy="38.1" rx="5.3" ry="5.3"/>
	
		<ellipse transform="matrix(0.3827 -0.9239 0.9239 0.3827 64.6118 1218.8669)" class="cryptotrad0" cx="944.4" cy="561.1" rx="5.3" ry="5.3"/>
	<circle class="cryptotrad0" cx="959.5" cy="576" r="5.3"/>
	<ellipse transform="matrix(0.9732 -0.2298 0.2298 0.9732 -80.453 241.817)" id="svg-concept" class="cryptotrad1" cx="998.2" cy="466.4" rx="5.3" ry="5.3"/>
	<circle class="cryptotrad0" cx="1020.2" cy="544.3" r="5.3"/>
	
		<ellipse transform="matrix(0.9732 -0.2298 0.2298 0.9732 -104.3274 247.3092)" class="cryptotrad0" cx="1009.8" cy="571.7" rx="5.3" ry="5.3"/>
	
		<ellipse transform="matrix(0.7071 -0.7071 0.7071 0.7071 215.4467 742.5233)" class="cryptotrad0" cx="1004" cy="111.2" rx="5.3" ry="5.3"/>
	
		<ellipse transform="matrix(0.9732 -0.2298 0.2298 0.9732 -110.4866 239.3728)" id="svg-concept" class="cryptotrad1" cx="972.7" cy="594.1" rx="5.3" ry="5.3"/>
	<circle class="cryptotrad0" cx="964.8" cy="508.1" r="5.3"/>
	
		<ellipse transform="matrix(0.7071 -0.7071 0.7071 0.7071 -77.8072 852.5995)" class="cryptotrad0" cx="990.3" cy="520.2" rx="5.3" ry="5.3"/>
	<circle class="cryptotrad0" cx="983.9" cy="620.2" r="5.3"/>
	
		<ellipse transform="matrix(0.7071 -0.7071 0.7071 0.7071 -128.2199 878.7397)" id="svg-concept" class="cryptotrad1" cx="996.6" cy="594.1" rx="5.3" ry="5.3"/>
	<path class="cryptotrad0" d="M1067.1,622.7c-2.9,0-5.3,2.4-5.3,5.3s2.4,5.3,5.3,5.3c2.9,0,5.3-2.4,5.3-5.3S1070,622.7,1067.1,622.7z"/>
	<path class="cryptotrad0" d="M1073.2,498.9c-2.9,0-5.3,2.4-5.3,5.3s2.4,5.3,5.3,5.3c2.9,0,5.3-2.4,5.3-5.3
		C1078.5,501.2,1076.1,498.9,1073.2,498.9z"/>
	<circle class="cryptotrad0" cx="1065.9" cy="527" r="5.3"/>
	<circle id="svg-concept" class="cryptotrad1" cx="1083.6" cy="611.9" r="5.3"/>
	<circle class="cryptotrad0" cx="1021.7" cy="466.8" r="5.3"/>
	<circle class="cryptotrad0" cx="1054" cy="481.6" r="5.3"/>
	<circle class="cryptotrad0" cx="1038.7" cy="469.8" r="5.3"/>
	<path class="cryptotrad0" d="M1045.3,645.5c-2.9,0-5.3,2.4-5.3,5.3s2.4,5.3,5.3,5.3c2.9,0,5.3-2.4,5.3-5.3S1048.2,645.5,1045.3,645.5z"/>
	
		<ellipse transform="matrix(0.7071 -0.7071 0.7071 0.7071 52.0744 681.3594)" id="svg-concept" class="cryptotrad1" cx="848.5" cy="277.8" rx="5.3" ry="5.3"/>
	<ellipse transform="matrix(0.9871 -0.1602 0.1602 0.9871 -62.9295 145.0069)" class="cryptotrad0" cx="868" cy="462.8" rx="5.3" ry="5.3"/>
	<ellipse transform="matrix(0.7071 -0.7071 0.7071 0.7071 -32.8471 738.4458)" class="cryptotrad0" cx="875" cy="408.9" rx="5.3" ry="5.3"/>
	
		<ellipse transform="matrix(0.9732 -0.2298 0.2298 0.9732 -77.2273 210.2769)" class="cryptotrad0" cx="864.4" cy="436.8" rx="5.3" ry="5.3"/>
	
		<ellipse transform="matrix(0.9871 -0.1602 0.1602 0.9871 -64.6919 148.006)" class="cryptotrad0" cx="885.7" cy="475.3" rx="5.3" ry="5.3"/>
	<ellipse transform="matrix(0.7071 -0.7071 0.7071 0.7071 -36.1667 717.4719)" class="cryptotrad0" cx="848" cy="402.4" rx="5.3" ry="5.3"/>
	
		<ellipse transform="matrix(0.9732 -0.2298 0.2298 0.9732 -2.7036 199.1691)" class="cryptotrad0" cx="853.9" cy="111.2" rx="5.3" ry="5.3"/>
	<circle class="cryptotrad0" cx="893.7" cy="576" r="5.3"/>
	
		<ellipse transform="matrix(0.3827 -0.9239 0.9239 0.3827 119.1605 1043.1603)" class="cryptotrad0" cx="840.2" cy="432.4" rx="5.3" ry="5.3"/>
	<circle class="cryptotrad0" cx="910" cy="478" r="5.3"/>
	<circle class="cryptotrad0" cx="933.3" cy="479.6" r="5.3"/>
	
		<ellipse transform="matrix(0.9732 -0.2298 0.2298 0.9732 -97.5771 229.368)" class="cryptotrad0" cx="936.2" cy="533.7" rx="5.3" ry="5.3"/>
	<circle class="cryptotrad0" cx="896.6" cy="530.1" r="5.3"/>
	<ellipse transform="matrix(0.9732 -0.2298 0.2298 0.9732 -1.1543 105.0941)" class="cryptotrad0" cx="450.7" cy="57.5" rx="5.3" ry="5.3"/>
	
		<ellipse transform="matrix(0.7071 -0.7071 0.7071 0.7071 -51.4701 786.5849)" class="cryptotrad0" cx="923.8" cy="455.4" rx="5.3" ry="5.3"/>
	
		<ellipse transform="matrix(0.3827 -0.9239 0.9239 0.3827 204.9598 1093.8092)" class="cryptotrad0" cx="921" cy="393.5" rx="5.3" ry="5.3"/>
	
		<ellipse transform="matrix(0.9732 -0.2298 0.2298 0.9732 -81.1302 220.4032)" id="svg-concept" class="cryptotrad1" cx="905.9" cy="458.6" rx="5.3" ry="5.3"/>
	
		<ellipse transform="matrix(0.9871 -0.1602 0.1602 0.9871 -61.4362 157.9774)" class="cryptotrad0" cx="949.1" cy="460.1" rx="5.3" ry="5.3"/>
	
		<ellipse transform="matrix(0.7071 -0.7071 0.7071 0.7071 -144.9346 286.4056)" class="cryptotrad0" cx="273.3" cy="318.2" rx="5.3" ry="5.3"/>
	
		<ellipse transform="matrix(0.9732 -0.2298 0.2298 0.9732 -70.4972 41.4148)" class="cryptotrad0" cx="142.6" cy="323.4" rx="5.3" ry="5.3"/>
	
		<ellipse transform="matrix(0.7071 -0.7071 0.7071 0.7071 -121.3407 188.1135)" class="cryptotrad0" cx="166.4" cy="240.5" rx="5.3" ry="5.3"/>
	
		<ellipse transform="matrix(0.3827 -0.9239 0.9239 0.3827 -239.1212 367.8349)" class="cryptotrad0" cx="155.7" cy="362.9" rx="5.3" ry="5.3"/>
	<circle class="cryptotrad0" cx="140.4" cy="253.5" r="5.3"/>
	
		<ellipse transform="matrix(0.9871 -0.1602 0.1602 0.9871 -26.5773 25.7298)" class="cryptotrad0" cx="146.3" cy="177.7" rx="5.3" ry="5.3"/>
	
		<ellipse transform="matrix(0.9871 -0.1602 0.1602 0.9871 -44.1082 24.6058)" class="cryptotrad0" cx="130.6" cy="285.9" rx="5.3" ry="5.3"/>
	<circle class="cryptotrad0" cx="119.6" cy="146.9" r="5.3"/>
	
		<ellipse transform="matrix(0.9732 -0.2298 0.2298 0.9732 -37.8731 31.7344)" class="cryptotrad0" cx="117.3" cy="178.5" rx="5.3" ry="5.3"/>
	
		<ellipse transform="matrix(0.3827 -0.9239 0.9239 0.3827 -124.1909 254.9892)" id="svg-concept" class="cryptotrad1" cx="128.7" cy="220.4" rx="5.3" ry="5.3"/>
	
		<ellipse transform="matrix(0.7071 -0.7071 0.7071 0.7071 -193.3274 243.8955)" class="cryptotrad0" cx="197.7" cy="355.3" rx="5.3" ry="5.3"/>
	<ellipse transform="matrix(0.9732 -0.2298 0.2298 0.9732 -33.4745 24.8172)" class="cryptotrad0" cx="89.8" cy="156.2" rx="5.3" ry="5.3"/>
	
		<ellipse transform="matrix(0.7071 -0.7071 0.7071 0.7071 -154.4684 221.336)" class="cryptotrad0" cx="189.9" cy="297.1" rx="5.3" ry="5.3"/>
	
		<ellipse transform="matrix(0.7071 -0.7071 0.7071 0.7071 -157.4542 204.606)" class="cryptotrad0" cx="168.3" cy="292.4" rx="5.3" ry="5.3"/>
	
		<ellipse transform="matrix(0.7071 -0.7071 0.7071 0.7071 -214.6348 261.4856)" class="cryptotrad0" cx="208.3" cy="389.8" rx="5.3" ry="5.3"/>
	<ellipse transform="matrix(0.9732 -0.2298 0.2298 0.9732 -69.443 50.4689)" id="svg-concept" class="cryptotrad1" cx="182" cy="323.4" rx="5.3" ry="5.3"/>
	
		<ellipse transform="matrix(0.9732 -0.2298 0.2298 0.9732 -82.4449 51.7364)" class="cryptotrad0" cx="180.9" cy="379.9" rx="5.3" ry="5.3"/>
	
		<ellipse transform="matrix(0.9732 -0.2298 0.2298 0.9732 -76.4613 48.1142)" class="cryptotrad0" cx="168.4" cy="352.4" rx="5.3" ry="5.3"/>
	
		<ellipse transform="matrix(0.9732 -0.2298 0.2298 0.9732 -30.2098 43.0677)" class="cryptotrad0" cx="169.8" cy="151.3" rx="5.3" ry="5.3"/>
	<ellipse transform="matrix(0.9732 -0.2298 0.2298 0.9732 -44.2957 10.9566)" class="cryptotrad0" cx="24.9" cy="195.7" rx="5.3" ry="5.3"/>
	
		<ellipse transform="matrix(0.9732 -0.2298 0.2298 0.9732 -21.8836 45.5473)" class="cryptotrad0" cx="184.7" cy="116.7" rx="5.3" ry="5.3"/>
	
		<ellipse transform="matrix(0.9732 -0.2298 0.2298 0.9732 -48.3864 51.4662)" class="cryptotrad0" cx="196.8" cy="233.5" rx="5.3" ry="5.3"/>
	<path class="cryptotrad0" d="M194,276c2.9,0,5.3-2.4,5.3-5.3c0-2.9-2.4-5.2-5.3-5.3c-2.9,0-5.3,2.4-5.3,5.3C188.8,273.6,191.1,276,194,276z
		"/>
	
		<ellipse transform="matrix(0.9732 -0.2298 0.2298 0.9732 -43.0229 43.0511)" class="cryptotrad0" cx="163.4" cy="206.3" rx="5.3" ry="5.3"/>
	
		<ellipse transform="matrix(0.3827 -0.9239 0.9239 0.3827 -15.4568 218.5637)" class="cryptotrad0" cx="155.8" cy="120.8" rx="5.3" ry="5.3"/>
	<circle id="svg-concept" class="cryptotrad1" cx="83.8" cy="122" r="5.3"/>
	
		<ellipse transform="matrix(0.7071 -0.7071 0.7071 0.7071 -12.3384 175.9389)" class="cryptotrad0" cx="206.2" cy="102.9" rx="5.3" ry="5.3"/>
	<ellipse transform="matrix(0.7071 -0.7071 0.7071 0.7071 90.6765 320.1669)" class="cryptotrad0" cx="431.8" cy="50.6" rx="5.3" ry="5.3"/>
	
		<ellipse transform="matrix(0.7071 -0.7071 0.7071 0.7071 -81.9207 210.0194)" class="cryptotrad0" cx="212.6" cy="203.9" rx="5.3" ry="5.3"/>
	<ellipse transform="matrix(0.9732 -0.2298 0.2298 0.9732 -38.4555 19.3305)" class="cryptotrad0" cx="63.8" cy="174.8" rx="5.3" ry="5.3"/>
	<path class="cryptotrad0" d="M62.3,124.9c2.9,0,5.3-2.4,5.3-5.3c0-2.9-2.4-5.2-5.3-5.3c-2.9,0-5.3,2.4-5.3,5.3
		C57,122.6,59.4,124.9,62.3,124.9z"/>
	
		<ellipse transform="matrix(0.9732 -0.2298 0.2298 0.9732 -24.5928 32.0669)" class="cryptotrad0" cx="125.4" cy="121.6" rx="5.3" ry="5.3"/>
	<ellipse transform="matrix(0.9871 -0.1602 0.1602 0.9871 -23.345 9.7559)" class="cryptotrad0" cx="48.8" cy="149.7" rx="5.3" ry="5.3"/>
	<ellipse transform="matrix(0.7071 -0.7071 0.7071 0.7071 -75.2196 92.103)" class="cryptotrad0" cx="73.6" cy="136.8" rx="5.3" ry="5.3"/>
	<path class="cryptotrad0" d="M117.6,89.1c2.9,0,5.3-2.4,5.3-5.3c0-2.9-2.4-5.2-5.3-5.3c-2.9,0-5.3,2.4-5.3,5.3
		C112.3,86.7,114.7,89.1,117.6,89.1z"/>
	
		<ellipse transform="matrix(0.7071 -0.7071 0.7071 0.7071 -175.0674 253.8605)" class="cryptotrad0" cx="218.9" cy="338.3" rx="5.3" ry="5.3"/>
	<ellipse transform="matrix(0.9732 -0.2298 0.2298 0.9732 -19.3832 21.2669)" class="cryptotrad0" cx="81.6" cy="93.9" rx="5.3" ry="5.3"/>
	<circle id="svg-concept" class="cryptotrad1" cx="196.6" cy="165.4" r="5.3"/>
	<ellipse transform="matrix(0.7071 -0.7071 0.7071 0.7071 36.2172 285.7569)" class="cryptotrad0" cx="363" cy="99.2" rx="5.3" ry="5.3"/>
	<ellipse transform="matrix(0.9732 -0.2298 0.2298 0.9732 -116.7435 96.5033)" class="cryptotrad0" cx="356" cy="549.6" rx="5.3" ry="5.3"/>
	
		<ellipse transform="matrix(0.9871 -0.1602 0.1602 0.9871 -88.3702 60.8371)" class="cryptotrad0" cx="333.2" cy="578.5" rx="5.3" ry="5.3"/>
	
		<ellipse transform="matrix(0.7071 -0.7071 0.7071 0.7071 -268.8798 392.6317)" class="cryptotrad0" cx="339.5" cy="520.9" rx="5.3" ry="5.3"/>
	
		<ellipse transform="matrix(0.9871 -0.1602 0.1602 0.9871 -68.0773 62.6338)" class="cryptotrad0" cx="354.5" cy="453.6" rx="5.3" ry="5.3"/>
	
		<ellipse transform="matrix(0.9871 -0.1602 0.1602 0.9871 -73.0848 64.1462)" class="cryptotrad0" cx="361.3" cy="485.4" rx="5.3" ry="5.3"/>
	
		<ellipse transform="matrix(0.7071 -0.7071 0.7071 0.7071 -14.6741 317.3539)" class="cryptotrad0" cx="375.7" cy="176.4" rx="5.3" ry="5.3"/>
	
		<ellipse transform="matrix(0.9732 -0.2298 0.2298 0.9732 -52.1574 87.3203)" class="cryptotrad0" cx="348.9" cy="267.6" rx="5.3" ry="5.3"/>
	<ellipse transform="matrix(0.9732 -0.2298 0.2298 0.9732 3.0725 86.6475)" class="cryptotrad0" cx="373.6" cy="30.1" rx="5.3" ry="5.3"/>
	<circle class="cryptotrad0" cx="403.5" cy="54.3" r="5.3"/>
	
		<ellipse transform="matrix(0.9871 -0.1602 0.1602 0.9871 -17.3358 69.2251)" id="svg-concept" class="cryptotrad1" cx="420.7" cy="142.1" rx="5.3" ry="5.3"/>
	
		<ellipse transform="matrix(0.3827 -0.9239 0.9239 0.3827 153.8785 454.8001)" class="cryptotrad0" cx="417.3" cy="112.3" rx="5.3" ry="5.3"/>
	<ellipse transform="matrix(0.9732 -0.2298 0.2298 0.9732 -27.2336 103.5411)" class="cryptotrad0" cx="431" cy="168.7" rx="5.3" ry="5.3"/>
	
		<ellipse transform="matrix(0.7071 -0.7071 0.7071 0.7071 -32.5487 338.9998)" class="cryptotrad0" cx="392.9" cy="208.8" rx="5.3" ry="5.3"/>
	<ellipse transform="matrix(0.9732 -0.2298 0.2298 0.9732 -81.6023 62.94)" class="cryptotrad0" cx="229.5" cy="381.9" rx="5.3" ry="5.3"/>
	<circle class="cryptotrad0" cx="403.5" cy="185.6" r="5.3"/>
	
		<ellipse transform="matrix(0.7071 -0.7071 0.7071 0.7071 -356.6455 387.5742)" class="cryptotrad0" cx="289.5" cy="624.3" rx="5.3" ry="5.3"/>
	
		<ellipse transform="matrix(0.7071 -0.7071 0.7071 0.7071 -40.0631 194.4342)" class="cryptotrad0" cx="214.7" cy="145.6" rx="5.3" ry="5.3"/>
	<path class="cryptotrad0" d="M268,418.3c-2.9,0-5.3,2.4-5.3,5.3s2.4,5.3,5.3,5.3c2.9,0,5.3-2.4,5.3-5.3S270.9,418.4,268,418.3z"/>
	
		<ellipse transform="matrix(0.3827 -0.9239 0.9239 0.3827 -291.398 572.5967)" class="cryptotrad0" cx="282.8" cy="504.4" rx="5.3" ry="5.3"/>
	
		<ellipse transform="matrix(0.3827 -0.9239 0.9239 0.3827 -182.4761 481.9682)" id="svg-concept" class="cryptotrad1" cx="269.4" cy="377.5" rx="5.3" ry="5.3"/>
	
		<ellipse transform="matrix(0.7071 -0.7071 0.7071 0.7071 -221.1902 291.1511)" class="cryptotrad0" cx="240.9" cy="412.6" rx="5.3" ry="5.3"/>
	
		<ellipse transform="matrix(0.9732 -0.2298 0.2298 0.9732 -100.1515 71.321)" class="cryptotrad0" cx="256.2" cy="465.7" rx="5.3" ry="5.3"/>
	
		<ellipse transform="matrix(0.7071 -0.7071 0.7071 0.7071 -291.0047 387.8828)" class="cryptotrad0" cx="322.7" cy="545.2" rx="5.3" ry="5.3"/>
	
		<ellipse transform="matrix(0.9732 -0.2298 0.2298 0.9732 -78.6481 67.1537)" id="svg-concept" class="cryptotrad1" cx="249.1" cy="371.3" rx="5.3" ry="5.3"/>
	<circle class="cryptotrad0" cx="312" cy="627.7" r="5.3"/>
	
		<ellipse transform="matrix(0.9732 -0.2298 0.2298 0.9732 -87.7156 82.3751)" class="cryptotrad0" cx="309.9" cy="417.9" rx="5.3" ry="5.3"/>
	
		<ellipse transform="matrix(0.7071 -0.7071 0.7071 0.7071 -372.9658 417.9979)" id="svg-concept" class="cryptotrad1" cx="318.1" cy="659.2" rx="5.3" ry="5.3"/>
	
		<ellipse transform="matrix(0.7071 -0.7071 0.7071 0.7071 -328.5486 399.5997)" class="cryptotrad0" cx="318.1" cy="596.4" rx="5.3" ry="5.3"/>
	<ellipse transform="matrix(0.9732 -0.2298 0.2298 0.9732 -37.1284 75.1616)" class="cryptotrad0" cx="304.2" cy="197" rx="5.3" ry="5.3"/>
	
		<ellipse transform="matrix(0.9732 -0.2298 0.2298 0.9732 -126.9076 82.1959)" class="cryptotrad0" cx="289.5" cy="586.1" rx="5.3" ry="5.3"/>
	<circle class="cryptotrad0" cx="292.6" cy="544.3" r="5.3"/>
	
		<ellipse transform="matrix(0.7071 -0.7071 0.7071 0.7071 -120.774 293.1597)" class="cryptotrad0" cx="293.5" cy="292.4" rx="5.3" ry="5.3"/>
	<line id="svg-concept" class="cryptotrad1" x1="313.7" y1="655.2" x2="292.3" y2="628.8"/>
	<line class="cryptotrad0" x1="312" y1="622.4" x2="316.6" y2="601.7"/>
	<line class="cryptotrad0" x1="313.2" y1="594.4" x2="294.4" y2="588.2"/>
	<line class="cryptotrad0" x1="320.6" y1="591.8" x2="330" y2="582.6"/>
	<line class="cryptotrad0" x1="329.2" y1="575" x2="324.3" y2="550.2"/>
	<line class="cryptotrad0" x1="336.6" y1="574.4" x2="353.1" y2="553.9"/>
	<line class="cryptotrad0" x1="353.3" y1="544.3" x2="341.9" y2="525.6"/>
	<path class="cryptotrad0" d="M344.8,519.2c7.2,0,14.3,0,21.5,0"/>
	<line class="cryptotrad0" x1="322.7" y1="489.3" x2="356.6" y2="487.8"/>
	<path class="cryptotrad0" d="M365.8,458.5c-2.3-0.6-4.7-1.3-7-1.9"/>
	<line class="cryptotrad0" x1="320.2" y1="540.6" x2="285" y2="509.6"/>
	<line class="cryptotrad0" x1="313.7" y1="494.7" x2="287.8" y2="506.1"/>
	<line id="svg-concept" class="cryptotrad1" x1="282.8" y1="499.1" x2="284.4" y2="450.4"/>
	<line id="svg-concept" class="cryptotrad1" x1="288.7" y1="448.1" x2="311.5" y2="458.9"/>
	<line class="cryptotrad0" x1="341.2" y1="436.9" x2="351.7" y2="449.2"/>
	<line class="cryptotrad0" x1="314.6" y1="420.2" x2="332.8" y2="431"/>
	<line class="cryptotrad0" x1="320.5" y1="459.7" x2="350.2" y2="456.6"/>
	<line class="cryptotrad0" x1="290.7" y1="413.1" x2="304.6" y2="416.5"/>
	<line class="cryptotrad0" x1="314.5" y1="456.6" x2="307.2" y2="422.4"/>
	<line class="cryptotrad0" x1="320.2" y1="464.7" x2="356.6" y2="483.1"/>
	<line class="cryptotrad0" x1="321" y1="496.3" x2="336.1" y2="516.9"/>
	<line class="cryptotrad0" x1="278.9" y1="500.6" x2="259.2" y2="470"/>
	<line class="cryptotrad0" x1="256.2" y1="460.4" x2="265.7" y2="428.4"/>
	<line class="cryptotrad0" x1="245.6" y1="414.8" x2="262.7" y2="421.4"/>
	<line class="cryptotrad0" x1="272.5" y1="420.9" x2="281.5" y2="413.5"/>
	<line class="cryptotrad0" x1="279.7" y1="442.6" x2="271.4" y2="427.7"/>
	<line class="cryptotrad0" x1="289.5" y1="619" x2="289.5" y2="591.4"/>
	<line class="cryptotrad0" x1="289.5" y1="580.8" x2="292.6" y2="549.6"/>
	<line class="cryptotrad0" x1="293.6" y1="581.6" x2="319.7" y2="549.6"/>
	<path class="cryptotrad0" d="M359.1,545.2c4.6-4.5,9.1-8.9,13.7-13.4"/>
	<line class="cryptotrad0" x1="285" y1="509.6" x2="292.6" y2="539"/>
	<line id="svg-concept" class="cryptotrad1" x1="316.5" y1="654.2" x2="312" y2="633"/>
	<line class="cryptotrad0" x1="308.7" y1="623.8" x2="292.3" y2="590.6"/>
	<line class="cryptotrad0" x1="294.7" y1="625.8" x2="306.7" y2="627.7"/>
	<line class="cryptotrad0" x1="229.5" y1="387.2" x2="236.6" y2="409.4"/>
	<line class="cryptotrad0" x1="212.4" y1="393" x2="236.6" y2="409.4"/>
	<line class="cryptotrad0" x1="224.2" y1="384.1" x2="213.3" y2="388.2"/>
	<line class="cryptotrad0" x1="185.2" y1="383.1" x2="203" y2="388.2"/>
	<line class="cryptotrad0" x1="199.5" y1="360.3" x2="205.5" y2="385.2"/>
	<line class="cryptotrad0" x1="171.4" y1="356.8" x2="178.4" y2="375.3"/>
	<line class="cryptotrad0" x1="146.7" y1="326.9" x2="165.5" y2="348"/>
	<line id="svg-concept" class="cryptotrad1" x1="179.5" y1="328.1" x2="171.2" y2="347.9"/>
	<line class="cryptotrad0" x1="130.6" y1="291.2" x2="140.7" y2="318.6"/>
	<line class="cryptotrad0" x1="138.5" y1="258.8" x2="131.8" y2="280.7"/>
	<line id="svg-concept" class="cryptotrad1" x1="130.6" y1="225.5" x2="139.3" y2="248.2"/>
	<line id="svg-concept" class="cryptotrad1" x1="119.6" y1="183.3" x2="128.7" y2="215.1"/>
	<line class="cryptotrad0" x1="93.9" y1="159.5" x2="114.4" y2="174.1"/>
	<line class="cryptotrad0" x1="68.3" y1="171.9" x2="85.2" y2="158.8"/>
	<line class="cryptotrad0" x1="61.1" y1="170.3" x2="51.5" y2="154.3"/>
	<line class="cryptotrad0" x1="145" y1="328.2" x2="152.9" y2="357.7"/>
	<line class="cryptotrad0" x1="194" y1="359.1" x2="184.4" y2="375.9"/>
	<line class="cryptotrad0" x1="30.1" y1="194.2" x2="59.9" y2="178.5"/>
	<line class="cryptotrad0" x1="52.8" y1="146.1" x2="69.1" y2="139.6"/>
	<line class="cryptotrad0" x1="88.5" y1="150.9" x2="83.8" y2="127.3"/>
	<line id="svg-concept" class="cryptotrad1" x1="78.5" y1="122" x2="67.4" y2="121.1"/>
	<line id="svg-concept" class="cryptotrad1" x1="83.8" y1="116.7" x2="82.7" y2="99"/>
	<line class="cryptotrad0" x1="86.7" y1="92.5" x2="112.4" y2="85"/>
	<line class="cryptotrad0" x1="121.3" y1="87.7" x2="153.7" y2="116"/>
	<line class="cryptotrad0" x1="161" y1="119.8" x2="179.4" y2="117.9"/>
	<line class="cryptotrad0" x1="188.4" y1="120.6" x2="212" y2="141.1"/>
	<line class="cryptotrad0" x1="230.3" y1="146.9" x2="220" y2="145.6"/>
	<line class="cryptotrad0" x1="244.8" y1="132.4" x2="222.6" y2="127.1"/>
	<line class="cryptotrad0" x1="219.4" y1="118.9" x2="220.5" y2="114.4"/>
	<line class="cryptotrad0" x1="225.1" y1="106.6" x2="230.3" y2="102.9"/>
	<line class="cryptotrad0" x1="210" y1="99.4" x2="219.7" y2="92.3"/>
	<line class="cryptotrad0" x1="250.1" y1="127.1" x2="253.6" y2="106.3"/>
	<line class="cryptotrad0" x1="244.3" y1="116.6" x2="253.6" y2="106.3"/>
	<line class="cryptotrad0" x1="255.3" y1="155.4" x2="240.9" y2="148.8"/>
	<line class="cryptotrad0" x1="272.6" y1="148.8" x2="265.1" y2="154"/>
	<line class="cryptotrad0" x1="296.5" y1="153.5" x2="283.2" y2="163.6"/>
	<line class="cryptotrad0" x1="324.4" y1="188.8" x2="312.7" y2="180.6"/>
	<line class="cryptotrad0" x1="328.5" y1="170.8" x2="328.5" y2="186.8"/>
	<line class="cryptotrad0" x1="342.3" y1="153.8" x2="347.8" y2="168.1"/>
	<line class="cryptotrad0" x1="378.9" y1="172.3" x2="388" y2="163"/>
	<line class="cryptotrad0" x1="378.9" y1="180.6" x2="390.8" y2="203.9"/>
	<line class="cryptotrad0" x1="402.2" y1="190.8" x2="394.9" y2="203.9"/>
	<line class="cryptotrad0" x1="401" y1="180.9" x2="392.9" y2="163.4"/>
	<line class="cryptotrad0" x1="389.1" y1="153.5" x2="382.4" y2="141.1"/>
	<line class="cryptotrad0" x1="381.4" y1="131.3" x2="383.8" y2="109.9"/>
	<line class="cryptotrad0" x1="378.7" y1="103.4" x2="368.3" y2="99.2"/>
	<line class="cryptotrad0" x1="363" y1="93.9" x2="361.6" y2="87.7"/>
	<line class="cryptotrad0" x1="378.3" y1="76.4" x2="366.5" y2="80.5"/>
	<line class="cryptotrad0" x1="399.3" y1="57.5" x2="386.5" y2="69.3"/>
	<line class="cryptotrad0" x1="426.5" y1="52.2" x2="408.8" y2="54.3"/>
	<line class="cryptotrad0" x1="448.3" y1="41.5" x2="437" y2="47.9"/>
	<line class="cryptotrad0" x1="464.3" y1="46.1" x2="454.7" y2="54.1"/>
	<line class="cryptotrad0" x1="446.1" y1="54.7" x2="436.6" y2="53"/>
	<line class="cryptotrad0" x1="462.8" y1="67.6" x2="454" y2="61.6"/>
	<line class="cryptotrad0" x1="483.8" y1="68.7" x2="472" y2="69.4"/>
	<line class="cryptotrad0" x1="485.1" y1="70.2" x2="474.7" y2="86.2"/>
	<line class="cryptotrad0" x1="471.4" y1="95.6" x2="468" y2="116.2"/>
	<line class="cryptotrad0" x1="465.4" y1="126.7" x2="454.7" y2="156.2"/>
	<line id="svg-concept" class="cryptotrad1" x1="425.1" y1="145" x2="447.8" y2="158.3"/>
	<line class="cryptotrad0" x1="417.3" y1="117.5" x2="420.7" y2="136.8"/>
	<line class="cryptotrad0" x1="436.2" y1="166.7" x2="447.9" y2="163.8"/>
	<line class="cryptotrad0" x1="407.3" y1="181.9" x2="427.3" y2="172.4"/>
	<line class="cryptotrad0" x1="342.8" y1="171.6" x2="333.4" y2="167.7"/>
	<line class="cryptotrad0" x1="275.1" y1="170.8" x2="256.1" y2="183"/>
	<line class="cryptotrad0" x1="248" y1="189.9" x2="239.9" y2="200.9"/>
	<line class="cryptotrad0" x1="240.1" y1="209.8" x2="264.5" y2="231.9"/>
	<line class="cryptotrad0" x1="269.7" y1="240.9" x2="274.2" y2="252.2"/>
	<line class="cryptotrad0" x1="285.6" y1="241.2" x2="279.2" y2="252.2"/>
	<line class="cryptotrad0" x1="301.7" y1="201.6" x2="291" y2="231.3"/>
	<line class="cryptotrad0" x1="306.8" y1="201.6" x2="313.3" y2="215.8"/>
	<line class="cryptotrad0" x1="326.7" y1="215.7" x2="320.1" y2="218.4"/>
	<line id="svg-concept" class="cryptotrad1" x1="342.3" y1="243.2" x2="333.8" y2="219.1"/>
	<line id="svg-concept" class="cryptotrad1" x1="339.1" y1="249.1" x2="319.1" y2="250.2"/>
	<line class="cryptotrad0" x1="313.9" y1="255.5" x2="313.6" y2="262.3"/>
	<line class="cryptotrad0" x1="323" y1="276.6" x2="317" y2="271.7"/>
	<line class="cryptotrad0" x1="322.4" y1="282.2" x2="298.1" y2="289.9"/>
	<line class="cryptotrad0" x1="290" y1="296.3" x2="277" y2="314.3"/>
	<line class="cryptotrad0" x1="269.4" y1="321.9" x2="254.9" y2="331.8"/>
	<line class="cryptotrad0" x1="251.7" y1="339.7" x2="254.3" y2="349.2"/>
	<line class="cryptotrad0" x1="245.5" y1="336.3" x2="224.2" y2="338.3"/>
	<line class="cryptotrad0" x1="213.9" y1="339.8" x2="200.8" y2="351.1"/>
	<line id="svg-concept" class="cryptotrad1" x1="215.1" y1="334.8" x2="187.3" y2="325.2"/>
	<line class="cryptotrad0" x1="248" y1="329.3" x2="227.9" y2="304.8"/>
	<line id="svg-concept" class="cryptotrad1" x1="264.1" y1="375.3" x2="254.3" y2="371.3"/>
	<line class="cryptotrad0" x1="220.4" y1="300" x2="195.2" y2="298.7"/>
	<line class="cryptotrad0" x1="184.7" y1="297.1" x2="173.5" y2="292.4"/>
	<line class="cryptotrad0" x1="191.5" y1="291.8" x2="194" y2="276.1"/>
	<line id="svg-concept" class="cryptotrad1" x1="185.8" y1="319.9" x2="221.2" y2="302.9"/>
	<line id="svg-concept" class="cryptotrad1" x1="179.1" y1="318.9" x2="168.3" y2="297.7"/>
	<line class="cryptotrad0" x1="163" y1="292.4" x2="135.9" y2="285.9"/>
	<line class="cryptotrad0" x1="188.8" y1="268.8" x2="168.4" y2="245.4"/>
	<line class="cryptotrad0" x1="194" y1="265.5" x2="196.8" y2="238.8"/>
	<line class="cryptotrad0" x1="199.3" y1="270.7" x2="237.7" y2="257.1"/>
	<line class="cryptotrad0" x1="230.9" y1="298.6" x2="252.2" y2="291.2"/>
	<line class="cryptotrad0" x1="308.3" y1="251.5" x2="278.7" y2="276.8"/>
	<line class="cryptotrad0" x1="278.5" y1="282.7" x2="289.8" y2="288.7"/>
	<line class="cryptotrad0" x1="274.3" y1="274.5" x2="275" y2="262.3"/>
	<line class="cryptotrad0" x1="227" y1="295" x2="240.1" y2="258.9"/>
	<line class="cryptotrad0" x1="245.9" y1="250.4" x2="263.9" y2="239.3"/>
	<line class="cryptotrad0" x1="201.1" y1="230.3" x2="232" y2="208.5"/>
	<line class="cryptotrad0" x1="199.3" y1="228.2" x2="209" y2="208.5"/>
	<line class="cryptotrad0" x1="168.7" y1="206.3" x2="207.3" y2="203.9"/>
	<line class="cryptotrad0" x1="149.1" y1="182.2" x2="161.1" y2="201"/>
	<line id="svg-concept" class="cryptotrad1" x1="134" y1="220.4" x2="163.4" y2="235.9"/>
	<line id="svg-concept" class="cryptotrad1" x1="133.6" y1="218.3" x2="158.1" y2="208.5"/>
	<line class="cryptotrad0" x1="149.3" y1="173.3" x2="166.1" y2="155"/>
	<line class="cryptotrad0" x1="166.8" y1="146.9" x2="158.1" y2="125.6"/>
	<line class="cryptotrad0" x1="119.6" y1="141.6" x2="125.4" y2="126.9"/>
	<line class="cryptotrad0" x1="117.3" y1="173.2" x2="119.6" y2="152.2"/>
	<line id="svg-concept" class="cryptotrad1" x1="223.5" y1="173.2" x2="201.8" y2="165.4"/>
	<line class="cryptotrad0" x1="235.6" y1="152.2" x2="228.8" y2="167.9"/>
	<line class="cryptotrad0" x1="141" y1="177.7" x2="121.8" y2="175.9"/>
	<line class="cryptotrad0" x1="120.1" y1="121.6" x2="89" y2="122"/>
	<line class="cryptotrad0" x1="125.4" y1="116.4" x2="119.6" y2="88.6"/>
	<line class="cryptotrad0" x1="323.9" y1="124.7" x2="340.7" y2="143.5"/>
	<line class="cryptotrad0" x1="326.9" y1="160.5" x2="321.3" y2="147.6"/>
	<line class="cryptotrad0" x1="314.3" y1="140.6" x2="300" y2="135.8"/>
	<line class="cryptotrad0" x1="318.6" y1="101.9" x2="308.6" y2="97.4"/>
	<line class="cryptotrad0" x1="331.3" y1="87.9" x2="322.3" y2="84.5"/>
	<line class="cryptotrad0" x1="353.7" y1="70.2" x2="339.9" y2="84"/>
	<line class="cryptotrad0" x1="392.5" y1="46.1" x2="362.1" y2="63.3"/>
	<line class="cryptotrad0" x1="391.5" y1="43" x2="361.6" y2="47.2"/>
	<line class="cryptotrad0" x1="394.7" y1="38.1" x2="378.1" y2="32.6"/>
	<line class="cryptotrad0" x1="368.3" y1="30.1" x2="346.8" y2="36.6"/>
	<line class="cryptotrad0" x1="323.9" y1="124.7" x2="320.7" y2="137.2"/>
	<line class="cryptotrad0" x1="345.6" y1="39.9" x2="352.1" y2="45.3"/>
	<line class="cryptotrad0" x1="357.8" y1="60.9" x2="356.3" y2="54.1"/>
	<line class="cryptotrad0" x1="353" y1="63.3" x2="344.9" y2="61.9"/>
	<line class="cryptotrad0" x1="337.1" y1="64.5" x2="320.1" y2="77.7"/>
	<line class="cryptotrad0" x1="435.3" y1="85" x2="466.1" y2="90.3"/>
	<line class="cryptotrad0" x1="427.2" y1="87.9" x2="419" y2="107"/>
	<line class="cryptotrad0" x1="389.1" y1="105.9" x2="412" y2="111.1"/>
	<line class="cryptotrad0" x1="385.1" y1="136.3" x2="415.7" y2="140.4"/>
	<line id="svg-concept" class="cryptotrad1" x1="425.7" y1="139.1" x2="462" y2="124.3"/>
	<line class="cryptotrad0" x1="421.8" y1="108.5" x2="466.7" y2="92.9"/>
	<line class="cryptotrad0" x1="417.3" y1="146.1" x2="394.8" y2="155.1"/>
	<line class="cryptotrad0" x1="388" y1="76.4" x2="424.7" y2="83.4"/>
	<line id="svg-concept" class="cryptotrad1" x1="406.7" y1="58.4" x2="426.5" y2="79.2"/>
	<line id="svg-concept" class="cryptotrad1" x1="431.8" y1="55.9" x2="430" y2="78.1"/>
	<line class="cryptotrad0" x1="462" y1="73.6" x2="434.3" y2="80.5"/>
	<line id="svg-concept" class="cryptotrad1" x1="999.7" y1="589.9" x2="1006.4" y2="575.6"/>
	<line class="cryptotrad0" x1="1048.7" y1="645.5" x2="1064.1" y2="632.4"/>
	<line class="cryptotrad0" x1="1006.4" y1="567.7" x2="985.8" y2="550.8"/>
	<line class="cryptotrad0" x1="1017.5" y1="539.7" x2="996.1" y2="499.5"/>
	<line class="cryptotrad0" x1="990.3" y1="514.9" x2="992.9" y2="500.4"/>
	<line class="cryptotrad0" x1="969.5" y1="510.3" x2="985" y2="518"/>
	<line class="cryptotrad0" x1="969.4" y1="497.6" x2="967.4" y2="502.8"/>
	<line class="cryptotrad0" x1="966.6" y1="493" x2="945.6" y2="501.3"/>
	<line id="svg-concept" class="cryptotrad1" x1="1011.3" y1="478" x2="1002.3" y2="469.8"/>
	<line id="svg-concept" class="cryptotrad1" x1="993.3" y1="464.7" x2="968.3" y2="459.1"/>
	<line id="svg-concept" class="cryptotrad1" x1="904.1" y1="434.3" x2="889" y2="442.1"/>
	<line class="cryptotrad0" x1="864.2" y1="459" x2="843.5" y2="436.5"/>
	<line class="cryptotrad0" x1="860.4" y1="432.5" x2="849.4" y2="407.4"/>
	<line class="cryptotrad0" x1="869.7" y1="408.9" x2="853.4" y2="402.9"/>
	<line class="cryptotrad0" x1="875" y1="403.6" x2="866.1" y2="380"/>
	<line class="cryptotrad0" x1="845.1" y1="397.9" x2="825.4" y2="370.3"/>
	<line class="cryptotrad0" x1="817.2" y1="365.8" x2="807" y2="367.9"/>
	<line class="cryptotrad0" x1="797.6" y1="372.5" x2="785.8" y2="386.3"/>
	<line id="svg-concept" class="cryptotrad1" x1="780" y1="394.5" x2="777.4" y2="411"/>
	<line id="svg-concept" class="cryptotrad1" x1="760.2" y1="374.8" x2="773.9" y2="411.5"/>
	<line class="cryptotrad0" x1="739.3" y1="359.5" x2="753.3" y2="368.7"/>
	<line id="svg-concept" class="cryptotrad1" x1="908.4" y1="436.8" x2="905.9" y2="453.3"/>
	<line id="svg-concept" class="cryptotrad1" x1="890.2" y1="448.9" x2="901" y2="456.5"/>
	<line class="cryptotrad0" x1="1012.1" y1="566.4" x2="1019.2" y2="549.6"/>
	<line class="cryptotrad0" x1="935.5" y1="504.2" x2="901" y2="527"/>
	<line class="cryptotrad0" x1="932.1" y1="537" x2="896.8" y2="571.7"/>
	<line class="cryptotrad0" x1="941.5" y1="556.7" x2="938.2" y2="539"/>
	<line class="cryptotrad0" x1="955.2" y1="571.7" x2="948.4" y2="564.8"/>
	<line class="cryptotrad0" x1="896.6" y1="535.4" x2="893.7" y2="570.7"/>
	<line class="cryptotrad0" x1="991.3" y1="594.1" x2="978" y2="594.1"/>
	<line class="cryptotrad0" x1="963.2" y1="571.7" x2="978" y2="552.1"/>
	<line class="cryptotrad0" x1="983.9" y1="542.7" x2="987.6" y2="525.5"/>
	<line class="cryptotrad0" x1="940.3" y1="506.6" x2="936.2" y2="528.4"/>
	<line class="cryptotrad0" x1="962.1" y1="512.7" x2="941.5" y2="531.2"/>
	<line class="cryptotrad0" x1="976" y1="548" x2="948.1" y2="557.2"/>
	<line class="cryptotrad0" x1="939.5" y1="562.8" x2="899" y2="574.8"/>
	<line class="cryptotrad0" x1="969.2" y1="590.2" x2="962.5" y2="580.3"/>
	<path class="cryptotrad0" d="M730.7,140.9c-3.3-0.6-27.1-5.1-30.4-5.8"/>
	<line class="cryptotrad0" x1="736" y1="135.7" x2="731.5" y2="109.7"/>
	<line class="cryptotrad0" x1="750.3" y1="78.4" x2="734.6" y2="99.6"/>
	<line class="cryptotrad0" x1="776.7" y1="81.4" x2="757.3" y2="75.8"/>
	<line class="cryptotrad0" x1="778.2" y1="103.4" x2="780.7" y2="87.9"/>
	<line class="cryptotrad0" x1="781.9" y1="106.8" x2="798.9" y2="101.7"/>
	<line class="cryptotrad0" x1="808.6" y1="97.7" x2="826" y2="93.3"/>
	<line class="cryptotrad0" x1="835" y1="97.2" x2="849.2" y2="109.2"/>
	<line class="cryptotrad0" x1="857.1" y1="107" x2="871.5" y2="88.8"/>
	<line class="cryptotrad0" x1="880" y1="84.6" x2="915.7" y2="84.6"/>
	<line class="cryptotrad0" x1="926.4" y1="86.2" x2="962.2" y2="81.2"/>
	<line class="cryptotrad0" x1="1007.2" y1="105.9" x2="1017.4" y2="86.5"/>
	<line class="cryptotrad0" x1="972.8" y1="81.2" x2="1015.1" y2="82"/>
	<line class="cryptotrad0" x1="1012.4" y1="123" x2="1006.7" y2="115.8"/>
	<line class="cryptotrad0" x1="1012" y1="131.8" x2="995.3" y2="150.3"/>
	<line class="cryptotrad0" x1="989.3" y1="158.5" x2="989.3" y2="182.2"/>
	<line class="cryptotrad0" x1="991.1" y1="192.5" x2="996.4" y2="211.8"/>
	<line class="cryptotrad0" x1="974.3" y1="139.6" x2="961.3" y2="163"/>
	<line class="cryptotrad0" x1="981.5" y1="140.2" x2="988" y2="149.1"/>
	<line class="cryptotrad0" x1="953.6" y1="169.8" x2="932.7" y2="176.1"/>
	<line class="cryptotrad0" x1="926.3" y1="183" x2="917.9" y2="208.5"/>
	<line class="cryptotrad0" x1="941.5" y1="225.5" x2="944.8" y2="236.7"/>
	<line class="cryptotrad0" x1="920.8" y1="216.1" x2="935.3" y2="219.1"/>
	<line class="cryptotrad0" x1="938.8" y1="266.4" x2="945.8" y2="247.3"/>
	<line class="cryptotrad0" x1="921.9" y1="284.8" x2="933" y2="275.2"/>
	<line class="cryptotrad0" x1="920.7" y1="293.2" x2="928.1" y2="306.3"/>
	<line class="cryptotrad0" x1="891.8" y1="298.8" x2="913.2" y2="286.5"/>
	<line class="cryptotrad0" x1="906.2" y1="330.6" x2="892.2" y2="308.9"/>
	<line class="cryptotrad0" x1="906.7" y1="339.4" x2="891.4" y2="360.5"/>
	<line class="cryptotrad0" x1="883.4" y1="367.3" x2="868.7" y2="372"/>
	<line class="cryptotrad0" x1="732.7" y1="220.2" x2="753.2" y2="231.3"/>
	<line class="cryptotrad0" x1="774.3" y1="191.2" x2="760.8" y2="228.5"/>
	<path id="svg-concept" class="cryptotrad1" d="M720.6,202c1.5,3.3,3.1,6.5,4.6,9.8"/>
	<path class="cryptotrad0" d="M720.6,271.3c4.1,0.9,8.1,1.8,12.2,2.7"/>
	<path class="cryptotrad0" d="M729.8,356.4c-3-0.6-14.5-5.8-17.5-6.4"/>
	<line class="cryptotrad0" x1="737.2" y1="351.5" x2="775.8" y2="323.7"/>
	<line class="cryptotrad0" x1="783.2" y1="325.4" x2="799.7" y2="365.8"/>
	<line class="cryptotrad0" x1="867" y1="338.1" x2="864.4" y2="369.7"/>
	<line class="cryptotrad0" x1="861.7" y1="330.7" x2="784.9" y2="320.1"/>
	<line class="cryptotrad0" x1="782.5" y1="314.8" x2="804.2" y2="286.2"/>
	<line id="svg-concept" class="cryptotrad1" x1="812.3" y1="280.1" x2="843.2" y2="277.8"/>
	<line class="cryptotrad0" x1="853.3" y1="280.2" x2="885.1" y2="299.6"/>
	<line class="cryptotrad0" x1="851" y1="283.1" x2="867" y2="327.5"/>
	<line class="cryptotrad0" x1="826.3" y1="362.2" x2="862.8" y2="335.9"/>
	<line class="cryptotrad0" x1="914.6" y1="284.6" x2="895.9" y2="252.4"/>
	<line class="cryptotrad0" x1="851.3" y1="273.3" x2="888.7" y2="250.8"/>
	<line class="cryptotrad0" x1="896.1" y1="242" x2="913.7" y2="219.1"/>
	<line class="cryptotrad0" x1="898.5" y1="247.9" x2="940.6" y2="242"/>
	<line class="cryptotrad0" x1="890.3" y1="242.6" x2="873.8" y2="207.3"/>
	<line id="svg-concept" class="cryptotrad1" x1="873.9" y1="197.9" x2="922.4" y2="178"/>
	<line id="svg-concept" class="cryptotrad1" x1="875.8" y1="202" x2="910.8" y2="211.6"/>
	<line class="cryptotrad0" x1="802.8" y1="226.8" x2="866" y2="204.7"/>
	<line class="cryptotrad0" x1="866.4" y1="198.7" x2="826" y2="180.6"/>
	<line class="cryptotrad0" x1="781.3" y1="183.3" x2="815.5" y2="178"/>
	<line class="cryptotrad0" x1="779.6" y1="190.4" x2="796.3" y2="224.9"/>
	<line class="cryptotrad0" x1="800.6" y1="235.1" x2="807.4" y2="276.6"/>
	<line id="svg-concept" class="cryptotrad1" x1="802.8" y1="232.9" x2="846.1" y2="273.1"/>
	<line class="cryptotrad0" x1="741.9" y1="270.3" x2="756.5" y2="238.7"/>
	<line class="cryptotrad0" x1="743.4" y1="274" x2="802.1" y2="281.9"/>
	<line class="cryptotrad0" x1="741.7" y1="278" x2="775.4" y2="317.1"/>
	<path id="svg-concept" class="cryptotrad1" d="M712.3,232.9c1-1,10.3-10.4,11.3-11.4"/>
	<line id="svg-concept" class="cryptotrad1" x1="776.7" y1="180.6" x2="772.7" y2="141.3"/>
	<line id="svg-concept" class="cryptotrad1" x1="741.3" y1="140.9" x2="767.6" y2="138"/>
	<path class="cryptotrad0" d="M706.3,176.3c17.3,2.6,48.7,4.1,65.9,6.9"/>
	<line class="cryptotrad0" x1="820.7" y1="172.7" x2="826" y2="156.7"/>
	<line class="cryptotrad0" x1="805.4" y1="104.1" x2="823.4" y2="146.1"/>
	<line class="cryptotrad0" x1="851.3" y1="116.5" x2="829.3" y2="146.6"/>
	<line class="cryptotrad0" x1="858.6" y1="114" x2="903.7" y2="129.7"/>
	<line class="cryptotrad0" x1="919.3" y1="89.9" x2="910.8" y2="126.7"/>
	<line id="svg-concept" class="cryptotrad1" x1="924.4" y1="88.6" x2="950.2" y2="110.3"/>
	<line class="cryptotrad0" x1="957.1" y1="118.2" x2="974.9" y2="132"/>
	<line class="cryptotrad0" x1="910.8" y1="137.2" x2="927.7" y2="172.7"/>
	<line class="cryptotrad0" x1="914.2" y1="132" x2="949.1" y2="117.5"/>
	<line id="svg-concept" class="cryptotrad1" x1="956.4" y1="109.2" x2="967.4" y2="86.5"/>
	<line id="svg-concept" class="cryptotrad1" x1="958.7" y1="114.4" x2="998.7" y2="111.2"/>
	<line class="cryptotrad0" x1="277.2" y1="150.9" x2="279.1" y2="161.7"/>
</g>
<line class="cryptotrad2" x1="617.5" y1="625.7" x2="633.4" y2="625.7"/>
<line class="cryptotrad2" x1="617.5" y1="597.1" x2="630.9" y2="597.1"/>
<line class="cryptotrad2" x1="623.6" y1="611.5" x2="633.4" y2="611.5"/>
<path class="cryptotrad2" d="M630.9,597.1c3.8,0,7,3,7,7c0,3.9-3,7.4-7,7.4"/>
<path class="cryptotrad2" d="M633.4,611.5c3.8,0,7,3.6,7,7.4s-3,7-7,7"/>
<line class="cryptotrad2" x1="623.6" y1="591.8" x2="623.6" y2="631"/>
<line class="cryptotrad2" x1="629.1" y1="625.7" x2="629.1" y2="631"/>
<line class="cryptotrad2" x1="629.1" y1="591.8" x2="629.1" y2="597.1"/>
<path class="cryptotrad2" d="M614.1,577c0.6,0,27.7,0,27.7,0c0.5,0,0.8-0.3,0.9-0.6l2.6-7.3c0.5-1.2,0.3-2.4-0.5-3.5
	c-0.8-1.1-1.8-1.7-3.2-1.7h-7.3c-1.8-1.8-4.1-2.7-6.7-2.7c-2.4,0-4.8,1.1-6.7,2.7h-7.3c-1.2,0-2.4,0.6-3.2,1.7
	c-0.8,1.1-0.9,2.4-0.5,3.5l2.6,7.3C613,576.4,613.5,577,614.1,577z"/>
<path class="cryptotrad2" d="M614.4,638.2h32.8c6.2,0,14.8-6.1,14.8-17.6c0-19.7-19.1-36.5-19.4-36.8c-0.3-0.3-0.8-0.3-1.1-0.3h-27.7
	c-0.3,0-0.5,0.2-0.6,0.3c-0.4,0.4-6.3,5.5-11.5,13.3"/>
<path class="cryptotrad2" d="M583.3,640.4c-1.9,5.2-6.9,8.8-12.5,8.8c-7.3,0-13.3-6-13.3-13.3v-14.4c0-7.3,6-13.3,13.3-13.3
	c5.5,0,10.6,3.5,12.5,8.8"/>
<path id="svg-ico_14_" class="cryptotrad2" d="M553.4,625.7h24.7"/>
<path id="svg-ico_13_" class="cryptotrad2" d="M578.1,631.6h-24.7"/>
<line id="svg-concept" class="cryptotrad3" x1="538.8" y1="499.1" x2="572.9" y2="499.1"/>
<line id="svg-concept" class="cryptotrad3" x1="538.8" y1="438.2" x2="567" y2="438.2"/>
<line id="svg-concept" class="cryptotrad3" x1="551.6" y1="468.8" x2="572.9" y2="468.8"/>
<path id="svg-concept" class="cryptotrad3" d="M567,438.2c8.2,0,14.6,6.7,14.6,14.6s-6.7,15.7-14.6,15.7"/>
<path id="svg-concept" class="cryptotrad3" d="M572.9,468.8c8.2,0,14.6,7.6,14.6,15.7s-6.7,14.6-14.6,14.6"/>
<line id="svg-concept" class="cryptotrad3" x1="551.6" y1="427.1" x2="551.6" y2="510.1"/>
<line id="svg-concept" class="cryptotrad3" x1="563.2" y1="499.1" x2="563.2" y2="510.1"/>
<line id="svg-concept" class="cryptotrad3" x1="563.2" y1="427.1" x2="563.2" y2="438.2"/>
<path class="cryptotrad4" d="M481.4,477.8c4.7,41.6,39.6,73.1,81.5,73.1c45.1,0,82.1-37,82.1-82.1c0-45.4-37-82.1-82.1-82.1
	c-41.9,0-77.1,31.4-81.5,73.1"/>
<path class="cryptotrad4" d="M563.2,528.8c33.2,0,60-27.1,60-60c0-33.2-27.1-60-60-60c-33.2,0-60,27.1-60,60
	C503,502,530.1,528.8,563.2,528.8L563.2,528.8z"/>
<polyline id="svg-concept" class="cryptotrad5" points="696.1,449.8 685.8,498 714.4,498 "/>
<line id="svg-concept" class="cryptotrad5" x1="672.9" y1="481.2" x2="706.8" y2="469.3"/>
<polygon id="svg-concept" class="cryptotrad5" points="435.1,443.1 414.9,476.8 435.1,488.2 455.3,476.3 "/>
<polygon id="svg-concept" class="cryptotrad5" points="414.9,483.1 435.1,509.7 455.3,482.7 435.1,494.6 "/>
<line id="svg-concept" class="cryptotrad5" x1="435.1" y1="443.1" x2="435.1" y2="488.2"/>
<line id="svg-concept" class="cryptotrad5" x1="435.1" y1="494.6" x2="435.1" y2="509.7"/>
<polyline id="svg-concept" class="cryptotrad5" points="414.9,476.8 435.1,467.5 455.3,476.3 "/>
<path class="cryptotrad2" d="M472.1,429.1c-10.7-9-24.6-14.4-39.6-14.4c-31.5,0-57.9,23.7-61.2,54.9"/>
<path class="cryptotrad2" d="M371.3,483.3c3.5,31.3,29.8,54.9,61.3,54.8c17.8,0,33.9-7.7,45.2-19.9"/>
<path class="cryptotrad2" d="M466.6,446.7c-8.3-9.4-20.4-15.3-33.8-15.3c-24.9,0-45,20.4-45,45.1c-0.2,24.9,20.2,45,45.1,45l0,0
	c15.4,0,29-7.8,37.1-19.6"/>
<path class="cryptotrad2" d="M656.1,523.8c10.7,9,24.6,14.4,39.6,14.4c31.5,0,57.9-23.7,61.2-54.9"/>
<path class="cryptotrad2" d="M756.9,469.6c-3.5-31.3-29.8-54.9-61.3-54.8c-17.8,0-33.9,7.7-45.2,19.9"/>
<path class="cryptotrad2" d="M661.6,506.2c8.3,9.4,20.4,15.3,33.8,15.3c24.9,0,45-20.4,45-45.1c0.2-24.9-20.2-45-45.1-45l0,0
	c-15.4,0-29,7.8-37.1,19.6"/>
<path class="cryptotrad0" d="M438.8,307.3v84.5"/>
<path class="cryptotrad0" d="M438.8,181.9v44.8"/>
<path class="cryptotrad2" d="M618,335.9H498.3"/>
<path class="cryptotrad0" d="M589.5,81.3H491"/>
<path class="cryptotrad0" d="M682.1,286.2V102.7c0-11.8-9.6-21.5-21.5-21.5"/>
<path class="cryptotrad0" d="M682.1,397.1v-56.4"/>
<path id="svg-concept_60_" class="cryptotrad6" d="M483.8,124.2h164.5v278.2"/>
<path id="svg-concept_59_" class="cryptotrad6" d="M472.1,397.9V137.2"/>
<path class="cryptotrad0" d="M495.1,143.1l-3.8,3.9 M510.7,143.1l-21.3,21.3"/>
<path class="cryptotrad2" d="M521,317.4h-18.3c-1.4,0-2.5-1.1-2.5-2.5v-31.1c0-1.4,1.1-2.5,2.5-2.5H521c1.4,0,2.5,1.1,2.5,2.5v31.1
	C523.5,316.3,522.4,317.4,521,317.4z"/>
<path class="cryptotrad2" d="M568.3,317.4H550c-1.4,0-2.5-1.1-2.5-2.5v-61.6c0-1.4,1.1-2.5,2.5-2.5h18.3c1.4,0,2.5,1.1,2.5,2.5v61.6
	C570.8,316.3,569.7,317.4,568.3,317.4z"/>
<path id="svg-concept" class="cryptotrad5" d="M615.5,317.4h-18.3c-1.4,0-2.5-1.1-2.5-2.5v-98.5c0-1.4,1.1-2.5,2.5-2.5h18.3c1.4,0,2.5,1.1,2.5,2.5v98.5
	C618,316.3,616.9,317.4,615.5,317.4z"/>
<g>
	<path id="svg-concept" class="cryptotrad5" d="M609.2,158.3L559.1,212l-13.5-12.6l-47.3,46"/>
	<line id="svg-concept" class="cryptotrad5" x1="609.2" y1="158.3" x2="596.5" y2="159.8"/>
	<line id="svg-concept" class="cryptotrad5" x1="609.2" y1="158.3" x2="609.2" y2="171.1"/>
</g>
<polyline class="cryptotrad2" points="418.3,256.7 439.3,256.7 418.3,279.7 438.9,279.7 "/>
<line class="cryptotrad2" x1="428.8" y1="279.7" x2="428.8" y2="287.5"/>
<line class="cryptotrad2" x1="428.8" y1="248.4" x2="428.8" y2="256.7"/>
<circle class="cryptotrad2" cx="428.8" cy="267.6" r="29"/>
<circle class="cryptotrad2" cx="570.5" cy="628.1" r="37"/>
<g>
	<polyline class="cryptotrad2" points="630.3,85.8 617.9,85.8 617.9,74.3 	"/>
	<line class="cryptotrad2" x1="617.9" y1="50.1" x2="627" y2="50.1"/>
	<line class="cryptotrad2" x1="610.4" y1="67.9" x2="630.3" y2="67.9"/>
	<path class="cryptotrad2" d="M627,50.1c4.7,0,8.6,3.9,8.6,8.6s-3.9,9.2-8.6,9.2"/>
	<path class="cryptotrad2" d="M630.3,67.9c4.7,0,8.6,4.5,8.6,9.2s-3.9,8.6-8.6,8.6"/>
	<line class="cryptotrad2" x1="617.9" y1="50.1" x2="617.9" y2="67.9"/>
	<circle class="cryptotrad2" cx="625.7" cy="68.3" r="29"/>
</g>
<g>
	<path class="cryptotrad2" d="M698.4,306c0-3.4-2.7-6.1-6.1-6.1c-3.4,0-6.1,2.7-6.1,6.1c0,3.2,2.6,5.7,6.1,6.1c3.9,0.4,6.6,3,6.6,6.4
		c0,3.5-2.8,6.4-6.4,6.4l0,0c-3.5,0-6.4-2.8-6.4-6.4"/>
	<path id="svg-ico_12_" class="cryptotrad2" d="M692.7,324.8v3.4"/>
	<path id="svg-ico_11_" class="cryptotrad2" d="M692.7,296.2v3.7"/>
	<circle class="cryptotrad2" cx="692.6" cy="312.9" r="22.2"/>
</g>
<path class="cryptotrad0" d="M685.3,141.1c1.8,0,3.3,1.5,3.3,3.3v14.5c0,1.8-1.5,3.3-3.3,3.3"/>
<path class="cryptotrad0" d="M685.3,173.8c1.8,0,3.3,1.5,3.3,3.3v14.5c0,1.8-1.5,3.3-3.3,3.3"/>
<path class="cryptotrad2" d="M528.1,636c-2.8,0.1-5.6,0.2-8.6,0.2c-26.1,0-47.3-4.2-47.3-9.4c0-0.6,0.3-1.3,1-1.9"/>
<path class="cryptotrad2" d="M528.1,620.1c-8.2,1.3-18.6,2.1-29.9,2.1c-26.1,0-47.3-4.2-47.3-9.4c0-3.2,8.2-6.1,20.7-7.8"/>
<path class="cryptotrad2" d="M532.9,607.9c-4.2,0.2-8.7,0.4-13.3,0.4c-26.1,0-47.3-4.2-47.3-9.4c0-1.4,1.5-2.7,4.2-3.9"/>
<ellipse id="svg-concept" class="cryptotrad5" cx="510" cy="584.9" rx="47.3" ry="9.4"/>
</svg>
