<?xml version="1.0" encoding="utf-8"?>
<!-- Generator: Adobe Illustrator 24.3.0, SVG Export Plug-In . SVG Version: 6.00 Build 0)  -->
<svg version="1.1" id="Layer_1" xmlns="http://www.w3.org/2000/svg" xmlns:xlink="http://www.w3.org/1999/xlink" x="0px" y="0px"
	 viewBox="0 0 438.8 435.8" style="enable-background:new 0 0 438.8 435.8;" xml:space="preserve">
<style type="text/css">
	.cryptoinvest0{fill:none;stroke:#808080;stroke-width:2;stroke-linecap:round;stroke-linejoin:round;stroke-miterlimit:10;}
	.cryptoinvest1{fill:none;stroke:#808080;stroke-linecap:round;stroke-linejoin:round;stroke-miterlimit:10;}
	.cryptoinvest2{fill:none;stroke:#55bde5;stroke-width:3;stroke-linecap:round;stroke-linejoin:round;stroke-miterlimit:10;}
	.cryptoinvest3{fill:none;stroke:#55bde5;stroke-width:2;stroke-linecap:round;stroke-linejoin:round;stroke-miterlimit:10;}
	.cryptoinvest4{fill:#55bde5;}
</style>
<g>
	<path class="cryptoinvest0" d="M244.8,360H68.6"/>
	<path class="cryptoinvest1" d="M89.3,388.1v22.6c0,12.5,10.2,22.6,22.6,22.6l210.9,0c12.5,0,22.6-10.2,22.6-22.6v-358
		c0-12.5-10.2-22.6-22.6-22.6"/>
	<path class="cryptoinvest1" d="M89.3,133.2v77.4"/>
	<path class="cryptoinvest1" d="M236.2,30.1H111.9c-12.5,0-22.6,10.2-22.6,22.6"/>
	<path class="cryptoinvest1" d="M345.4,362.5V310"/>
	<path class="cryptoinvest1" d="M124.4,175.1v-82c0-9.8,7.9-17.7,17.7-17.7h150c9.8,0,17.7,7.9,17.7,17.7v277.3
		c0,9.8-7.9,17.7-17.7,17.7h-150"/>
	<path class="cryptoinvest0" d="M103.3,335.9H74c-1.4,0-2.5-1.1-2.5-2.5v-48.2c0-1.4,1.1-2.5,2.5-2.5h29.3c1.4,0,2.5,1.1,2.5,2.5v48.2
		C105.8,334.8,104.6,335.9,103.3,335.9z"/>
	<path class="cryptoinvest0" d="M172.8,335.9h-29.3c-1.4,0-2.5-1.1-2.5-2.5v-93c0-1.4,1.1-2.5,2.5-2.5h29.3c1.4,0,2.5,1.1,2.5,2.5v93
		C175.3,334.8,174.2,335.9,172.8,335.9z"/>
	<path id="svg-concept" class="cryptoinvest2" d="M241.2,335.9h-26.9c-2,0-3.7-1.6-3.7-3.7v-145c0-2,1.6-3.7,3.7-3.7h26.9c2,0,3.7,1.6,3.7,3.7v145
		C244.8,334.3,243.2,335.9,241.2,335.9z"/>
	<g>
		<path id="svg-concept" class="cryptoinvest2" d="M244.8,117.8l-79.6,85.3l-21.4-20l-75.2,73.1"/>
		<line id="svg-concept" class="cryptoinvest2" x1="244.8" y1="117.8" x2="224.7" y2="120.3"/>
		<line id="svg-concept" class="cryptoinvest2" x1="244.8" y1="117.8" x2="244.8" y2="138.2"/>
	</g>
	<path class="cryptoinvest1" d="M348.8,93.1c1.9,0,3.5,1.6,3.5,3.5v15.2c0,1.9-1.6,3.5-3.5,3.5"/>
	<path class="cryptoinvest1" d="M348.8,127.5c1.9,0,3.5,1.6,3.5,3.5v15.2c0,1.9-1.6,3.5-3.5,3.5"/>
	<line id="svg-concept" class="cryptoinvest3" x1="362.4" y1="375.9" x2="382.9" y2="375.9"/>
	<line id="svg-concept" class="cryptoinvest3" x1="362.4" y1="338.9" x2="379.6" y2="338.9"/>
	<line id="svg-concept" class="cryptoinvest3" x1="370.2" y1="357.5" x2="382.9" y2="357.5"/>
	<path id="svg-concept" class="cryptoinvest3" d="M379.6,338.9c4.9,0,9,3.9,9,9s-3.9,9.6-9,9.6"/>
	<path id="svg-concept" class="cryptoinvest3" d="M382.9,357.5c4.9,0,9,4.7,9,9.6s-3.9,9-9,9"/>
	<line id="svg-concept" class="cryptoinvest3" x1="370.2" y1="332.1" x2="370.2" y2="382.7"/>
	<line id="svg-concept" class="cryptoinvest3" x1="377.2" y1="375.9" x2="377.2" y2="382.7"/>
	<line id="svg-concept" class="cryptoinvest3" x1="377.2" y1="332.1" x2="377.2" y2="338.9"/>
	<path class="cryptoinvest1" d="M357.9,312.9c0.8,0,35.8,0,35.8,0c0.6,0,1-0.4,1.2-0.8l3.3-9.4c0.6-1.6,0.4-3.1-0.6-4.5
		c-1-1.4-2.3-2.2-4.1-2.2h-9.4c-2.3-2.3-5.3-3.5-8.6-3.5c-3.1,0-6.3,1.4-8.6,3.5h-9.4c-1.6,0-3.1,0.8-4.1,2.2
		c-1,1.4-1.2,3.1-0.6,4.5l3.3,9.4C356.5,312.1,357.1,312.9,357.9,312.9z"/>
	<path class="cryptoinvest1" d="M358.3,391.9h42.4c8,0,19.2-7.8,19.2-22.7c0-25.4-24.6-47.1-25-47.5c-0.4-0.4-1-0.4-1.4-0.4h-35.8"/>
</g>
<g>
	<polyline id="svg-concept" class="cryptoinvest3" points="49.7,80.5 75.6,80.5 49.7,108.8 75.1,108.8 	"/>
	<line id="svg-concept" class="cryptoinvest3" x1="62.6" y1="108.8" x2="62.6" y2="118.3"/>
	<line id="svg-concept" class="cryptoinvest3" x1="62.6" y1="70.5" x2="62.6" y2="80.1"/>
	<circle id="svg-concept" class="cryptoinvest3" cx="62.6" cy="93.8" r="35.6"/>
	<animateMotion accumulate="none" additive="replace" begin="0s" calcMode="paced" dur="4s" fill="remove" path="M0, 0 -25 0 0 0" repeatCount="indefinite" restart="always">
	</animateMotion>
</g>
<g>
	<polyline id="svg-concept" class="cryptoinvest3" points="284.8,45.4 273.9,45.4 273.9,35.3 	"/>
	<line id="svg-concept" class="cryptoinvest3" x1="273.9" y1="14.2" x2="281.9" y2="14.2"/>
	<line id="svg-concept" class="cryptoinvest3" x1="267.5" y1="29.8" x2="284.8" y2="29.8"/>
	<path id="svg-concept" class="cryptoinvest3" d="M281.9,14.2c4.1,0,7.5,3.4,7.5,7.5s-3.4,8.1-7.5,8.1"/>
	<path id="svg-concept" class="cryptoinvest3" d="M284.8,29.8c4.1,0,7.5,3.9,7.5,8.1s-3.4,7.5-7.5,7.5"/>
	<line id="svg-concept" class="cryptoinvest3" x1="273.9" y1="14.2" x2="273.9" y2="29.8"/>
	<circle id="svg-concept" class="cryptoinvest3" cx="280.8" cy="30.1" r="25.2"/>
	<animateMotion accumulate="none" additive="replace" begin="0s" calcMode="paced" dur="3s" fill="remove" path="M0, 10 0 0 0 10" repeatCount="indefinite" restart="always">
	</animateMotion>
</g>
<g>
	<path id="svg-concept" class="cryptoinvest3" d="M406.8,166.9c0-3.5-2.9-6.5-6.5-6.5c-3.5,0-6.4,2.9-6.4,6.5c0,3.4,2.7,6,6.5,6.5c4.1,0.5,6.9,3.1,6.9,6.7
		c0,3.7-3,6.7-6.7,6.7l0,0c-3.7,0-6.7-3-6.7-6.7"/>
	<path id="svg-concept" class="cryptoinvest3" d="M400.8,186.7v3.5"/>
	<path id="svg-concept" class="cryptoinvest3" d="M400.8,156.6v3.9"/>
	<circle id="svg-concept" class="cryptoinvest3" cx="400.6" cy="174.1" r="23.3"/>
	<animateMotion accumulate="none" additive="replace" begin="0s" calcMode="paced" dur="5s" fill="remove" path="M0, 30 0 0 0 30" repeatCount="indefinite" restart="always">
	</animateMotion>
</g>
<g>
	<path id="svg-ico" class="cryptoinvest4" d="M249.8,360.5c0,3.3-2.6,6-6,6c-3.3,0-6-2.6-6-6c0-3.3,2.6-6,6-6S249.8,357.2,249.8,360.5z"/>
		<animateMotion accumulate="none" additive="replace" begin="0s" calcMode="paced" dur="8s" fill="remove" path="M0, 0 -175 0 0 0" repeatCount="indefinite" restart="always">
		</animateMotion>
</g>
</svg>
