<?xml version="1.0" encoding="utf-8"?>
<!-- Generator: Adobe Illustrator 24.3.0, SVG Export Plug-In . SVG Version: 6.00 Build 0)  -->
<svg version="1.1" id="Layer_1" xmlns="http://www.w3.org/2000/svg" xmlns:xlink="http://www.w3.org/1999/xlink" x="0px" y="0px"
	 viewBox="0 0 646.6 652.5" style="enable-background:new 0 0 646.6 652.5;" xml:space="preserve">
<style type="text/css">
	.vpnserver0{fill:none;stroke:#55bde5;stroke-width:4;stroke-linecap:round;stroke-linejoin:round;stroke-miterlimit:10;}
	.vpnserver1{fill:none;stroke:#808080;stroke-linecap:round;stroke-linejoin:round;stroke-miterlimit:10;}
	.vpnserver2{fill:none;stroke:#808080;stroke-width:2;stroke-miterlimit:10;}
	.vpnserver3{fill:none;stroke:#808080;stroke-width:2;stroke-linecap:round;stroke-linejoin:round;stroke-miterlimit:10;}
	.vpnserver4{fill:none;stroke:#808080;stroke-width:3;stroke-linecap:round;stroke-linejoin:round;stroke-miterlimit:10;}
	.vpnserver5{fill:none;stroke:#55bde5;stroke-linecap:round;stroke-linejoin:round;stroke-miterlimit:10;}
	.vpnserver6{fill:none;stroke:#55bde5;stroke-width:2;stroke-linecap:round;stroke-linejoin:round;stroke-miterlimit:10;}
</style>

<g>
<path id="svg-concept" class="vpnserver0" d="M128.3,197.3c33.6,34.3,114.3,33.6,114.3,33.6v111.8c0,61.8-114.5,111.8-114.5,111.8
	s-108.7-50-108.7-111.8V230.9C19.5,230.9,94.7,231.6,128.3,197.3"/>
<path class="vpnserver1" d="M128.5,234.7c27,27.7,84,27,84,27l0.2,75.4c0,44.9-84.8,80.6-84.8,80.6s-79.4-35.9-79.4-80.6l-0.2-75.4
	C48.5,261.7,101.6,262.2,128.5,234.7"/>
<line class="vpnserver1" x1="82.3" y1="279.4" x2="74.9" y2="286.9"/>
<line class="vpnserver1" x1="106.9" y1="274.3" x2="65.9" y2="315.3"/>
<circle id="svg-concept" class="vpnserver6" cx="128.2" cy="336.2" r="24.1"/>
<path id="svg-concept" class="vpnserver6" d="M128.2,332.3v11.1 M116.6,308.2v-7.5c0-4.1,3.3-7.5,7.5-7.5h8.2c4.1,0,7.5,3.3,7.5,7.5
		v7.5"/>
<animateMotion  accumulate="none" additive="replace" begin="1s" calcMode="paced" dur="3s" fill="remove" path="M0, 0 -10 0 0 0 10 0 0 0 -10" repeatCount="indefinite" restart="always">
</animateMotion>
</g>


<path class="vpnserver2" d="M436.7,59.5h205.7l0.1,411.9l0,0H436.7"/>
<path class="vpnserver3" d="M624.7,110.7c0,2.7-1.9,5-4.6,5h-162c-2.7,0-4.6-2.3-4.6-5V86.3c0-2.7,1.9-5,4.6-5h161.7c2.7,0,4.6,2.3,4.6,5
	L624.7,110.7L624.7,110.7z"/>
<path class="vpnserver1" d="M463.1,81.1v34.4 M615.2,81.1v34.5"/>
<path class="vpnserver3" d="M624.7,166.5c0,2.7-1.9,5-4.6,5h-162c-2.7,0-4.6-2.3-4.6-5v-24.4c0-2.7,1.9-5,4.6-5h161.7c2.7,0,4.6,2.3,4.6,5
	L624.7,166.5L624.7,166.5z"/>
<path class="vpnserver1" d="M463.1,136.9v34.4 M615.2,136.9v34.5"/>
<path class="vpnserver3" d="M624.7,222.1c0,2.7-1.9,5-4.6,5h-162c-2.7,0-4.6-2.3-4.6-5v-24.4c0-2.7,1.9-5,4.6-5h161.7c2.7,0,4.6,2.3,4.6,5
	L624.7,222.1L624.7,222.1z"/>
<path class="vpnserver1" d="M463.1,192.6V227 M615.2,192.6v34.5"/>
<path class="vpnserver3" d="M624.7,278c0,2.7-1.9,5-4.6,5h-162c-2.7,0-4.6-2.3-4.6-5v-24.4c0-2.7,1.9-5,4.6-5h161.7c2.7,0,4.6,2.3,4.6,5
	L624.7,278L624.7,278z"/>
<path class="vpnserver1" d="M463.1,248.3v34.4 M615.2,248.3v34.5"/>
<path class="vpnserver3" d="M624.7,333.7c0,2.7-1.9,5-4.6,5h-162c-2.7,0-4.6-2.3-4.6-5v-24.4c0-2.7,1.9-5,4.6-5h161.7c2.7,0,4.6,2.3,4.6,5
	L624.7,333.7L624.7,333.7z"/>
<path class="vpnserver1" d="M463.1,304.1v34.4 M615.2,304.1v34.5"/>
<path class="vpnserver3" d="M624.7,389.5c0,2.7-1.9,5-4.6,5h-162c-2.7,0-4.6-2.3-4.6-5v-24.4c0-2.7,1.9-5,4.6-5h161.7c2.7,0,4.6,2.3,4.6,5
	L624.7,389.5L624.7,389.5z"/>
<path class="vpnserver1" d="M463.1,359.8v34.4 M615.2,359.8v34.5"/>
<path class="vpnserver3" d="M624.7,445.2c0,2.7-1.9,5-4.6,5h-162c-2.7,0-4.6-2.3-4.6-5v-24.5c0-2.7,1.9-5,4.6-5h161.7c2.7,0,4.6,2.3,4.6,5
	L624.7,445.2L624.7,445.2z"/>
<path class="vpnserver1" d="M463.1,415.5V450 M615.2,415.5v34.5"/>
<path class="vpnserver4" d="M128.2,176.5V3.5h308.4v611.7l-0.2,32.6l0,0H128.2V478.6"/>
<path class="vpnserver1" d="M422.7,359.2v10.3 M422.7,328.2V354 M425.2,356.7c0,1.4-1.2,2.7-2.7,2.7s-2.7-1.2-2.7-2.7s1.2-2.7,2.7-2.7
	C424.1,354,425.2,355.2,425.2,356.7z"/>
<path id="svg-concept" class="vpnserver5" d="M220.3,71.7L220.3,71.7c-1.1,0-1.7-0.6-1.7-1.5v-0.1c0-0.9,0.6-1.5,1.5-1.5h0.2c0.9,0,1.5,0.6,1.5,1.5v0.2
	C222.1,71.1,221.3,71.7,220.3,71.7z"/>
<path id="svg-concept" class="vpnserver5" d="M215.8,89.7h-0.3c-1.2,0-2.2-1.1-2.2-2.2v-0.3c0-1.2,1.1-2.2,2.2-2.2h0.3c1.2,0,2.2,1.1,2.2,2.2v0.2
	C218.1,88.8,217.1,89.7,215.8,89.7z"/>
<path id="svg-concept" class="vpnserver5" d="M278.2,71.7L278.2,71.7c-1.1,0-1.7-0.6-1.7-1.5v-0.1c0-0.9,0.6-1.5,1.5-1.5h0.2c0.9,0,1.5,0.6,1.5,1.5v0.2
	C279.9,71.1,279.1,71.7,278.2,71.7z"/>
<path id="svg-concept" class="vpnserver5" d="M273.7,89.7h-0.3c-1.2,0-2.2-1.1-2.2-2.2v-0.3c0-1.2,1.1-2.2,2.2-2.2h0.3c1.2,0,2.2,1.1,2.2,2.2v0.2
	C275.8,88.8,274.9,89.7,273.7,89.7z"/>
<path id="svg-concept" class="vpnserver5" d="M336,71.7L336,71.7c-1.1,0-1.7-0.6-1.7-1.5v-0.1c0-0.9,0.6-1.5,1.5-1.5h0.2c0.9,0,1.5,0.6,1.5,1.5v0.2
	C337.5,71.1,336.9,71.7,336,71.7z"/>
<path id="svg-concept" class="vpnserver5" d="M331.5,89.7h-0.3c-1.2,0-2.2-1.1-2.2-2.2v-0.3c0-1.2,1.1-2.2,2.2-2.2h0.3c1.2,0,2.2,1.1,2.2,2.2v0.2
	C333.6,88.8,332.7,89.7,331.5,89.7z"/>
<path class="vpnserver3" d="M409.6,94.7c0,4.2-3,7.5-6.9,7.5H160.6c-3.9,0-6.9-3.4-6.9-7.5v-37c0-4.2,3-7.5,6.9-7.5h242.1
	c3.9,0,6.9,3.4,6.9,7.5V94.7L409.6,94.7z"/>
<line class="vpnserver1" x1="167.9" y1="50.2" x2="167.9" y2="101.9"/>
<line class="vpnserver1" x1="395.4" y1="50.2" x2="395.4" y2="102.3"/>
<path class="vpnserver1" d="M216.8,92.9h-38.9c-3,0-5.2-2.4-5.2-5.2v-0.5c0-3,2.4-5.2,5.2-5.2h38.9c3,0,5.2,2.4,5.2,5.2v0.5
	C222.1,90.5,219.7,92.9,216.8,92.9z"/>
<path class="vpnserver1" d="M178.4,71.7L178.4,71.7c-1.1,0-1.7-0.6-1.7-1.5v-0.1c0-0.9,0.6-1.5,1.5-1.5h0.2c0.9,0,1.5,0.6,1.5,1.5v0.2
	C180,71.1,179.3,71.7,178.4,71.7z"/>
<path class="vpnserver1" d="M185.1,71.7L185.1,71.7c-1.1,0-1.7-0.6-1.7-1.5v-0.1c0-0.9,0.6-1.5,1.5-1.5h0.2c0.9,0,1.5,0.6,1.5,1.5v0.2
	C186.7,71.1,186,71.7,185.1,71.7z"/>
<path class="vpnserver1" d="M194.6,71.7L194.6,71.7c-1.1,0-1.7-0.6-1.7-1.5v-0.1c0-0.9,0.6-1.5,1.5-1.5h0.2c0.9,0,1.5,0.6,1.5,1.5v0.2
	C196.2,71.1,195.5,71.7,194.6,71.7z"/>
<path class="vpnserver1" d="M178.4,64.4L178.4,64.4c-1.1,0-1.7-0.6-1.7-1.5v-0.2c0-0.9,0.6-1.5,1.5-1.5h0.2c0.9,0,1.5,0.6,1.5,1.5v0.2
	C180,63.8,179.3,64.4,178.4,64.4z"/>
<path class="vpnserver1" d="M185.1,64.4L185.1,64.4c-1.1,0-1.7-0.6-1.7-1.5v-0.2c0-0.9,0.6-1.5,1.5-1.5h0.2c0.9,0,1.5,0.6,1.5,1.5v0.2
	C186.7,63.8,186,64.4,185.1,64.4z"/>
<path class="vpnserver1" d="M220.3,64.4L220.3,64.4c-1.1,0-1.7-0.6-1.7-1.5v-0.2c0-0.9,0.6-1.5,1.5-1.5h0.2c0.9,0,1.5,0.6,1.5,1.5v0.2
	C221.9,63.8,221.2,64.4,220.3,64.4z"/>
<path class="vpnserver1" d="M201.5,71.7L201.5,71.7c-1.1,0-1.7-0.6-1.7-1.5v-0.1c0-0.9,0.6-1.5,1.5-1.5h0.2c0.9,0,1.5,0.6,1.5,1.5v0.2
	C203,71.1,202.4,71.7,201.5,71.7z"/>
<path class="vpnserver1" d="M208.2,71.7L208.2,71.7c-1.1,0-1.7-0.6-1.7-1.5v-0.1c0-0.9,0.6-1.5,1.5-1.5h0.2c0.9,0,1.5,0.6,1.5,1.5v0.2
	C209.7,71.1,208.9,71.7,208.2,71.7z"/>
<path class="vpnserver1" d="M208.2,71.7L208.2,71.7c-1.1,0-1.7-0.6-1.7-1.5v-0.1c0-0.9,0.6-1.5,1.5-1.5h0.2c0.9,0,1.5,0.6,1.5,1.5v0.2
	C209.8,71.1,209.1,71.7,208.2,71.7z"/>
<path class="vpnserver1" d="M208.2,64.4H195c-0.9,0-1.5-0.6-1.5-1.5v-0.2c0-0.9,0.6-1.5,1.5-1.5h13.1c0.9,0,1.5,0.6,1.5,1.5v0.2
	C209.8,63.8,209.1,64.4,208.2,64.4z"/>
<line class="vpnserver1" x1="190" y1="82" x2="190" y2="92.9"/>
<path class="vpnserver1" d="M207.3,89.7H207c-1.2,0-2.2-1.1-2.2-2.2v-0.3c0-1.2,1.1-2.2,2.2-2.2h0.3c1.2,0,2.2,1.1,2.2,2.2v0.2
	C209.5,88.8,208.6,89.7,207.3,89.7z"/>
<path class="vpnserver1" d="M274.6,92.9h-38.9c-3,0-5.2-2.4-5.2-5.2v-0.5c0-3,2.4-5.2,5.2-5.2h38.9c3,0,5.2,2.4,5.2,5.2v0.5
	C279.9,90.5,277.6,92.9,274.6,92.9z"/>
<path class="vpnserver1" d="M236.1,71.7h-0.3c-0.9,0-1.5-0.6-1.5-1.5v-0.1c0-0.9,0.6-1.5,1.5-1.5h0.2c0.9,0,1.5,0.6,1.5,1.5v0.2
	C237.7,71.1,237,71.7,236.1,71.7z"/>
<path class="vpnserver1" d="M242.8,71.7L242.8,71.7c-1.1,0-1.7-0.6-1.7-1.5v-0.1c0-0.9,0.6-1.5,1.5-1.5h0.2c0.9,0,1.5,0.6,1.5,1.5v0.2
	C244.3,71.1,243.7,71.7,242.8,71.7z"/>
<path class="vpnserver1" d="M252.3,71.7L252.3,71.7c-1.1,0-1.7-0.6-1.7-1.5v-0.1c0-0.9,0.6-1.5,1.5-1.5h0.2c0.9,0,1.5,0.6,1.5,1.5v0.2
	C254,71.1,253.4,71.7,252.3,71.7z"/>
<path class="vpnserver1" d="M236.1,64.4h-0.3c-0.9,0-1.5-0.6-1.5-1.5v-0.2c0-0.9,0.6-1.5,1.5-1.5h0.2c0.9,0,1.5,0.6,1.5,1.5v0.2
	C237.7,63.8,237,64.4,236.1,64.4z"/>
<path class="vpnserver1" d="M242.8,64.4L242.8,64.4c-1.1,0-1.7-0.6-1.7-1.5v-0.2c0-0.9,0.6-1.5,1.5-1.5h0.2c0.9,0,1.5,0.6,1.5,1.5v0.2
	C244.3,63.8,243.7,64.4,242.8,64.4z"/>
<path class="vpnserver1" d="M278.2,64.4h-0.3c-0.9,0-1.5-0.6-1.5-1.5v-0.2c0-0.9,0.6-1.5,1.5-1.5h0.2c0.9,0,1.5,0.6,1.5,1.5v0.2
	C279.6,63.8,278.9,64.4,278.2,64.4z"/>
<path class="vpnserver1" d="M259.3,71.7L259.3,71.7c-1.1,0-1.7-0.6-1.7-1.5v-0.1c0-0.9,0.6-1.5,1.5-1.5h0.2c0.9,0,1.5,0.6,1.5,1.5v0.2
	C260.8,71.1,260,71.7,259.3,71.7z"/>
<path class="vpnserver1" d="M266,71.7L266,71.7c-1.1,0-1.7-0.6-1.7-1.5v-0.1c0-0.9,0.6-1.5,1.5-1.5h0.2c0.9,0,1.5,0.6,1.5,1.5v0.2
	C267.5,71.1,266.7,71.7,266,71.7z"/>
<path class="vpnserver1" d="M266,71.7L266,71.7c-1.1,0-1.7-0.6-1.7-1.5v-0.1c0-0.9,0.6-1.5,1.5-1.5h0.2c0.9,0,1.5,0.6,1.5,1.5v0.2
	C267.6,71.1,266.9,71.7,266,71.7z"/>
<path class="vpnserver1" d="M266,64.4h-13.1c-0.9,0-1.5-0.6-1.5-1.5v-0.2c0-0.9,0.6-1.5,1.5-1.5H266c0.9,0,1.5,0.6,1.5,1.5v0.2
	C267.6,63.8,266.9,64.4,266,64.4z"/>
<line class="vpnserver1" x1="247.8" y1="82" x2="247.8" y2="92.9"/>
<path class="vpnserver1" d="M265.1,89.7h-0.3c-1.2,0-2.2-1.1-2.2-2.2v-0.3c0-1.2,1.1-2.2,2.2-2.2h0.3c1.2,0,2.2,1.1,2.2,2.2v0.2
	C267.3,88.8,266.4,89.7,265.1,89.7z"/>
<path class="vpnserver1" d="M332.2,92.9h-38.9c-3,0-5.2-2.4-5.2-5.2v-0.5c0-3,2.4-5.2,5.2-5.2h38.9c3,0,5.2,2.4,5.2,5.2v0.5
	C337.5,90.5,335.2,92.9,332.2,92.9z"/>
<path class="vpnserver1" d="M294,71.7L294,71.7c-1.1,0-1.7-0.6-1.7-1.5v-0.1c0-0.9,0.6-1.5,1.5-1.5h0.2c0.9,0,1.5,0.6,1.5,1.5v0.2
	C295.5,71.1,294.8,71.7,294,71.7z"/>
<path class="vpnserver1" d="M300.6,71.7L300.6,71.7c-1.1,0-1.7-0.6-1.7-1.5v-0.1c0-0.9,0.6-1.5,1.5-1.5h0.2c0.9,0,1.5,0.6,1.5,1.5v0.2
	C302.4,71.1,301.5,71.7,300.6,71.7z"/>
<path class="vpnserver1" d="M310.3,71.7L310.3,71.7c-1.1,0-1.7-0.6-1.7-1.5v-0.1c0-0.9,0.6-1.5,1.5-1.5h0.2c0.9,0,1.5,0.6,1.5,1.5v0.2
	C311.8,71.1,311.2,71.7,310.3,71.7z"/>
<path class="vpnserver1" d="M294,64.4L294,64.4c-1.1,0-1.7-0.6-1.7-1.5v-0.2c0-0.9,0.6-1.5,1.5-1.5h0.2c0.9,0,1.5,0.6,1.5,1.5v0.2
	C295.5,63.8,294.8,64.4,294,64.4z"/>
<path class="vpnserver1" d="M300.6,64.4L300.6,64.4c-1.1,0-1.7-0.6-1.7-1.5v-0.2c0-0.9,0.6-1.5,1.5-1.5h0.2c0.9,0,1.5,0.6,1.5,1.5v0.2
	C302.4,63.8,301.5,64.4,300.6,64.4z"/>
<path class="vpnserver1" d="M336,64.4L336,64.4c-1.1,0-1.7-0.6-1.7-1.5v-0.2c0-0.9,0.6-1.5,1.5-1.5h0.2c0.9,0,1.5,0.6,1.5,1.5v0.2
	C337.5,63.8,336.7,64.4,336,64.4z"/>
<path class="vpnserver1" d="M317,71.7L317,71.7c-1.1,0-1.7-0.6-1.7-1.5v-0.1c0-0.9,0.6-1.5,1.5-1.5h0.2c0.9,0,1.5,0.6,1.5,1.5v0.2
	C318.6,71.1,317.8,71.7,317,71.7z"/>
<path class="vpnserver1" d="M323.7,71.7L323.7,71.7c-1.1,0-1.7-0.6-1.7-1.5v-0.1c0-0.9,0.6-1.5,1.5-1.5h0.2c0.9,0,1.5,0.6,1.5,1.5v0.2
	C325.2,71.1,324.5,71.7,323.7,71.7z"/>
<path class="vpnserver1" d="M323.7,71.7L323.7,71.7c-1.1,0-1.7-0.6-1.7-1.5v-0.1c0-0.9,0.6-1.5,1.5-1.5h0.2c0.9,0,1.5,0.6,1.5,1.5v0.2
	C325.4,71.1,324.6,71.7,323.7,71.7z"/>
<path class="vpnserver1" d="M323.7,64.4h-13.1c-0.9,0-1.5-0.6-1.5-1.5v-0.2c0-0.9,0.6-1.5,1.5-1.5h13.1c0.9,0,1.5,0.6,1.5,1.5v0.2
	C325.4,63.8,324.6,64.4,323.7,64.4z"/>
<line class="vpnserver1" x1="305.4" y1="82" x2="305.4" y2="92.9"/>
<path class="vpnserver1" d="M323,89.7h-0.3c-1.2,0-2.2-1.1-2.2-2.2v-0.3c0-1.2,1.1-2.2,2.2-2.2h0.3c1.2,0,2.2,1.1,2.2,2.2v0.2
	C325.1,88.8,324.2,89.7,323,89.7z"/>
<line class="vpnserver1" x1="226.7" y1="50.2" x2="226.7" y2="102.3"/>
<line class="vpnserver1" x1="161.8" y1="64.1" x2="161.8" y2="86.9"/>
<line class="vpnserver1" x1="401.7" y1="64.1" x2="401.7" y2="86.9"/>
<line class="vpnserver1" x1="284.2" y1="50.2" x2="284.2" y2="102.3"/>
<line class="vpnserver1" x1="341.4" y1="50.2" x2="341.4" y2="102.3"/>
<path id="svg-concept" class="vpnserver5" d="M220.3,155.4L220.3,155.4c-1.1,0-1.7-0.6-1.7-1.5v-0.2c0-0.9,0.6-1.5,1.5-1.5h0.2c0.9,0,1.5,0.6,1.5,1.5v0.2
	C222.1,154.6,221.3,155.4,220.3,155.4z"/>
<path id="svg-concept" class="vpnserver5" d="M215.8,173.2h-0.3c-1.2,0-2.2-1.1-2.2-2.2v-0.3c0-1.2,1.1-2.2,2.2-2.2h0.3c1.2,0,2.2,1.1,2.2,2.2v0.3
	C218.1,172.3,217.1,173.2,215.8,173.2z"/>
<path id="svg-concept" class="vpnserver5" d="M278.2,155.4L278.2,155.4c-1.1,0-1.7-0.6-1.7-1.5v-0.2c0-0.9,0.6-1.5,1.5-1.5h0.2c0.9,0,1.5,0.6,1.5,1.5v0.2
	C279.9,154.6,279.1,155.4,278.2,155.4z"/>
<path id="svg-concept" class="vpnserver5" d="M273.7,173.2h-0.3c-1.2,0-2.2-1.1-2.2-2.2v-0.3c0-1.2,1.1-2.2,2.2-2.2h0.3c1.2,0,2.2,1.1,2.2,2.2v0.3
	C275.8,172.3,274.9,173.2,273.7,173.2z"/>
<path id="svg-concept" class="vpnserver5" d="M336,155.4L336,155.4c-1.1,0-1.7-0.6-1.7-1.5v-0.2c0-0.9,0.6-1.5,1.5-1.5h0.2c0.9,0,1.5,0.6,1.5,1.5v0.2
	C337.5,154.6,336.9,155.4,336,155.4z"/>
<path id="svg-concept" class="vpnserver5" d="M331.5,173.2h-0.3c-1.2,0-2.2-1.1-2.2-2.2v-0.3c0-1.2,1.1-2.2,2.2-2.2h0.3c1.2,0,2.2,1.1,2.2,2.2v0.3
	C333.6,172.3,332.7,173.2,331.5,173.2z"/>
<path class="vpnserver3" d="M409.6,178.2c0,4.2-3,7.5-6.9,7.5H160.6c-3.9,0-6.9-3.4-6.9-7.5v-36.9c0-4.2,3-7.5,6.9-7.5h242.1
	c3.9,0,6.9,3.4,6.9,7.5V178.2L409.6,178.2z"/>
<line class="vpnserver1" x1="167.9" y1="133.7" x2="167.9" y2="185.5"/>
<line class="vpnserver1" x1="395.4" y1="133.7" x2="395.4" y2="185.8"/>
<path class="vpnserver1" d="M216.8,176.5h-38.9c-3,0-5.2-2.4-5.2-5.2v-0.5c0-3,2.4-5.2,5.2-5.2h38.9c3,0,5.2,2.4,5.2,5.2v0.5
	C222.1,174.1,219.7,176.5,216.8,176.5z"/>
<path class="vpnserver1" d="M178.4,155.4L178.4,155.4c-1.1,0-1.7-0.6-1.7-1.5v-0.2c0-0.9,0.6-1.5,1.5-1.5h0.2c0.9,0,1.5,0.6,1.5,1.5v0.2
	C180,154.6,179.3,155.4,178.4,155.4z"/>
<path class="vpnserver1" d="M185.1,155.4L185.1,155.4c-1.1,0-1.7-0.6-1.7-1.5v-0.2c0-0.9,0.6-1.5,1.5-1.5h0.2c0.9,0,1.5,0.6,1.5,1.5v0.2
	C186.7,154.6,186,155.4,185.1,155.4z"/>
<path class="vpnserver1" d="M194.6,155.4L194.6,155.4c-1.1,0-1.7-0.6-1.7-1.5v-0.2c0-0.9,0.6-1.5,1.5-1.5h0.2c0.9,0,1.5,0.6,1.5,1.5v0.2
	C196.2,154.6,195.5,155.4,194.6,155.4z"/>
<path class="vpnserver1" d="M178.4,148L178.4,148c-1.1,0-1.7-0.6-1.7-1.5v-0.2c0-0.9,0.6-1.5,1.5-1.5h0.2c0.9,0,1.5,0.6,1.5,1.5v0.2
	C180,147.4,179.3,148,178.4,148z"/>
<path class="vpnserver1" d="M185.1,148L185.1,148c-1.1,0-1.7-0.6-1.7-1.5v-0.2c0-0.9,0.6-1.5,1.5-1.5h0.2c0.9,0,1.5,0.6,1.5,1.5v0.2
	C186.7,147.4,186,148,185.1,148z"/>
<path class="vpnserver1" d="M220.3,148L220.3,148c-1.1,0-1.7-0.6-1.7-1.5v-0.2c0-0.9,0.6-1.5,1.5-1.5h0.2c0.9,0,1.5,0.6,1.5,1.5v0.2
	C221.9,147.4,221.2,148,220.3,148z"/>
<path class="vpnserver1" d="M201.5,155.4L201.5,155.4c-1.1,0-1.7-0.6-1.7-1.5v-0.2c0-0.9,0.6-1.5,1.5-1.5h0.2c0.9,0,1.5,0.6,1.5,1.5v0.2
	C203,154.6,202.4,155.4,201.5,155.4z"/>
<path class="vpnserver1" d="M208.2,155.4L208.2,155.4c-1.1,0-1.7-0.6-1.7-1.5v-0.2c0-0.9,0.6-1.5,1.5-1.5h0.2c0.9,0,1.5,0.6,1.5,1.5v0.2
	C209.7,154.6,208.9,155.4,208.2,155.4z"/>
<path class="vpnserver1" d="M208.2,155.4L208.2,155.4c-1.1,0-1.7-0.6-1.7-1.5v-0.2c0-0.9,0.6-1.5,1.5-1.5h0.2c0.9,0,1.5,0.6,1.5,1.5v0.2
	C209.8,154.6,209.1,155.4,208.2,155.4z"/>
<path class="vpnserver1" d="M208.2,148H195c-0.9,0-1.5-0.6-1.5-1.5v-0.2c0-0.9,0.6-1.5,1.5-1.5h13.1c0.9,0,1.5,0.6,1.5,1.5v0.2
	C209.8,147.4,209.1,148,208.2,148z"/>
<line class="vpnserver1" x1="190" y1="165.5" x2="190" y2="176.5"/>
<path class="vpnserver1" d="M207.3,173.2H207c-1.2,0-2.2-1.1-2.2-2.2v-0.3c0-1.2,1.1-2.2,2.2-2.2h0.3c1.2,0,2.2,1.1,2.2,2.2v0.3
	C209.5,172.3,208.6,173.2,207.3,173.2z"/>
<path class="vpnserver1" d="M274.6,176.5h-38.9c-3,0-5.2-2.4-5.2-5.2v-0.5c0-3,2.4-5.2,5.2-5.2h38.9c3,0,5.2,2.4,5.2,5.2v0.5
	C279.9,174.1,277.6,176.5,274.6,176.5z"/>
<path class="vpnserver1" d="M236.1,155.4h-0.3c-0.9,0-1.5-0.6-1.5-1.5v-0.2c0-0.9,0.6-1.5,1.5-1.5h0.2c0.9,0,1.5,0.6,1.5,1.5v0.2
	C237.7,154.6,237,155.4,236.1,155.4z"/>
<path class="vpnserver1" d="M242.8,155.4L242.8,155.4c-1.1,0-1.7-0.6-1.7-1.5v-0.2c0-0.9,0.6-1.5,1.5-1.5h0.2c0.9,0,1.5,0.6,1.5,1.5v0.2
	C244.3,154.6,243.7,155.4,242.8,155.4z"/>
<path class="vpnserver1" d="M252.3,155.4L252.3,155.4c-1.1,0-1.7-0.6-1.7-1.5v-0.2c0-0.9,0.6-1.5,1.5-1.5h0.2c0.9,0,1.5,0.6,1.5,1.5v0.2
	C254,154.6,253.4,155.4,252.3,155.4z"/>
<path class="vpnserver1" d="M236.1,148h-0.3c-0.9,0-1.5-0.6-1.5-1.5v-0.2c0-0.9,0.6-1.5,1.5-1.5h0.2c0.9,0,1.5,0.6,1.5,1.5v0.2
	C237.7,147.4,237,148,236.1,148z"/>
<path class="vpnserver1" d="M242.8,148L242.8,148c-1.1,0-1.7-0.6-1.7-1.5v-0.2c0-0.9,0.6-1.5,1.5-1.5h0.2c0.9,0,1.5,0.6,1.5,1.5v0.2
	C244.3,147.4,243.7,148,242.8,148z"/>
<path class="vpnserver1" d="M278.2,148h-0.3c-0.9,0-1.5-0.6-1.5-1.5v-0.2c0-0.9,0.6-1.5,1.5-1.5h0.2c0.9,0,1.5,0.6,1.5,1.5v0.2
	C279.6,147.4,278.9,148,278.2,148z"/>
<path class="vpnserver1" d="M259.3,155.4L259.3,155.4c-1.1,0-1.7-0.6-1.7-1.5v-0.2c0-0.9,0.6-1.5,1.5-1.5h0.2c0.9,0,1.5,0.6,1.5,1.5v0.2
	C260.8,154.6,260,155.4,259.3,155.4z"/>
<path class="vpnserver1" d="M266,155.4L266,155.4c-1.1,0-1.7-0.6-1.7-1.5v-0.2c0-0.9,0.6-1.5,1.5-1.5h0.2c0.9,0,1.5,0.6,1.5,1.5v0.2
	C267.5,154.6,266.7,155.4,266,155.4z"/>
<path class="vpnserver1" d="M266,155.4L266,155.4c-1.1,0-1.7-0.6-1.7-1.5v-0.2c0-0.9,0.6-1.5,1.5-1.5h0.2c0.9,0,1.5,0.6,1.5,1.5v0.2
	C267.6,154.6,266.9,155.4,266,155.4z"/>
<path class="vpnserver1" d="M266,148h-13.1c-0.9,0-1.5-0.6-1.5-1.5v-0.2c0-0.9,0.6-1.5,1.5-1.5H266c0.9,0,1.5,0.6,1.5,1.5v0.2
	C267.6,147.4,266.9,148,266,148z"/>
<line class="vpnserver1" x1="247.8" y1="165.5" x2="247.8" y2="176.5"/>
<path class="vpnserver1" d="M265.1,173.2h-0.3c-1.2,0-2.2-1.1-2.2-2.2v-0.3c0-1.2,1.1-2.2,2.2-2.2h0.3c1.2,0,2.2,1.1,2.2,2.2v0.3
	C267.3,172.3,266.4,173.2,265.1,173.2z"/>
<path class="vpnserver1" d="M332.2,176.5h-38.9c-3,0-5.2-2.4-5.2-5.2v-0.5c0-3,2.4-5.2,5.2-5.2h38.9c3,0,5.2,2.4,5.2,5.2v0.5
	C337.5,174.1,335.2,176.5,332.2,176.5z"/>
<path class="vpnserver1" d="M294,155.4L294,155.4c-1.1,0-1.7-0.6-1.7-1.5v-0.2c0-0.9,0.6-1.5,1.5-1.5h0.2c0.9,0,1.5,0.6,1.5,1.5v0.2
	C295.5,154.6,294.8,155.4,294,155.4z"/>
<path class="vpnserver1" d="M300.6,155.4L300.6,155.4c-1.1,0-1.7-0.6-1.7-1.5v-0.2c0-0.9,0.6-1.5,1.5-1.5h0.2c0.9,0,1.5,0.6,1.5,1.5v0.2
	C302.4,154.6,301.5,155.4,300.6,155.4z"/>
<path class="vpnserver1" d="M310.3,155.4L310.3,155.4c-1.1,0-1.7-0.6-1.7-1.5v-0.2c0-0.9,0.6-1.5,1.5-1.5h0.2c0.9,0,1.5,0.6,1.5,1.5v0.2
	C311.8,154.6,311.2,155.4,310.3,155.4z"/>
<path class="vpnserver1" d="M294,148L294,148c-1.1,0-1.7-0.6-1.7-1.5v-0.2c0-0.9,0.6-1.5,1.5-1.5h0.2c0.9,0,1.5,0.6,1.5,1.5v0.2
	C295.5,147.4,294.8,148,294,148z"/>
<path class="vpnserver1" d="M300.6,148L300.6,148c-1.1,0-1.7-0.6-1.7-1.5v-0.2c0-0.9,0.6-1.5,1.5-1.5h0.2c0.9,0,1.5,0.6,1.5,1.5v0.2
	C302.4,147.4,301.5,148,300.6,148z"/>
<path class="vpnserver1" d="M336,148L336,148c-1.1,0-1.7-0.6-1.7-1.5v-0.2c0-0.9,0.6-1.5,1.5-1.5h0.2c0.9,0,1.5,0.6,1.5,1.5v0.2
	C337.5,147.4,336.7,148,336,148z"/>
<path class="vpnserver1" d="M317,155.4L317,155.4c-1.1,0-1.7-0.6-1.7-1.5v-0.2c0-0.9,0.6-1.5,1.5-1.5h0.2c0.9,0,1.5,0.6,1.5,1.5v0.2
	C318.6,154.6,317.8,155.4,317,155.4z"/>
<path class="vpnserver1" d="M323.7,155.4L323.7,155.4c-1.1,0-1.7-0.6-1.7-1.5v-0.2c0-0.9,0.6-1.5,1.5-1.5h0.2c0.9,0,1.5,0.6,1.5,1.5v0.2
	C325.2,154.6,324.5,155.4,323.7,155.4z"/>
<path class="vpnserver1" d="M323.7,155.4L323.7,155.4c-1.1,0-1.7-0.6-1.7-1.5v-0.2c0-0.9,0.6-1.5,1.5-1.5h0.2c0.9,0,1.5,0.6,1.5,1.5v0.2
	C325.4,154.6,324.6,155.4,323.7,155.4z"/>
<path class="vpnserver1" d="M323.7,148h-13.1c-0.9,0-1.5-0.6-1.5-1.5v-0.2c0-0.9,0.6-1.5,1.5-1.5h13.1c0.9,0,1.5,0.6,1.5,1.5v0.2
	C325.4,147.4,324.6,148,323.7,148z"/>
<line class="vpnserver1" x1="305.4" y1="165.5" x2="305.4" y2="176.5"/>
<path class="vpnserver1" d="M323,173.2h-0.3c-1.2,0-2.2-1.1-2.2-2.2v-0.3c0-1.2,1.1-2.2,2.2-2.2h0.3c1.2,0,2.2,1.1,2.2,2.2v0.3
	C325.1,172.3,324.2,173.2,323,173.2z"/>
<line class="vpnserver1" x1="226.7" y1="133.7" x2="226.7" y2="185.8"/>
<line class="vpnserver1" x1="161.8" y1="147.7" x2="161.8" y2="170.4"/>
<line class="vpnserver1" x1="401.7" y1="147.7" x2="401.7" y2="170.4"/>
<line class="vpnserver1" x1="284.2" y1="133.7" x2="284.2" y2="185.8"/>
<line class="vpnserver1" x1="341.4" y1="133.7" x2="341.4" y2="185.8"/>
<path id="svg-concept" class="vpnserver5" d="M336,238.9L336,238.9c-1.1,0-1.7-0.6-1.7-1.5v-0.2c0-0.9,0.6-1.5,1.5-1.5h0.2c0.9,0,1.5,0.6,1.5,1.5v0.2
	C337.5,238.3,336.9,238.9,336,238.9z"/>
<path id="svg-concept" class="vpnserver5" d="M331.5,256.8h-0.3c-1.2,0-2.2-1.1-2.2-2.2v-0.3c0-1.2,1.1-2.2,2.2-2.2h0.3c1.2,0,2.2,1.1,2.2,2.2v0.3
	C333.6,255.8,332.7,256.8,331.5,256.8z"/>
<path class="vpnserver3" d="M278.1,217.3h124.7c3.9,0,6.9,3.4,6.9,7.5v36.9l0,0c0,4.2-3,7.5-6.9,7.5H278.1"/>
<line class="vpnserver1" x1="395.4" y1="217.2" x2="395.4" y2="269.3"/>
<path class="vpnserver1" d="M332.2,260h-38.9c-3,0-5.2-2.4-5.2-5.2v-0.5c0-3,2.4-5.2,5.2-5.2h38.9c3,0,5.2,2.4,5.2,5.2v0.5
	C337.5,257.7,335.2,260,332.2,260z"/>
<path class="vpnserver1" d="M294,238.9L294,238.9c-1.1,0-1.7-0.6-1.7-1.5v-0.2c0-0.9,0.6-1.5,1.5-1.5h0.2c0.9,0,1.5,0.6,1.5,1.5v0.2
	C295.5,238.3,294.8,238.9,294,238.9z"/>
<path class="vpnserver1" d="M300.6,238.9L300.6,238.9c-1.1,0-1.7-0.6-1.7-1.5v-0.2c0-0.9,0.6-1.5,1.5-1.5h0.2c0.9,0,1.5,0.6,1.5,1.5v0.2
	C302.4,238.3,301.5,238.9,300.6,238.9z"/>
<path class="vpnserver1" d="M310.3,238.9L310.3,238.9c-1.1,0-1.7-0.6-1.7-1.5v-0.2c0-0.9,0.6-1.5,1.5-1.5h0.2c0.9,0,1.5,0.6,1.5,1.5v0.2
	C311.8,238.3,311.2,238.9,310.3,238.9z"/>
<path class="vpnserver1" d="M294,231.5L294,231.5c-1.1,0-1.7-0.6-1.7-1.5v-0.2c0-0.9,0.6-1.5,1.5-1.5h0.2c0.9,0,1.5,0.6,1.5,1.5v0.2
	C295.5,230.8,294.8,231.5,294,231.5z"/>
<path class="vpnserver1" d="M300.6,231.5L300.6,231.5c-1.1,0-1.7-0.6-1.7-1.5v-0.2c0-0.9,0.6-1.5,1.5-1.5h0.2c0.9,0,1.5,0.6,1.5,1.5v0.2
	C302.4,230.8,301.5,231.5,300.6,231.5z"/>
<path class="vpnserver1" d="M336,231.5L336,231.5c-1.1,0-1.7-0.6-1.7-1.5v-0.2c0-0.9,0.6-1.5,1.5-1.5h0.2c0.9,0,1.5,0.6,1.5,1.5v0.2
	C337.5,230.8,336.7,231.5,336,231.5z"/>
<path class="vpnserver1" d="M317,238.9L317,238.9c-1.1,0-1.7-0.6-1.7-1.5v-0.2c0-0.9,0.6-1.5,1.5-1.5h0.2c0.9,0,1.5,0.6,1.5,1.5v0.2
	C318.6,238.3,317.8,238.9,317,238.9z"/>
<path class="vpnserver1" d="M323.7,238.9L323.7,238.9c-1.1,0-1.7-0.6-1.7-1.5v-0.2c0-0.9,0.6-1.5,1.5-1.5h0.2c0.9,0,1.5,0.6,1.5,1.5v0.2
	C325.2,238.3,324.5,238.9,323.7,238.9z"/>
<path class="vpnserver1" d="M323.7,238.9L323.7,238.9c-1.1,0-1.7-0.6-1.7-1.5v-0.2c0-0.9,0.6-1.5,1.5-1.5h0.2c0.9,0,1.5,0.6,1.5,1.5v0.2
	C325.4,238.3,324.6,238.9,323.7,238.9z"/>
<path class="vpnserver1" d="M323.7,231.5h-13.1c-0.9,0-1.5-0.6-1.5-1.5v-0.2c0-0.9,0.6-1.5,1.5-1.5h13.1c0.9,0,1.5,0.6,1.5,1.5v0.2
	C325.4,230.8,324.6,231.5,323.7,231.5z"/>
<line class="vpnserver1" x1="305.4" y1="249" x2="305.4" y2="260"/>
<path class="vpnserver1" d="M323,256.8h-0.3c-1.2,0-2.2-1.1-2.2-2.2v-0.3c0-1.2,1.1-2.2,2.2-2.2h0.3c1.2,0,2.2,1.1,2.2,2.2v0.3
	C325.1,255.8,324.2,256.8,323,256.8z"/>
<line class="vpnserver1" x1="401.7" y1="231.2" x2="401.7" y2="254"/>
<line class="vpnserver1" x1="284.2" y1="217.2" x2="284.2" y2="269.3"/>
<line class="vpnserver1" x1="341.4" y1="217.2" x2="341.4" y2="269.3"/>
<path id="svg-concept" class="vpnserver5" d="M336,322.5L336,322.5c-1.1,0-1.7-0.6-1.7-1.5v-0.2c0-0.9,0.6-1.5,1.5-1.5h0.2c0.9,0,1.5,0.6,1.5,1.5v0.2
	C337.5,321.8,336.9,322.5,336,322.5z"/>
<path id="svg-concept" class="vpnserver5" d="M331.5,340.4h-0.3c-1.2,0-2.2-1.1-2.2-2.2v-0.3c0-1.2,1.1-2.2,2.2-2.2h0.3c1.2,0,2.2,1.1,2.2,2.2v0.3
	C333.6,339.3,332.7,340.4,331.5,340.4z"/>
<path class="vpnserver3" d="M278.1,300.8h124.7c3.9,0,6.9,3.4,6.9,7.5v36.9l0,0c0,4.2-3,7.5-6.9,7.5H278"/>
<line class="vpnserver1" x1="395.4" y1="300.7" x2="395.4" y2="352.8"/>
<path class="vpnserver1" d="M332.2,343.5h-38.9c-3,0-5.2-2.4-5.2-5.2v-0.5c0-3,2.4-5.2,5.2-5.2h38.9c3,0,5.2,2.4,5.2,5.2v0.5
	C337.5,341.2,335.2,343.5,332.2,343.5z"/>
<path class="vpnserver1" d="M294,322.5L294,322.5c-1.1,0-1.7-0.6-1.7-1.5v-0.2c0-0.9,0.6-1.5,1.5-1.5h0.2c0.9,0,1.5,0.6,1.5,1.5v0.2
	C295.5,321.8,294.8,322.5,294,322.5z"/>
<path class="vpnserver1" d="M300.6,322.5L300.6,322.5c-1.1,0-1.7-0.6-1.7-1.5v-0.2c0-0.9,0.6-1.5,1.5-1.5h0.2c0.9,0,1.5,0.6,1.5,1.5v0.2
	C302.4,321.8,301.5,322.5,300.6,322.5z"/>
<path class="vpnserver1" d="M310.3,322.5L310.3,322.5c-1.1,0-1.7-0.6-1.7-1.5v-0.2c0-0.9,0.6-1.5,1.5-1.5h0.2c0.9,0,1.5,0.6,1.5,1.5v0.2
	C311.8,321.8,311.2,322.5,310.3,322.5z"/>
<path class="vpnserver1" d="M294,315.2L294,315.2c-1.1,0-1.7-0.6-1.7-1.5v-0.2c0-0.9,0.6-1.5,1.5-1.5h0.2c0.9,0,1.5,0.6,1.5,1.5v0.2
	C295.5,314.4,294.8,315.2,294,315.2z"/>
<path class="vpnserver1" d="M300.6,315.2L300.6,315.2c-1.1,0-1.7-0.6-1.7-1.5v-0.2c0-0.9,0.6-1.5,1.5-1.5h0.2c0.9,0,1.5,0.6,1.5,1.5v0.2
	C302.4,314.4,301.5,315.2,300.6,315.2z"/>
<path class="vpnserver1" d="M336,315.2L336,315.2c-1.1,0-1.7-0.6-1.7-1.5v-0.2c0-0.9,0.6-1.5,1.5-1.5h0.2c0.9,0,1.5,0.6,1.5,1.5v0.2
	C337.5,314.4,336.7,315.2,336,315.2z"/>
<path class="vpnserver1" d="M317,322.5L317,322.5c-1.1,0-1.7-0.6-1.7-1.5v-0.2c0-0.9,0.6-1.5,1.5-1.5h0.2c0.9,0,1.5,0.6,1.5,1.5v0.2
	C318.6,321.8,317.8,322.5,317,322.5z"/>
<path class="vpnserver1" d="M323.7,322.5L323.7,322.5c-1.1,0-1.7-0.6-1.7-1.5v-0.2c0-0.9,0.6-1.5,1.5-1.5h0.2c0.9,0,1.5,0.6,1.5,1.5v0.2
	C325.2,321.8,324.5,322.5,323.7,322.5z"/>
<path class="vpnserver1" d="M323.7,322.5L323.7,322.5c-1.1,0-1.7-0.6-1.7-1.5v-0.2c0-0.9,0.6-1.5,1.5-1.5h0.2c0.9,0,1.5,0.6,1.5,1.5v0.2
	C325.4,321.8,324.6,322.5,323.7,322.5z"/>
<path class="vpnserver1" d="M323.7,315.2h-13.1c-0.9,0-1.5-0.6-1.5-1.5v-0.2c0-0.9,0.6-1.5,1.5-1.5h13.1c0.9,0,1.5,0.6,1.5,1.5v0.2
	C325.4,314.4,324.6,315.2,323.7,315.2z"/>
<line class="vpnserver1" x1="305.4" y1="332.5" x2="305.4" y2="343.5"/>
<path class="vpnserver1" d="M323,340.4h-0.3c-1.2,0-2.2-1.1-2.2-2.2v-0.3c0-1.2,1.1-2.2,2.2-2.2h0.3c1.2,0,2.2,1.1,2.2,2.2v0.3
	C325.1,339.3,324.2,340.4,323,340.4z"/>
<line class="vpnserver1" x1="401.7" y1="314.7" x2="401.7" y2="337.4"/>
<line class="vpnserver1" x1="284.2" y1="300.7" x2="284.2" y2="352.8"/>
<line class="vpnserver1" x1="341.4" y1="300.7" x2="341.4" y2="352.8"/>
<path id="svg-concept" class="vpnserver5" d="M336,405.9L336,405.9c-1.1,0-1.7-0.6-1.7-1.5v-0.1c0-0.9,0.6-1.5,1.5-1.5h0.2c0.9,0,1.5,0.6,1.5,1.5v0.2
	C337.5,405.3,336.9,405.9,336,405.9z"/>
<path id="svg-concept" class="vpnserver5" d="M331.5,423.9h-0.3c-1.2,0-2.2-1.1-2.2-2.2v-0.3c0-1.2,1.1-2.2,2.2-2.2h0.3c1.2,0,2.2,1.1,2.2,2.2v0.3
	C333.6,422.8,332.7,423.9,331.5,423.9z"/>
<path class="vpnserver3" d="M278.1,384.4h124.7c3.9,0,6.9,3.4,6.9,7.5v36.9l0,0c0,4.2-3,7.5-6.9,7.5H278.1"/>
<line class="vpnserver1" x1="395.4" y1="384.4" x2="395.4" y2="436.3"/>
<path class="vpnserver1" d="M332.2,427h-38.9c-3,0-5.2-2.4-5.2-5.2v-0.5c0-3,2.4-5.2,5.2-5.2h38.9c3,0,5.2,2.4,5.2,5.2v0.5
	C337.5,424.7,335.2,427,332.2,427z"/>
<path class="vpnserver1" d="M294,405.9L294,405.9c-1.1,0-1.7-0.6-1.7-1.5v-0.1c0-0.9,0.6-1.5,1.5-1.5h0.2c0.9,0,1.5,0.6,1.5,1.5v0.2
	C295.5,405.3,294.8,405.9,294,405.9z"/>
<path class="vpnserver1" d="M300.6,405.9L300.6,405.9c-1.1,0-1.7-0.6-1.7-1.5v-0.1c0-0.9,0.6-1.5,1.5-1.5h0.2c0.9,0,1.5,0.6,1.5,1.5v0.2
	C302.4,405.3,301.5,405.9,300.6,405.9z"/>
<path class="vpnserver1" d="M310.3,405.9L310.3,405.9c-1.1,0-1.7-0.6-1.7-1.5v-0.1c0-0.9,0.6-1.5,1.5-1.5h0.2c0.9,0,1.5,0.6,1.5,1.5v0.2
	C311.8,405.3,311.2,405.9,310.3,405.9z"/>
<path class="vpnserver1" d="M294,398.6L294,398.6c-1.1,0-1.7-0.6-1.7-1.5v-0.2c0-0.9,0.6-1.5,1.5-1.5h0.2c0.9,0,1.5,0.6,1.5,1.5v0.2
	C295.5,398,294.8,398.6,294,398.6z"/>
<path class="vpnserver1" d="M300.6,398.6L300.6,398.6c-1.1,0-1.7-0.6-1.7-1.5v-0.2c0-0.9,0.6-1.5,1.5-1.5h0.2c0.9,0,1.5,0.6,1.5,1.5v0.2
	C302.4,398,301.5,398.6,300.6,398.6z"/>
<path class="vpnserver1" d="M336,398.6L336,398.6c-1.1,0-1.7-0.6-1.7-1.5v-0.2c0-0.9,0.6-1.5,1.5-1.5h0.2c0.9,0,1.5,0.6,1.5,1.5v0.2
	C337.5,398,336.7,398.6,336,398.6z"/>
<path class="vpnserver1" d="M317,405.9L317,405.9c-1.1,0-1.7-0.6-1.7-1.5v-0.1c0-0.9,0.6-1.5,1.5-1.5h0.2c0.9,0,1.5,0.6,1.5,1.5v0.2
	C318.6,405.3,317.8,405.9,317,405.9z"/>
<path class="vpnserver1" d="M323.7,405.9L323.7,405.9c-1.1,0-1.7-0.6-1.7-1.5v-0.1c0-0.9,0.6-1.5,1.5-1.5h0.2c0.9,0,1.5,0.6,1.5,1.5v0.2
	C325.2,405.3,324.5,405.9,323.7,405.9z"/>
<path class="vpnserver1" d="M323.7,405.9L323.7,405.9c-1.1,0-1.7-0.6-1.7-1.5v-0.1c0-0.9,0.6-1.5,1.5-1.5h0.2c0.9,0,1.5,0.6,1.5,1.5v0.2
	C325.4,405.3,324.6,405.9,323.7,405.9z"/>
<path class="vpnserver1" d="M323.7,398.6h-13.1c-0.9,0-1.5-0.6-1.5-1.5v-0.2c0-0.9,0.6-1.5,1.5-1.5h13.1c0.9,0,1.5,0.6,1.5,1.5v0.2
	C325.4,398,324.6,398.6,323.7,398.6z"/>
<line class="vpnserver1" x1="305.4" y1="416.1" x2="305.4" y2="427"/>
<path class="vpnserver1" d="M323,423.9h-0.3c-1.2,0-2.2-1.1-2.2-2.2v-0.3c0-1.2,1.1-2.2,2.2-2.2h0.3c1.2,0,2.2,1.1,2.2,2.2v0.3
	C325.1,422.8,324.2,423.9,323,423.9z"/>
<line class="vpnserver1" x1="401.7" y1="398.2" x2="401.7" y2="421"/>
<line class="vpnserver1" x1="284.2" y1="384.4" x2="284.2" y2="436.3"/>
<line class="vpnserver1" x1="341.4" y1="384.4" x2="341.4" y2="436.3"/>
<path id="svg-concept" class="vpnserver5" d="M220.3,489.4L220.3,489.4c-1.1,0-1.7-0.6-1.7-1.5v-0.2c0-0.9,0.6-1.5,1.5-1.5h0.2c0.9,0,1.5,0.6,1.5,1.5v0.2
	C222.1,488.8,221.3,489.4,220.3,489.4z"/>
<path id="svg-concept" class="vpnserver5" d="M215.8,507.4h-0.3c-1.2,0-2.2-1.1-2.2-2.2v-0.3c0-1.2,1.1-2.2,2.2-2.2h0.3c1.2,0,2.2,1.1,2.2,2.2v0.3
	C218.1,506.4,217.1,507.4,215.8,507.4z"/>
<path id="svg-concept" class="vpnserver5" d="M278.2,489.4L278.2,489.4c-1.1,0-1.7-0.6-1.7-1.5v-0.2c0-0.9,0.6-1.5,1.5-1.5h0.2c0.9,0,1.5,0.6,1.5,1.5v0.2
	C279.9,488.8,279.1,489.4,278.2,489.4z"/>
<path id="svg-concept" class="vpnserver5" d="M273.7,507.4h-0.3c-1.2,0-2.2-1.1-2.2-2.2v-0.3c0-1.2,1.1-2.2,2.2-2.2h0.3c1.2,0,2.2,1.1,2.2,2.2v0.3
	C275.8,506.4,274.9,507.4,273.7,507.4z"/>
<path id="svg-concept" class="vpnserver5" d="M336,489.4L336,489.4c-1.1,0-1.7-0.6-1.7-1.5v-0.2c0-0.9,0.6-1.5,1.5-1.5h0.2c0.9,0,1.5,0.6,1.5,1.5v0.2
	C337.5,488.8,336.9,489.4,336,489.4z"/>
<path id="svg-concept" class="vpnserver5" d="M331.5,507.4h-0.3c-1.2,0-2.2-1.1-2.2-2.2v-0.3c0-1.2,1.1-2.2,2.2-2.2h0.3c1.2,0,2.2,1.1,2.2,2.2v0.3
	C333.6,506.4,332.7,507.4,331.5,507.4z"/>
<path class="vpnserver3" d="M409.6,512.4c0,4.2-3,7.5-6.9,7.5H160.6c-3.9,0-6.9-3.4-6.9-7.5v-36.9c0-4.2,3-7.5,6.9-7.5h242.1
	c3.9,0,6.9,3.4,6.9,7.5V512.4L409.6,512.4z"/>
<line class="vpnserver1" x1="167.9" y1="467.9" x2="167.9" y2="519.7"/>
<line class="vpnserver1" x1="395.4" y1="467.9" x2="395.4" y2="520"/>
<path class="vpnserver1" d="M216.8,510.7h-38.9c-3,0-5.2-2.4-5.2-5.2v-0.5c0-3,2.4-5.2,5.2-5.2h38.9c3,0,5.2,2.4,5.2,5.2v0.5
	C222.1,508.2,219.7,510.7,216.8,510.7z"/>
<path class="vpnserver1" d="M178.4,489.4L178.4,489.4c-1.1,0-1.7-0.6-1.7-1.5v-0.2c0-0.9,0.6-1.5,1.5-1.5h0.2c0.9,0,1.5,0.6,1.5,1.5v0.2
	C180,488.8,179.3,489.4,178.4,489.4z"/>
<path class="vpnserver1" d="M185.1,489.4L185.1,489.4c-1.1,0-1.7-0.6-1.7-1.5v-0.2c0-0.9,0.6-1.5,1.5-1.5h0.2c0.9,0,1.5,0.6,1.5,1.5v0.2
	C186.7,488.8,186,489.4,185.1,489.4z"/>
<path class="vpnserver1" d="M194.6,489.4L194.6,489.4c-1.1,0-1.7-0.6-1.7-1.5v-0.2c0-0.9,0.6-1.5,1.5-1.5h0.2c0.9,0,1.5,0.6,1.5,1.5v0.2
	C196.2,488.8,195.5,489.4,194.6,489.4z"/>
<path class="vpnserver1" d="M178.4,482.2L178.4,482.2c-1.1,0-1.7-0.6-1.7-1.5v-0.2c0-0.9,0.6-1.5,1.5-1.5h0.2c0.9,0,1.5,0.6,1.5,1.5v0.2
	C180,481.6,179.3,482.2,178.4,482.2z"/>
<path class="vpnserver1" d="M185.1,482.2L185.1,482.2c-1.1,0-1.7-0.6-1.7-1.5v-0.2c0-0.9,0.6-1.5,1.5-1.5h0.2c0.9,0,1.5,0.6,1.5,1.5v0.2
	C186.7,481.6,186,482.2,185.1,482.2z"/>
<path class="vpnserver1" d="M220.3,482.2L220.3,482.2c-1.1,0-1.7-0.6-1.7-1.5v-0.2c0-0.9,0.6-1.5,1.5-1.5h0.2c0.9,0,1.5,0.6,1.5,1.5v0.2
	C221.9,481.6,221.2,482.2,220.3,482.2z"/>
<path class="vpnserver1" d="M201.5,489.4L201.5,489.4c-1.1,0-1.7-0.6-1.7-1.5v-0.2c0-0.9,0.6-1.5,1.5-1.5h0.2c0.9,0,1.5,0.6,1.5,1.5v0.2
	C203,488.8,202.4,489.4,201.5,489.4z"/>
<path class="vpnserver1" d="M208.2,489.4L208.2,489.4c-1.1,0-1.7-0.6-1.7-1.5v-0.2c0-0.9,0.6-1.5,1.5-1.5h0.2c0.9,0,1.5,0.6,1.5,1.5v0.2
	C209.7,488.8,208.9,489.4,208.2,489.4z"/>
<path class="vpnserver1" d="M208.2,489.4L208.2,489.4c-1.1,0-1.7-0.6-1.7-1.5v-0.2c0-0.9,0.6-1.5,1.5-1.5h0.2c0.9,0,1.5,0.6,1.5,1.5v0.2
	C209.8,488.8,209.1,489.4,208.2,489.4z"/>
<path class="vpnserver1" d="M208.2,482.2H195c-0.9,0-1.5-0.6-1.5-1.5v-0.2c0-0.9,0.6-1.5,1.5-1.5h13.1c0.9,0,1.5,0.6,1.5,1.5v0.2
	C209.8,481.6,209.1,482.2,208.2,482.2z"/>
<line class="vpnserver1" x1="190" y1="499.5" x2="190" y2="510.7"/>
<path class="vpnserver1" d="M207.3,507.4H207c-1.2,0-2.2-1.1-2.2-2.2v-0.3c0-1.2,1.1-2.2,2.2-2.2h0.3c1.2,0,2.2,1.1,2.2,2.2v0.3
	C209.5,506.4,208.6,507.4,207.3,507.4z"/>
<path class="vpnserver1" d="M274.6,510.7h-38.9c-3,0-5.2-2.4-5.2-5.2v-0.5c0-3,2.4-5.2,5.2-5.2h38.9c3,0,5.2,2.4,5.2,5.2v0.5
	C279.9,508.2,277.6,510.7,274.6,510.7z"/>
<path class="vpnserver1" d="M236.1,489.4h-0.3c-0.9,0-1.5-0.6-1.5-1.5v-0.2c0-0.9,0.6-1.5,1.5-1.5h0.2c0.9,0,1.5,0.6,1.5,1.5v0.2
	C237.7,488.8,237,489.4,236.1,489.4z"/>
<path class="vpnserver1" d="M242.8,489.4L242.8,489.4c-1.1,0-1.7-0.6-1.7-1.5v-0.2c0-0.9,0.6-1.5,1.5-1.5h0.2c0.9,0,1.5,0.6,1.5,1.5v0.2
	C244.3,488.8,243.7,489.4,242.8,489.4z"/>
<path class="vpnserver1" d="M252.3,489.4L252.3,489.4c-1.1,0-1.7-0.6-1.7-1.5v-0.2c0-0.9,0.6-1.5,1.5-1.5h0.2c0.9,0,1.5,0.6,1.5,1.5v0.2
	C254,488.8,253.4,489.4,252.3,489.4z"/>
<path class="vpnserver1" d="M236.1,482.2h-0.3c-0.9,0-1.5-0.6-1.5-1.5v-0.2c0-0.9,0.6-1.5,1.5-1.5h0.2c0.9,0,1.5,0.6,1.5,1.5v0.2
	C237.7,481.6,237,482.2,236.1,482.2z"/>
<path class="vpnserver1" d="M242.8,482.2L242.8,482.2c-1.1,0-1.7-0.6-1.7-1.5v-0.2c0-0.9,0.6-1.5,1.5-1.5h0.2c0.9,0,1.5,0.6,1.5,1.5v0.2
	C244.3,481.6,243.7,482.2,242.8,482.2z"/>
<path class="vpnserver1" d="M278.2,482.2h-0.3c-0.9,0-1.5-0.6-1.5-1.5v-0.2c0-0.9,0.6-1.5,1.5-1.5h0.2c0.9,0,1.5,0.6,1.5,1.5v0.2
	C279.6,481.6,278.9,482.2,278.2,482.2z"/>
<path class="vpnserver1" d="M259.3,489.4L259.3,489.4c-1.1,0-1.7-0.6-1.7-1.5v-0.2c0-0.9,0.6-1.5,1.5-1.5h0.2c0.9,0,1.5,0.6,1.5,1.5v0.2
	C260.8,488.8,260,489.4,259.3,489.4z"/>
<path class="vpnserver1" d="M266,489.4L266,489.4c-1.1,0-1.7-0.6-1.7-1.5v-0.2c0-0.9,0.6-1.5,1.5-1.5h0.2c0.9,0,1.5,0.6,1.5,1.5v0.2
	C267.5,488.8,266.7,489.4,266,489.4z"/>
<path class="vpnserver1" d="M266,489.4L266,489.4c-1.1,0-1.7-0.6-1.7-1.5v-0.2c0-0.9,0.6-1.5,1.5-1.5h0.2c0.9,0,1.5,0.6,1.5,1.5v0.2
	C267.6,488.8,266.9,489.4,266,489.4z"/>
<path class="vpnserver1" d="M266,482.2h-13.1c-0.9,0-1.5-0.6-1.5-1.5v-0.2c0-0.9,0.6-1.5,1.5-1.5H266c0.9,0,1.5,0.6,1.5,1.5v0.2
	C267.6,481.6,266.9,482.2,266,482.2z"/>
<line class="vpnserver1" x1="247.8" y1="499.5" x2="247.8" y2="510.7"/>
<path class="vpnserver1" d="M265.1,507.4h-0.3c-1.2,0-2.2-1.1-2.2-2.2v-0.3c0-1.2,1.1-2.2,2.2-2.2h0.3c1.2,0,2.2,1.1,2.2,2.2v0.3
	C267.3,506.4,266.4,507.4,265.1,507.4z"/>
<path class="vpnserver1" d="M332.2,510.7h-38.9c-3,0-5.2-2.4-5.2-5.2v-0.5c0-3,2.4-5.2,5.2-5.2h38.9c3,0,5.2,2.4,5.2,5.2v0.5
	C337.5,508.2,335.2,510.7,332.2,510.7z"/>
<path class="vpnserver1" d="M294,489.4L294,489.4c-1.1,0-1.7-0.6-1.7-1.5v-0.2c0-0.9,0.6-1.5,1.5-1.5h0.2c0.9,0,1.5,0.6,1.5,1.5v0.2
	C295.5,488.8,294.8,489.4,294,489.4z"/>
<path class="vpnserver1" d="M300.6,489.4L300.6,489.4c-1.1,0-1.7-0.6-1.7-1.5v-0.2c0-0.9,0.6-1.5,1.5-1.5h0.2c0.9,0,1.5,0.6,1.5,1.5v0.2
	C302.4,488.8,301.5,489.4,300.6,489.4z"/>
<path class="vpnserver1" d="M310.3,489.4L310.3,489.4c-1.1,0-1.7-0.6-1.7-1.5v-0.2c0-0.9,0.6-1.5,1.5-1.5h0.2c0.9,0,1.5,0.6,1.5,1.5v0.2
	C311.8,488.8,311.2,489.4,310.3,489.4z"/>
<path class="vpnserver1" d="M294,482.2L294,482.2c-1.1,0-1.7-0.6-1.7-1.5v-0.2c0-0.9,0.6-1.5,1.5-1.5h0.2c0.9,0,1.5,0.6,1.5,1.5v0.2
	C295.5,481.6,294.8,482.2,294,482.2z"/>
<path class="vpnserver1" d="M300.6,482.2L300.6,482.2c-1.1,0-1.7-0.6-1.7-1.5v-0.2c0-0.9,0.6-1.5,1.5-1.5h0.2c0.9,0,1.5,0.6,1.5,1.5v0.2
	C302.4,481.6,301.5,482.2,300.6,482.2z"/>
<path class="vpnserver1" d="M336,482.2L336,482.2c-1.1,0-1.7-0.6-1.7-1.5v-0.2c0-0.9,0.6-1.5,1.5-1.5h0.2c0.9,0,1.5,0.6,1.5,1.5v0.2
	C337.5,481.6,336.7,482.2,336,482.2z"/>
<path class="vpnserver1" d="M317,489.4L317,489.4c-1.1,0-1.7-0.6-1.7-1.5v-0.2c0-0.9,0.6-1.5,1.5-1.5h0.2c0.9,0,1.5,0.6,1.5,1.5v0.2
	C318.6,488.8,317.8,489.4,317,489.4z"/>
<path class="vpnserver1" d="M323.7,489.4L323.7,489.4c-1.1,0-1.7-0.6-1.7-1.5v-0.2c0-0.9,0.6-1.5,1.5-1.5h0.2c0.9,0,1.5,0.6,1.5,1.5v0.2
	C325.2,488.8,324.5,489.4,323.7,489.4z"/>
<path class="vpnserver1" d="M323.7,489.4L323.7,489.4c-1.1,0-1.7-0.6-1.7-1.5v-0.2c0-0.9,0.6-1.5,1.5-1.5h0.2c0.9,0,1.5,0.6,1.5,1.5v0.2
	C325.4,488.8,324.6,489.4,323.7,489.4z"/>
<path class="vpnserver1" d="M323.7,482.2h-13.1c-0.9,0-1.5-0.6-1.5-1.5v-0.2c0-0.9,0.6-1.5,1.5-1.5h13.1c0.9,0,1.5,0.6,1.5,1.5v0.2
	C325.4,481.6,324.6,482.2,323.7,482.2z"/>
<line class="vpnserver1" x1="305.4" y1="499.5" x2="305.4" y2="510.7"/>
<path class="vpnserver1" d="M323,507.4h-0.3c-1.2,0-2.2-1.1-2.2-2.2v-0.3c0-1.2,1.1-2.2,2.2-2.2h0.3c1.2,0,2.2,1.1,2.2,2.2v0.3
	C325.1,506.4,324.2,507.4,323,507.4z"/>
<line class="vpnserver1" x1="226.7" y1="467.9" x2="226.7" y2="520"/>
<line class="vpnserver1" x1="161.8" y1="481.7" x2="161.8" y2="504.6"/>
<line class="vpnserver1" x1="401.7" y1="481.7" x2="401.7" y2="504.6"/>
<line class="vpnserver1" x1="284.2" y1="467.9" x2="284.2" y2="520"/>
<line class="vpnserver1" x1="341.4" y1="467.9" x2="341.4" y2="520"/>
<path id="svg-concept" class="vpnserver5" d="M220.3,573L220.3,573c-1.1,0-1.7-0.6-1.7-1.5v-0.2c0-0.9,0.6-1.5,1.5-1.5h0.2c0.9,0,1.5,0.6,1.5,1.5v0.2
	C222.1,572.2,221.3,573,220.3,573z"/>
<path id="svg-concept" class="vpnserver5" d="M215.8,590.9h-0.3c-1.2,0-2.2-1.1-2.2-2.2v-0.3c0-1.2,1.1-2.2,2.2-2.2h0.3c1.2,0,2.2,1.1,2.2,2.2v0.3
	C218.1,589.8,217.1,590.9,215.8,590.9z"/>
<path id="svg-concept" class="vpnserver5" d="M278.2,573L278.2,573c-1.1,0-1.7-0.6-1.7-1.5v-0.2c0-0.9,0.6-1.5,1.5-1.5h0.2c0.9,0,1.5,0.6,1.5,1.5v0.2
	C279.9,572.2,279.1,573,278.2,573z"/>
<path id="svg-concept" class="vpnserver5" d="M273.7,590.9h-0.3c-1.2,0-2.2-1.1-2.2-2.2v-0.3c0-1.2,1.1-2.2,2.2-2.2h0.3c1.2,0,2.2,1.1,2.2,2.2v0.3
	C275.8,589.8,274.9,590.9,273.7,590.9z"/>
<path id="svg-concept" class="vpnserver5" d="M336,573L336,573c-1.1,0-1.7-0.6-1.7-1.5v-0.2c0-0.9,0.6-1.5,1.5-1.5h0.2c0.9,0,1.5,0.6,1.5,1.5v0.2
	C337.5,572.2,336.9,573,336,573z"/>
<path id="svg-concept" class="vpnserver5" d="M331.5,590.9h-0.3c-1.2,0-2.2-1.1-2.2-2.2v-0.3c0-1.2,1.1-2.2,2.2-2.2h0.3c1.2,0,2.2,1.1,2.2,2.2v0.3
	C333.6,589.8,332.7,590.9,331.5,590.9z"/>
<path class="vpnserver3" d="M409.6,595.8c0,4.2-3,7.5-6.9,7.5H160.6c-3.9,0-6.9-3.4-6.9-7.5v-36.9c0-4.2,3-7.5,6.9-7.5h242.1
	c3.9,0,6.9,3.4,6.9,7.5V595.8L409.6,595.8z"/>
<line class="vpnserver1" x1="167.9" y1="551.3" x2="167.9" y2="603"/>
<line class="vpnserver1" x1="395.4" y1="551.3" x2="395.4" y2="603.3"/>
<path class="vpnserver1" d="M216.8,594h-38.9c-3,0-5.2-2.4-5.2-5.2v-0.5c0-3,2.4-5.2,5.2-5.2h38.9c3,0,5.2,2.4,5.2,5.2v0.5
	C222.1,591.8,219.7,594,216.8,594z"/>
<path class="vpnserver1" d="M178.4,573L178.4,573c-1.1,0-1.7-0.6-1.7-1.5v-0.2c0-0.9,0.6-1.5,1.5-1.5h0.2c0.9,0,1.5,0.6,1.5,1.5v0.2
	C180,572.2,179.3,573,178.4,573z"/>
<path class="vpnserver1" d="M185.1,573L185.1,573c-1.1,0-1.7-0.6-1.7-1.5v-0.2c0-0.9,0.6-1.5,1.5-1.5h0.2c0.9,0,1.5,0.6,1.5,1.5v0.2
	C186.7,572.2,186,573,185.1,573z"/>
<path class="vpnserver1" d="M194.6,573L194.6,573c-1.1,0-1.7-0.6-1.7-1.5v-0.2c0-0.9,0.6-1.5,1.5-1.5h0.2c0.9,0,1.5,0.6,1.5,1.5v0.2
	C196.2,572.2,195.5,573,194.6,573z"/>
<path class="vpnserver1" d="M178.4,565.5L178.4,565.5c-1.1,0-1.7-0.6-1.7-1.5v-0.2c0-0.9,0.6-1.5,1.5-1.5h0.2c0.9,0,1.5,0.6,1.5,1.5v0.2
	C180,564.9,179.3,565.5,178.4,565.5z"/>
<path class="vpnserver1" d="M185.1,565.5L185.1,565.5c-1.1,0-1.7-0.6-1.7-1.5v-0.2c0-0.9,0.6-1.5,1.5-1.5h0.2c0.9,0,1.5,0.6,1.5,1.5v0.2
	C186.7,564.9,186,565.5,185.1,565.5z"/>
<path class="vpnserver1" d="M220.3,565.5L220.3,565.5c-1.1,0-1.7-0.6-1.7-1.5v-0.2c0-0.9,0.6-1.5,1.5-1.5h0.2c0.9,0,1.5,0.6,1.5,1.5v0.2
	C221.9,564.9,221.2,565.5,220.3,565.5z"/>
<path class="vpnserver1" d="M201.5,573L201.5,573c-1.1,0-1.7-0.6-1.7-1.5v-0.2c0-0.9,0.6-1.5,1.5-1.5h0.2c0.9,0,1.5,0.6,1.5,1.5v0.2
	C203,572.2,202.4,573,201.5,573z"/>
<path class="vpnserver1" d="M208.2,573L208.2,573c-1.1,0-1.7-0.6-1.7-1.5v-0.2c0-0.9,0.6-1.5,1.5-1.5h0.2c0.9,0,1.5,0.6,1.5,1.5v0.2
	C209.7,572.2,208.9,573,208.2,573z"/>
<path class="vpnserver1" d="M208.2,573L208.2,573c-1.1,0-1.7-0.6-1.7-1.5v-0.2c0-0.9,0.6-1.5,1.5-1.5h0.2c0.9,0,1.5,0.6,1.5,1.5v0.2
	C209.8,572.2,209.1,573,208.2,573z"/>
<path class="vpnserver1" d="M208.2,565.5H195c-0.9,0-1.5-0.6-1.5-1.5v-0.2c0-0.9,0.6-1.5,1.5-1.5h13.1c0.9,0,1.5,0.6,1.5,1.5v0.2
	C209.8,564.9,209.1,565.5,208.2,565.5z"/>
<line class="vpnserver1" x1="190" y1="583" x2="190" y2="594"/>
<path class="vpnserver1" d="M207.3,590.9H207c-1.2,0-2.2-1.1-2.2-2.2v-0.3c0-1.2,1.1-2.2,2.2-2.2h0.3c1.2,0,2.2,1.1,2.2,2.2v0.3
	C209.5,589.8,208.6,590.9,207.3,590.9z"/>
<path class="vpnserver1" d="M274.6,594h-38.9c-3,0-5.2-2.4-5.2-5.2v-0.5c0-3,2.4-5.2,5.2-5.2h38.9c3,0,5.2,2.4,5.2,5.2v0.5
	C279.9,591.8,277.6,594,274.6,594z"/>
<path class="vpnserver1" d="M236.1,573h-0.3c-0.9,0-1.5-0.6-1.5-1.5v-0.2c0-0.9,0.6-1.5,1.5-1.5h0.2c0.9,0,1.5,0.6,1.5,1.5v0.2
	C237.7,572.2,237,573,236.1,573z"/>
<path class="vpnserver1" d="M242.8,573L242.8,573c-1.1,0-1.7-0.6-1.7-1.5v-0.2c0-0.9,0.6-1.5,1.5-1.5h0.2c0.9,0,1.5,0.6,1.5,1.5v0.2
	C244.3,572.2,243.7,573,242.8,573z"/>
<path class="vpnserver1" d="M252.3,573L252.3,573c-1.1,0-1.7-0.6-1.7-1.5v-0.2c0-0.9,0.6-1.5,1.5-1.5h0.2c0.9,0,1.5,0.6,1.5,1.5v0.2
	C254,572.2,253.4,573,252.3,573z"/>
<path class="vpnserver1" d="M236.1,565.5h-0.3c-0.9,0-1.5-0.6-1.5-1.5v-0.2c0-0.9,0.6-1.5,1.5-1.5h0.2c0.9,0,1.5,0.6,1.5,1.5v0.2
	C237.7,564.9,237,565.5,236.1,565.5z"/>
<path class="vpnserver1" d="M242.8,565.5L242.8,565.5c-1.1,0-1.7-0.6-1.7-1.5v-0.2c0-0.9,0.6-1.5,1.5-1.5h0.2c0.9,0,1.5,0.6,1.5,1.5v0.2
	C244.3,564.9,243.7,565.5,242.8,565.5z"/>
<path class="vpnserver1" d="M278.2,565.5h-0.3c-0.9,0-1.5-0.6-1.5-1.5v-0.2c0-0.9,0.6-1.5,1.5-1.5h0.2c0.9,0,1.5,0.6,1.5,1.5v0.2
	C279.6,564.9,278.9,565.5,278.2,565.5z"/>
<path class="vpnserver1" d="M259.3,573L259.3,573c-1.1,0-1.7-0.6-1.7-1.5v-0.2c0-0.9,0.6-1.5,1.5-1.5h0.2c0.9,0,1.5,0.6,1.5,1.5v0.2
	C260.8,572.2,260,573,259.3,573z"/>
<path class="vpnserver1" d="M266,573L266,573c-1.1,0-1.7-0.6-1.7-1.5v-0.2c0-0.9,0.6-1.5,1.5-1.5h0.2c0.9,0,1.5,0.6,1.5,1.5v0.2
	C267.5,572.2,266.7,573,266,573z"/>
<path class="vpnserver1" d="M266,573L266,573c-1.1,0-1.7-0.6-1.7-1.5v-0.2c0-0.9,0.6-1.5,1.5-1.5h0.2c0.9,0,1.5,0.6,1.5,1.5v0.2
	C267.6,572.2,266.9,573,266,573z"/>
<path class="vpnserver1" d="M266,565.5h-13.1c-0.9,0-1.5-0.6-1.5-1.5v-0.2c0-0.9,0.6-1.5,1.5-1.5H266c0.9,0,1.5,0.6,1.5,1.5v0.2
	C267.6,564.9,266.9,565.5,266,565.5z"/>
<line class="vpnserver1" x1="247.8" y1="583" x2="247.8" y2="594"/>
<path class="vpnserver1" d="M265.1,590.9h-0.3c-1.2,0-2.2-1.1-2.2-2.2v-0.3c0-1.2,1.1-2.2,2.2-2.2h0.3c1.2,0,2.2,1.1,2.2,2.2v0.3
	C267.3,589.8,266.4,590.9,265.1,590.9z"/>
<path class="vpnserver1" d="M332.2,594h-38.9c-3,0-5.2-2.4-5.2-5.2v-0.5c0-3,2.4-5.2,5.2-5.2h38.9c3,0,5.2,2.4,5.2,5.2v0.5
	C337.5,591.8,335.2,594,332.2,594z"/>
<path class="vpnserver1" d="M294,573L294,573c-1.1,0-1.7-0.6-1.7-1.5v-0.2c0-0.9,0.6-1.5,1.5-1.5h0.2c0.9,0,1.5,0.6,1.5,1.5v0.2
	C295.5,572.2,294.8,573,294,573z"/>
<path class="vpnserver1" d="M300.6,573L300.6,573c-1.1,0-1.7-0.6-1.7-1.5v-0.2c0-0.9,0.6-1.5,1.5-1.5h0.2c0.9,0,1.5,0.6,1.5,1.5v0.2
	C302.4,572.2,301.5,573,300.6,573z"/>
<path class="vpnserver1" d="M310.3,573L310.3,573c-1.1,0-1.7-0.6-1.7-1.5v-0.2c0-0.9,0.6-1.5,1.5-1.5h0.2c0.9,0,1.5,0.6,1.5,1.5v0.2
	C311.8,572.2,311.2,573,310.3,573z"/>
<path class="vpnserver1" d="M294,565.5L294,565.5c-1.1,0-1.7-0.6-1.7-1.5v-0.2c0-0.9,0.6-1.5,1.5-1.5h0.2c0.9,0,1.5,0.6,1.5,1.5v0.2
	C295.5,564.9,294.8,565.5,294,565.5z"/>
<path class="vpnserver1" d="M300.6,565.5L300.6,565.5c-1.1,0-1.7-0.6-1.7-1.5v-0.2c0-0.9,0.6-1.5,1.5-1.5h0.2c0.9,0,1.5,0.6,1.5,1.5v0.2
	C302.4,564.9,301.5,565.5,300.6,565.5z"/>
<path class="vpnserver1" d="M336,565.5L336,565.5c-1.1,0-1.7-0.6-1.7-1.5v-0.2c0-0.9,0.6-1.5,1.5-1.5h0.2c0.9,0,1.5,0.6,1.5,1.5v0.2
	C337.5,564.9,336.7,565.5,336,565.5z"/>
<path class="vpnserver1" d="M317,573L317,573c-1.1,0-1.7-0.6-1.7-1.5v-0.2c0-0.9,0.6-1.5,1.5-1.5h0.2c0.9,0,1.5,0.6,1.5,1.5v0.2
	C318.6,572.2,317.8,573,317,573z"/>
<path class="vpnserver1" d="M323.7,573L323.7,573c-1.1,0-1.7-0.6-1.7-1.5v-0.2c0-0.9,0.6-1.5,1.5-1.5h0.2c0.9,0,1.5,0.6,1.5,1.5v0.2
	C325.2,572.2,324.5,573,323.7,573z"/>
<path class="vpnserver1" d="M323.7,573L323.7,573c-1.1,0-1.7-0.6-1.7-1.5v-0.2c0-0.9,0.6-1.5,1.5-1.5h0.2c0.9,0,1.5,0.6,1.5,1.5v0.2
	C325.4,572.2,324.6,573,323.7,573z"/>
<path class="vpnserver1" d="M323.7,565.5h-13.1c-0.9,0-1.5-0.6-1.5-1.5v-0.2c0-0.9,0.6-1.5,1.5-1.5h13.1c0.9,0,1.5,0.6,1.5,1.5v0.2
	C325.4,564.9,324.6,565.5,323.7,565.5z"/>
<line class="vpnserver1" x1="305.4" y1="583" x2="305.4" y2="594"/>
<path class="vpnserver1" d="M323,590.9h-0.3c-1.2,0-2.2-1.1-2.2-2.2v-0.3c0-1.2,1.1-2.2,2.2-2.2h0.3c1.2,0,2.2,1.1,2.2,2.2v0.3
	C325.1,589.8,324.2,590.9,323,590.9z"/>
<line class="vpnserver1" x1="226.7" y1="551.3" x2="226.7" y2="603.3"/>
<line class="vpnserver1" x1="161.8" y1="565.2" x2="161.8" y2="588"/>
<line class="vpnserver1" x1="401.7" y1="565.2" x2="401.7" y2="588"/>
<line class="vpnserver1" x1="284.2" y1="551.3" x2="284.2" y2="603.3"/>
<line class="vpnserver1" x1="341.4" y1="551.3" x2="341.4" y2="603.3"/>
<circle id="svg-concept" class="vpnserver6" cx="362.4" cy="578" r="13.2"/>
<path id="svg-concept" class="vpnserver6" d="M367.4,578c0,2.7-2.2,4.9-4.9,4.9c-2.7,0-4.9-2.2-4.9-4.9c0-2.8,2.2-4.9,4.9-4.9
	C365.1,573.1,367.4,575.4,367.4,578z M375.7,578h-8.3 M357.5,578h-8.3"/>

<g>
<path id="svg-concept" class="vpnserver6" d="M390,589.7c0,2.2-1.7,3.9-3.9,3.9c-2.2,0-3.9-1.7-3.9-3.9s1.7-3.9,3.9-3.9
	C388.3,585.8,390,587.6,390,589.7z"/>
<animate accumulate="none" additive="replace" attributeName="opacity" calcMode="linear" dur="2s" fill="remove" repeatCount="indefinite" restart="always" values="0;1;0">
</animate>
</g>

<path class="vpnserver1" d="M387.3,578.6h-2.6c-0.7,0-1.2-0.5-1.2-1.2v-2.6c0-0.7,0.5-1.2,1.2-1.2h2.6c0.7,0,1.2,0.5,1.2,1.2v2.6
	C388.6,578.1,388.1,578.6,387.3,578.6z"/>
<path class="vpnserver1" d="M387.3,567.6h-2.6c-0.7,0-1.2-0.5-1.2-1.2v-2.6c0-0.7,0.5-1.2,1.2-1.2h2.6c0.7,0,1.2,0.5,1.2,1.2v2.6
	C388.6,567.1,388.1,567.6,387.3,567.6z"/>
<circle id="svg-concept" class="vpnserver6" cx="362.4" cy="494.1" r="13.2"/>
<path id="svg-concept" class="vpnserver6" d="M367.4,494.1c0,2.7-2.2,4.9-4.9,4.9c-2.7,0-4.9-2.2-4.9-4.9c0-2.8,2.2-4.9,4.9-4.9
	C365.1,489.1,367.4,491.4,367.4,494.1z M375.7,494.1h-8.3 M357.5,494.1h-8.3"/>

<g>
<path id="svg-concept" class="vpnserver6" d="M390,505.7c0,2.2-1.7,3.9-3.9,3.9c-2.2,0-3.9-1.7-3.9-3.9c0-2.2,1.7-3.9,3.9-3.9
	C388.3,501.9,390,503.6,390,505.7z"/>
<animate accumulate="none" additive="replace" attributeName="opacity" calcMode="linear" dur="2s" fill="remove" repeatCount="indefinite" restart="always" values="0;1;0">
</animate>
</g>

<path class="vpnserver1" d="M387.3,494.7h-2.6c-0.7,0-1.2-0.5-1.2-1.2v-2.6c0-0.7,0.5-1.2,1.2-1.2h2.6c0.7,0,1.2,0.5,1.2,1.2v2.6
	C388.6,494.2,388.1,494.7,387.3,494.7z"/>
<path class="vpnserver1" d="M387.3,483.6h-2.6c-0.7,0-1.2-0.5-1.2-1.2v-2.6c0-0.7,0.5-1.2,1.2-1.2h2.6c0.7,0,1.2,0.5,1.2,1.2v2.6
	C388.6,483.1,388.1,483.6,387.3,483.6z"/>
<circle id="svg-concept" class="vpnserver6" cx="362.4" cy="410" r="13.2"/>
<path id="svg-concept" class="vpnserver6" d="M367.4,410c0,2.7-2.2,4.9-4.9,4.9c-2.7,0-4.9-2.2-4.9-4.9s2.2-4.9,4.9-4.9
	C365.1,405.1,367.4,407.3,367.4,410z M375.7,410h-8.3 M357.5,410h-8.3"/>
<path id="svg-concept" class="vpnserver6" d="M390,421.7c0,2.2-1.7,3.9-3.9,3.9c-2.2,0-3.9-1.7-3.9-3.9s1.7-3.9,3.9-3.9
	C388.3,417.8,390,419.5,390,421.7z"/>
<path class="vpnserver1" d="M387.3,410.6h-2.6c-0.7,0-1.2-0.5-1.2-1.2v-2.6c0-0.7,0.5-1.2,1.2-1.2h2.6c0.7,0,1.2,0.5,1.2,1.2v2.6
	C388.6,410.1,388.1,410.6,387.3,410.6z"/>
<path class="vpnserver1" d="M387.3,399.5h-2.6c-0.7,0-1.2-0.5-1.2-1.2v-2.6c0-0.7,0.5-1.2,1.2-1.2h2.6c0.7,0,1.2,0.5,1.2,1.2v2.6
	C388.6,399,388.1,399.5,387.3,399.5z"/>
<circle id="svg-concept" class="vpnserver6" cx="362.4" cy="326" r="13.2"/>
<path id="svg-concept" class="vpnserver6" d="M367.4,326c0,2.7-2.2,4.9-4.9,4.9c-2.7,0-4.9-2.2-4.9-4.9c0-2.8,2.2-4.9,4.9-4.9
	C365.1,321.1,367.4,323.4,367.4,326z M375.7,326h-8.3 M357.5,326h-8.3"/>
<circle id="svg-concept" class="vpnserver6" cx="590.4" cy="377.3" r="10.3"/>
<path id="svg-concept" class="vpnserver6" d="M594.3,377.3c0,2.1-1.6,3.8-3.8,3.8c-2.1,0-3.8-1.6-3.8-3.8s1.6-3.8,3.8-3.8
	C592.5,373.5,594.3,375.2,594.3,377.3z M600.7,377.3h-6.5 M586.6,377.3h-6.5"/>
<circle id="svg-concept" class="vpnserver6" cx="590.4" cy="321.6" r="10.3"/>
<path id="svg-concept" class="vpnserver6" d="M594.3,321.6c0,2.1-1.6,3.8-3.8,3.8c-2.1,0-3.8-1.6-3.8-3.8c0-2.2,1.6-3.8,3.8-3.8
	C592.5,317.8,594.3,319.6,594.3,321.6z M600.7,321.6h-6.5 M586.6,321.6h-6.5"/>
<circle id="svg-concept" class="vpnserver6" cx="590.4" cy="266" r="10.3"/>
<path id="svg-concept" class="vpnserver6" d="M594.3,266c0,2.1-1.6,3.8-3.8,3.8c-2.1,0-3.8-1.6-3.8-3.8c0-2.2,1.6-3.8,3.8-3.8
	C592.5,262.2,594.3,263.9,594.3,266z M600.7,266h-6.5 M586.6,266h-6.5"/>
<circle id="svg-concept" class="vpnserver6" cx="590.4" cy="210.4" r="10.3"/>
<path id="svg-concept" class="vpnserver6" d="M594.3,210.4c0,2.1-1.6,3.8-3.8,3.8c-2.1,0-3.8-1.6-3.8-3.8c0-2.2,1.6-3.8,3.8-3.8
	C592.5,206.5,594.3,208.3,594.3,210.4z M600.7,210.4h-6.5 M586.6,210.4h-6.5"/>
<circle id="svg-concept" class="vpnserver6" cx="590.4" cy="154.7" r="10.3"/>
<path id="svg-concept" class="vpnserver6" d="M594.3,154.7c0,2.1-1.6,3.8-3.8,3.8c-2.1,0-3.8-1.6-3.8-3.8s1.6-3.8,3.8-3.8
	C592.5,151,594.3,152.7,594.3,154.7z M600.7,154.7h-6.5 M586.6,154.7h-6.5"/>
<circle id="svg-concept" class="vpnserver6" cx="590.4" cy="99.1" r="10.3"/>
<path id="svg-concept" class="vpnserver6" d="M594.3,99.1c0,2.1-1.6,3.8-3.8,3.8c-2.1,0-3.8-1.6-3.8-3.8c0-2.2,1.6-3.8,3.8-3.8
	C592.5,95.3,594.3,97,594.3,99.1z M600.7,99.1h-6.5 M586.6,99.1h-6.5"/>
<circle id="svg-concept" class="vpnserver6" cx="590.4" cy="433.4" r="10.3"/>
<path id="svg-concept" class="vpnserver6" d="M594.3,433.4c0,2.1-1.6,3.8-3.8,3.8c-2.1,0-3.8-1.6-3.8-3.8c0-2.2,1.6-3.8,3.8-3.8
	C592.5,429.6,594.3,431.3,594.3,433.4z M600.7,433.4h-6.5 M586.6,433.4h-6.5"/>

<g>
<path id="svg-concept" class="vpnserver6" d="M390,337.7c0,2.2-1.7,3.9-3.9,3.9c-2.2,0-3.9-1.7-3.9-3.9c0-2.2,1.7-3.9,3.9-3.9
	C388.3,333.8,390,335.6,390,337.7z"/>
<animate accumulate="none" additive="replace" attributeName="opacity" calcMode="linear" dur="2s" fill="remove" repeatCount="indefinite" restart="always" values="0;1;0">
</animate>
</g>


<path class="vpnserver1" d="M387.3,326.7h-2.6c-0.7,0-1.2-0.5-1.2-1.2v-2.6c0-0.7,0.5-1.2,1.2-1.2h2.6c0.7,0,1.2,0.5,1.2,1.2v2.6
	C388.6,326.1,388.1,326.7,387.3,326.7z"/>
<path class="vpnserver1" d="M387.3,315.6h-2.6c-0.7,0-1.2-0.5-1.2-1.2v-2.6c0-0.7,0.5-1.2,1.2-1.2h2.6c0.7,0,1.2,0.5,1.2,1.2v2.6
	C388.6,315.1,388.1,315.6,387.3,315.6z"/>
<circle id="svg-concept" class="vpnserver6" cx="362.4" cy="243.1" r="13.2"/>
<path id="svg-concept" class="vpnserver6" d="M367.4,243.1c0,2.7-2.2,4.9-4.9,4.9c-2.7,0-4.9-2.2-4.9-4.9c0-2.8,2.2-4.9,4.9-4.9
	C365.1,238.2,367.4,240.4,367.4,243.1z M375.7,243.1h-8.3 M357.5,243.1h-8.3"/>

<g>
<path id="svg-concept" class="vpnserver6" d="M390,254.8c0,2.2-1.7,3.9-3.9,3.9c-2.2,0-3.9-1.7-3.9-3.9c0-2.2,1.7-3.9,3.9-3.9
	C388.3,250.9,390,252.6,390,254.8z"/>
<animate accumulate="none" additive="replace" attributeName="opacity" calcMode="linear" dur="1s" fill="remove" repeatCount="indefinite" restart="always" values="0;1;0">
</animate>
</g>

<path class="vpnserver1" d="M387.3,243.7h-2.6c-0.7,0-1.2-0.5-1.2-1.2v-2.6c0-0.7,0.5-1.2,1.2-1.2h2.6c0.7,0,1.2,0.5,1.2,1.2v2.6
	C388.6,243.2,388.1,243.7,387.3,243.7z"/>
<path class="vpnserver1" d="M387.3,232.7h-2.6c-0.7,0-1.2-0.5-1.2-1.2v-2.6c0-0.7,0.5-1.2,1.2-1.2h2.6c0.7,0,1.2,0.5,1.2,1.2v2.6
	C388.6,232.1,388.1,232.7,387.3,232.7z"/>
<circle id="svg-concept" class="vpnserver6" cx="362.4" cy="160.2" r="13.2"/>
<path id="svg-concept" class="vpnserver6" d="M367.4,160.2c0,2.7-2.2,4.9-4.9,4.9c-2.7,0-4.9-2.2-4.9-4.9c0-2.8,2.2-4.9,4.9-4.9
	C365.1,155.3,367.4,157.5,367.4,160.2z M375.7,160.2h-8.3 M357.5,160.2h-8.3"/>
<path id="svg-concept" class="vpnserver6" d="M390,171.9c0,2.2-1.7,3.9-3.9,3.9c-2.2,0-3.9-1.7-3.9-3.9s1.7-3.9,3.9-3.9
	C388.3,168,390,169.7,390,171.9z"/>
<path class="vpnserver1" d="M387.3,160.8h-2.6c-0.7,0-1.2-0.5-1.2-1.2V157c0-0.7,0.5-1.2,1.2-1.2h2.6c0.7,0,1.2,0.5,1.2,1.2v2.6
	C388.6,160.3,388.1,160.8,387.3,160.8z"/>
<path class="vpnserver1" d="M387.3,149.7h-2.6c-0.7,0-1.2-0.5-1.2-1.2v-2.6c0-0.7,0.5-1.2,1.2-1.2h2.6c0.7,0,1.2,0.5,1.2,1.2v2.6
	C388.6,149.2,388.1,149.7,387.3,149.7z"/>
<circle id="svg-concept" class="vpnserver6" cx="362.4" cy="76.1" r="13.2"/>
<path id="svg-concept" class="vpnserver6" d="M367.4,76.1c0,2.7-2.2,4.9-4.9,4.9c-2.7,0-4.9-2.2-4.9-4.9s2.2-4.9,4.9-4.9
	C365.1,71.2,367.4,73.5,367.4,76.1z M375.7,76.1h-8.3 M357.5,76.1h-8.3"/>

<g>
<path id="svg-concept" class="vpnserver6" d="M390,87.8c0,2.2-1.7,3.9-3.9,3.9c-2.2,0-3.9-1.7-3.9-3.9c0-2.2,1.7-3.9,3.9-3.9
	C388.3,83.9,390,85.6,390,87.8z"/>
<animate accumulate="none" additive="replace" attributeName="opacity" calcMode="linear" dur="1s" fill="remove" repeatCount="indefinite" restart="always" values="0;1;0">
</animate>
</g>

<path class="vpnserver1" d="M387.3,76.7h-2.6c-0.7,0-1.2-0.5-1.2-1.2v-2.6c0-0.7,0.5-1.2,1.2-1.2h2.6c0.7,0,1.2,0.5,1.2,1.2v2.6
	C388.6,76.2,388.1,76.7,387.3,76.7z"/>
<path class="vpnserver1" d="M387.3,65.7h-2.6c-0.7,0-1.2-0.5-1.2-1.2v-2.6c0-0.7,0.5-1.2,1.2-1.2h2.6c0.7,0,1.2,0.5,1.2,1.2v2.6
	C388.6,65.1,388.1,65.7,387.3,65.7z"/>
</svg>
