<?xml version="1.0" encoding="utf-8"?>
<!-- Generator: Adobe Illustrator 24.3.0, SVG Export Plug-In . SVG Version: 6.00 Build 0)  -->
<svg version="1.1" id="Layer_1" xmlns="http://www.w3.org/2000/svg" xmlns:xlink="http://www.w3.org/1999/xlink" x="0px" y="0px"
	 viewBox="0 0 650 650" style="enable-background:new 0 0 650 650;" xml:space="preserve">
<style type="text/css">
	.ddosanalyze0{fill:none;stroke:#808080;stroke-linecap:round;stroke-linejoin:round;stroke-miterlimit:10;}
	.ddosanalyze1{fill:none;stroke:#55bde5;stroke-width:2;stroke-linecap:round;stroke-linejoin:round;stroke-miterlimit:10;}
	.ddosanalyze2{fill:none;stroke:#55bde5;stroke-width:3;stroke-linecap:round;stroke-linejoin:round;stroke-miterlimit:10;}
	.ddosanalyze3{fill:none;stroke:#808080;stroke-width:2;stroke-linecap:round;stroke-linejoin:round;stroke-miterlimit:10;}
</style>
<g>
	<path class="ddosanalyze0" d="M350.8,416.1c0,3-2.4,5.6-5.4,5.6c-3,0-5.4-2.4-5.4-5.6c0-3,2.4-5.4,5.4-5.4
		C348.3,410.6,350.8,413,350.8,416.1z"/>
	<path class="ddosanalyze0" d="M334.4,403.1c0,3-2.4,5.6-5.4,5.6s-5.4-2.4-5.4-5.6c0-3,2.4-5.4,5.4-5.4S334.4,400.1,334.4,403.1z"/>
	<path class="ddosanalyze0" d="M380.2,367.2c0,3-2.4,5.6-5.4,5.6c-3,0-5.4-2.4-5.4-5.6c0-3,2.4-5.4,5.4-5.4
		C377.8,361.8,380.2,364.2,380.2,367.2z"/>
	<path class="ddosanalyze0" d="M387.5,324c0,3-2.4,5.6-5.4,5.6c-3,0-5.4-2.4-5.4-5.6c0-3,2.4-5.4,5.4-5.4C385,318.5,387.5,320.9,387.5,324z"
		/>
	<path class="ddosanalyze0" d="M409.9,287.6c0,3-2.4,5.6-5.4,5.6c-3,0-5.4-2.4-5.4-5.6c0-3,2.4-5.4,5.4-5.4
		C407.5,282.1,409.9,284.6,409.9,287.6z"/>
	<path class="ddosanalyze0" d="M392.9,284.8c0,3-2.4,5.6-5.4,5.6s-5.4-2.4-5.4-5.6c0-3,2.4-5.4,5.4-5.4C390.5,279.2,392.9,281.8,392.9,284.8z
		"/>
	<path class="ddosanalyze0" d="M374.9,240.2c0,3-2.4,5.6-5.4,5.6s-5.4-2.4-5.4-5.6c0-3.1,2.4-5.4,5.4-5.4S374.9,237.2,374.9,240.2z"/>
	<path class="ddosanalyze0" d="M402.1,272c0,3-2.4,5.6-5.4,5.6c-3,0-5.4-2.4-5.4-5.6c0-3,2.4-5.4,5.4-5.4C399.7,266.5,402.1,269,402.1,272z"
		/>
	<path class="ddosanalyze0" d="M377.7,220.8c0,3-2.4,5.6-5.4,5.6s-5.4-2.4-5.4-5.6s2.4-5.4,5.4-5.4C375.2,215.2,377.7,217.6,377.7,220.8z"/>
	<path class="ddosanalyze0" d="M374.9,206c0,3-2.4,5.6-5.4,5.6s-5.4-2.4-5.4-5.6c0-3.1,2.4-5.4,5.4-5.4C372.5,200.4,374.9,202.9,374.9,206z"
		/>
	<path class="ddosanalyze0" d="M357,204.9c0,3-2.4,5.6-5.4,5.6s-5.4-2.4-5.4-5.6s2.4-5.4,5.4-5.4S357,201.9,357,204.9z"/>
	<path class="ddosanalyze0" d="M339.9,229.3c0,3-2.4,5.6-5.4,5.6c-3,0-5.4-2.4-5.4-5.6c0-3.1,2.4-5.4,5.4-5.4
		C337.4,223.8,339.9,226.2,339.9,229.3z"/>
	<path class="ddosanalyze0" d="M282.7,215.2c0,3-2.4,5.6-5.4,5.6s-5.4-2.4-5.4-5.6s2.4-5.4,5.4-5.4S282.7,212.2,282.7,215.2z"/>
	<path class="ddosanalyze0" d="M315,185.6c0,3-2.4,5.6-5.4,5.6c-3,0-5.4-2.4-5.4-5.6c0-3.1,2.4-5.4,5.4-5.4C312.5,180.1,315,182.5,315,185.6z
		"/>
	<path class="ddosanalyze0" d="M329.7,195.8c0,3-2.4,5.6-5.4,5.6c-3,0-5.4-2.4-5.4-5.6c0-3,2.4-5.4,5.4-5.4
		C327.2,190.3,329.7,192.8,329.7,195.8z"/>
	<path class="ddosanalyze0" d="M317.7,147.2c0,3-2.4,5.6-5.4,5.6c-3,0-5.4-2.4-5.4-5.6c0-3.1,2.4-5.4,5.4-5.4
		C315.2,141.7,317.7,144.2,317.7,147.2z"/>
	<path class="ddosanalyze0" d="M311.9,114.8c0,3-2.4,5.6-5.4,5.6s-5.4-2.4-5.4-5.6c0-3.1,2.4-5.4,5.4-5.4
		C309.3,109.3,311.9,111.7,311.9,114.8z"/>
	<path class="ddosanalyze0" d="M350.4,78.9c0,3-2.4,5.6-5.4,5.6c-3,0-5.4-2.4-5.4-5.6s2.4-5.4,5.4-5.4C348,73.4,350.4,75.8,350.4,78.9z"/>
	<path class="ddosanalyze0" d="M384.8,95.2c0,3-2.4,5.6-5.4,5.6s-5.4-2.4-5.4-5.6c0-3.1,2.4-5.4,5.4-5.4S384.8,92.2,384.8,95.2z"/>
	<path class="ddosanalyze0" d="M417.7,86.2c0,3-0.2,5.5-3.2,5.5c-3,0-5.4-2.4-5.4-5.6c0-3.1,2.4-5.4,5.4-5.4
		C417.5,80.6,417.7,83.1,417.7,86.2z"/>
	<path class="ddosanalyze0" d="M471.9,64.9c0,3-2.4,5.6-5.4,5.6c-3,0-5.4-2.4-5.4-5.6c0-3,2.4-5.4,5.4-5.4C469.5,59.5,471.9,61.9,471.9,64.9z
		"/>
	<path class="ddosanalyze0" d="M503.3,51.4c0,3-2.4,5.6-5.4,5.6s-5.4-2.4-5.4-5.6s2.4-5.4,5.4-5.4C500.7,45.9,503.3,48.4,503.3,51.4z"/>
	<path class="ddosanalyze0" d="M532.6,69.1c0,3-2.4,5.6-5.4,5.6s-5.4-2.4-5.4-5.6c0-3,2.4-5.4,5.4-5.4S532.6,66.1,532.6,69.1z"/>
	<path class="ddosanalyze0" d="M590.7,207.6c0,3-2.4,5.6-5.4,5.6s-5.4-2.4-5.4-5.6c0-3.1,2.4-5.4,5.4-5.4
		C588.3,202.1,590.7,204.5,590.7,207.6z"/>
	<path class="ddosanalyze0" d="M575.6,195.2c0,3-2.4,5.6-5.4,5.6s-5.4-2.4-5.4-5.6s2.4-5.4,5.4-5.4C573.1,189.8,575.6,192.2,575.6,195.2z"/>
	<path class="ddosanalyze0" d="M575.6,231.2c0,3-2.4,5.6-5.4,5.6s-5.4-2.4-5.4-5.6c0-3.1,2.4-5.4,5.4-5.4
		C573.1,225.6,575.6,228.1,575.6,231.2z"/>
	<path class="ddosanalyze0" d="M554.3,256.4c0,3-2.4,5.6-5.4,5.6s-5.4-2.4-5.4-5.6c0-3,2.4-5.4,5.4-5.4C551.8,250.9,554.3,253.4,554.3,256.4z
		"/>
	<path class="ddosanalyze0" d="M545.8,286.1c0,3-2.4,5.6-5.4,5.6s-5.4-2.4-5.4-5.6c0-3,2.4-5.4,5.4-5.4S545.8,283.1,545.8,286.1z"/>
	<path id="svg-concept" class="ddosanalyze1" d="M506.9,249.3c0,3-2.4,5.6-5.4,5.6s-5.4-2.4-5.4-5.6c0-3,2.4-5.4,5.4-5.4S506.9,246.3,506.9,249.3z"/>
	<path class="ddosanalyze0" d="M379.3,137.5c0,3-2.4,5.6-5.4,5.6c-3,0-5.4-2.4-5.4-5.6c0-3,2.4-5.4,5.4-5.4
		C376.9,132,379.3,134.4,379.3,137.5z"/>
	<path class="ddosanalyze0" d="M602.3,356.3c0,3-2.4,5.6-5.4,5.6s-5.4-2.4-5.4-5.6c0-3,2.4-5.4,5.4-5.4S602.3,353.3,602.3,356.3z"/>
	<path class="ddosanalyze0" d="M402.7,391c0,3-2.4,5.6-5.4,5.6c-3,0-5.4-2.4-5.4-5.6c0-3,2.4-5.4,5.4-5.4C400.1,385.5,402.7,387.9,402.7,391z
		"/>
	<path class="ddosanalyze0" d="M407.7,359.9c0,3-2.4,5.6-5.4,5.6s-5.4-2.4-5.4-5.6c0-3,2.4-5.4,5.4-5.4S407.7,356.9,407.7,359.9z"/>
	<path class="ddosanalyze0" d="M595,282.4c0,3-2.4,5.6-5.4,5.6s-5.4-2.4-5.4-5.6c0-3,2.4-5.4,5.4-5.4C592.4,276.9,595,279.4,595,282.4z"/>
	<path class="ddosanalyze0" d="M605.3,221.6c0,3-2.4,5.6-5.4,5.6s-5.4-2.4-5.4-5.6c0-3.1,2.4-5.4,5.4-5.4
		C602.8,216.1,605.3,218.5,605.3,221.6z"/>
	<path class="ddosanalyze0" d="M587.3,322.9c0,3-2.4,5.6-5.4,5.6s-5.4-2.4-5.4-5.6c0-3,2.4-5.4,5.4-5.4C584.8,317.3,587.3,319.8,587.3,322.9z
		"/>
	<path class="ddosanalyze0" d="M554.3,338.3c0,3-2.4,5.6-5.4,5.6s-5.4-2.4-5.4-5.6c0-3,2.4-5.4,5.4-5.4S554.3,335.3,554.3,338.3z"/>
	<path class="ddosanalyze0" d="M537.6,323.8c0,3-2.4,5.6-5.4,5.6s-5.4-2.4-5.4-5.6c0-3,2.4-5.4,5.4-5.4S537.6,320.8,537.6,323.8z"/>
	<path class="ddosanalyze0" d="M585.7,264.9c0,3-2.4,5.6-5.4,5.6s-5.4-2.4-5.4-5.6c0-3,2.4-5.4,5.4-5.4S585.7,261.9,585.7,264.9z"/>
	<path class="ddosanalyze0" d="M579.7,248.1c0,3-2.4,5.6-5.4,5.6s-5.4-2.4-5.4-5.6c0-3,2.4-5.4,5.4-5.4C577.3,242.5,579.7,245,579.7,248.1z"
		/>
	<path class="ddosanalyze0" d="M578.3,372.8c0,3-2.4,5.6-5.4,5.6s-5.4-2.4-5.4-5.6c0-3,2.4-5.4,5.4-5.4C575.8,367.2,578.3,369.7,578.3,372.8z
		"/>
	<path class="ddosanalyze0" d="M593.3,384.9c0,3-2.4,5.6-5.4,5.6s-5.4-2.4-5.4-5.6c0-3,2.4-5.4,5.4-5.4C590.8,379.4,593.3,381.8,593.3,384.9z
		"/>
	<path class="ddosanalyze0" d="M270.5,142.6c0,3-2.4,5.6-5.4,5.6c-3,0-5.4-2.4-5.4-5.6c0-3.1,2.4-5.4,5.4-5.4
		C268.1,137.1,270.5,139.5,270.5,142.6z"/>
	<path class="ddosanalyze0" d="M264.4,245.8c0,3-2.4,5.6-5.4,5.6s-5.4-2.4-5.4-5.6c0-3,2.4-5.4,5.4-5.4C262,240.2,264.4,242.7,264.4,245.8z"
		/>
	<path class="ddosanalyze0" d="M260.4,280.2c0,3-2.4,5.6-5.4,5.6s-5.4-2.4-5.4-5.6c0-3,2.4-5.4,5.4-5.4C257.9,274.7,260.4,277.1,260.4,280.2z
		"/>
	<path class="ddosanalyze0" d="M290.3,251.2c0,3-2.4,5.6-5.4,5.6s-5.4-2.4-5.4-5.6c0-3,2.4-5.4,5.4-5.4C287.8,245.8,290.3,248.2,290.3,251.2z
		"/>
	<path class="ddosanalyze0" d="M334.4,269.8c0,3-2.4,5.6-5.4,5.6s-5.4-2.4-5.4-5.6c0-3,2.4-5.4,5.4-5.4C332,264.2,334.4,266.7,334.4,269.8z"
		/>
	<path id="svg-concept" class="ddosanalyze1" d="M352.7,365.7c0,3-2.4,5.6-5.4,5.6s-5.4-2.4-5.4-5.6c0-3,2.4-5.4,5.4-5.4S352.7,362.7,352.7,365.7z"/>
	<path class="ddosanalyze0" d="M324,369.9c0,3-2.4,5.6-5.4,5.6s-5.4-2.4-5.4-5.6c0-3,2.4-5.4,5.4-5.4S324,366.9,324,369.9z"/>
	<path class="ddosanalyze0" d="M327.8,349.1c0,3-2.4,5.6-5.4,5.6s-5.4-2.4-5.4-5.6c0-3,2.4-5.4,5.4-5.4C325.2,343.6,327.8,346,327.8,349.1z"
		/>
	<path class="ddosanalyze0" d="M273.9,101.1c0,3-2.4,5.6-5.4,5.6c-3,0-5.4-2.4-5.4-5.6c0-3,2.4-5.4,5.4-5.4
		C271.4,95.5,273.9,98.1,273.9,101.1z"/>
	<path class="ddosanalyze0" d="M327.3,50.2c0,3-2.4,5.6-5.4,5.6s-5.4-2.4-5.4-5.6c0-3,2.4-5.4,5.4-5.4S327.3,47.2,327.3,50.2z"/>
	<line class="ddosanalyze0" x1="316.6" y1="36.4" x2="320" y2="45"/>
	<line class="ddosanalyze0" x1="405.2" y1="68.5" x2="418.7" y2="54.2"/>
	<path class="ddosanalyze0" d="M181.7,429.8c0,3-2.4,4.4-5.4,4.4c-3,0-5.4-1.2-5.4-4.4c0-3,2.4-5.4,5.4-5.4
		C179.3,424.4,181.7,426.8,181.7,429.8z"/>
	<path class="ddosanalyze0" d="M145.1,414.7c0,3-2.4,5.6-5.4,5.6c-3,0-5.4-2.4-5.4-5.6c0-3,2.4-5.4,5.4-5.4
		C142.6,409.1,145.1,411.6,145.1,414.7z"/>
	<path class="ddosanalyze0" d="M169.3,398.9c0,3-2.4,5.6-5.4,5.6s-5.4-2.4-5.4-5.6c0-3,2.4-5.4,5.4-5.4S169.3,395.9,169.3,398.9z"/>
	<path class="ddosanalyze0" d="M190.5,321c0,3-2.4,5.6-5.4,5.6c-3,0-5.4-2.4-5.4-5.6c0-3,2.4-5.4,5.4-5.4C188.1,315.5,190.5,317.9,190.5,321z
		"/>
	<path class="ddosanalyze0" d="M105.7,281.4c0,3-2.4,5.6-5.4,5.6c-3,0-5.4-2.4-5.4-5.6c0-3,2.4-5.4,5.4-5.4
		C103.3,275.9,105.7,278.3,105.7,281.4z"/>
	<path class="ddosanalyze0" d="M46.5,237.8c0,3-2.4,5.6-5.4,5.6c-3,0-5.4-2.4-5.4-5.6s2.4-5.4,5.4-5.4C44,232.2,46.5,234.8,46.5,237.8z"/>
	<path class="ddosanalyze0" d="M79.8,232.2c0,3-2.4,5.6-5.4,5.6c-3,0-5.4-2.4-5.4-5.6s2.4-5.4,5.4-5.4C77.4,226.8,79.8,229.2,79.8,232.2z"/>
	<path class="ddosanalyze0" d="M120.1,237.8c0,3-2.4,5.6-5.4,5.6s-5.4-2.4-5.4-5.6s2.4-5.4,5.4-5.4C117.6,232.2,120.1,234.8,120.1,237.8z"/>
	<path class="ddosanalyze0" d="M135.5,208.3c0,3-2.4,5.6-5.4,5.6c-3,0-5.4-2.4-5.4-5.6s2.4-5.4,5.4-5.4C133.1,202.9,135.5,205.3,135.5,208.3z
		"/>
	<path class="ddosanalyze0" d="M145.6,118.4c0,3-2.4,5.6-5.4,5.6s-5.4-2.4-5.4-5.6s2.4-5.4,5.4-5.4S145.6,115.4,145.6,118.4z"/>
	<path class="ddosanalyze0" d="M106,129.5c0,3-2.4,5.6-5.4,5.6s-5.4-2.4-5.4-5.6c0-3.1,2.4-5.4,5.4-5.4C103.6,124,106,126.4,106,129.5z"/>
	<path id="svg-concept" class="ddosanalyze2" d="M129.4,94.7c0,3-2.4,5.6-5.4,5.6c-3,0-5.4-2.4-5.4-5.6c0-3.1,2.4-5.4,5.4-5.4
		C126.8,89.2,129.4,91.6,129.4,94.7z"/>
	<path class="ddosanalyze0" d="M164.4,79.4c0,3-2.4,5.6-5.4,5.6c-3,0-5.4-2.4-5.4-5.6c0-3,2.4-5.4,5.4-5.4C162,73.9,164.4,76.4,164.4,79.4z"
		/>
	<path class="ddosanalyze0" d="M164.4,107.2c0,3-2.4,5.6-5.4,5.6c-3,0-5.4-2.4-5.4-5.6c0-3.1,2.4-5.4,5.4-5.4
		C162,101.6,164.4,104.1,164.4,107.2z"/>
	<path class="ddosanalyze0" d="M94.8,179.9c0,3-2.4,5.6-5.4,5.6c-3,0-5.4-2.4-5.4-5.6c0-3.1,2.4-5.4,5.4-5.4
		C92.4,174.4,94.8,176.9,94.8,179.9z"/>
	<path class="ddosanalyze0" d="M150.5,323.2c0,3-2.4,5.6-5.4,5.6c-3,0-5.4-2.4-5.4-5.6c0-3,2.4-5.4,5.4-5.4
		C148.1,317.7,150.5,320.2,150.5,323.2z"/>
	<path class="ddosanalyze0" d="M185,355.2c0,3-2.4,5.6-5.4,5.6c-3,0-5.4-2.4-5.4-5.6c0-3,2.4-5.4,5.4-5.4C182.5,349.7,185,352.1,185,355.2z"
		/>
	<path class="ddosanalyze0" d="M249.3,83.9c0,3-2.4,5.6-5.4,5.6c-3,0-5.4-2.4-5.4-5.6c0-3.1,2.4-5.4,5.4-5.4
		C246.8,78.4,249.3,80.8,249.3,83.9z"/>
	<path class="ddosanalyze0" d="M268.4,44.9c0,3-2.4,5.6-5.4,5.6s-5.4-2.4-5.4-5.6s2.4-5.4,5.4-5.4C266,39.4,268.4,41.8,268.4,44.9z"/>
	<path class="ddosanalyze0" d="M175.3,49.5c0,3-2.4,5.6-5.4,5.6c-3,0-5.4-2.4-5.4-5.6s2.4-5.4,5.4-5.4C172.7,43.9,175.3,46.4,175.3,49.5z"/>
	<line class="ddosanalyze0" x1="247.4" y1="79.8" x2="254.3" y2="70.2"/>
	<line class="ddosanalyze0" x1="259.8" y1="60.7" x2="261.9" y2="50.4"/>
	<line class="ddosanalyze0" x1="257.4" y1="44.9" x2="232.9" y2="43.8"/>
	<line class="ddosanalyze0" x1="266" y1="40.4" x2="270.1" y2="35.9"/>
	<line class="ddosanalyze0" x1="182.3" y1="35.2" x2="173.4" y2="44.9"/>
	<line class="ddosanalyze0" x1="193.5" y1="58.8" x2="174.4" y2="52.3"/>
	<line class="ddosanalyze0" x1="170.7" y1="429.8" x2="143.7" y2="418.1"/>
	<line class="ddosanalyze0" x1="142.7" y1="410.1" x2="159.7" y2="402.7"/>
	<line class="ddosanalyze0" x1="160.5" y1="394.5" x2="137.4" y2="368"/>
	<line class="ddosanalyze0" x1="169.3" y1="396.7" x2="193.5" y2="388.3"/>
	<line class="ddosanalyze0" x1="193.5" y1="376.4" x2="183" y2="360.4"/>
	<line class="ddosanalyze0" x1="184" y1="352" x2="193.5" y2="348"/>
	<line class="ddosanalyze0" x1="193.5" y1="325.4" x2="190.1" y2="323.9"/>
	<line class="ddosanalyze0" x1="135.5" y1="358.5" x2="141.9" y2="327.8"/>
	<line class="ddosanalyze0" x1="141.9" y1="327.8" x2="122.1" y2="330.5"/>
	<line class="ddosanalyze0" x1="116.8" y1="323.2" x2="117.6" y2="314.9"/>
	<line class="ddosanalyze0" x1="177.6" y1="314.9" x2="180.6" y2="317.7"/>
	<line class="ddosanalyze0" x1="148.9" y1="327" x2="174.6" y2="352.6"/>
	<line class="ddosanalyze0" x1="115.9" y1="295.2" x2="103.9" y2="285.4"/>
	<line class="ddosanalyze0" x1="97.6" y1="275.9" x2="93.5" y2="265"/>
	<line class="ddosanalyze0" x1="85.9" y1="259.9" x2="67.7" y2="261.1"/>
	<line class="ddosanalyze0" x1="63.5" y1="255.7" x2="71.8" y2="237.2"/>
	<line class="ddosanalyze0" x1="68.8" y1="232.2" x2="46.4" y2="236.5"/>
	<line class="ddosanalyze0" x1="40.9" y1="232.2" x2="58.5" y2="170.1"/>
	<line class="ddosanalyze0" x1="70.2" y1="150.9" x2="96.9" y2="133.6"/>
	<line class="ddosanalyze0" x1="103.9" y1="134" x2="127.3" y2="153.1"/>
	<line class="ddosanalyze0" x1="129.8" y1="152.7" x2="140.1" y2="124"/>
	<line class="ddosanalyze0" x1="143.7" y1="122.6" x2="170" y2="154.8"/>
	<line class="ddosanalyze0" x1="152.1" y1="154.1" x2="143.7" y2="122.6"/>
	<line class="ddosanalyze0" x1="129" y1="173.2" x2="129.9" y2="202.9"/>
	<line class="ddosanalyze0" x1="126.8" y1="212.9" x2="117.3" y2="233"/>
	<line class="ddosanalyze0" x1="78.5" y1="228.7" x2="109.7" y2="235.2"/>
	<line class="ddosanalyze0" x1="77.5" y1="171.2" x2="84.7" y2="176.9"/>
	<line class="ddosanalyze0" x1="93.2" y1="176" x2="101.7" y2="171"/>
	<line class="ddosanalyze0" x1="92.9" y1="184" x2="125.4" y2="205.3"/>
	<line class="ddosanalyze0" x1="87" y1="184.9" x2="74.4" y2="226.8"/>
	<line class="ddosanalyze0" x1="100.6" y1="124" x2="99.7" y2="99.2"/>
	<line id="svg-concept" class="ddosanalyze2" x1="105.2" y1="93.6" x2="118.4" y2="94.7"/>
	<line id="svg-concept" class="ddosanalyze2" x1="123.8" y1="89.2" x2="128.6" y2="74.1"/>
	<line class="ddosanalyze0" x1="134.2" y1="68.5" x2="153.4" y2="76.6"/>
	<line class="ddosanalyze0" x1="158.8" y1="84.9" x2="158.8" y2="101.6"/>
	<line class="ddosanalyze0" x1="333.1" y1="406.7" x2="340.8" y2="413"/>
	<line class="ddosanalyze0" x1="349.8" y1="410.6" x2="355.3" y2="400.4"/>
	<line id="svg-concept" class="ddosanalyze1" x1="355.3" y1="390.8" x2="347.1" y2="371.2"/>
	<line class="ddosanalyze0" x1="361.8" y1="389.4" x2="372.2" y2="372.8"/>
	<line class="ddosanalyze0" x1="328.9" y1="397.7" x2="318.5" y2="375.5"/>
	<line class="ddosanalyze0" x1="318.5" y1="364.5" x2="322.2" y2="354.6"/>
	<line id="svg-concept" class="ddosanalyze1" x1="327.8" y1="351.9" x2="342.8" y2="362.6"/>
	<line class="ddosanalyze0" x1="322.2" y1="343.6" x2="349" y2="315"/>
	<line class="ddosanalyze0" x1="313.8" y1="314.9" x2="322.2" y2="343.6"/>
	<line class="ddosanalyze0" x1="355.3" y1="315" x2="376.5" y2="324"/>
	<line id="svg-concept" class="ddosanalyze1" x1="349.8" y1="360.9" x2="381.9" y2="329.5"/>
	<line class="ddosanalyze0" x1="374.7" y1="361.8" x2="381.9" y2="329.5"/>
	<line class="ddosanalyze0" x1="393.1" y1="286.1" x2="398.9" y2="286.8"/>
	<line class="ddosanalyze0" x1="384.2" y1="280.3" x2="372.7" y2="244.7"/>
	<line class="ddosanalyze0" x1="392.5" y1="268.4" x2="372.7" y2="244.7"/>
	<line class="ddosanalyze0" x1="401.2" y1="269.1" x2="418" y2="259.4"/>
	<line class="ddosanalyze0" x1="418.2" y1="244.8" x2="409.1" y2="230.2"/>
	<line class="ddosanalyze0" x1="418.2" y1="233" x2="409.1" y2="230.2"/>
	<line class="ddosanalyze0" x1="456.1" y1="255.3" x2="469" y2="287.2"/>
	<line id="svg-concept" class="ddosanalyze1" x1="475.5" y1="288.4" x2="497.7" y2="253.4"/>
	<line id="svg-concept" class="ddosanalyze1" x1="505.6" y1="252.9" x2="518.4" y2="270.5"/>
	<line class="ddosanalyze0" x1="525.7" y1="278.8" x2="528.1" y2="295.5"/>
	<line class="ddosanalyze0" x1="536.3" y1="282.6" x2="525.7" y2="278.8"/>
	<line class="ddosanalyze0" x1="542.3" y1="280.7" x2="547.4" y2="261.8"/>
	<line class="ddosanalyze0" x1="551.5" y1="251.7" x2="567.1" y2="235.8"/>
	<line class="ddosanalyze0" x1="568.3" y1="226" x2="570.1" y2="200.8"/>
	<line class="ddosanalyze0" x1="574.7" y1="198.1" x2="581.3" y2="203.8"/>
	<line class="ddosanalyze0" x1="586.8" y1="202.3" x2="593.7" y2="173.4"/>
	<line class="ddosanalyze0" x1="580.9" y1="150.8" x2="564.8" y2="117.7"/>
	<line class="ddosanalyze0" x1="559.5" y1="108.2" x2="530.6" y2="73.4"/>
	<line class="ddosanalyze0" x1="523.2" y1="65.4" x2="501.7" y2="55.2"/>
	<line class="ddosanalyze0" x1="497.7" y1="56.9" x2="490.8" y2="98.5"/>
	<line class="ddosanalyze0" x1="491.6" y1="53.9" x2="470.6" y2="61.4"/>
	<line class="ddosanalyze0" x1="462" y1="68.3" x2="457.7" y2="71.7"/>
	<line class="ddosanalyze0" x1="457.3" y1="80.3" x2="485.1" y2="100.7"/>
	<line class="ddosanalyze0" x1="409.1" y1="87.9" x2="384.6" y2="93.5"/>
	<line class="ddosanalyze0" x1="374.3" y1="92.8" x2="349.6" y2="81.9"/>
	<line class="ddosanalyze0" x1="340.3" y1="81.9" x2="309.9" y2="110.6"/>
	<line class="ddosanalyze0" x1="307.3" y1="120.2" x2="310.8" y2="141.8"/>
	<line class="ddosanalyze0" x1="279.6" y1="127.4" x2="280.6" y2="132"/>
	<line class="ddosanalyze0" x1="282.7" y1="143" x2="279.5" y2="155.5"/>
	<line class="ddosanalyze0" x1="304.5" y1="155.6" x2="309" y2="151.7"/>
	<line class="ddosanalyze0" x1="290.7" y1="175.1" x2="290.7" y2="180"/>
	<line class="ddosanalyze0" x1="285.1" y1="186.5" x2="275" y2="188.9"/>
	<line class="ddosanalyze0" x1="274.6" y1="194.3" x2="277.3" y2="196.9"/>
	<line class="ddosanalyze0" x1="314.1" y1="188.6" x2="319.9" y2="192.4"/>
	<line class="ddosanalyze0" x1="328.6" y1="192.4" x2="336.2" y2="190.3"/>
	<line class="ddosanalyze0" x1="344.2" y1="191.1" x2="348.2" y2="200.4"/>
	<line class="ddosanalyze0" x1="357" y1="204.9" x2="364" y2="206"/>
	<line class="ddosanalyze0" x1="370" y1="212.3" x2="372.2" y2="215.2"/>
	<line class="ddosanalyze0" x1="367.3" y1="223.1" x2="339.7" y2="227.6"/>
	<line class="ddosanalyze0" x1="329.7" y1="226.5" x2="313.4" y2="214.5"/>
	<line class="ddosanalyze0" x1="304.3" y1="210.4" x2="282.4" y2="213.8"/>
	<line class="ddosanalyze0" x1="274.5" y1="220.1" x2="261.8" y2="241"/>
	<line class="ddosanalyze0" x1="279.3" y1="220.5" x2="284.8" y2="245.8"/>
	<line class="ddosanalyze0" x1="289.5" y1="254" x2="324.2" y2="267"/>
	<line class="ddosanalyze0" x1="334.4" y1="234.8" x2="328.9" y2="264.2"/>
	<line class="ddosanalyze0" x1="364" y1="244.1" x2="334.4" y2="266.5"/>
	<line class="ddosanalyze0" x1="331.7" y1="274.7" x2="341.3" y2="295.2"/>
	<line class="ddosanalyze0" x1="325.8" y1="275.2" x2="317.8" y2="295.2"/>
	<line class="ddosanalyze0" x1="272.3" y1="295.4" x2="259" y2="283.9"/>
	<line class="ddosanalyze0" x1="254.9" y1="274.7" x2="259" y2="251.2"/>
	<line class="ddosanalyze0" x1="263.9" y1="248.2" x2="279.3" y2="249.5"/>
	<line class="ddosanalyze0" x1="317.7" y1="147.2" x2="368.3" y2="137.5"/>
	<line class="ddosanalyze0" x1="379.3" y1="100.7" x2="373.8" y2="132"/>
	<line class="ddosanalyze0" x1="379.3" y1="137.5" x2="417.7" y2="146.6"/>
	<line class="ddosanalyze0" x1="371.3" y1="176.5" x2="369.5" y2="200.4"/>
	<line class="ddosanalyze0" x1="373.8" y1="143" x2="372.9" y2="154.8"/>
	<line class="ddosanalyze0" x1="472.8" y1="175.9" x2="489.5" y2="192.4"/>
	<line class="ddosanalyze0" x1="495.9" y1="194.6" x2="514.8" y2="175"/>
	<line class="ddosanalyze0" x1="551.5" y1="174.4" x2="565.6" y2="192"/>
	<line class="ddosanalyze0" x1="557.9" y1="115.8" x2="534.9" y2="152.1"/>
	<line class="ddosanalyze0" x1="521.6" y1="73.5" x2="494.3" y2="100.2"/>
	<line class="ddosanalyze0" x1="493.9" y1="107.3" x2="531.9" y2="152.7"/>
	<line class="ddosanalyze0" x1="485.1" y1="107.3" x2="456.5" y2="141.9"/>
	<line class="ddosanalyze0" x1="456.5" y1="232.3" x2="486.6" y2="202.1"/>
	<line id="svg-concept" class="ddosanalyze1" x1="491.8" y1="203.8" x2="501.4" y2="243.9"/>
	<line class="ddosanalyze0" x1="496.6" y1="201" x2="544.8" y2="252.5"/>
	<line id="svg-concept" class="ddosanalyze1" x1="456.5" y1="241.7" x2="495.9" y2="249.3"/>
	<line id="svg-concept" class="ddosanalyze1" x1="506.9" y1="249.3" x2="543.3" y2="256.4"/>
	<line class="ddosanalyze0" x1="497.3" y1="198.2" x2="564.6" y2="195.2"/>
	<line class="ddosanalyze0" x1="382" y1="155.6" x2="376.6" y2="142.3"/>
	<line class="ddosanalyze0" x1="402.1" y1="220.5" x2="387.7" y2="176.4"/>
	<line class="ddosanalyze0" x1="377.7" y1="220.8" x2="399.8" y2="226.2"/>
	<line class="ddosanalyze0" x1="559.5" y1="413.9" x2="556.1" y2="393.9"/>
	<line class="ddosanalyze0" x1="559.9" y1="384.6" x2="568.8" y2="376.6"/>
	<line class="ddosanalyze0" x1="577.3" y1="369.6" x2="593.3" y2="360.7"/>
	<line class="ddosanalyze0" x1="596.8" y1="361.9" x2="589.4" y2="379.4"/>
	<line class="ddosanalyze0" x1="585.3" y1="389.8" x2="579.7" y2="402"/>
	<line class="ddosanalyze0" x1="567.3" y1="417" x2="572.8" y2="411.8"/>
	<line class="ddosanalyze0" x1="572.8" y1="402" x2="560.5" y2="391.6"/>
	<line class="ddosanalyze0" x1="582.3" y1="384.9" x2="560.5" y2="391.6"/>
	<line class="ddosanalyze0" x1="583.4" y1="381.6" x2="577.1" y2="376.2"/>
	<line class="ddosanalyze0" x1="559.3" y1="317.7" x2="561.3" y2="314.9"/>
	<line class="ddosanalyze0" x1="402.1" y1="365.4" x2="397.1" y2="385.5"/>
	<line class="ddosanalyze0" x1="136.7" y1="435" x2="138.2" y2="420"/>
	<line class="ddosanalyze0" x1="139.5" y1="409.1" x2="137.4" y2="368"/>
	<line class="ddosanalyze0" x1="179.5" y1="425.5" x2="193.5" y2="405.3"/>
	<line class="ddosanalyze0" x1="119.2" y1="334.2" x2="130.8" y2="359.2"/>
	<line class="ddosanalyze0" x1="133.6" y1="204.2" x2="158.3" y2="174.4"/>
	<line class="ddosanalyze0" x1="64.7" y1="149.3" x2="96.9" y2="98.4"/>
	<path class="ddosanalyze0" d="M122.3,328.7c0,3-2.4,5.6-5.4,5.6c-3,0-5.4-2.4-5.4-5.6c0-3,2.4-5.4,5.4-5.4
		C119.8,323.2,122.3,325.7,122.3,328.7z"/>
	<path class="ddosanalyze0" d="M139.5,363.7c0,3-2.4,5.6-5.4,5.6c-3,0-5.4-2.4-5.4-5.6c0-3,2.4-5.4,5.4-5.4
		C137.1,358.2,139.5,360.7,139.5,363.7z"/>
	<path class="ddosanalyze0" d="M96.9,259.9c0,3-2.4,5.6-5.4,5.6S86,263,86,259.9c0-3,2.4-5.4,5.4-5.4S96.9,256.9,96.9,259.9z"/>
	<path class="ddosanalyze0" d="M67.7,261.1c0,3-2.4,5.6-5.4,5.6c-3,0-5.4-2.4-5.4-5.6s2.4-5.4,5.4-5.4C65.3,255.7,67.7,258.1,67.7,261.1z"/>
	<path class="ddosanalyze0" d="M262.9,65.7c0,3-2.4,5.6-5.4,5.6c-3,0-5.4-2.4-5.4-5.6c0-3.1,2.4-5.4,5.4-5.4
		C260.4,60.2,262.9,62.6,262.9,65.7z"/>
	<path class="ddosanalyze0" d="M364.4,394.8c0,3-2.4,5.6-5.4,5.6s-5.4-2.4-5.4-5.6c0-3,2.4-5.4,5.4-5.4S364.4,391.8,364.4,394.8z"/>
	<path class="ddosanalyze0" d="M315.3,210.4c0,3-2.4,5.6-5.4,5.6s-5.4-2.4-5.4-5.6s2.4-5.4,5.4-5.4C312.9,204.9,315.3,207.3,315.3,210.4z"/>
	<path class="ddosanalyze0" d="M275.5,191.3c0,3-2.4,5.6-5.4,5.6s-5.4-2.4-5.4-5.6s2.4-5.4,5.4-5.4S275.5,188.3,275.5,191.3z"/>
	<path class="ddosanalyze0" d="M288.2,198.2c0,3-2.4,5.6-5.4,5.6c-3,0-5.4-2.4-5.4-5.6c0-3.1,2.4-5.4,5.4-5.4
		C285.8,192.6,288.2,195.1,288.2,198.2z"/>
	<path class="ddosanalyze0" d="M296.1,185.4c0,3-2.4,5.6-5.4,5.6c-3,0-5.4-2.4-5.4-5.6c0-3.1,2.4-5.4,5.4-5.4
		C293.7,180,296.1,182.4,296.1,185.4z"/>
	<line class="ddosanalyze0" x1="295.9" y1="183.9" x2="304.3" y2="183.7"/>
	<path class="ddosanalyze0" d="M567.8,419.4c0,3-2.4,5.6-5.4,5.6s-5.4-2.4-5.4-5.6c0-3,2.4-5.4,5.4-5.4S567.8,416.4,567.8,419.4z"/>
	<path class="ddosanalyze0" d="M581.8,407.5c0,3-2.4,5.6-5.4,5.6s-5.4-2.4-5.4-5.6c0-3,2.4-5.4,5.4-5.4C579.3,402,581.8,404.5,581.8,407.5z"
		/>
	<path class="ddosanalyze0" d="M561.5,388.4c0,3-2.4,5.6-5.4,5.6s-5.4-2.4-5.4-5.6c0-3,2.4-5.4,5.4-5.4S561.5,385.4,561.5,388.4z"/>
	<path class="ddosanalyze0" d="M346.1,187c0,3-2.4,5.6-5.4,5.6s-5.4-2.4-5.4-5.6c0-3.1,2.4-5.4,5.4-5.4C343.7,181.4,346.1,183.9,346.1,187z"
		/>
	<path class="ddosanalyze0" d="M477.5,292.7c0,3-2.4,2.8-5.4,2.8s-5.4,0.3-5.4-2.8c0-3,2.4-5.4,5.4-5.4S477.5,289.7,477.5,292.7z"/>
	<path class="ddosanalyze0" d="M410.8,226.2c0,3-2.4,5.6-5.4,5.6s-5.4-2.4-5.4-5.6c0-3.1,2.4-5.4,5.4-5.4S410.8,223.2,410.8,226.2z"/>
	<path class="ddosanalyze0" d="M562.7,322.9c0,3-2.4,5.6-5.4,5.6s-5.4-2.4-5.4-5.6c0-3,2.4-5.4,5.4-5.4C560.3,317.3,562.7,319.8,562.7,322.9z
		"/>
	<path class="ddosanalyze0" d="M288.2,137.5c0,3-2.4,5.6-5.4,5.6c-3,0-5.4-2.4-5.4-5.6c0-3,2.4-5.4,5.4-5.4
		C285.8,132,288.2,134.4,288.2,137.5z"/>
	<path class="ddosanalyze0" d="M283.9,122.1c0,3-2.4,5.6-5.4,5.6s-5.4-2.4-5.4-5.6s2.4-5.4,5.4-5.4S283.9,119.1,283.9,122.1z"/>
	<path class="ddosanalyze0" d="M568.1,112.7c0,3-2.4,5.6-5.4,5.6s-5.4-2.4-5.4-5.6c0-3.1,2.4-5.4,5.4-5.4
		C565.5,107.3,568.1,109.7,568.1,112.7z"/>
	<path class="ddosanalyze0" d="M495,104c0,3-2.4,5.6-5.4,5.6c-3,0-5.4-2.4-5.4-5.6c0-3.1,2.4-5.4,5.4-5.4C492.6,98.5,495,101,495,104z"/>
	<path class="ddosanalyze0" d="M407.2,72.7c0,3-2.4,5.6-5.4,5.6s-5.4-2.4-5.4-5.6c0-3.1,2.4-5.4,5.4-5.4C404.7,67.3,407.2,69.7,407.2,72.7z"
		/>
	<path class="ddosanalyze3" d="M415.2,176.9l-179.3-1.5c-1.6,0-3,1.3-3,3v113.8c0,1.6,1.3,3,3,3h179.3c1.6,0,3-1.3,3-3V179.9
		C418.1,178.3,416.8,176.9,415.2,176.9z"/>
	<path class="ddosanalyze3" d="M11.2,437.6l179.3-3.7c1.6,0,3-1.3,3-3v-113c0-1.6-1.3-3-3-3H11.2c-1.6,0-3,1.3-3,3v116.8
		C8.2,436.3,9.5,437.6,11.2,437.6L11.2,437.6z"/>
	<g>
		<path class="ddosanalyze3" d="M190.5,175.5l-179.3-6.7c-1.6,0-3,1.3-3,3v120.5c0,1.6,1.3,3,3,3h179.3c1.6,0,3-1.3,3-3
			V178.4C193.5,176.8,192.1,175.5,190.5,175.5z"/>
	</g>
	<path class="ddosanalyze3" d="M415.2,37.2l-179.3-1.5c-1.6,0-3,1.3-3,3v113.8c0,1.6,1.3,3,3,3h179.3c1.6,0,3-1.3,3-3V40.2
		C418.1,38.6,416.8,37.2,415.2,37.2z"/>
	<path class="ddosanalyze3" d="M638.8,25.8L459.5,36.5c-1.6,0-3,1.3-3,3v113.1c0,1.6,1.3,3,3,3l179.3-7c1.6,0,3-1.3,3-3V28.8
		C641.8,27.1,640.5,25.8,638.8,25.8z"/>
	<g>
		<path class="ddosanalyze3" d="M459.5,434.7l179.3,6.6c1.6,0,3-1.3,3-3V317.9c0-1.6-1.3-3-3-3H459.5c-1.6,0-3,1.3-3,3
			v113.8C456.6,433.3,457.9,434.7,459.5,434.7L459.5,434.7z"/>
	</g>
	<path class="ddosanalyze0" d="M497.3,198.2c0,3-2.4,5.6-5.4,5.6c-3,0-5.4-2.4-5.4-5.6c0-3.1,2.4-5.4,5.4-5.4
		C494.8,192.8,497.3,195.2,497.3,198.2z"/>
	<path class="ddosanalyze0" d="M527.9,274.3c0,3-2.4,5.6-5.4,5.6s-5.4-2.4-5.4-5.6c0-3,2.4-5.4,5.4-5.4C525.5,268.8,527.9,271.2,527.9,274.3z
		"/>
	<path class="ddosanalyze0" d="M134.2,68.5c0,3-2.4,5.6-5.4,5.6c-3,0-5.4-2.4-5.4-5.6c0-3.1,2.4-5.4,5.4-5.4
		C131.7,63.1,134.2,65.5,134.2,68.5z"/>
	<path class="ddosanalyze0" d="M105.2,93.6c0,3-2.4,5.6-5.4,5.6s-5.4-2.4-5.4-5.6c0-3.1,2.4-5.4,5.4-5.4S105.2,90.6,105.2,93.6z"/>
</g>
<g>
	<path class="ddosanalyze3" d="M247.1,638.8l155.9,1.6c1.8,0,3.3-1.5,3.3-3.3l20.9-120.4c1.1-5.7,0-9.7-7.7-9.7H231.6
		c-7.2,0-9.2,4.3-8.6,10.1l20.8,118.4C243.8,637.3,245.3,638.8,247.1,638.8L247.1,638.8z"/>
	<path class="ddosanalyze3" d="M382.7,507H267.4c0-31.9,25.8-57.7,57.7-57.7S382.7,475.2,382.7,507z"/>
</g>

<g>
<path id="svg-concept" class="ddosanalyze2" d="M638.8,172.5l-179.3,3.7c-1.6,0-3,1.3-3,3v113.1c0,1.6,1.3,3,3,3h179.3c1.6,0,3-1.3,3-3V175.5
	C641.8,173.8,640.5,172.5,638.8,172.5z"/>
	<animate attributeName="opacity" begin="1s" dur="1.5s" repeatCount="indefinite" restart="always" values="0;1;0"></animate>
</g>

<g>
<path id="svg-concept" class="ddosanalyze2" d="M235.4,433.2l179.3,1.5c1.6,0,3-1.3,3-3V317.9c0-1.6-1.3-3-3-3H235.4c-1.6,0-3,1.3-3,3v112.4
	C232.5,431.9,233.8,433.2,235.4,433.2z"/>
	<animate attributeName="opacity" begin="1s" dur="0.5s" repeatCount="indefinite" restart="always" values="0;1;0"></animate>
</g>
<g>
	<path id="svg-concept" class="ddosanalyze2" d="M190.5,35.8L11.2,22.1c-1.6,0-3,1.3-3,3v120.5c0,1.6,1.3,3,3,3l179.3,7c1.6,0,3-1.3,3-3
		V38.7C193.5,37.1,192.1,35.8,190.5,35.8z"/>
	<animate attributeName="opacity" begin="0s" dur="1s" repeatCount="indefinite" restart="always" values="0;1;0"></animate>
</g>
</svg>
