<?xml version="1.0" encoding="utf-8"?>
<!-- Generator: Adobe Illustrator 24.3.0, SVG Export Plug-In . SVG Version: 6.00 Build 0)  -->
<svg version="1.1" id="Layer_1" xmlns="http://www.w3.org/2000/svg" xmlns:xlink="http://www.w3.org/1999/xlink" x="0px" y="0px"
	 viewBox="0 0 650 650" style="enable-background:new 0 0 650 650;" xml:space="preserve">
<style type="text/css">
	.vpnresources0{fill:none;stroke:#808080;stroke-width:2;stroke-linecap:round;stroke-linejoin:round;stroke-miterlimit:10;}
	.vpnresources1{fill:none;stroke:#808080;stroke-linecap:round;stroke-linejoin:round;stroke-miterlimit:10;}
	.vpnresources2{fill:none;stroke:#55bde5;stroke-width:2;stroke-linecap:round;stroke-linejoin:round;stroke-miterlimit:10;}
	.vpnresources3{fill:#808080;}
	.vpnresources4{fill:#808080;}
	.vpnresources5{fill:#FFFFFF;}
</style>
<g>
	<path class="vpnresources0" d="M312.1,517.5h316c9.5,0,17,8.5,17,18.7v92.4l0,0c0,10.5-7.5,18.7-17,18.7H23c-9.5,0-17-8.5-17-18.7v-92.4
		c0-10.5,7.5-18.7,17-18.7h18"/>
	<line class="vpnresources1" x1="41" y1="517.5" x2="41" y2="646.9"/>
	<line class="vpnresources1" x1="610.1" y1="517.5" x2="610.1" y2="647.5"/>
	<path class="vpnresources1" d="M163.4,624.2H66.3c-7.2,0-13.1-5.9-13.1-13.1v-1.4c0-7.2,5.9-13.1,13.1-13.1h97.3c7.2,0,13.1,5.9,13.1,13.1
		v1.4C176.5,618.3,170.7,624.2,163.4,624.2z"/>
	<path class="vpnresources1" d="M67.5,571.5h-0.3c-2.3,0-3.9-1.7-3.9-3.9v-0.3c0-2.3,1.7-3.9,3.9-3.9h0.3c2.3,0,3.9,1.7,3.9,3.9v0.3
		C71.5,569.9,69.8,571.5,67.5,571.5z"/>
	<path class="vpnresources1" d="M84.2,571.5h-0.3c-2.3,0-3.9-1.7-3.9-3.9v-0.3c0-2.3,1.7-3.9,3.9-3.9h0.3c2.3,0,3.9,1.7,3.9,3.9v0.3
		C88.5,569.9,86.5,571.5,84.2,571.5z"/>
	<path class="vpnresources1" d="M108.1,571.5h-0.3c-2.3,0-3.9-1.7-3.9-3.9v-0.3c0-2.3,1.7-3.9,3.9-3.9h0.3c2.3,0,3.9,1.7,3.9,3.9v0.3
		C112.1,569.9,110.4,571.5,108.1,571.5z"/>
	<path class="vpnresources1" d="M67.5,553.1h-0.3c-2.3,0-3.9-1.7-3.9-3.9v-0.3c0-2.3,1.7-3.9,3.9-3.9h0.3c2.3,0,3.9,1.7,3.9,3.9v0.3
		C71.5,551.6,69.8,553.1,67.5,553.1z"/>
	<path class="vpnresources1" d="M84.2,553.1h-0.3c-2.3,0-3.9-1.7-3.9-3.9v-0.3c0-2.3,1.7-3.9,3.9-3.9h0.3c2.3,0,3.9,1.7,3.9,3.9v0.3
		C88.5,551.6,86.5,553.1,84.2,553.1z"/>
	<path class="vpnresources1" d="M125.2,571.5h-0.3c-2.3,0-3.9-1.7-3.9-3.9v-0.3c0-2.3,1.7-3.9,3.9-3.9h0.3c2.3,0,3.9,1.7,3.9,3.9v0.3
		C129.1,569.9,127.5,571.5,125.2,571.5z"/>
	<path class="vpnresources1" d="M117,553.1h-7.9c-2.3,0-3.9-1.7-3.9-3.9v-0.3c0-2.3,1.7-3.9,3.9-3.9"/>
	<line class="vpnresources1" x1="96.3" y1="596.8" x2="96.3" y2="624.2"/>
	<path class="vpnresources1" d="M139.9,616.4h-0.6c-2.9,0-5.6-2.6-5.6-5.6v-0.6c0-2.9,2.6-5.6,5.6-5.6h0.6c2.9,0,5.6,2.6,5.6,5.6v0.6
		C145.1,613.7,142.9,616.4,139.9,616.4z"/>
	<path class="vpnresources1" d="M307.9,624.2h-97.3c-7.2,0-13.1-5.9-13.1-13.1v-1.4c0-7.2,5.9-13.1,13.1-13.1h97.3c7.2,0,13.1,5.9,13.1,13.1
		v1.4C321,618.3,315.1,624.2,307.9,624.2z"/>
	<path class="vpnresources1" d="M252.2,571.5L252.2,571.5c-2.6,0-4.3-1.7-4.3-3.9v-0.3c0-2.3,1.7-3.9,3.9-3.9h0.3c2.3,0,3.9,1.7,3.9,3.9v0.3
		C256.4,569.9,254.9,571.5,252.2,571.5z"/>
	<path class="vpnresources1" d="M316.7,553.1h-0.6c-2.3,0-3.9-1.7-3.9-3.9v-0.3c0-2.3,1.7-3.9,3.9-3.9h0.3c2.3,0,3.9,1.7,3.9,3.9v0.3
		C320.4,551.6,318.7,553.1,316.7,553.1z"/>
	<path class="vpnresources1" d="M269.5,571.5L269.5,571.5c-2.6,0-4.3-1.7-4.3-3.9v-0.3c0-2.3,1.7-3.9,3.9-3.9h0.3c2.3,0,3.9,1.7,3.9,3.9v0.3
		C273.5,569.9,271.5,571.5,269.5,571.5z"/>
	<path class="vpnresources1" d="M286.3,571.5L286.3,571.5c-2.6,0-4.3-1.7-4.3-3.9v-0.3c0-2.3,1.7-3.9,3.9-3.9h0.3c2.3,0,3.9,1.7,3.9,3.9v0.3
		C290.2,569.9,288.2,571.5,286.3,571.5z"/>
	<path class="vpnresources1" d="M286.3,571.5L286.3,571.5c-2.6,0-4.3-1.7-4.3-3.9v-0.3c0-2.3,1.7-3.9,3.9-3.9h0.3c2.3,0,3.9,1.7,3.9,3.9v0.3
		C290.5,569.9,288.6,571.5,286.3,571.5z"/>
	<path class="vpnresources1" d="M276.4,544.9h9.9c2.3,0,3.9,1.7,3.9,3.9v0.3c0.3,2.4-1.7,3.9-3.9,3.9h-21"/>
	<line class="vpnresources1" x1="240.7" y1="596.8" x2="240.7" y2="624.2"/>
	<path class="vpnresources1" d="M284.3,616.4h-0.6c-2.9,0-5.6-2.6-5.6-5.6v-0.6c0-2.9,2.6-5.6,5.6-5.6h0.6c2.9,0,5.6,2.6,5.6,5.6v0.6
		C289.6,613.7,287.2,616.4,284.3,616.4z"/>
	<path class="vpnresources1" d="M451.9,624.2h-97.3c-7.2,0-13.1-5.9-13.1-13.1v-1.4c0-7.2,5.9-13.1,13.1-13.1h97.3c7.2,0,13.1,5.9,13.1,13.1
		v1.4C465,618.3,459.5,624.2,451.9,624.2z"/>
	<path class="vpnresources1" d="M356.3,571.5L356.3,571.5c-2.6,0-4.3-1.7-4.3-3.9v-0.3c0-2.3,1.7-3.9,3.9-3.9h0.3c2.3,0,3.9,1.7,3.9,3.9v0.3
		C360.3,569.9,358.3,571.5,356.3,571.5z"/>
	<path class="vpnresources1" d="M373,571.5L373,571.5c-2.6,0-4.3-1.7-4.3-3.9v-0.3c0-2.3,1.7-3.9,3.9-3.9h0.3c2.3,0,3.9,1.7,3.9,3.9v0.3
		C377.3,569.9,375.3,571.5,373,571.5z"/>
	<path class="vpnresources1" d="M397,571.5L397,571.5c-2.6,0-4.3-1.7-4.3-3.9v-0.3c0-2.3,1.7-3.9,3.9-3.9h0.3c2.3,0,3.9,1.7,3.9,3.9v0.3
		C400.9,569.9,399.2,571.5,397,571.5z"/>
	<path class="vpnresources1" d="M356.3,553.1L356.3,553.1c-2.6,0-4.3-1.7-4.3-3.9v-0.3c0-2.3,1.7-3.9,3.9-3.9h0.3c2.3,0,3.9,1.7,3.9,3.9v0.3
		C360.3,551.6,358.3,553.1,356.3,553.1z"/>
	<path class="vpnresources1" d="M373,553.1L373,553.1c-2.6,0-4.3-1.7-4.3-3.9v-0.3c0-2.3,1.7-3.9,3.9-3.9h0.3c2.3,0,3.9,1.7,3.9,3.9v0.3
		C377.3,551.6,375.3,553.1,373,553.1z"/>
	<path class="vpnresources1" d="M461.2,553.1L461.2,553.1c-2.6,0-4.3-1.7-4.3-3.9v-0.3c0-2.3,1.7-3.9,3.9-3.9h0.3c2.3,0,3.9,1.7,3.9,3.9v0.3
		C465,551.6,463.2,553.1,461.2,553.1z"/>
	<path class="vpnresources1" d="M414,571.5L414,571.5c-2.6,0-4.3-1.7-4.3-3.9v-0.3c0-2.3,1.7-3.9,3.9-3.9h0.3c2.3,0,3.9,1.7,3.9,3.9v0.3
		C417.9,569.9,416,571.5,414,571.5z"/>
	<path class="vpnresources1" d="M430.7,571.5L430.7,571.5c-2.6,0-4.3-1.7-4.3-3.9v-0.3c0-2.3,1.7-3.9,3.9-3.9h0.3c2.3,0,3.9,1.7,3.9,3.9v0.3
		C434.6,569.9,432.6,571.5,430.7,571.5z"/>
	<path class="vpnresources1" d="M430.7,571.5L430.7,571.5c-2.6,0-4.3-1.7-4.3-3.9v-0.3c0-2.3,1.7-3.9,3.9-3.9h0.3c2.3,0,3.9,1.7,3.9,3.9v0.3
		C435,569.9,433,571.5,430.7,571.5z"/>
	<path class="vpnresources1" d="M430.7,553.1H398c-2.3,0-3.9-1.7-3.9-3.9v-0.3c0-2.3,1.7-3.9,3.9-3.9h32.7c2.3,0,3.9,1.7,3.9,3.9v0.3
		C435,551.6,433,553.1,430.7,553.1z"/>
	<line class="vpnresources1" x1="384.8" y1="596.8" x2="384.8" y2="624.2"/>
	<path class="vpnresources1" d="M428.8,616.4h-0.6c-2.9,0-5.6-2.6-5.6-5.6v-0.6c0-2.9,2.6-5.6,5.6-5.6h0.6c2.9,0,5.6,2.6,5.6,5.6v0.6
		C433.9,613.7,431.7,616.4,428.8,616.4z"/>
	<line class="vpnresources1" x1="188.4" y1="598.1" x2="188.4" y2="647.5"/>
	<line class="vpnresources1" x1="25.9" y1="552.2" x2="25.9" y2="609.2"/>
	<line class="vpnresources1" x1="625.5" y1="552.2" x2="625.5" y2="609.2"/>
	<line class="vpnresources1" x1="331.8" y1="517.5" x2="331.8" y2="647.5"/>
	<line class="vpnresources1" x1="474.9" y1="517.5" x2="474.9" y2="647.5"/>
	
		<ellipse transform="matrix(0.9239 -0.3827 0.3827 0.9239 -184.4129 246.6936)" id="svg-concept" class="vpnresources2" cx="527.9" cy="586.9" rx="29.9" ry="29.9"/>
	<path id="svg-concept" class="vpnresources2" d="M539,586.9c0,6-4.9,11.1-11.1,11.1c-6,0-11.1-4.9-11.1-11.1c0-6.3,4.9-11.1,11.1-11.1
		C533.9,575.8,539,580.9,539,586.9z M557.8,586.9H539 M516.8,586.9H498"/>
	<path class="vpnresources1" d="M584.2,588.3h-5.8c-1.6,0-2.8-1.2-2.8-2.8v-5.8c0-1.6,1.2-2.8,2.8-2.8h5.8c1.6,0,2.8,1.2,2.8,2.8v5.8
		C587,587.2,585.8,588.3,584.2,588.3z"/>
	<path class="vpnresources1" d="M584.2,563.3h-5.8c-1.6,0-2.8-1.2-2.8-2.8v-5.8c0-1.6,1.2-2.8,2.8-2.8h5.8c1.6,0,2.8,1.2,2.8,2.8v5.8
		C587,562.1,585.8,563.3,584.2,563.3z"/>
	<path class="vpnresources1" d="M375.4,115.5l-4.7,25.2c36.4,9.2,66.1,41.4,77.9,83.7h13.1l-7.6,47.8l-14,4.3v1.9c-2.4,64.1-42.1,115-90.8,115
		s-88.5-50.9-90.8-115v-1.9l-14.2-4.5l-7.5-47.8h13.1c11.8-42.1,41.3-74.4,77.7-83.7l-4.6-25.2L375.4,115.5L375.4,115.5z M349.1,138
		v-22.5 M349.1,391v-60"/>

	<g>
	<path id="svg-concept" class="vpnresources2" d="M349.1,304.6v-80.3 M349.1,304.6l-105-32.4 M349.1,304.6L454,272.2 M236.6,224.4h225
		 M236.6,224.4l7.5,47.8 M461.6,224.4l-7.6,47.8 M424.9,224.4V262 M273.5,224.4V262 M385,224.4V277 M314.1,224.4V277"/>
		<animate attributeName="opacity" begin="1s" dur="1.5s" repeatCount="indefinite" restart="always" values="0;1;0"></animate>
	</g>

	<path class="vpnresources1" d="M322.8,115.5h52.6 M334.1,176.5h30 M327.4,140.6l6.7,35.9 M370.7,140.6l-6.5,35.9"/>
	<path class="vpnresources1" d="M311.2,410.7h117.9c25.3,0,45.8,20.6,45.8,45.8v45.8"/>
	<path class="vpnresources1" d="M429.1,410.7l45.8,45.8"/>
	<path class="vpnresources1" d="M201.4,94.9h-26V74.6l13.2-71.1l12.8,71.1V94.9z"/>
	<path class="vpnresources1" d="M188.6,79.6v259.5"/>
	<path class="vpnresources0" d="M41,517.5h39"/>

	<g>
		<path id="svg-concept" class="vpnresources2" d="M605.4,437.2h-73.2c-4.3,0-7.9-3.5-7.9-7.9v-73.2c0-4.3,3.5-7.9,7.9-7.9h73.2c4.3,0,7.9,3.5,7.9,7.9v73.2
			C613.2,433.7,609.7,437.2,605.4,437.2z"/>
		<path class="vpnresources3" d="M537,408.9L537,408.9c-0.5-0.5-1.2-0.7-2.2-0.7h-5.4v9.1h1.1v-3.9h4c1,0,1.8-0.2,2.4-0.7
			c0.6-0.5,0.9-1.1,0.9-1.9S537.5,409.4,537,408.9z M534.3,412.7L534.3,412.7h-3.8v-3.8h4c1.5,0,2.2,0.7,2.2,1.9
			C536.7,412.1,535.9,412.7,534.3,412.7z"/>
		<path class="vpnresources3" d="M544.2,412.1L544.2,412.1c-0.7-0.6-1.7-0.9-3-0.9c-1.2,0-2.2,0.3-2.8,0.9s-0.9,1.3-0.9,2.3
			c0,0.9,0.3,1.7,0.9,2.3c0.3,0.3,0.7,0.5,1.2,0.7s1,0.2,1.6,0.2c1.3,0,2.3-0.3,3-0.9c0.6-0.5,0.9-1.3,0.9-2.3
			C545.1,413.4,544.8,412.6,544.2,412.1z M544,415.4c-0.1,0.3-0.3,0.6-0.5,0.8c-0.5,0.5-1.2,0.7-2.2,0.7c-0.9,0-1.6-0.2-2.1-0.7
			s-0.7-1.1-0.7-1.9c0-0.4,0.1-0.8,0.2-1.1c0.1-0.3,0.3-0.6,0.6-0.8c0.5-0.5,1.2-0.7,2.1-0.7c2,0,2.9,0.9,2.9,2.6
			C544.2,414.7,544.1,415.1,544,415.4L544,415.4z"/>
		<path class="vpnresources3" d="M552.4,415.7c0,1.2-1.1,1.8-3.3,1.8c-0.7,0-1.2,0-1.7-0.1s-0.8-0.2-1.1-0.4c-0.2-0.1-0.4-0.3-0.5-0.6
			c-0.1-0.2-0.2-0.5-0.3-0.9h1c0,0.5,0.2,0.8,0.5,1.1c0.4,0.3,1.1,0.4,2,0.4c1.5,0,2.3-0.4,2.3-1.2c0-0.4-0.3-0.8-0.8-0.9
			c-0.1,0-0.7-0.1-1.9-0.3c-1.1-0.1-1.8-0.3-2.1-0.4c-0.6-0.2-0.9-0.7-0.9-1.3c0-0.6,0.3-1.1,0.8-1.4c0.3-0.1,0.6-0.2,1-0.3
			c0.4-0.1,0.9-0.1,1.4-0.1c2.1,0,3.2,0.7,3.2,2h-1c0-0.9-0.7-1.4-2.2-1.4c-0.8,0-1.3,0.1-1.7,0.3c-0.4,0.2-0.6,0.5-0.6,0.9
			s0.2,0.6,0.7,0.8c0.3,0.1,1,0.2,2,0.3c0.9,0.1,1.6,0.2,1.9,0.4C552.1,414.6,552.4,415.1,552.4,415.7L552.4,415.7z"/>
		<path class="vpnresources3" d="M556.4,417.3l-0.4,0.1h-0.3c-0.7,0-1.1-0.1-1.4-0.3c-0.3-0.2-0.4-0.5-0.4-1V412h-1.2v-0.6h1.2v-2h0.9v2h1.6
			v0.6h-1.6v4c0,0.3,0.1,0.5,0.2,0.6c0.2,0.1,0.4,0.2,0.9,0.2c0.1,0,0.1,0,0.2,0c0.1,0,0.2,0,0.3-0.1V417.3L556.4,417.3z"/>
		<path class="vpnresources3" d="M564.5,411.4h-0.9v1c-0.4-0.4-0.7-0.7-0.9-0.8c-0.5-0.3-1.2-0.4-2-0.4c-1.2,0-2.1,0.3-2.8,0.8
			c-0.6,0.5-0.9,1.2-0.9,2.2c0,0.5,0.1,0.9,0.2,1.3c0.2,0.4,0.4,0.7,0.7,0.9c0.6,0.5,1.5,0.8,2.7,0.8c1.4,0,2.4-0.4,3-1.2v1.1
			c0,0.7-0.2,1.2-0.6,1.6c-0.4,0.4-1.1,0.6-2.1,0.6c-0.9,0-1.6-0.1-2-0.4c-0.3-0.2-0.5-0.5-0.6-1h-1c0.1,0.7,0.4,1.2,0.8,1.5
			c0.5,0.3,1.4,0.5,2.7,0.5c2.4,0,3.6-0.9,3.6-2.7L564.5,411.4L564.5,411.4z M562.9,416L562.9,416c-0.3,0.2-0.6,0.4-0.9,0.5
			s-0.7,0.2-1.1,0.2c-1.9,0-2.9-0.8-2.9-2.4c0-0.7,0.2-1.3,0.7-1.8c0.5-0.4,1.2-0.6,2.1-0.6c0.9,0,1.6,0.2,2.1,0.6s0.7,1,0.7,1.7
			C563.6,414.9,563.3,415.5,562.9,416z"/>
		<path class="vpnresources3" d="M569.5,412c-0.3,0-0.5-0.1-0.8-0.1c-1.5,0-2.3,0.8-2.3,2.5v2.9h-0.9v-6h0.9v1.1l0,0c0.2-0.4,0.4-0.7,0.7-1
			c0.4-0.2,0.9-0.3,1.7-0.3h0.6L569.5,412L569.5,412z"/>
		<path class="vpnresources3" d="M573.3,416.9c-1,0-1.7-0.2-2.2-0.7c-0.4-0.4-0.7-1-0.7-1.7h6.6c0-1-0.3-1.8-0.9-2.4l0,0
			c-0.3-0.3-0.8-0.6-1.2-0.7c-0.5-0.2-1-0.2-1.7-0.2c-1.2,0-2.1,0.3-2.8,0.8c-0.7,0.6-1,1.3-1,2.3s0.3,1.7,1,2.3
			c0.7,0.6,1.7,0.9,2.9,0.9c0.5,0,1-0.1,1.4-0.2s0.8-0.3,1.1-0.5c0.6-0.4,0.9-0.9,1.1-1.5h-1C575.5,416.4,574.7,416.9,573.3,416.9z
			 M571.2,412.4c0.3-0.2,0.6-0.4,0.9-0.5s0.7-0.2,1.1-0.2c0.8,0,1.5,0.2,2,0.7s0.8,1,0.8,1.5h-5.6l0,0
			C570.5,413.3,570.8,412.8,571.2,412.4z"/>
		<path class="vpnresources4" d="M586.8,414.9c0,1.8-1.4,2.7-4.3,2.7c-1.7,0-3-0.3-3.7-0.9c-0.7-0.5-1-1.3-1-2.3h1.2c0,1.7,1.2,2.5,3.6,2.5
			c1.1,0,2-0.2,2.5-0.5c0.4-0.3,0.7-0.8,0.7-1.4s-0.3-1.1-0.9-1.3c-0.3-0.1-1.1-0.3-2.4-0.5c-1.6-0.2-2.7-0.5-3.1-0.7
			c-0.7-0.4-1-1-1-1.9c0-0.8,0.3-1.4,0.9-1.8c0.6-0.4,1.7-0.7,3.3-0.7c2.8,0,4.2,0.9,4.2,2.8h-1.2c0-1.4-1-2.1-3.1-2.1
			c-1,0-1.8,0.1-2.3,0.4s-0.7,0.7-0.7,1.3c0,0.6,0.3,1,0.9,1.3c0.3,0.1,1.2,0.3,2.7,0.6c1.4,0.2,2.4,0.5,2.9,0.8
			C586.5,413.4,586.8,414,586.8,414.9L586.8,414.9z"/>
		<path class="vpnresources4" d="M598.1,414.9c0.3-0.6,0.4-1.3,0.4-2.1c0-1.4-0.5-2.5-1.4-3.4c-0.5-0.5-1.1-0.8-1.8-1s-1.5-0.3-2.4-0.3
			c-1.8,0-3.2,0.4-4.2,1.3s-1.5,2-1.5,3.5c0,1.4,0.5,2.6,1.5,3.5s2.4,1.3,4.2,1.3c0.7,0,1.3,0,1.8-0.1s0.9-0.2,1.3-0.4l1.7,1.2
			l0.7-0.7l-1.6-1.1C597.4,416,597.8,415.4,598.1,414.9z M596.2,415.8c-0.4,0.3-0.9,0.6-1.5,0.8c-0.5,0.2-1.1,0.3-1.8,0.3
			c-1.4,0-2.5-0.4-3.3-1.1s-1.3-1.7-1.3-2.9c0-1.3,0.4-2.3,1.3-3c0.9-0.7,2-1.1,3.3-1.1c1.4,0,2.5,0.4,3.3,1.1
			c0.4,0.4,0.7,0.8,0.9,1.3s0.3,1,0.3,1.7C597.4,414,597,415,596.2,415.8L596.2,415.8z"/>
		<polygon class="vpnresources4" points="607.1,417.3 599.3,417.3 599.3,408.2 600.4,408.2 600.4,416.6 607.1,416.6 		"/>
		<path class="vpnresources4" d="M577.6,395.8c0.2-2.2,0.2-2.5,1.8-2.2h0.4c1.3,0,2.9-0.2,3.8-0.7c2-0.9,3.3-2.5,1.3-2.2
			c-4.5,0.9-4.9-0.5-4.9-0.5c4.9-7.3,6.9-16.3,5.1-18.5c-4.7-6.2-13.1-3.3-13.1-3.1l0,0c-0.9-0.2-2-0.4-3.1-0.4
			c-2,0-3.6,0.5-4.9,1.5c0,0-14.7-6-14,7.6c0.2,2.9,4.2,21.9,8.9,16.1c1.8-2.2,3.4-3.8,3.4-3.8c0.9,0.5,1.8,0.9,2.9,0.7l0,0
			c0,0.4,0,0.5,0,0.9c-1.3,1.5-0.9,1.6-3.3,2.2c-2.5,0.5-1.1,1.5,0,1.6c1.1,0.4,3.8,0.7,5.6-1.8v0.4c0.5,0.4,0.4,2.7,0.5,4.5
			c0.2,1.8,0.2,3.3,0.5,4.2c0.4,0.9,0.7,3.4,4,2.7C575.3,404.5,577.4,403.6,577.6,395.8"/>
		<path class="vpnresources4" d="M571.4,406.9c-2.2,0-3.6-1.3-4.4-3.6v-0.2c-0.4-1.1-0.5-2.7-0.7-4.7v-0.9c0-0.2,0-0.4,0-0.7
			c-1.5,0.5-3.1,0.7-4.7,0.4c-0.7-0.2-1.6-0.5-2.2-1.3c-1.5,1.1-2.7,0.9-3.4,0.7c-5.3-1.8-7.6-17.4-7.8-18.7
			c-0.2-4.4,0.9-7.4,3.4-9.1c4-2.7,9.8-1.3,12-0.4c1.5-0.9,3.3-1.3,5.1-1.3c1.1,0,2,0.2,2.9,0.2c2.4-0.7,10-2.2,14.7,3.8
			c2.4,3.1,0,12.1-4,18.7c0.5,0,1.1,0,2-0.2c2.2-0.5,2.9,0.9,2.9,1.3c0.7,2.2-2.2,3.6-3.1,4c-1.3,0.5-3.3,0.9-4.5,0.7h-0.4v0.2v0.4
			l0,0c-0.2,7.8-2.4,9.8-6.3,10.7C572.4,406.9,572,406.9,571.4,406.9z M568.5,392.4c0.9,0.7,1.1,2.2,1.1,4.9v0.9
			c0,0.9,0.2,2.9,0.4,3.8c0,0.2,0,0.2,0.2,0.4c0.4,1.1,0.5,1.5,2,1.3c2-0.4,3.4-0.7,3.6-7.6h1.8l-1.8-0.2v-0.4
			c0.2-1.3,0.2-2.4,1.1-2.9c0.5-0.4,1.3-0.5,1.8-0.4c-0.5-0.5-0.5-0.9-0.7-1.1l-0.2-0.7l0.4-0.5c4.9-7.1,6.2-15.2,5.3-16.5
			c-3.8-4.9-10.3-2.9-11.1-2.5h-0.2l-0.5,0.2h-0.4c-0.9-0.2-1.8-0.2-2.7-0.4c-1.6,0-2.7,0.4-3.8,1.1l-0.7,0.5l-0.9-0.4
			c-1.8-0.7-6.9-2.2-9.6-0.2c-1.5,1.1-2.2,3.1-2,6.2c0.2,3.8,3.4,15.2,5.4,15.6c0,0,0.2,0,0.5-0.5c1.8-2.2,3.4-4,3.4-4l0.9-1.1
			l1.3,0.7c0.4,0.4,0.9,0.4,1.3,0.5l2.7-2.4l-0.4,4c0,0.2,0,0.2,0,0.4l0.2,0.7l-0.5,0.5l0,0l1.3,0.5L568.5,392.4z"/>
		<path class="vpnresources3" d="M584.7,391.1c-4.5,0.9-4.9-0.5-4.9-0.5c4.9-7.3,6.9-16.3,5.1-18.5c-4.7-6.2-13.1-3.3-13.1-3.1l0,0
			c-0.9-0.2-2-0.4-3.1-0.4c-2,0-3.6,0.5-4.9,1.5c0,0-14.7-6-14,7.6c0.2,2.9,4.2,21.9,8.9,16.1c1.8-2.2,3.4-3.8,3.4-3.8
			c0.9,0.5,1.8,0.9,2.9,0.7l0,0c0,0.2,0,0.5,0,0.9c-1.3,1.5-0.9,1.6-3.3,2.2c-2.5,0.5-1.1,1.5,0,1.6c1.1,0.4,3.8,0.7,5.6-1.8v0.4
			c0.5,0.4,0.9,2.5,0.7,4.5c0,2-0.2,3.3,0.4,4.4s0.7,3.4,4,2.7c2.7-0.5,4.2-2.2,4.4-4.5c0.2-1.8,0.4-1.5,0.5-3.1l0.2-0.7
			c0.4-2.4,0-3.3,1.6-2.9h0.4c1.3,0,2.9-0.2,3.8-0.7C585.6,392.2,586.7,390.6,584.7,391.1L584.7,391.1z"/>
		<path class="vpnresources5" d="M571.6,405.8c-2.7,0-3.6-2.2-4-3.1c-0.5-1.3-0.5-6.2-0.5-10.3c0-0.4,0.4-0.5,0.5-0.5c0.4,0,0.5,0.2,0.5,0.5
			c-0.2,4.7,0,8.9,0.4,10c0.5,1.5,1.5,2.7,4,2.2c2.4-0.5,3.3-1.5,3.6-3.8l1.1-8c0-0.4,0.4-0.5,0.5-0.5c0.4,0,0.5,0.4,0.5,0.5l-1.1,8
			c-0.5,2.7-1.6,4-4.5,4.7C572.5,405.8,572.2,405.8,571.6,405.8z M557.1,395.3c-0.2,0-0.5,0-0.7-0.2c-4.4-1.5-6.9-16-7.1-17.8
			c-0.2-3.8,0.7-6.7,2.9-8.2c4.4-3.1,11.4-0.2,11.8,0c0.4,0.2,0.4,0.4,0.4,0.7c-0.2,0.4-0.4,0.4-0.7,0.4c0,0-6.9-2.7-10.7-0.2
			c-1.8,1.3-2.7,3.8-2.5,7.3c0.2,3.1,3.1,15.6,6.2,16.7c0.2,0,0.9,0.4,1.8-0.7c1.8-2.2,3.3-3.8,3.4-3.8c0.2-0.2,0.5-0.2,0.7,0
			c0.2,0.2,0.2,0.5,0,0.7c0,0-1.6,1.6-3.3,3.8C558.4,395.1,557.7,395.3,557.1,395.3z M579.8,390.9c-0.2,0-0.2,0-0.4-0.2
			c-0.2-0.2-0.4-0.5-0.2-0.7c4.9-7.3,6.5-16,5.1-17.8c-4.4-5.4-11.8-3.3-12.3-2.9c0,0,0,0-0.2,0c-0.4,0-0.5,0-0.7-0.4
			c-0.2-0.2,0-0.5,0.2-0.7c0.7-0.4,9.1-2.7,13.8,3.3c2.2,2.7-0.5,12.3-5.1,19.2C580.1,390.9,580,390.9,579.8,390.9z"/>
		<path class="vpnresources5" d="M580.1,394.4c-0.9,0-1.6-0.2-2-0.4c-0.5-0.4-0.5-0.7-0.5-0.9c-0.2-2.2,1.1-2.5,1.6-2.7c0-0.2-0.2-0.2-0.4-0.4
			c-0.4-0.5-0.9-1.1-1.3-2c0-0.2-0.2-0.5-0.5-0.9c-1.3-2.2-3.6-6.5-2-8.9c0.7-1.1,2.2-1.5,4.4-1.3c-0.7-2-3.6-7.8-10.7-8
			c-2.2,0-3.8,0.5-5.3,2c-2.9,2.9-2.9,8.3-2.9,8.3c0,0.4-0.2,0.5-0.5,0.5s-0.5-0.2-0.5-0.5c0-0.2-0.2-6,3.1-9.2
			c1.5-1.6,3.4-2.4,6-2.4c8.7,0.2,11.8,8.3,12,9.6c0,0.5-0.4,0.7-0.5,0.7h-0.2c-1.5-0.2-3.3-0.4-4,0.7c-1.3,1.6,1.1,5.8,2.2,7.6
			c0.2,0.5,0.4,0.7,0.5,0.9c0.4,0.7,0.7,1.3,1.1,1.8c0.4,0.4,0.5,0.7,0.7,1.1c0,0,0.7,0.9,4.2,0.2c0.9-0.2,1.5,0,1.6,0.5
			c0.4,1.1-1.5,2.2-2.5,2.7C582.9,394,581.4,394.4,580.1,394.4z M579.8,391.3c-0.2,0-0.2,0-0.2,0c-0.5,0.2-1.1,0.4-0.9,1.6
			c0.4,0.4,3.1,0.4,4.7-0.4c0.7-0.4,1.3-0.7,1.6-1.1l0,0C582.5,392,580.9,392,579.8,391.3C580,391.3,579.8,391.3,579.8,391.3z"/>
		<path class="vpnresources5" d="M563.6,395.8c-0.5,0-1.3,0-1.8-0.2c-0.2,0-1.8-0.5-1.8-1.5s1.3-1.3,1.8-1.3c1.8-0.4,1.8-0.5,2.4-1.3
			c0.2-0.2,0.4-0.5,0.7-0.7l0,0c0.9-1.1,1.8-0.7,2.2-0.5c0.5,0.2,1.1,0.7,1.3,1.5c0.2,0.5,0.2,1.3-0.2,1.6
			C566.9,395.1,565.5,395.8,563.6,395.8z M561.3,394.2c0.2,0.2,0.4,0.2,0.7,0.4c1.5,0.4,3.6,0.4,5.1-1.6c0.2-0.2,0.2-0.5,0-0.7
			c-0.2-0.4-0.4-0.7-0.5-0.7c-0.4-0.2-0.5-0.2-0.9,0.2l0,0c-0.2,0.4-0.4,0.5-0.5,0.7c-0.7,0.9-1.1,1.1-3.1,1.6
			C561.7,394,561.5,394.2,561.3,394.2z"/>
		<path class="vpnresources5" d="M565.3,391.8c-0.4,0-0.5-0.2-0.5-0.5v-0.2c-1.3,0-2.5-0.5-3.6-1.6c-1.3-1.3-1.8-3.1-1.6-4.9
			c0.4-2,0.2-3.8,0.2-4.7c0-0.2,0-0.5,0-0.5c0-0.9,2.7-2,4.2-2.2c2-0.2,3.3,0.7,3.6,2.4c1.1,4.7,0,6.7-0.5,8.3
			c-0.2,0.4-0.2,0.5-0.4,0.7v0.2c-0.4,0.9-0.7,1.8-0.5,2.4C565.8,391.5,565.6,391.8,565.3,391.8L565.3,391.8z M560.7,379.5
			c0,0.2,0,0.2,0,0.4c0,0.9,0.2,2.7-0.2,4.9c-0.2,1.5,0.2,2.9,1.3,4c0.7,0.9,1.8,1.3,2.9,1.3c0.2-0.5,0.4-1.1,0.5-1.6v-0.2
			c0.2-0.4,0.2-0.5,0.4-0.9c0.7-1.5,1.5-3.3,0.5-7.6c-0.2-0.9-0.5-1.3-1.3-1.5C563.5,377.9,561.3,379.1,560.7,379.5z"/>
		<path class="vpnresources5" d="M563.8,379.3c0,0.2,0.4,0.7,0.9,0.7c0.5,0,0.9-0.4,0.9-0.5s-0.4-0.4-0.9-0.5
			C564.4,379,563.8,379.1,563.8,379.3L563.8,379.3z"/>
		<path class="vpnresources5" d="M564.7,380.2L564.7,380.2c-0.4,0-0.7-0.2-0.9-0.5c0,0-0.2-0.2-0.2-0.4l0,0v-0.2c0,0,0-0.2,0.2-0.2
			c0.2-0.2,0.5-0.2,0.9-0.2c0.5,0,1.1,0.4,0.9,0.7c0,0.2-0.2,0.4-0.4,0.4C565.3,380.1,565.1,380.2,564.7,380.2z M564,379.3
			c0,0.2,0.4,0.5,0.7,0.5c0.4,0,0.7-0.2,0.7-0.4c0,0-0.2-0.2-0.7-0.2C564.4,379.1,564.2,379.1,564,379.3z"/>
		<path class="vpnresources5" d="M578.3,378.8c0,0.2-0.4,0.7-0.9,0.7c-0.5,0-0.9-0.4-0.9-0.5c0-0.2,0.4-0.4,0.9-0.5
			C578,378.6,578.3,378.6,578.3,378.8L578.3,378.8z"/>
		<path class="vpnresources5" d="M577.4,379.7c-0.2,0-0.4,0-0.5-0.2c-0.2-0.2-0.2-0.2-0.4-0.4V379c0.2-0.2,0.5-0.4,0.9-0.4c0.4,0,0.5,0,0.7,0
			l0,0l0,0c0.2,0,0.2,0.2,0.2,0.2v0.4l0,0c0,0,0,0.2-0.2,0.2C578.2,379.3,578,379.7,577.4,379.7L577.4,379.7z M577.8,378.8
			c0,0-0.2,0-0.4,0c-0.4,0-0.7,0.2-0.7,0.4l0,0c0,0,0,0.2,0.2,0.2c0.2,0.2,0.4,0.2,0.5,0.2c0.2,0,0.5-0.2,0.5-0.4
			c0.2-0.2,0.2-0.2,0.2-0.2l0,0C578.2,378.8,578,378.8,577.8,378.8z"/>
		<path class="vpnresources5" d="M579.1,389.5c-0.2,0-0.2,0-0.4-0.2c-0.2-0.2-0.4-0.5-0.2-0.7c1.1-1.6,0.9-3.3,0.7-4.9c0-0.7-0.2-1.5-0.2-2.2
			c0-0.7,0.2-1.3,0.2-1.8c0.2-0.7,0.2-1.3,0.2-2c0-0.4,0.2-0.5,0.5-0.5s0.5,0.2,0.5,0.5c0,0.9,0,1.6-0.2,2.4c0,0.5-0.2,1.1-0.2,1.8
			c0,0.5,0,1.3,0.2,2c0.2,1.8,0.4,3.8-0.9,5.8C579.4,389.5,579.2,389.5,579.1,389.5z"/>
		<g>
			<path class="vpnresources1" d="M605.4,322.8h-73.2c-4.3,0-7.9-3.5-7.9-7.9v-73.2c0-4.3,3.5-7.9,7.9-7.9h73.2c4.3,0,7.9,3.5,7.9,7.9v73.2
				C613.3,319.3,609.7,322.8,605.4,322.8z"/>
			<path class="vpnresources3" d="M555.7,279.6c-0.3-0.6-0.5-1.1-0.7-1.5c-0.1-0.5-0.2-1.1-0.2-1.9l0,0v-6.9c0-2.3-0.6-4.1-1.8-5.2
				s-3-1.7-5.5-1.7c-1.2,0-2.3,0.1-3.3,0.4s-1.9,0.6-2.7,1c-0.3,0.1-0.5,0.3-0.6,0.4s-0.1,0.4-0.1,0.7v1c0,0.4,0.1,0.7,0.4,0.7
				c0.1,0,0.2,0,0.3-0.1s0.4-0.1,0.7-0.3c0.7-0.3,1.5-0.5,2.3-0.7s1.5-0.3,2.3-0.3c1.6,0,2.8,0.3,3.5,1s1,1.8,1,3.4v1.5
				c-0.8-0.2-1.7-0.4-2.4-0.5c-0.8-0.1-1.5-0.2-2.2-0.2c-2.2,0-3.9,0.6-5.2,1.7s-1.9,2.6-1.9,4.4c0,1.7,0.5,3,1.6,4.1
				s2.5,1.5,4.2,1.5c2.5,0,4.6-1,6.2-2.9c0.2,0.5,0.4,0.9,0.7,1.2c0.2,0.3,0.5,0.7,0.8,1c0.2,0.2,0.4,0.3,0.6,0.3
				c0.2,0,0.4-0.1,0.6-0.2l1.3-0.9c0.3-0.2,0.4-0.4,0.4-0.6C555.9,280,555.8,279.8,555.7,279.6z M551.3,274.5c0,0.7-0.1,1.3-0.2,1.8
				c-0.1,0.5-0.4,1-0.7,1.4c-0.6,0.6-1.2,1.1-2,1.4s-1.5,0.4-2.2,0.4c-1,0-1.7-0.3-2.2-0.8s-0.8-1.2-0.8-2.2c0-1.1,0.3-1.9,1-2.4
				c0.7-0.6,1.7-0.8,3.2-0.8c0.7,0,1.3,0,2,0.1s1.3,0.2,1.9,0.4V274.5z"/>
			<path class="vpnresources3" d="M563.2,281.7c-0.4,0-0.6-0.1-0.8-0.2s-0.3-0.4-0.4-0.8l-5-16.4c-0.1-0.4-0.2-0.7-0.2-0.8
				c0-0.3,0.2-0.5,0.5-0.5h2.1c0.4,0,0.7,0.1,0.8,0.2c0.2,0.1,0.3,0.4,0.4,0.8l3.6,14l3.3-14c0.1-0.4,0.2-0.7,0.4-0.8
				c0.2-0.1,0.5-0.2,0.8-0.2h1.7c0.4,0,0.7,0.1,0.8,0.2c0.2,0.1,0.3,0.4,0.4,0.8l3.3,14.2l3.7-14.2c0.1-0.4,0.3-0.7,0.4-0.8
				c0.2-0.1,0.4-0.2,0.8-0.2h2c0.3,0,0.5,0.2,0.5,0.5c0,0.1,0,0.2,0,0.3c0,0.1-0.1,0.3-0.1,0.5l-5.1,16.4c-0.1,0.4-0.3,0.7-0.4,0.8
				c-0.2,0.1-0.4,0.2-0.8,0.2h-1.8c-0.4,0-0.7-0.1-0.8-0.2c-0.2-0.1-0.3-0.4-0.4-0.8l-3.3-13.7l-3.3,13.6c-0.1,0.4-0.2,0.7-0.4,0.8
				c-0.2,0.1-0.5,0.2-0.8,0.2h-1.9V281.7z"/>
			<path class="vpnresources3" d="M590.4,282.3c-1.1,0-2.2-0.1-3.3-0.4s-1.9-0.5-2.4-0.8c-0.3-0.2-0.6-0.4-0.7-0.6c-0.1-0.2-0.1-0.4-0.1-0.6
				v-1.1c0-0.4,0.2-0.7,0.5-0.7c0.1,0,0.3,0,0.4,0.1c0.1,0,0.3,0.1,0.5,0.2c0.7,0.3,1.5,0.6,2.3,0.7c0.8,0.2,1.7,0.3,2.5,0.3
				c1.3,0,2.4-0.2,3.1-0.7c0.7-0.5,1.1-1.1,1.1-2c0-0.6-0.2-1.1-0.6-1.5c-0.4-0.4-1.1-0.8-2.1-1.1l-3.1-1c-1.5-0.5-2.7-1.2-3.4-2.2
				c-0.7-0.9-1.1-2-1.1-3.1c0-0.9,0.2-1.7,0.6-2.4c0.4-0.7,0.9-1.3,1.5-1.7c0.6-0.5,1.4-0.8,2.2-1.1c0.8-0.3,1.7-0.4,2.7-0.4
				c0.5,0,1,0,1.4,0.1c0.5,0.1,0.9,0.1,1.4,0.2c0.4,0.1,0.8,0.2,1.2,0.3c0.4,0.1,0.7,0.3,0.9,0.4c0.3,0.2,0.5,0.3,0.6,0.5
				s0.2,0.4,0.2,0.7v1c0,0.4-0.2,0.7-0.5,0.7c-0.2,0-0.4-0.1-0.8-0.3c-1.2-0.6-2.6-0.8-4.1-0.8c-1.2,0-2.2,0.2-2.8,0.6s-1,1-1,1.9
				c0,0.6,0.2,1.1,0.6,1.5c0.4,0.4,1.2,0.8,2.3,1.2l3,1c1.5,0.5,2.6,1.2,3.3,2s1,1.9,1,3c0,0.9-0.2,1.7-0.6,2.5
				c-0.4,0.7-0.9,1.4-1.5,1.9c-0.7,0.5-1.4,0.9-2.4,1.2C592.5,282.1,591.5,282.3,590.4,282.3L590.4,282.3z"/>
			<path class="vpnresources3" d="M594.4,292.6c-7,5.1-17.1,7.9-25.8,7.9c-12.2,0-23.2-4.5-31.5-12c-0.7-0.6-0.1-1.4,0.7-0.9
				c9,5.2,20.1,8.4,31.5,8.4c7.7,0,16.2-1.6,24-4.9C594.6,290.4,595.6,291.7,594.4,292.6z"/>
			<path class="vpnresources3" d="M597.3,289.3c-0.9-1.1-5.9-0.6-8.2-0.3c-0.7,0.1-0.8-0.5-0.2-1c4-2.8,10.5-2,11.3-1.1
				c0.8,1-0.2,7.5-3.9,10.6c-0.6,0.5-1.1,0.2-0.9-0.4C596.3,295.1,598.2,290.4,597.3,289.3z"/>
		</g>
		<path id="svg-concept" class="vpnresources2" d="M532.2,206.7c-4.3,0-7.9-3.5-7.9-7.9v-73.2c0-4.3,3.5-7.9,7.9-7.9h73.2c4.3,0,7.9,3.5,7.9,7.9v73.2
			c0,4.3-3.6,7.9-7.9,7.9H532.2"/>
		<path class="vpnresources3" d="M533.9,148.1V183h35.7l34.9-34.9H533.9L533.9,148.1z"/>
		<path class="vpnresources5" d="M576.2,164.8h-1.5v-5.6h1.5c2,0,3.7,0.7,3.7,2.8C579.9,164.1,578.2,164.8,576.2,164.8 M559.7,168.8
			c-0.8,0-1.5-0.1-2.2-0.4l2.2-6.9l0,0l2.2,7C561.2,168.7,560.5,168.8,559.7,168.8 M575.8,154.7h-6.9v16.5l-6.1-16.5h-6l-5.2,13.8
			c-0.5-3.5-4.2-4.7-7-5.6c-1.9-0.6-3.9-1.5-3.8-2.5c0-0.8,1.1-1.5,3.1-1.4c1.4,0.1,2.6,0.2,5.1,1.4l2.4-4.2
			c-2.2-1.1-5.3-1.9-7.9-1.9l0,0c-3,0-5.4,1-6.9,2.5c-1.1,1.1-1.6,2.5-1.7,4.1c0,2.1,0.7,3.6,2.4,4.8c1.4,1,3.2,1.7,4.7,2.2
			c1.9,0.6,3.5,1.1,3.5,2.2c0,0.4-0.2,0.8-0.5,1.1c-0.5,0.5-1.2,0.7-2.2,0.7c-2,0-3.4-0.3-5.8-1.6l-2.1,4.3c2.4,1.4,5.1,2.1,7.9,2.1
			h0.4c2.4,0,4.4-0.7,6-2l0.3-0.2l-0.7,1.9h6.3l1.1-3.2c1.1,0.4,2.4,0.6,3.7,0.6s2.5-0.2,3.6-0.6l1,3.2h10.3v-6.7h2.2
			c5.4,0,8.6-2.8,8.6-7.4C585.5,157.1,582.4,154.7,575.8,154.7"/>
	</g>
	<path id="svg-concept" class="vpnresources2" d="M106.1,279.3H32.9c-4.3,0-7.9-3.5-7.9-7.9v-73.2c0-4.3,3.5-7.9,7.9-7.9h73.2c4.3,0,7.9,3.5,7.9,7.9v73.2
		C114,275.8,110.5,279.3,106.1,279.3z"/>
	<path class="vpnresources1" d="M106.1,163.2H32.9c-4.3,0-7.9-3.5-7.9-7.9V82.1c0-4.3,3.5-7.9,7.9-7.9h73.2c4.3,0,7.9,3.5,7.9,7.9v73.2
		C114,159.6,110.5,163.2,106.1,163.2z"/>
	<path class="vpnresources3" d="M62.8,100c2.4-2.5,5.7-4,9.4-4c4.9,0,9.1,2.7,11.4,6.8c2-0.9,4.2-1.4,6.5-1.4c8.8,0,15.9,7.2,15.9,16.1
		s-7.1,16.1-15.9,16.1c-1.1,0-2.1-0.1-3.1-0.3c-2,3.6-5.8,6-10.2,6c-1.8,0-3.6-0.4-5.1-1.2c-2,4.8-6.7,8.1-12.2,8.1
		c-5.7,0-10.6-3.6-12.5-8.7c-0.8,0.2-1.7,0.3-2.5,0.3c-6.8,0-12.4-5.6-12.4-12.5c0-4.6,2.5-8.7,6.2-10.8c-0.8-1.7-1.2-3.7-1.2-5.7
		c0-7.9,6.4-14.3,14.3-14.3C55.8,94.3,60.1,96.4,62.8,100"/>
	<path class="vpnresources5" d="M42.7,121.2l0.3-0.8c0.1-0.1,0.1-0.1,0.2-0.1l0.3,0.2c0.9,0.6,1.7,0.6,2,0.6c0.7,0,1.1-0.3,1.1-0.8l0,0
		c0-0.5-0.6-0.7-1.4-0.9l-0.2-0.1c-1-0.3-2.1-0.7-2.1-2l0,0c0-1.2,1-2,2.4-2h0.1c0.8,0,1.6,0.2,2.2,0.6c0.1,0,0.1,0.1,0.1,0.2
		l-0.3,0.8c-0.1,0.1-0.2,0.1-0.2,0.1c-0.5-0.3-1.3-0.5-1.9-0.5c-0.6,0-1,0.3-1,0.7l0,0c0,0.5,0.7,0.7,1.4,0.9h0.1
		c1,0.3,2.1,0.7,2.1,2l0,0c0,1.3-0.9,2.1-2.4,2.1c-0.7,0-1.5-0.1-2.2-0.5c-0.1-0.1-0.3-0.1-0.4-0.3
		C42.7,121.3,42.7,121.3,42.7,121.2L42.7,121.2z M64.9,121.2l0.3-0.8c0.1-0.1,0.2-0.1,0.2-0.1l0.3,0.2c0.9,0.6,1.7,0.6,2,0.6
		c0.7,0,1.1-0.3,1.1-0.8l0,0c0-0.5-0.6-0.7-1.4-0.9l-0.2-0.1c-1-0.3-2.1-0.7-2.1-2l0,0c0-1.2,1-2,2.4-2h0.1c0.8,0,1.6,0.2,2.2,0.6
		c0.1,0,0.1,0.1,0.1,0.2l-0.3,0.8c-0.1,0.1-0.2,0.1-0.2,0.1c-0.5-0.3-1.3-0.5-1.9-0.5c-0.6,0-1,0.3-1,0.7l0,0c0,0.5,0.7,0.7,1.4,0.9
		H68c1,0.3,2,0.7,2,2l0,0c0,1.3-0.9,2.1-2.4,2.1c-0.7,0-1.4-0.1-2.2-0.5c-0.1-0.1-0.3-0.1-0.4-0.3C65,121.3,64.9,121.3,64.9,121.2
		L64.9,121.2z M81.4,117.3c0.1,0.4,0.2,0.9,0.2,1.4s-0.1,0.9-0.2,1.4c-0.1,0.4-0.3,0.8-0.6,1.1c-0.3,0.3-0.6,0.6-1,0.7
		c-0.4,0.2-0.9,0.3-1.4,0.3s-1-0.1-1.4-0.3c-0.4-0.2-0.7-0.4-1-0.7c-0.3-0.3-0.5-0.7-0.6-1.1c-0.1-0.4-0.2-0.9-0.2-1.4
		s0.1-0.9,0.2-1.4c0.1-0.4,0.3-0.8,0.6-1.1c0.3-0.3,0.6-0.6,1-0.7c0.4-0.2,0.9-0.3,1.4-0.3s1,0.1,1.4,0.3c0.4,0.2,0.7,0.4,1,0.7
		C81.1,116.5,81.3,116.9,81.4,117.3z M80.1,118.6c0-0.7-0.1-1.3-0.4-1.7s-0.7-0.6-1.2-0.6c-0.6,0-1,0.2-1.2,0.6
		c-0.3,0.4-0.4,1-0.4,1.7c0,0.7,0.1,1.3,0.4,1.7s0.7,0.6,1.2,0.6s1-0.2,1.2-0.6C80,120,80.1,119.4,80.1,118.6z M91.8,120.8l0.3,0.9
		c0,0.1-0.1,0.1-0.1,0.1c-0.5,0.2-1.1,0.3-1.8,0.3c-1.1,0-1.9-0.3-2.5-0.9c-0.6-0.6-0.9-1.5-0.9-2.5c0-0.5,0.1-0.9,0.2-1.4
		c0.1-0.4,0.3-0.8,0.6-1.1c0.3-0.3,0.6-0.6,1-0.7c0.5-0.2,0.9-0.3,1.4-0.3c0.3,0,0.6,0,0.9,0.1s0.7,0.1,0.9,0.2l0.1,0.1l-0.3,0.9
		c-0.1,0.1-0.1,0.1-0.1,0.1c-0.4-0.1-0.8-0.2-1.3-0.2c-0.6,0-1.1,0.2-1.4,0.6c-0.3,0.4-0.5,0.9-0.5,1.7c0,0.8,0.2,1.4,0.5,1.7
		c0.3,0.4,0.8,0.5,1.4,0.5c0.3,0,0.5,0,0.7-0.1c0.2,0,0.4-0.1,0.6-0.2C91.6,120.7,91.7,120.7,91.8,120.8L91.8,120.8z M98.3,117
		c0.3,1,0.1,1.8,0.1,1.9s-0.1,0.1-0.1,0.1H94c0,0.7,0.2,1.1,0.5,1.4s0.8,0.5,1.5,0.5c1,0,1.4-0.2,1.8-0.3c0,0,0.1,0,0.2,0.1l0.3,0.8
		c0.1,0.1,0,0.2,0,0.2c-0.3,0.1-0.9,0.4-2.2,0.4c-0.6,0-1.1-0.1-1.6-0.3c-0.5-0.2-0.8-0.4-1.1-0.7c-0.3-0.3-0.5-0.7-0.6-1.1
		c-0.1-0.4-0.2-0.9-0.2-1.4s0.1-0.9,0.2-1.4c0.1-0.4,0.3-0.8,0.6-1.1c0.3-0.3,0.6-0.6,1-0.7c0.4-0.2,0.9-0.3,1.4-0.3
		s0.9,0.1,1.2,0.3c0.3,0.1,0.5,0.3,0.8,0.6C97.9,116.2,98.1,116.7,98.3,117L98.3,117z M94,117.9h3c0-0.4-0.1-0.7-0.3-1
		c-0.3-0.4-0.6-0.6-1.2-0.6s-1,0.2-1.2,0.6C94.2,117.2,94.1,117.5,94,117.9L94,117.9z M63.9,117c0.3,1,0.1,1.8,0.1,1.9
		s-0.1,0.1-0.1,0.1h-4.3c0,0.7,0.2,1.1,0.5,1.4s0.8,0.5,1.5,0.5c1,0,1.4-0.2,1.8-0.3c0,0,0.1,0,0.2,0.1l0.3,0.8c0.1,0.1,0,0.2,0,0.2
		c-0.3,0.1-0.9,0.4-2.2,0.4c-0.6,0-1.1-0.1-1.6-0.3c-0.5-0.2-0.8-0.4-1.1-0.7c-0.3-0.3-0.5-0.7-0.6-1.1c-0.1-0.4-0.2-0.9-0.2-1.4
		s0.1-0.9,0.2-1.4c0.1-0.4,0.3-0.8,0.6-1.1c0.3-0.3,0.6-0.6,1-0.7c0.4-0.2,0.9-0.3,1.4-0.3s0.9,0.1,1.2,0.3c0.3,0.1,0.5,0.3,0.8,0.6
		C63.5,116.2,63.8,116.7,63.9,117L63.9,117z M59.6,117.9h3.1c0-0.4-0.1-0.7-0.3-1c-0.3-0.4-0.6-0.6-1.2-0.6s-1,0.2-1.2,0.6
		C59.8,117.2,59.7,117.5,59.6,117.9z M52.1,117.7l0.7,0.1v-0.2c0-0.6-0.1-0.9-0.3-1c-0.2-0.2-0.6-0.3-1.1-0.3c0,0-1.1,0-1.9,0.4
		h-0.1c0,0-0.1,0-0.1-0.1l-0.3-0.8c-0.1-0.1,0-0.2,0-0.2c0.4-0.3,1.3-0.5,1.3-0.5c0.3-0.1,0.8-0.1,1.1-0.1c0.9,0,1.5,0.2,2,0.6
		s0.7,1,0.7,1.9v3.9c0,0,0,0.1-0.1,0.1c0,0-0.2,0.1-0.3,0.1l-1.1,0.2c-0.4,0.1-0.9,0.1-1.3,0.1s-0.8,0-1.1-0.1
		c-0.3-0.1-0.6-0.2-0.9-0.4c-0.2-0.2-0.4-0.4-0.6-0.7c-0.1-0.3-0.2-0.6-0.2-1s0.1-0.7,0.2-1c0.1-0.3,0.4-0.5,0.6-0.7
		c0.3-0.2,0.6-0.3,0.9-0.4c0.3-0.1,0.7-0.1,1.1-0.1L52.1,117.7L52.1,117.7z M50.4,120.7c0,0,0.4,0.3,1.3,0.3c0.6,0,1.2-0.1,1.2-0.1
		v-2c0,0-0.5-0.1-1.2-0.1c-0.9,0-1.3,0.3-1.3,0.3c-0.3,0.2-0.4,0.5-0.4,0.8c0,0.2,0,0.4,0.1,0.6C50.2,120.6,50.2,120.6,50.4,120.7z
		 M86.7,115.5c0,0.1-0.3,0.7-0.3,0.9c0,0.1-0.1,0.1-0.2,0.1c0,0-0.3-0.1-0.5-0.1s-0.4,0-0.6,0.1s-0.4,0.2-0.5,0.3
		c-0.2,0.1-0.3,0.4-0.4,0.6c-0.1,0.3-0.1,0.7-0.1,1.1v3.2c0,0.1-0.1,0.1-0.1,0.1h-1.1c-0.1,0-0.1-0.1-0.1-0.1v-6.4
		c0-0.1,0.1-0.1,0.1-0.1H84c0.1,0,0.1,0.1,0.1,0.1v0.5c0.2-0.2,0.5-0.4,0.7-0.5c0.3-0.1,0.6-0.2,1.1-0.2c0.3,0,0.7,0.1,0.7,0.1
		C86.6,115.4,86.7,115.4,86.7,115.5L86.7,115.5z M76.1,112.6L76.1,112.6l-0.2,1c0,0.1-0.1,0.1-0.2,0.1c0,0-0.1,0-0.2-0.1
		c-0.1,0-0.2,0-0.3,0c-0.2,0-0.3,0-0.5,0.1c-0.1,0-0.3,0.1-0.4,0.2s-0.2,0.3-0.3,0.5c-0.2,0.5-0.2,0.9-0.2,1h1.4
		c0.1,0,0.1,0.1,0.1,0.1l-0.2,0.9c0,0.1-0.1,0.1-0.1,0.1h-1.4l-0.9,5.5c-0.1,0.6-0.2,1.1-0.4,1.4c-0.1,0.4-0.3,0.7-0.6,1
		c-0.2,0.3-0.5,0.5-0.8,0.5c-0.3,0.1-0.7,0.2-1.1,0.2c-0.2,0-0.4,0-0.6-0.1c-0.1,0-0.3-0.1-0.4-0.1c-0.1,0-0.1-0.1-0.1-0.2l0.3-0.9
		c0.1-0.1,0.1-0.1,0.1-0.1l0.2,0.1c0.1,0,0.2,0,0.3,0c0.2,0,0.4,0,0.5-0.1c0.2-0.1,0.3-0.2,0.4-0.3c0.1-0.1,0.2-0.3,0.3-0.6
		c0.1-0.3,0.2-0.7,0.3-1.1l1-5.4h-0.9c-0.1,0-0.1-0.1-0.1-0.1l0.2-0.9c0-0.1,0.1-0.1,0.1-0.1h1l0.1-0.3c0.1-0.9,0.4-1.5,0.9-1.9
		s1.1-0.7,1.8-0.7c0.2,0,0.4,0,0.6,0.1C75.8,112.5,76,112.5,76.1,112.6L76.1,112.6z M56.9,121.8C56.9,121.9,56.8,121.9,56.9,121.8
		l-1.2,0.1c-0.1,0-0.1-0.1-0.1-0.1v-9.1c0-0.1,0.1-0.1,0.1-0.1h1.1c0.1,0,0.1,0.1,0.1,0.1S56.9,121.8,56.9,121.8z"/>
	<path class="vpnresources3" d="M95.3,245.7c0.6,0.9,0.5,2-0.3,2.6c-0.9,0.6-2.1,0.5-2.8-0.3l-4.4-5.7l-4.3,5.5c-0.6,0.9-1.9,0.9-2.8,0.3
		c-0.9-0.6-1-1.8-0.4-2.6l5-6.5l-5-6.5c-0.6-0.9-0.4-2.1,0.4-2.8c0.9-0.6,2.1-0.4,2.8,0.4l4.3,5.7l4.4-5.4c0.6-0.9,1.8-1,2.8-0.4
		c0.9,0.6,0.9,1.9,0.3,2.8l-4.9,6.4L95.3,245.7z M72.4,245c-3.3,0-5.9-2.5-5.9-5.8c0-3.1,2.6-5.8,5.9-5.8s5.9,2.6,5.9,5.8
		C78.2,242.4,75.5,245,72.4,245z M55,245c-3.3,0-5.9-2.5-5.9-5.8c0-3.1,2.6-5.8,5.9-5.8s5.9,2.6,5.9,5.8S58.3,245,55,245z
		 M72.4,229.6c-3.6,0-6.9,2-8.6,5c-1.6-3-4.9-5-8.7-5c-2.3,0-4.3,0.8-5.9,1.9v-8.1c0-1-0.9-1.9-1.9-1.9c-1.1,0-2,0.9-2,1.9v15.9
		c0.1,5.3,4.4,9.4,9.7,9.4c3.8,0,7-2.1,8.7-5.2c1.6,3,4.9,5.2,8.6,5.2c5.4,0,9.8-4.3,9.8-9.7C82.2,233.9,77.8,229.6,72.4,229.6z"/>
</g>

<g>
	<path id="svg-concept" class="vpnresources2" d="M189.7,352c29.9,30.5,101.6,29.9,101.6,29.9v99.4c0,55-101.8,99.4-101.8,99.4
		S93,536.2,93,481.3v-99.4C93,381.9,159.9,382.6,189.7,352"/>
	<path class="vpnresources1" d="M190.4,385.3c23.9,24.6,74.6,23.9,74.6,23.9l0.2,67c0,39.9-75.3,71.6-75.3,71.6s-70.6-31.9-70.6-71.6l-0.2-67
		C119.3,409.2,166.5,409.7,190.4,385.3 M149.3,425l-6.6,6.6 M175.8,425l-36.5,36.5"/>
</g>

<path id="svg-concept" class="vpnresources2" d="M161.1,616.4h-0.6c-2.9,0-5.6-2.6-5.6-5.6v-0.6c0-2.9,2.6-5.6,5.6-5.6h0.6c2.9,0,5.6,2.6,5.6,5.6v0.6
	C166.8,613.7,164.2,616.4,161.1,616.4z"/>
<path id="svg-concept" class="vpnresources2" d="M316.7,571.5L316.7,571.5c-2.6,0-4.3-1.7-4.3-3.9v-0.3c0-2.3,1.7-3.9,3.9-3.9h0.3c2.3,0,3.9,1.7,3.9,3.9v0.3
	C321,569.9,319,571.5,316.7,571.5z"/>
<path id="svg-concept" class="vpnresources2" d="M305.6,616.4H305c-2.9,0-5.6-2.6-5.6-5.6v-0.6c0-2.9,2.6-5.6,5.6-5.6h0.6c2.9,0,5.6,2.6,5.6,5.6v0.6
	C311.1,613.7,308.5,616.4,305.6,616.4z"/>
<path id="svg-concept" class="vpnresources2" d="M461.2,571.5L461.2,571.5c-2.6,0-4.3-1.7-4.3-3.9v-0.3c0-2.3,1.7-3.9,3.9-3.9h0.3c2.3,0,3.9,1.7,3.9,3.9v0.3
	C465,569.9,463.5,571.5,461.2,571.5z"/>

<g>
<path id="svg-concept" class="vpnresources2" d="M590.2,613.4c0,4.9-3.9,8.8-8.8,8.8c-4.9,0-8.8-3.9-8.8-8.8c0-4.9,3.9-8.8,8.8-8.8
	C586.3,604.5,590.2,608.5,590.2,613.4z"/>
	<animate attributeName="opacity" begin="1s" dur="1s" repeatCount="indefinite" restart="always" values="0;1;0"></animate>
</g>

<g>
<path id="svg-concept" class="vpnresources2" d="M450,616.4h-0.6c-2.9,0-5.6-2.6-5.6-5.6v-0.6c0-2.9,2.6-5.6,5.6-5.6h0.6c2.9,0,5.6,2.6,5.6,5.6v0.6
	C455.6,613.7,453,616.4,450,616.4z"/>
	<animate attributeName="opacity" begin="1s" dur="1.5s" repeatCount="indefinite" restart="always" values="0;1;0"></animate>
</g>

</svg>
