<?xml version="1.0" encoding="utf-8"?>
<!-- Generator: Adobe Illustrator 24.3.0, SVG Export Plug-In . SVG Version: 6.00 Build 0)  -->
<svg version="1.1" id="Layer_1" xmlns="http://www.w3.org/2000/svg" xmlns:xlink="http://www.w3.org/1999/xlink" x="0px" y="0px"
	 viewBox="0 0 650 650" style="enable-background:new 0 0 650 650;" xml:space="preserve">
<style type="text/css">
	.vpnremote0{fill:none;stroke:#808080;stroke-miterlimit:10;}
	.vpnremote1{fill:none;stroke:#808080;stroke-linecap:round;stroke-linejoin:round;stroke-miterlimit:10;}
	.vpnremote2{fill:none;stroke:#808080;stroke-width:2;stroke-linecap:round;stroke-linejoin:round;stroke-miterlimit:10;}
	.vpnremote3{fill:none;}
	.vpnremote4{fill:none;stroke:#55bde5;stroke-width:2;stroke-linecap:round;stroke-linejoin:round;stroke-miterlimit:10;}
	.vpnremote5{fill:#55bde5;}
	.vpnremote6{fill:#808080;}
</style>
<circle class="vpnremote0" cx="453.2" cy="44.7" r="44.7"/>
<circle class="vpnremote0" cx="106.4" cy="84.3" r="44.7"/>
<circle class="vpnremote0" cx="556.8" cy="562.7" r="44.7"/>
<g>
	<path class="vpnremote1" d="M336.4,463.1c0,2.6-2.1,4.9-4.8,4.9c-2.6,0-4.8-2.1-4.8-4.9c0-2.6,2.1-4.8,4.8-4.8
		C334.3,458.3,336.4,460.4,336.4,463.1z M322.1,451.7c0,2.6-2.1,4.9-4.8,4.9c-2.6,0-4.8-2.1-4.8-4.9c0-2.6,2.1-4.8,4.8-4.8
		C319.9,447,322.1,449.1,322.1,451.7z M362.2,420.3c0,2.6-2.1,4.9-4.8,4.9c-2.6,0-4.8-2.1-4.8-4.9c0-2.6,2.1-4.8,4.8-4.8
		S362.2,417.6,362.2,420.3z M368.5,382.4c0,2.6-2.1,4.9-4.8,4.9c-2.6,0-4.8-2.1-4.8-4.9c0-2.6,2.1-4.8,4.8-4.8
		C366.4,377.5,368.5,379.7,368.5,382.4z M388.2,350.4c0,2.6-2.1,4.9-4.8,4.9c-2.6,0-4.8-2.1-4.8-4.9c0-2.6,2.1-4.8,4.8-4.8
		C386.1,345.7,388.2,347.8,388.2,350.4z M373.3,348c0,2.6-2.1,4.9-4.8,4.9c-2.6,0-4.8-2.1-4.8-4.9c0-2.6,2.1-4.8,4.8-4.8
		C371.2,343.1,373.3,345.4,373.3,348z M357.5,308.9c0,2.6-2.1,4.9-4.8,4.9c-2.6,0-4.8-2.1-4.8-4.9c0-2.7,2.1-4.8,4.8-4.8
		C355.4,304.2,357.5,306.3,357.5,308.9z M381.4,336.8c0,2.6-2.1,4.9-4.8,4.9c-2.6,0-4.8-2.1-4.8-4.9c0-2.6,2.1-4.8,4.8-4.8
		S381.4,334.2,381.4,336.8z M406.6,320.7c0,2.6-2.1,4.9-4.8,4.9c-2.6,0-4.8-2.1-4.8-4.9c0-2.6,2.1-4.8,4.8-4.8
		C404.5,316,406.6,318.1,406.6,320.7z M360,291.9c0,2.6-2.1,4.9-4.8,4.9c-2.6,0-4.8-2.1-4.8-4.9s2.1-4.8,4.8-4.8
		C357.8,287,360,289.2,360,291.9z M357.5,278.9c0,2.6-2.1,4.9-4.8,4.9c-2.6,0-4.8-2.1-4.8-4.9s2.1-4.8,4.8-4.8
		S357.5,276.2,357.5,278.9z M341.8,278c0,2.6-2.1,4.9-4.8,4.9s-4.8-2.1-4.8-4.9c0-2.7,2.1-4.8,4.8-4.8S341.8,275.3,341.8,278z
		 M326.8,299.4c0,2.6-2.1,4.9-4.8,4.9c-2.6,0-4.8-2.1-4.8-4.9s2.1-4.8,4.8-4.8C324.7,294.5,326.8,296.7,326.8,299.4z M276.7,287
		c0,2.6-2.1,4.9-4.8,4.9c-2.6,0-4.8-2.1-4.8-4.9s2.1-4.8,4.8-4.8C274.5,282.3,276.7,284.4,276.7,287z M305,261.1
		c0,2.6-2.1,4.9-4.8,4.9c-2.6,0-4.8-2.1-4.8-4.9c0-2.7,2.1-4.8,4.8-4.8C302.9,256.2,305,258.4,305,261.1z M317.9,270
		c0,2.6-2.1,4.9-4.8,4.9s-4.8-2.1-4.8-4.9c0-2.6,2.1-4.8,4.8-4.8S317.9,267.3,317.9,270z M307.4,227.4c0,2.6-2.1,4.9-4.8,4.9
		c-2.6,0-4.8-2.1-4.8-4.9s2.1-4.8,4.8-4.8C305.2,222.6,307.4,224.8,307.4,227.4z M302.3,199.1c0,2.6-2.1,4.9-4.8,4.9
		c-2.6,0-4.8-2.1-4.8-4.9s2.1-4.8,4.8-4.8C300.1,194.2,302.3,196.3,302.3,199.1z M336.1,167.6c0,2.6-2.1,4.9-4.8,4.9
		c-2.6,0-4.8-2.1-4.8-4.9s2.1-4.8,4.8-4.8C334,162.7,336.1,164.9,336.1,167.6z M366.2,181.8c0,2.6-2.1,4.9-4.8,4.9s-4.8-2.1-4.8-4.9
		s2.1-4.8,4.8-4.8S366.2,179.2,366.2,181.8z M397,173.9c0,2.6-2.1,4.9-4.8,4.9c-2.6,0-4.8-2.1-4.8-4.9c0-2.7,2.1-4.8,4.8-4.8
		C394.8,169.1,397,171.2,397,173.9z M416.1,163.9c0,2.6-2.1,4.9-4.8,4.9c-2.6,0-4.8-2.1-4.8-4.9c0-2.7,2.1-4.8,4.8-4.8
		C413.9,159.1,416.1,161.3,416.1,163.9z M442.6,155.3c0,2.6-2.1,4.9-4.8,4.9s-4.8-2.1-4.8-4.9c0-2.6,2.1-4.8,4.8-4.8
		S442.6,152.7,442.6,155.3z M431.8,164.8c0,2.6-2.1,4.9-4.8,4.9c-2.6,0-4.8-2.1-4.8-4.9s2.1-4.8,4.8-4.8
		C429.6,160,431.8,162.2,431.8,164.8z M470,143.4c0,2.6-2.1,4.9-4.8,4.9c-2.6,0-4.8-2.1-4.8-4.9s2.1-4.8,4.8-4.8
		C467.8,138.7,470,140.8,470,143.4z M495.8,158.9c0,2.6-2.1,4.9-4.8,4.9c-2.6,0-4.8-2.1-4.8-4.9c0-2.6,2.1-4.8,4.8-4.8
		C493.6,154.2,495.8,156.3,495.8,158.9z M554,253.1c0,2.6-2.1,4.9-4.8,4.9s-4.8-2.1-4.8-4.9c0-2.7,2.1-4.8,4.8-4.8
		S554,250.5,554,253.1z M546.7,280.4c0,2.6-2.1,4.9-4.8,4.9s-4.8-2.1-4.8-4.9s2.1-4.8,4.8-4.8C544.6,275.5,546.7,277.7,546.7,280.4z
		 M533.4,269.5c0,2.6-2.1,4.9-4.8,4.9c-2.6,0-4.8-2.1-4.8-4.9s2.1-4.8,4.8-4.8C531.2,264.7,533.4,266.9,533.4,269.5z M533.4,301.1
		c0,2.6-2.1,4.9-4.8,4.9c-2.6,0-4.8-2.1-4.8-4.9s2.1-4.8,4.8-4.8C531.2,296.2,533.4,298.3,533.4,301.1z M514.7,323.2
		c0,2.6-2.1,4.9-4.8,4.9s-4.8-2.1-4.8-4.9c0-2.6,2.1-4.8,4.8-4.8C512.6,318.3,514.7,320.5,514.7,323.2z M507.3,349.2
		c0,2.6-2.1,4.9-4.8,4.9c-2.6,0-4.8-2.1-4.8-4.9c0-2.6,2.1-4.8,4.8-4.8C505.2,344.4,507.3,346.5,507.3,349.2z M491.7,338.8
		c0,2.6-2.1,4.9-4.8,4.9c-2.6,0-4.8-2.1-4.8-4.9c0-2.6,2.1-4.8,4.8-4.8C489.5,334,491.7,336.1,491.7,338.8z M473.3,316.9
		c0,2.6-2.1,4.9-4.8,4.9c-2.6,0-4.8-2.1-4.8-4.9c0-2.6,2.1-4.8,4.8-4.8C471.1,312.2,473.3,314.3,473.3,316.9z M427.7,310
		c0,2.6-2.1,4.9-4.8,4.9c-2.6,0-4.8-2.1-4.8-4.9c0-2.7,2.1-4.8,4.8-4.8C425.5,305.2,427.7,307.4,427.7,310L427.7,310z M464.8,272.1
		c0,2.6-2.1,4.9-4.8,4.9c-2.6,0-4.8-2.1-4.8-4.9s2.1-4.8,4.8-4.8C462.6,267.3,464.8,269.5,464.8,272.1z M502.6,233.5
		c0,2.6-2.1,4.9-4.8,4.9c-2.6,0-4.8-2.1-4.8-4.9c0-2.6,2.1-4.8,4.8-4.8C500.3,228.7,502.6,230.8,502.6,233.5z M361.4,218.9
		c0,2.6-2.1,4.9-4.8,4.9s-4.8-2.1-4.8-4.9c0-2.6,2.1-4.8,4.8-4.8C359.3,214.1,361.4,216.2,361.4,218.9z M427.7,232.3
		c0,2.6-2.1,4.9-4.8,4.9c-2.6,0-4.8-2.1-4.8-4.9s2.1-4.8,4.8-4.8C425.5,227.4,427.7,229.6,427.7,232.3z M411.4,307.5
		c0,2.6-2.1,4.9-4.8,4.9c-2.6,0-4.8-2.1-4.8-4.9s2.1-4.8,4.8-4.8S411.4,304.9,411.4,307.5z M500.1,366.5c0,2.6-2.1,4.9-4.8,4.9
		s-4.8-2.1-4.8-4.9c0-2.7,2.1-4.8,4.8-4.8S500.1,363.9,500.1,366.5z M556.8,410.7c0,2.6-2.1,4.9-4.8,4.9s-4.8-2.1-4.8-4.9
		c0-2.6,2.1-4.8,4.8-4.8S556.8,408.1,556.8,410.7z M381.9,441.1c0,2.6-2.1,4.9-4.8,4.9c-2.6,0-4.8-2.1-4.8-4.9
		c0-2.6,2.1-4.8,4.8-4.8C379.6,436.3,381.9,438.4,381.9,441.1z M386.3,413.8c0,2.6-2.1,4.9-4.8,4.9c-2.6,0-4.8-2.1-4.8-4.9
		c0-2.6,2.1-4.8,4.8-4.8C384.1,409.1,386.3,411.2,386.3,413.8z M550.4,346c0,2.6-2.1,4.9-4.8,4.9s-4.8-2.1-4.8-4.9
		c0-2.6,2.1-4.8,4.8-4.8C548.2,341.1,550.4,343.3,550.4,346z M559.5,292.7c0,2.6-2.1,4.9-4.8,4.9c-2.6,0-4.8-2.1-4.8-4.9
		s2.1-4.8,4.8-4.8C557.3,287.8,559.5,289.9,559.5,292.7z M563.4,377c0,2.6-2.1,4.9-4.8,4.9c-2.6,0-4.8-2.1-4.8-4.9
		c0-2.6,2.1-4.8,4.8-4.8C561.2,372.3,563.4,374.4,563.4,377z M543.7,381.4c0,2.6-2.1,4.9-4.8,4.9s-4.8-2.1-4.8-4.9
		c0-2.6,2.1-4.8,4.8-4.8C541.5,376.5,543.7,378.7,543.7,381.4z M514.7,395c0,2.6-2.1,4.9-4.8,4.9s-4.8-2.1-4.8-4.9
		c0-2.6,2.1-4.8,4.8-4.8C512.6,390.2,514.7,392.3,514.7,395z M500.1,382.2c0,2.6-2.1,4.9-4.8,4.9s-4.8-2.1-4.8-4.9
		c0-2.6,2.1-4.8,4.8-4.8S500.1,379.6,500.1,382.2z M542.3,330.6c0,2.6-2.1,4.9-4.8,4.9s-4.8-2.1-4.8-4.9c0-2.6,2.1-4.8,4.8-4.8
		S542.3,327.9,542.3,330.6z M537.1,315.9c0,2.6-2.1,4.9-4.8,4.9c-2.6,0-4.8-2.1-4.8-4.9c0-2.6,2.1-4.8,4.8-4.8
		C534.9,311,537.1,313.1,537.1,315.9z M535.8,425.1c0,2.6-2.1,4.9-4.8,4.9c-2.6,0-4.8-2.1-4.8-4.9c0-2.6,2.1-4.8,4.8-4.8
		C533.6,420.3,535.8,422.4,535.8,425.1z M548.9,435.8c0,2.6-2.1,4.9-4.8,4.9c-2.6,0-4.8-2.1-4.8-4.9c0-2.6,2.1-4.8,4.8-4.8
		C546.8,430.9,548.9,433,548.9,435.8z M280.3,233.3c0,2.6-2.1,4.9-4.8,4.9c-2.6,0-4.8-2.1-4.8-4.9c0-2.6,2.1-4.8,4.8-4.8
		C278.1,228.4,280.3,230.5,280.3,233.3z M266.1,223.4c0,2.6-2.1,4.9-4.8,4.9c-2.6,0-4.8-2.1-4.8-4.9s2.1-4.8,4.8-4.8
		C263.9,218.5,266.1,220.7,266.1,223.4z M260.7,313.8c0,2.6-2.1,4.9-4.8,4.9c-2.6,0-4.8-2.1-4.8-4.9c0-2.6,2.1-4.8,4.8-4.8
		C258.6,308.9,260.7,311.1,260.7,313.8z M257.2,344c0,2.6-2.1,4.9-4.8,4.9c-2.6,0-4.8-2.1-4.8-4.9c0-2.6,2.1-4.8,4.8-4.8
		C255,339.1,257.2,341.3,257.2,344z M283.4,318.6c0,2.6-2.1,4.9-4.8,4.9c-2.6,0-4.8-2.1-4.8-4.9c0-2.6,2.1-4.8,4.8-4.8
		C281.2,313.8,283.4,316,283.4,318.6z M322.1,334.9c0,2.6-2.1,4.9-4.8,4.9c-2.6,0-4.8-2.1-4.8-4.9c0-2.6,2.1-4.8,4.8-4.8
		C319.9,330,322.1,332.1,322.1,334.9z M340.4,372.1c0,2.6-2.1,4.9-4.8,4.9c-2.6,0-4.8-2.1-4.8-4.9c0-2.6,2.1-4.8,4.8-4.8
		C338.1,367.2,340.4,369.3,340.4,372.1z M338,418.9c0,2.6-2.1,4.9-4.8,4.9c-2.6,0-4.8-2.1-4.8-4.9c0-2.6,2.1-4.8,4.8-4.8
		S338,416.3,338,418.9z M312.9,422.6c0,2.6-2.1,4.9-4.8,4.9c-2.6,0-4.8-2.1-4.8-4.9c0-2.6,2.1-4.8,4.8-4.8
		C310.8,417.8,312.9,420,312.9,422.6z M316.2,404.4c0,2.6-2.1,4.9-4.8,4.9c-2.6,0-4.8-2.1-4.8-4.9c0-2.6,2.1-4.8,4.8-4.8
		C314,399.5,316.2,401.7,316.2,404.4z M308.1,367.2c0,2.6-2.1,4.9-4.8,4.9c-2.6,0-4.8-2.1-4.8-4.9c0-2.6,2.1-4.8,4.8-4.8
		C306,362.4,308.1,364.6,308.1,367.2z M315.8,142.4c0,2.6-2.1,4.9-4.8,4.9c-2.6,0-4.8-2.1-4.8-4.9c0-2.6,2.1-4.8,4.8-4.8
		C313.7,137.6,315.8,139.7,315.8,142.4z M311.1,128.5c0,2.6-2.1,4.9-4.8,4.9c-2.6,0-4.8-2.1-4.8-4.9c0-2.8,2.1-4.8,4.8-4.8
		C308.9,123.7,311.1,125.8,311.1,128.5z M332.2,123.7c0,2.6-2.1,4.9-4.8,4.9c-2.6,0-4.8-2.1-4.8-4.9c0-2.6,2.1-4.8,4.8-4.8
		C330.1,118.9,332.2,121,332.2,123.7z M390.6,125.7c0,2.6-2.1,4.9-4.8,4.9c-2.6,0-4.8-2.1-4.8-4.9c0-2.6,2.1-4.8,4.8-4.8
		C388.5,120.8,390.6,123,390.6,125.7z M404,142.2c0,2.6-2.1,4.9-4.8,4.9c-2.6,0-4.8-2.1-4.8-4.9s2.1-4.8,4.8-4.8
		C401.8,137.4,404,139.6,404,142.2z M307.6,133.1l1.9,4.8 M384.1,158.4l11.8-12.6 M216.9,200.1c0,2.6-2.1,4.9-4.8,4.9
		s-4.8-2.1-4.8-4.9c0-2.7,2.1-4.8,4.8-4.8C214.7,195.3,216.9,197.4,216.9,200.1z M188.2,475.1c0,2.6-2.1,4.9-4.8,4.9
		s-4.8-2.1-4.8-4.9c0-2.6,2.1-4.8,4.8-4.8S188.2,472.5,188.2,475.1z M156.1,461.9c0,2.6-2.1,4.9-4.8,4.9c-2.6,0-4.8-2.1-4.8-4.9
		c0-2.6,2.1-4.8,4.8-4.8C154,457,156.1,459.1,156.1,461.9z M177.3,448c0,2.6-2.1,4.9-4.8,4.9s-4.8-2.1-4.8-4.9
		c0-2.6,2.1-4.8,4.8-4.8S177.3,445.4,177.3,448z M195.9,379.8c0,2.6-2.1,4.9-4.8,4.9s-4.8-2.1-4.8-4.9c0-2.6,2.1-4.8,4.8-4.8
		C193.8,374.9,195.9,377,195.9,379.8z M167,354.3c0,2.6-2.1,4.9-4.8,4.9s-4.8-2.1-4.8-4.9c0-2.6,2.1-4.8,4.8-4.8
		S167,351.7,167,354.3z M139,356.1c0,2.6-2.1,4.9-4.8,4.9s-4.8-2.1-4.8-4.9c0-2.6,2.1-4.8,4.8-4.8C136.8,351.2,139,353.4,139,356.1z
		 M121.6,345.1c0,2.6-2.1,4.9-4.8,4.9s-4.8-2.1-4.8-4.9c0-2.6,2.1-4.8,4.8-4.8C119.5,340.2,121.6,342.4,121.6,345.1z M69.7,306.8
		c0,2.6-2.1,4.9-4.8,4.9c-2.6,0-4.8-2.1-4.8-4.9s2.1-4.8,4.8-4.8C67.6,301.9,69.7,304.2,69.7,306.8z M98.9,301.9
		c0,2.6-2.1,4.9-4.8,4.9s-4.8-2.1-4.8-4.9s2.1-4.8,4.8-4.8S98.9,299.3,98.9,301.9z M134.2,306.8c0,2.6-2.1,4.9-4.8,4.9
		s-4.8-2.1-4.8-4.9s2.1-4.8,4.8-4.8C132,301.9,134.2,304.2,134.2,306.8z M147.7,281c0,2.6-2.1,4.9-4.8,4.9s-4.8-2.1-4.8-4.9
		s2.1-4.8,4.8-4.8S147.7,278.4,147.7,281z M156.6,202.2c0,2.6-2.1,4.9-4.8,4.9s-4.8-2.1-4.8-4.9c0-2.7,2.1-4.8,4.8-4.8
		S156.6,199.6,156.6,202.2z M146.5,233.5c0,2.6-2.1,4.9-4.8,4.9s-4.8-2.1-4.8-4.9c0-2.7,2.1-4.8,4.8-4.8
		C144.3,228.7,146.5,230.8,146.5,233.5z M121.9,211.9c0,2.6-2.1,4.9-4.8,4.9s-4.8-2.1-4.8-4.9c0-2.7,2.1-4.8,4.8-4.8
		C119.8,207.1,121.9,209.2,121.9,211.9z M146.5,158.4c0,2.6-2.1,4.9-4.8,4.9c-2.6,0-4.8-2.1-4.8-4.9s2.1-4.8,4.8-4.8
		C144.4,153.7,146.5,155.8,146.5,158.4z M142.4,181.4c0,2.6-2.1,4.9-4.8,4.9s-4.8-2.1-4.8-4.9s2.1-4.8,4.8-4.8
		C140.1,176.6,142.4,178.7,142.4,181.4z M173,168c0,2.6-2.1,4.9-4.8,4.9c-2.6,0-4.8-2.1-4.8-4.9c0-2.6,2.1-4.8,4.8-4.8
		S173,165.4,173,168z M173,192.3c0,2.6-2.1,4.9-4.8,4.9c-2.6,0-4.8-2.1-4.8-4.9s2.1-4.8,4.8-4.8S173,189.6,173,192.3z M88.3,237.5
		c0,2.6-2.1,4.9-4.8,4.9s-4.8-2.1-4.8-4.9s2.1-4.8,4.8-4.8S88.3,234.9,88.3,237.5z M112.1,256.1c0,2.6-2.1,4.9-4.8,4.9
		s-4.8-2.1-4.8-4.9s2.1-4.8,4.8-4.8S112.1,253.4,112.1,256.1z M160.9,381.7c0,2.6-2.1,4.9-4.8,4.9s-4.8-2.1-4.8-4.9
		c0-2.6,2.1-4.8,4.8-4.8C158.7,376.8,160.9,379.1,160.9,381.7z M191.1,409.8c0,2.6-2.1,4.9-4.8,4.9s-4.8-2.1-4.8-4.9
		c0-2.6,2.1-4.8,4.8-4.8C188.9,404.9,191.1,407,191.1,409.8z M210.6,178.5c0,2.6-2.1,4.9-4.8,4.9s-4.8-2.1-4.8-4.9
		c0-2.7,2.1-4.8,4.8-4.8C208.5,173.6,210.6,175.9,210.6,178.5z M247.5,172c0,2.6-2.1,4.9-4.8,4.9c-2.6,0-4.8-2.1-4.8-4.9
		s2.1-4.8,4.8-4.8C245.2,167.1,247.5,169.3,247.5,172z M264.2,137.8c0,2.6-2.1,4.9-4.8,4.9c-2.6,0-4.8-2.1-4.8-4.9s2.1-4.8,4.8-4.8
		C262.1,132.9,264.2,135.1,264.2,137.8z M276.2,123.5c0,2.6-2.1,4.9-4.8,4.9c-2.6,0-4.8-2.1-4.8-4.9s2.1-4.8,4.8-4.8
		C274.1,118.7,276.2,120.8,276.2,123.5z M266.6,113c0,2.6-2.1,4.9-4.8,4.9c-2.6,0-4.8-2.1-4.8-4.9c0-2.6,2.1-4.8,4.8-4.8
		C264.3,108.2,266.6,110.3,266.6,113z M229.8,115.5c0,2.6-2.1,4.9-4.8,4.9s-4.8-2.1-4.8-4.9c0-2.7,2.1-4.8,4.8-4.8
		C227.6,110.7,229.8,112.9,229.8,115.5z M193.9,128.4c0,2.6-2.1,4.9-4.8,4.9s-4.8-2.1-4.8-4.9c0-2.7,2.1-4.8,4.8-4.8
		C191.6,123.5,193.9,125.6,193.9,128.4z M182.6,141.8c0,2.6-2.1,4.9-4.8,4.9c-2.6,0-4.8-2.1-4.8-4.9s2.1-4.8,4.8-4.8
		C180.3,136.9,182.6,139.1,182.6,141.8z M203.5,151.1c0,2.6-2.1,4.9-4.8,4.9s-4.8-2.1-4.8-4.9c0-2.7,2.1-4.8,4.8-4.8
		S203.5,148.5,203.5,151.1z M236.3,136.9c0,2.6-2.1,4.9-4.8,4.9s-4.8-2.1-4.8-4.9s2.1-4.8,4.8-4.8S236.3,134.3,236.3,136.9z
		 M211.1,195.3l-3.2-12.4 M208.8,174.7l9.3-9.9 M216.9,158l-13.8-4.8 M216,196.8l23.6-21.1 M245.8,168.4l6-8.5 M256.6,151.6l1.9-9.1
		 M254.6,137.8l-18.3-0.9 M262.1,133.8l6.1-6.7 M257,113.8l-27.4,0.5 M226.3,120.4l4.1,11.8 M220.8,117.8l-26.9,8.4 M186.1,132.1
		l-5.2,5.6 M194.7,148.6l-12.9-4.4 M227.8,139.9l-25.6,7.9 M229.8,141.8l-6.3,13.8 M161.5,523.1L149.7,499 M151.6,491.8l27-16.7
		 M178.6,475.1l-23.7-10.2 M154,457.9l14.9-6.5 M169.6,444.1L149.4,421 M177.3,446.1l26.8-9.3 M204.1,436.8l-14.8-22.6 M190.2,406.9
		l25.4-10.8 M216.2,391.3l-20.7-9.1 M147.7,412.6l5.6-26.9 M153.4,385.7L136,388 M131.4,381.7l1.9-20.8 M139,356.1l18.4-1.8
		 M165.9,357.4l21.3,19.5 M159.5,385l22.5,22.4 M129.3,356.1l-9.3-7.5 M114.5,340.2l-3.6-9.5 M104.3,326.2l-16,1.1 M84.6,322.5
		l7.3-16.2 M89.3,301.9l-19.7,3.8 M64.8,301.9l16.9-59.8 M86.1,233.5l27.9-18 M121.1,216.7l16.8,13.7 M143.8,229.3l7.9-22.2
		 M154.9,205.9l29.8,36.5 M166,247.5l-11.1-41.6 M141.7,238.3l1.2,37.9 M140.1,285l-8.4,17.6 M97.7,298.8l27.4,5.7 M87,240.9
		l16.2,12.6 M110.6,252.6l27.5-16 M110.4,259.7l28.4,18.7 M105.2,260.4l-11.1,36.7 M117.1,207.1l-0.8-21.7 M121.1,180.5l11.6,1
		 M137.5,176.6l4.2-13.2 M146.5,158.4l16.9,7.1 M168.2,172.9v14.6 M320.9,454.9l6.7,5.6 M335.5,458.3l4.9-9 M340.4,440.9l-7.2-17.1
		 M346,439.7l9.2-14.5 M317.2,447l-9.1-19.5 M308.1,417.8l3.2-8.7 M316.2,406.8l12.2,8.7 M311.4,399.5l21.8-23.3 M303.3,372.1
		l8.1,27.5 M340.4,374.5l18.5,7.9 M335.5,414.7l28.2-27.6 M357.3,415.5l6.3-28.3 M363.7,377.5l19.7-22.2 M373.5,349.2l5.1,0.6
		 M365.7,344.1l-10.1-31.3 M372.9,333.7l-17.3-20.8 M380.6,334.3l17.7-10.2 M398,316.9l-10.4-16.8 M402.6,304.8l-15.1-4.6
		 M411.4,307.5l6.9,1.1 M425.4,314.1l14.6,36 M445.7,351.2l19.5-30.7 M472.1,320l11.2,15.5 M489.7,342.7l2.8,19.9 M499,346.1
		l-9.3-3.3 M504.2,344.4l4.5-16.6 M512.3,319l13.6-13.9 M527,296.5l1.6-22.1 M532.7,272l5.7,5 M543.3,275.7l4.3-18.1 M546.9,248.8
		L524,201.6 M519.3,193.2L494,162.7 M487.5,155.7l-18.8-9 M465.2,148.3l-6,36.4 M459.8,145.7l-18.4,6.5 M433.9,158.3l-3.8,3
		 M429.7,168.8l24.4,17.9 M422.1,164.8l-6-0.9 M406.4,166.6l-10.2,4.8 M387.5,175.5l-21.5,4.9 M357,179.8l-21.7-9.5 M327.2,170.2
		l-26.7,25.1 M298.3,203.7l3,19 M274.1,210.1l0.9,4 M276.7,223.7l-1.2,4.7 M287.5,241.9l12.3-10.5 M283.7,250.7v5.5 M278.8,261.9
		l-8.9,2 M269.7,268.7l2.3,2.2 M304.2,263.7l5.1,3.3 M316.9,267.1l6.7-1.9 M330.6,265.9l3.5,8.2 M341.8,278l6.1,1 M353.2,284.5
		l1.9,2.5 M350.9,293.9l-24.3,4 M317.9,297l-14.2-10.5 M295.7,282.8l-19.2,2.9 M269.6,291.3l-11.2,18.3 M273.8,291.7l4.8,22.1
		 M282.7,321l30.4,11.4 M322.1,304.2l-4.9,25.8 M348,312.4L322.1,332 M319.6,339.1l12.8,27.3 M314.5,339.6l-9.2,22.8 M297.8,366.4
		l-17.7-4.8 M269.9,359.3L256,347.2 M252.3,339.1l3.6-20.6 M260.2,316l13.5,1.2 M307.4,227.4l44.4-8.5 M361.4,186.7l-4.9,27.4
		 M361.4,218.9l56.6,13.3 M356.6,223.7l-3.8,50.4 M426.2,235.7l31.8,31.4 M463.6,269l30.7-31.9 M500.9,237.1l23.8,29.6 M518,199.9
		l-18.2,28.7 M486.1,162.8l-24,23.4 M461.9,192.4l31.1,37.2 M454.2,192.4l-28.9,35 M425.2,305.8l30.2-30.3 M460,277l8.4,35.2
		 M464.2,274.6l42.3,45.2 M427.7,310l35.9,6.9 M473.3,316.9l31.9,6.2 M464.8,272.1l59-2.6 M381.4,291.7L359,223.1 M360,291.9
		l19.4,4.8 M519.3,461.2l-3-17.5 M519.7,435.5l7.8-7 M534.9,422.3l14-7.8 M552.1,415.6l-6.5,15.3 M541.9,440.1l-4.9,10.7
		 M526.1,463.9l4.9-4.6 M531,450.8l-10.8-9.2 M539.3,435.8l-19.1,5.8 M540.3,432.8l-5.6-4.7 M519.1,376.8l6.4-8.8 M381.4,418.6
		l-4.4,17.6 M165.9,523.4l15.5-43.8 M147.7,489.9l2.3-23.4 M151.2,457l-1.9-36 M186.3,471.3l19.6-28.2 M210.3,434.2l10.2-35.8
		 M133.4,391.3l10.2,21.9 M146.1,277.4l18.6-22.4 M83.4,232.8l30.5-48.1"/>
	<path class="vpnremote1" d="M281.6,272.1c0,2.6-2.1,4.9-4.8,4.9c-2.6,0-4.8-2.1-4.8-4.9s2.1-4.8,4.8-4.8
		C279.4,267.3,281.6,269.4,281.6,272.1z"/>
	<path class="vpnremote1" d="M288.5,260.9c0,2.6-2.1,4.9-4.8,4.9c-2.6,0-4.8-2.1-4.8-4.9s2.1-4.8,4.8-4.8
		C286.3,256.1,288.5,258.3,288.5,260.9z"/>
	<line class="vpnremote1" x1="288.3" y1="259.6" x2="295.7" y2="259.5"/>
	<path id="svg-concept_17_" class="vpnremote2" d="M577.8,335.1c0,145.9-118.4,264.3-264.3,264.3S49.2,481,49.2,335.1
		S167.6,70.8,313.5,70.8C459.4,70.7,577.8,189,577.8,335.1z"/>
	<path class="vpnremote2" d="M499.6,60.2c13.6,22.8,18.3,57.9,14.7,100.6 M279.3,598.1c-38.8,28.2-74.6,38.4-101,24.9
		c-63.7-32.4-48.5-189.7,33.7-351.5C268.8,159.8,342.7,75.3,404,44.4 M513.9,590.1c-27.7,6.7-62.2,2.4-100.1-11.2 M564.1,419.7
		c12.1,35.9,16.6,69,12.9,96.4"/>
	<path class="vpnremote2" d="M156.4,67.5c75.1-6.8,188.5,52.6,284.9,156.6c59.8,64.5,102.2,134.2,122.8,195.5"/>
	<path class="vpnremote2" d="M81.3,208.4c-6.4-29.3-7-55.7-1.3-77.8"/>
</g>
<animateMotion  accumulate="none" additive="replace" begin="0s" calcMode="paced" dur="2s" fill="freeze" path="M0, 0 65 0 -65" restart="always">
	</animateMotion>
<path class="vpnremote3" d="M166.9,257.2C166.9,257.3,166.8,257.3,166.9,257.2z"/>
<g>
	<path id="svg-concept" class="vpnremote4" d="M225.3,393.5c0,2.6-2.1,4.9-4.8,4.9s-4.8-2.1-4.8-4.9c0-2.6,2.1-4.8,4.8-4.8S225.3,390.9,225.3,393.5z"/>
	<path id="svg-concept" class="vpnremote4" d="M213.3,439c0,2.6-2.1,4.9-4.8,4.9s-4.8-2.1-4.8-4.9c0-2.6,2.1-4.8,4.8-4.8S213.3,436.3,213.3,439z"/>
	<path id="svg-concept" class="vpnremote4" d="M168.4,527.5c0,2.6-2.1,4.9-4.8,4.9c-2.6,0-4.8-2.1-4.8-4.9c0-2.6,2.1-4.8,4.8-4.8
		C166.1,522.7,168.4,524.9,168.4,527.5z"/>
	<path id="svg-concept" class="vpnremote4" d="M152.6,494.7c0,2.6-2.1,4.9-4.8,4.9s-4.8-2.1-4.8-4.9c0-2.6,2.1-4.8,4.8-4.8S152.6,492.1,152.6,494.7z"/>
	<path id="svg-concept" class="vpnremote4" d="M136.1,386.5c0,2.6-2.1,4.9-4.8,4.9s-4.8-2.1-4.8-4.9c0-2.6,2.1-4.8,4.8-4.8S136.1,383.8,136.1,386.5z"/>
	<path id="svg-concept" class="vpnremote4" d="M151.2,417.2c0,2.6-2.1,4.9-4.8,4.9s-4.8-2.1-4.8-4.9c0-2.6,2.1-4.8,4.8-4.8S151.2,414.5,151.2,417.2z"/>
	<path id="svg-concept" class="vpnremote4" d="M191.2,246.9c0,2.6-2.1,4.9-4.8,4.9s-4.8-2.1-4.8-4.9s2.1-4.8,4.8-4.8S191.2,244.3,191.2,246.9z"/>
	<path id="svg-concept" class="vpnremote4" d="M121.1,180.5c0,2.6-2.1,4.9-4.8,4.9c-2.6,0-4.8-2.1-4.8-4.9s2.1-4.8,4.8-4.8S121.1,177.8,121.1,180.5z"/>
	<path id="svg-concept" class="vpnremote4" d="M173,251.8c0,2.6-2.1,4.9-4.8,4.9c-2.6,0-4.8-2.1-4.8-4.9s2.1-4.8,4.8-4.8C170.9,247,173,249.1,173,251.8z"/>
	<path id="svg-concept" class="vpnremote4" d="M113.9,326.2c0,2.6-2.1,4.9-4.8,4.9c-2.6,0-4.8-2.1-4.8-4.9c0-2.6,2.1-4.8,4.8-4.8
		C111.8,321.4,113.9,323.6,113.9,326.2z"/>
	<path id="svg-concept" class="vpnremote4" d="M88.3,327.3c0,2.6-2.1,4.9-4.8,4.9s-4.8-2.1-4.8-4.9c0-2.7,2.1-4.8,4.8-4.8S88.3,324.6,88.3,327.3z"/>
	<g>
		<path id="svg-concept" class="vpnremote4" d="M259.3,156c0,2.6-2.1,4.9-4.8,4.9s-4.8-2.1-4.8-4.9c0-2.7,2.1-4.8,4.8-4.8C257.2,151.1,259.3,153.3,259.3,156
			z"/>
		
			<animate  accumulate="none" additive="replace" attributeName="opacity" calcMode="linear" dur="1s" fill="remove" repeatCount="indefinite" restart="always" values="0;1;0">
			</animate>
	</g>
	<path id="svg-concept" class="vpnremote4" d="M225.6,160.8c0,2.6-2.1,4.9-4.8,4.9c-2.6,0-4.8-2.1-4.8-4.9s2.1-4.8,4.8-4.8
		C223.4,156,225.6,158.2,225.6,160.8z"/>
	<path id="svg-concept" class="vpnremote4" d="M348.4,444.4c0,2.6-2.1,4.9-4.8,4.9c-2.6,0-4.8-2.1-4.8-4.9c0-2.6,2.1-4.8,4.8-4.8
		C346.2,439.7,348.4,441.8,348.4,444.4z"/>
	<path id="svg-concept" class="vpnremote4" d="M305.3,282.8c0,2.6-2.1,4.9-4.8,4.9c-2.6,0-4.8-2.1-4.8-4.9c0-2.7,2.1-4.8,4.8-4.8
		C303.2,278,305.3,280.1,305.3,282.8z"/>
	<path id="svg-concept" class="vpnremote4" d="M279.5,361.4c0,2.6-2.1,4.9-4.8,4.9c-2.6,0-4.8-2.1-4.8-4.9c0-2.6,2.1-4.8,4.8-4.8
		C277.4,356.7,279.5,358.8,279.5,361.4z"/>
	<path id="svg-concept" class="vpnremote4" d="M270.4,266.1c0,2.6-2.1,4.9-4.8,4.9s-4.8-2.1-4.8-4.9c0-2.7,2.1-4.8,4.8-4.8S270.4,263.5,270.4,266.1z"/>
	<path id="svg-concept" class="vpnremote4" d="M289.8,246c0,2.6-2.1,4.9-4.8,4.9c-2.6,0-4.8-2.1-4.8-4.9s2.1-4.8,4.8-4.8C287.6,241.1,289.8,243.4,289.8,246z
		"/>
	<g>
		<path id="svg-concept" class="vpnremote4" d="M526.6,466c0,2.6-2.1,4.9-4.8,4.9s-4.8-2.1-4.8-4.9c0-2.6,2.1-4.8,4.8-4.8S526.6,463.3,526.6,466z"/>
		
			<animate  accumulate="none" additive="replace" attributeName="opacity" calcMode="linear" dur="1s" fill="remove" repeatCount="indefinite" restart="always" values="0;1;0">
			</animate>
	</g>
	<path id="svg-concept" class="vpnremote4" d="M538.9,455.5c0,2.6-2.1,4.9-4.8,4.9s-4.8-2.1-4.8-4.9c0-2.6,2.1-4.8,4.8-4.8
		C536.7,450.8,538.9,452.9,538.9,455.5z"/>
	<path id="svg-concept" class="vpnremote4" d="M521.1,438.8c0,2.6-2.1,4.9-4.8,4.9c-2.6,0-4.8-2.1-4.8-4.9c0-2.6,2.1-4.8,4.8-4.8
		C518.9,434,521.1,436.2,521.1,438.8z"/>
	<g>
		<path id="svg-concept" class="vpnremote4" d="M332.3,262.3c0,2.6-2.1,4.9-4.8,4.9s-4.8-2.1-4.8-4.9s2.1-4.8,4.8-4.8C330.2,257.4,332.3,259.6,332.3,262.3z"
			/>
		
			<animate  accumulate="none" additive="replace" attributeName="opacity" calcMode="linear" dur="1s" fill="remove" repeatCount="indefinite" restart="always" values="0;1;0">
			</animate>
	</g>
	<path id="svg-concept" class="vpnremote4" d="M447.4,354.9c0,2.6-2.1,4.9-4.8,4.9s-4.8-2.1-4.8-4.9c0-2.6,2.1-4.8,4.8-4.8S447.4,352.3,447.4,354.9z"/>
	<path id="svg-concept" class="vpnremote4" d="M389,296.7c0,2.6-2.1,4.9-4.8,4.9c-2.6,0-4.8-2.1-4.8-4.9s2.1-4.8,4.8-4.8C386.9,291.9,389,294,389,296.7z"/>
	<g>
		<path id="svg-concept" class="vpnremote4" d="M522.1,381.4c0,2.6-2.1,4.9-4.8,4.9c-2.6,0-4.8-2.1-4.8-4.9c0-2.6,2.1-4.8,4.8-4.8
			C520,376.5,522.1,378.7,522.1,381.4z"/>
		
			<animate  accumulate="none" additive="replace" attributeName="opacity" calcMode="linear" dur="1s" fill="remove" repeatCount="indefinite" restart="always" values="0;1;0">
			</animate>
	</g>
	<path id="svg-concept" class="vpnremote4" d="M532.3,363.7c0,2.6-2.1,4.9-4.8,4.9c-2.6,0-4.8-2.1-4.8-4.9c0-2.6,2.1-4.8,4.8-4.8
		C530.1,358.8,532.3,361,532.3,363.7z"/>
	<path id="svg-concept" class="vpnremote4" d="M281.6,218.9c0,2.6-2.1,4.9-4.8,4.9c-2.6,0-4.8-2.1-4.8-4.9c0-2.6,2.1-4.8,4.8-4.8
		C279.4,214.1,281.6,216.2,281.6,218.9z"/>
	<path id="svg-concept" class="vpnremote4" d="M277.8,205.4c0,2.6-2.1,4.9-4.8,4.9c-2.6,0-4.8-2.1-4.8-4.9s2.1-4.8,4.8-4.8
		C275.6,200.6,277.8,202.8,277.8,205.4z"/>
	<g>
		<path id="svg-concept" class="vpnremote4" d="M526.8,197.2c0,2.6-2.1,4.9-4.8,4.9s-4.8-2.1-4.8-4.9s2.1-4.8,4.8-4.8C524.6,192.4,526.8,194.6,526.8,197.2z"
			/>
		
			<animate  accumulate="none" additive="replace" attributeName="opacity" calcMode="linear" dur="1s" fill="remove" repeatCount="indefinite" restart="always" values="0;1;0">
			</animate>
	</g>
	<g>
		<path id="svg-concept" class="vpnremote4" d="M462.8,189.5c0,2.6-2.1,4.9-4.8,4.9c-2.6,0-4.8-2.1-4.8-4.9s2.1-4.8,4.8-4.8
			C460.7,184.7,462.8,186.9,462.8,189.5z"/>
		
			<animate  accumulate="none" additive="replace" attributeName="opacity" calcMode="linear" dur="1s" fill="remove" repeatCount="indefinite" restart="always" values="0;1;0">
			</animate>
	</g>
	<path id="svg-concept" class="vpnremote4" d="M385.9,162.2c0,2.6-2.1,4.9-4.8,4.9c-2.6,0-4.8-2.1-4.8-4.9s2.1-4.8,4.8-4.8
		C383.6,157.4,385.9,159.5,385.9,162.2z"/>
	<path id="svg-concept" class="vpnremote4" d="M451.1,128.5c0,2.6-2.1,4.9-4.8,4.9c-2.6,0-4.8-2.1-4.8-4.9c0-2.8,2.1-4.8,4.8-4.8S451.1,125.8,451.1,128.5z"
		/>
</g>
<path class="vpnremote2" d="M577.7,326.5c47.8,31.2,73.8,62.7,67,88.1c-14.2,53.4-167.8,58.9-343.2,12.3S-4.6,299.2,9.6,245.8
	c5.2-19.8,32.8-40,71.7-37.4"/>
<g>
	<g>
		<circle id="svg-ico" class="vpnremote5" cx="474.1" cy="544.2" r="8.7"/>
		
			<animateTransform  accumulate="none" additive="replace" attributeName="transform" calcMode="linear" dur="10s" fill="remove" from="0 320 335" repeatCount="indefinite" restart="always" to="-360 310 335" type="rotate">
			</animateTransform>
	</g>
	<path id="svg-ico" class="vpnremote5" d="M215.8,281.9c0,4.8-4,8.7-8.7,8.7c-4.8,0-8.7-4-8.7-8.7s4-8.7,8.7-8.7C211.9,273.3,215.8,277.2,215.8,281.9z"
		/>
	
		<ellipse transform="matrix(0.9999 -1.020250e-02 1.020250e-02 0.9999 -2.866 0.1983)" id="svg-ico" class="vpnremote5" cx="18" cy="281" rx="8.7" ry="8.7"/>
</g>
<path class="vpnremote6" d="M428.2,55.8c3.7-0.6,6.7-1.2,6.7-1.2h0.1l-3.4-4.1c-1.9-2.3-3.5-4.1-3.5-4.1l3.6-9.9c0,0,2.4,4.2,5.9,10.2
	c3.2,5.6,5.9,10.2,5.9,10.3v0.1h-11h-11C421.6,57,428.2,55.8,428.2,55.8z"/>
<path class="vpnremote6" d="M470.5,54.8c-1.7-0.1-2.7-1.1-2.9-2.8c-0.1-0.5-0.1-0.5-0.1-3.6v-3h0.7h0.7v2.9c0,2.6,0,2.9,0,3.1
	c0.1,0.7,0.3,1.2,0.6,1.6c0.3,0.3,0.6,0.5,1,0.5c0.2,0,0.8,0,1,0c0.5-0.1,0.8-0.3,1.1-0.6c0.4-0.4,0.6-0.9,0.8-1.5v-0.2v-2.9v-2.9
	h0.8h0.8V50v4.6h-0.7h-0.7v-0.7c0-0.5,0-0.7,0-0.7s0,0.1-0.1,0.1c-0.3,0.5-0.7,0.9-1.2,1.2C471.8,54.7,471.2,54.9,470.5,54.8
	L470.5,54.8z"/>
<path class="vpnremote6" d="M491.8,49.2c0-1.2-0.4-2.2-1-2.9s-1.4-1.1-2.4-1.2c-0.4,0-1,0-1.3,0.1c-0.6,0.1-1.2,0.4-1.6,0.8
	c-0.2,0.1-0.5,0.5-0.6,0.6c-0.6,0.7-0.9,1.7-1.1,2.7c-0.1,0.4,0,1.1,0,1.7c0.2,1.5,0.8,2.6,1.9,3.3c0.5,0.3,1.1,0.5,1.7,0.6
	c0.3,0,1.1,0,1.4,0c0.8-0.1,1.5-0.4,2.2-0.8l0.2-0.1v-0.7c0-0.6,0-0.7,0-0.7l-0.1,0.1c-0.6,0.4-1.3,0.7-2,0.8c-0.3,0-0.8,0.1-1.1,0
	c-0.6-0.1-1.2-0.3-1.6-0.7c-0.2-0.2-0.5-0.6-0.7-1s-0.3-0.9-0.3-1.4v-0.1h3.2h3.2v-0.4C491.8,49.8,491.8,49.4,491.8,49.2z
	 M490.3,49.1h-2.5h-2.5V49c0-0.2,0.1-0.5,0.2-0.6c0.2-0.5,0.4-0.9,0.8-1.3c0.3-0.3,0.7-0.5,1.2-0.6c0.2,0,0.7-0.1,0.9,0
	c0.5,0.1,0.8,0.3,1.1,0.6C489.9,47.5,490.3,48.3,490.3,49.1L490.3,49.1z"/>
<path class="vpnremote6" d="M452.8,41.9l-0.1-0.2h-0.8h-0.8l-2.4,6.4c-1.3,3.5-2.4,6.4-2.4,6.4s0.2,0,0.8,0h0.8l0.6-1.7
	c0.3-1,0.6-1.8,0.6-1.8v-0.1h2.7h2.7l0.7,1.8l0.7,1.8h0.8c0.5,0,0.8,0,0.8,0C457.7,54.6,453,42.4,452.8,41.9z M451.9,49.6
	c-1.2,0-2.2,0-2.2,0s0.4-1.2,1-2.7c0.5-1.5,1-2.8,1-2.9c0.1-0.2,0.1-0.5,0.1-0.6c0-0.2,0-0.2,0.1,0c0.1,0.5,0.1,0.6,1.2,3.4
	c0.6,1.5,1,2.7,1,2.7S453.2,49.6,451.9,49.6z"/>
<path class="vpnremote6" d="M458.2,54.4v-0.2l2.7-3.7l2.7-3.7h-2.5h-2.5v-0.6v-0.6h3.6h3.6v0.2V46l-2.7,3.7c-1.5,2.1-2.7,3.8-2.7,3.8
	s1.2,0,2.7,0h2.7v0.6v0.6H462h-3.8L458.2,54.4L458.2,54.4z"/>
<path class="vpnremote6" d="M478.1,54.6c0,0,0-2.1,0-4.6v-4.6h0.7h0.7v0.9c0,0.5,0,0.9,0,0.9s0-0.1,0.1-0.2c0.2-0.5,0.5-0.9,0.8-1.3
	c0.3-0.3,0.7-0.5,1.2-0.6c0.1,0,0.2,0,0.5,0s0.5,0,0.7,0.1h0.1V46v0.8l-0.2-0.1c-0.3-0.2-0.6-0.2-1-0.2c-0.2,0-0.4,0-0.6,0.1
	c-0.4,0.1-0.7,0.4-0.9,0.8c-0.3,0.5-0.6,1.2-0.6,1.8c0,0.1,0,1,0,2.7v2.6h-0.7C478.4,54.6,478.1,54.6,478.1,54.6z"/>
<path class="vpnremote6" d="M415,54.5c0,0,1.6-2.8,3.6-6.3l3.6-6.3l4.2-3.5c2.3-2,4.2-3.6,4.2-3.6s0,0.1-0.1,0.2s-2.1,4.5-4.6,9.8l-4.5,9.7
	h-3.3C416.5,54.6,415,54.6,415,54.5z"/>
<path class="vpnremote6" d="M112.2,63.8h1.4l3.7-3.7l0.2-1.5c-2.9-2.7-6.8-4.2-11-4.2c-7.6,0-14.3,5.3-16.1,12.4c0.3-0.3,1.4,0,1.4,0
	l7.5-1.2c0,0,0.3-0.7,0.5-0.7C102.6,61.1,108.3,60.8,112.2,63.8L112.2,63.8z"/>
<path class="vpnremote6" d="M122.5,66.7c-0.8-3.2-2.5-5.9-5.1-8.2l-5.3,5.3c2.2,1.7,3.4,4.4,3.4,7.3V72c2.5,0,4.6,2,4.6,4.6s-2,4.6-4.6,4.6
	h-9.3l-0.8,1v5.6l0.8,0.8h9.3c6.6,0,12.1-5.4,12.1-12.1C127.6,72.5,125.6,68.9,122.5,66.7L122.5,66.7z"/>
<path class="vpnremote6" d="M97,88.8h9.3v-7.5H97c-0.7,0-1.4-0.2-1.9-0.3l-1.4,0.3l-3.7,3.7l-0.3,1.2C91.8,88,94.3,88.8,97,88.8L97,88.8z"
	/>
<path class="vpnremote6" d="M97,64.5C90.4,64.5,85,70,85,76.6c0,3.7,1.7,7.3,4.8,9.7l5.4-5.4c-1.7-0.7-2.7-2.4-2.7-4.2c0-2.5,2-4.6,4.6-4.6
	c1.9,0,3.6,1,4.2,2.7l5.4-5.4C104.3,66.4,100.9,64.5,97,64.5L97,64.5z"/>
<path class="vpnremote6" d="M75.3,103c-1.4,0-2.6-0.5-3.6-1.5s-1.5-2.1-1.5-3.5s0.5-2.6,1.5-3.5c1-1,2.2-1.5,3.6-1.5c1.3,0,2.5,0.5,3.4,1.4
	l-0.9,0.9c-0.6-0.6-1.6-1-2.5-1c-1,0-1.8,0.4-2.5,1c-0.6,0.6-1,1.6-1,2.6c0,1,0.4,1.8,1,2.6c0.6,0.7,1.6,1.1,2.5,1
	c1,0,1.8-0.4,2.5-1c0.4-0.4,0.6-1,0.7-1.7h-3.2v-1.4h4.6C80,97.7,80,98,80,98.3c0,1.4-0.4,2.4-1.2,3.2C77.9,102.6,76.7,103,75.3,103
	L75.3,103z"/>
<path class="vpnremote6" d="M85.8,97.5c-0.6-0.6-1.4-0.9-2.3-0.9c-0.9,0-1.6,0.3-2.3,0.9c-0.6,0.6-0.9,1.4-0.9,2.3s0.3,1.6,0.9,2.3
	s1.4,0.9,2.3,0.9c0.9,0,1.6-0.3,2.3-0.9s0.9-1.4,0.9-2.3S86.5,98.2,85.8,97.5z M84.8,101.2c-0.4,0.4-0.7,0.5-1.3,0.5
	c-0.5,0-0.9-0.2-1.3-0.5l0,0c-0.4-0.4-0.5-0.8-0.5-1.4s0.2-1,0.5-1.4c0.4-0.4,0.8-0.5,1.3-0.5s0.9,0.2,1.3,0.5
	c0.4,0.4,0.5,0.8,0.5,1.4C85.4,100.4,85.2,100.8,84.8,101.2z"/>
<path class="vpnremote6" d="M92.8,97.5c-0.6-0.6-1.4-0.9-2.3-0.9s-1.6,0.3-2.3,0.9c-0.6,0.6-0.9,1.4-0.9,2.3s0.3,1.6,0.9,2.3
	s1.4,0.9,2.3,0.9s1.6-0.3,2.3-0.9c0.6-0.6,0.9-1.4,0.9-2.3S93.4,98.2,92.8,97.5z M91.8,101.2c-0.4,0.4-0.7,0.5-1.3,0.5
	c-0.5,0-0.9-0.2-1.3-0.5l0,0c-0.4-0.4-0.5-0.8-0.5-1.4s0.2-1,0.5-1.4c0.4-0.4,0.8-0.5,1.3-0.5s0.9,0.2,1.3,0.5
	c0.4,0.4,0.5,0.8,0.5,1.4C92.3,100.4,92.1,100.8,91.8,101.2z"/>
<path class="vpnremote6" d="M99.1,96.9v0.5H99c-0.2-0.2-0.4-0.4-0.7-0.5c-0.3-0.2-0.6-0.2-1-0.2c-0.8,0-1.6,0.3-2.1,0.9
	c-0.6,0.6-0.9,1.4-0.9,2.3c0,0.8,0.3,1.6,0.9,2.3c0.6,0.6,1.3,0.9,2.1,0.9c0.7,0,1.3-0.3,1.6-0.7H99v0.5c0,0.6-0.2,1.1-0.5,1.4
	c-0.3,0.4-0.7,0.5-1.3,0.5c-0.4,0-0.7-0.1-1-0.4c-0.3-0.3-0.5-0.5-0.6-0.8l-1.2,0.5c0.2,0.5,0.5,0.9,1,1.3c0.5,0.4,1.1,0.5,1.8,0.5
	l0,0c0.9,0,1.6-0.3,2.2-0.8s0.8-1.4,0.8-2.5v-5.8L99.1,96.9L99.1,96.9z M98.7,101.2c-0.3,0.4-0.7,0.5-1.2,0.5l0,0
	c-0.5,0-0.9-0.2-1.3-0.5c-0.4-0.4-0.5-0.8-0.5-1.4s0.2-1,0.5-1.4c0.4-0.4,0.7-0.5,1.3-0.5c0.5,0,0.9,0.2,1.2,0.5
	c0.4,0.4,0.5,0.8,0.5,1.4C99.2,100.4,99,100.8,98.7,101.2z"/>
<rect x="101.4" y="93.4" class="vpnremote6" width="1.4" height="9.3"/>
<path class="vpnremote6" d="M106.6,101.8c-0.7,0-1.2-0.4-1.6-1l4.3-1.7l-0.2-0.4c-0.1-0.2-0.2-0.5-0.3-0.6c-0.2-0.3-0.4-0.5-0.5-0.6
	c-0.3-0.3-0.5-0.5-0.8-0.5c-0.4-0.2-0.7-0.2-1.1-0.2c-0.8,0-1.6,0.3-2.1,0.9c-0.5,0.5-0.9,1.4-0.9,2.3s0.3,1.6,0.9,2.3
	s1.4,0.9,2.3,0.9l0,0c0.6,0,1.2-0.2,1.6-0.5c0.5-0.3,0.8-0.6,1-1l-1.1-0.7C107.8,101.5,107.3,101.8,106.6,101.8z M104.9,99.7
	c0-0.5,0.2-1,0.5-1.4c0.4-0.4,0.7-0.5,1.2-0.5c0.3,0,0.5,0.1,0.7,0.2c0.2,0.1,0.4,0.3,0.5,0.5L104.9,99.7L104.9,99.7z"/>
<path class="vpnremote6" d="M116.7,103c-1.3,0-2.4-0.5-3.2-1.3s-1.3-1.9-1.3-3.2c0-1.3,0.5-2.4,1.3-3.2s1.9-1.3,3.2-1.3
	c1.3,0,2.4,0.5,3.2,1.4l-0.7,0.7c-0.5-0.7-1.4-1.1-2.4-1.1c-0.9,0-1.7,0.3-2.4,0.9c-0.6,0.6-1,1.5-1,2.5s0.4,1.8,1,2.5
	c0.6,0.6,1.5,0.9,2.4,0.9c1,0,1.9-0.5,2.7-1.3l0.7,0.7c-0.4,0.5-0.9,0.8-1.5,1.1C118.1,102.9,117.4,103,116.7,103L116.7,103z"/>
<rect x="121.2" y="94.2" class="vpnremote6" width="1.1" height="8.6"/>
<path class="vpnremote6" d="M128.4,97.6c-0.5-0.6-1.3-0.9-2.2-0.9s-1.6,0.3-2.2,0.9c-0.5,0.6-0.8,1.4-0.8,2.3s0.3,1.6,0.8,2.3
	c0.5,0.6,1.3,0.9,2.2,0.9s1.6-0.3,2.2-0.9c0.5-0.6,0.8-1.4,0.8-2.3S129,98.2,128.4,97.6z M127.6,101.4c-0.4,0.4-0.8,0.5-1.4,0.5
	s-1-0.2-1.4-0.5s-0.5-0.9-0.5-1.6c0-0.6,0.2-1.2,0.5-1.6c0.4-0.4,0.8-0.5,1.4-0.5s1,0.2,1.4,0.5c0.4,0.4,0.5,0.9,0.5,1.6
	C128.2,100.5,128,101,127.6,101.4z"/>
<path class="vpnremote6" d="M135.5,102.9h-1.1V102h-0.1c-0.2,0.3-0.5,0.5-0.7,0.7c-0.3,0.2-0.7,0.3-1.1,0.3c-0.7,0-1.3-0.2-1.6-0.6
	c-0.4-0.5-0.5-1.1-0.5-1.8v-3.7h1.1v3.5c0,1.1,0.5,1.6,1.5,1.6c0.5,0,0.8-0.2,1.1-0.5c0.3-0.4,0.5-0.8,0.5-1.3v-3.3h1.1L135.5,102.9
	L135.5,102.9z"/>
<path class="vpnremote6" d="M141.3,94.2v2.7l0.1,0.8h-0.1c-0.2-0.3-0.5-0.5-0.8-0.7c-0.4-0.2-0.7-0.3-1.2-0.3c-0.7,0-1.5,0.3-2,0.9
	c-0.5,0.6-0.8,1.4-0.8,2.3c0,0.9,0.3,1.6,0.8,2.3c0.5,0.6,1.2,0.9,2,0.9l0,0c0.5,0,0.8-0.1,1.2-0.3c0.4-0.2,0.6-0.5,0.8-0.7h0.1v0.8
	h1.1v-8.6h-1.2V94.2z M140.7,101.4c-0.4,0.4-0.8,0.5-1.4,0.5l0,0c-0.5,0-1-0.2-1.4-0.5s-0.5-0.9-0.5-1.6c0-0.6,0.2-1.2,0.5-1.6
	c0.4-0.4,0.8-0.5,1.4-0.5c0.5,0,1,0.2,1.4,0.5c0.4,0.4,0.5,0.9,0.5,1.6C141.3,100.6,141.1,101,140.7,101.4z"/>
<path class="vpnremote6" d="M551.4,565.1h5.2l-2.7-4.4l-5,8h-2.3l6.1-9.6c0.3-0.4,0.7-0.6,1.2-0.6s0.9,0.2,1.2,0.6l6.1,9.6h-2.3l-1.1-1.8
	h-5.2L551.4,565.1z"/>
<path class="vpnremote6" d="M575.2,566.9v-8.3h-2v9.1c0,0.2,0.1,0.5,0.3,0.7s0.4,0.3,0.7,0.3h8.8l1.1-1.8H575.2z"/>
<path class="vpnremote6" d="M543.1,565.4c1.9,0,3.4-1.5,3.4-3.4c0-1.9-1.5-3.4-3.4-3.4h-8.5v10.1h1.9v-8.3h6.4c0.9,0,1.6,0.7,1.6,1.6
	c0,0.9-0.7,1.6-1.6,1.6h-5.5l5.8,5h2.8l-3.9-3.3L543.1,565.4L543.1,565.4z"/>
<path class="vpnremote6" d="M528.5,558.6h-5.9c-2.8,0-5,2.3-5,5c0,2.7,2.3,5,5,5h5.9c2.8,0,5-2.3,5-5C533.5,560.9,531.3,558.6,528.5,558.6z
	 M528.4,566.9h-5.6c-1.8,0-3.3-1.5-3.3-3.3c0-1.8,1.5-3.3,3.3-3.3h5.6c1.8,0,3.3,1.5,3.3,3.3C531.7,565.4,530.2,566.9,528.4,566.9z"
	/>
<path class="vpnremote6" d="M565.2,568.7c-2.8,0-5-2.3-5-5c0-2.8,2.3-5,5-5h7l-1.1,1.8h-5.7c-1.8,0-3.3,1.5-3.3,3.3c0,1.8,1.5,3.3,3.3,3.3
	h7l-1.1,1.8h-6.1V568.7z"/>
<path class="vpnremote6" d="M588.9,566.9c-1.5,0-2.8-1-3.1-2.4h8.3l1.1-1.8h-9.4c0.4-1.4,1.6-2.4,3.1-2.4h5.7l1.2-1.8h-7c-2.8,0-5,2.3-5,5
	c0,2.8,2.3,5,5,5h6l1.1-1.8h-7"/>
</svg>
