<?xml version="1.0" encoding="utf-8"?>
<!-- Generator: Adobe Illustrator 24.3.0, SVG Export Plug-In . SVG Version: 6.00 Build 0)  -->
<svg version="1.1" id="Layer_1" xmlns="http://www.w3.org/2000/svg" xmlns:xlink="http://www.w3.org/1999/xlink" x="0px" y="0px"
	 viewBox="0 0 32 32" style="enable-background:new 0 0 32 32;" xml:space="preserve">
<style type="text/css">
	.cryptoset0{fill:#EE5586;}
	.cryptoset1{fill:#5E686B;}
</style>
<g>
	<path id="svg-ico" class="cryptoset0" d="M21.5,17.5L16,20.7l-5.5-3.1c-0.2-0.1-0.5-0.1-0.6,0.1c-0.2,0.2-0.2,0.4,0,0.6l5.8,7.6c0,0,0,0,0,0
		c0,0,0.1,0.1,0.1,0.1c0,0,0,0,0,0c0.1,0,0.1,0.1,0.2,0.1h0c0,0,0,0,0,0c0,0,0,0,0,0c0,0,0,0,0,0c0,0,0,0,0,0c0.1,0,0.1,0,0.2,0
		c0,0,0.1,0,0.1-0.1c0,0,0.1,0,0.1-0.1c0,0,0,0,0,0l5.7-7.7c0.1-0.2,0.1-0.5,0-0.6C22,17.4,21.7,17.3,21.5,17.5z M15.5,21.6l0,2.5
		l-3.4-4.4L15.5,21.6z M16.5,24.1l0-2.5l3.4-2L16.5,24.1z"/>
	<path id="svg-ico" class="cryptoset0" d="M9.8,15.9C9.8,15.9,9.8,16,9.8,15.9C9.8,16,9.8,16,9.8,15.9c0,0.1,0,0.1,0,0.1c0,0,0,0,0,0
		c0,0.1,0.1,0.1,0.1,0.2c0,0,0,0,0,0c0,0,0,0,0,0l5.8,3.2c0,0,0,0,0,0c0.1,0,0.1,0.1,0.2,0.1c0,0,0,0,0,0c0,0,0,0,0,0c0,0,0,0,0,0h0
		c0.1,0,0.2,0,0.2-0.1c0,0,0,0,0,0l5.7-3.4c0,0,0,0,0,0c0,0,0.1,0,0.1-0.1c0,0,0,0,0.1-0.1c0,0,0,0,0,0c0,0,0,0,0,0c0,0,0,0,0,0
		c0,0,0,0,0-0.1c0,0,0-0.1,0-0.1c0,0,0-0.1,0-0.1c0,0,0-0.1,0-0.1c0,0,0,0,0,0L16.4,6c0,0,0,0,0,0c0,0-0.1-0.1-0.1-0.1
		c0,0,0,0-0.1,0c-0.1,0-0.1-0.1-0.2-0.1h0c0,0,0,0,0,0c0,0,0,0,0,0c0,0,0,0,0,0c-0.1,0-0.1,0-0.2,0.1c0,0,0,0-0.1,0
		c0,0-0.1,0.1-0.1,0.1c0,0,0,0,0,0l-5.7,9.6c0,0,0,0,0,0c0,0,0,0.1,0,0.1C9.8,15.8,9.8,15.8,9.8,15.9C9.8,15.9,9.8,15.9,9.8,15.9z
		 M15.5,18.2l-4.2-2.3l4.2-1.9L15.5,18.2z M16.5,14l4.1,1.8l-4.1,2.4L16.5,14z M16.5,12.9l0-4.8l4,6.6L16.5,12.9z M15.5,12.9l-4,1.8
		l4-6.7L15.5,12.9z"/>
</g>
<path class="cryptoset1" d="M16,31.8c-8.6,0-15.6-7-15.6-15.6S7.4,0.6,16,0.6c0.3,0,0.5,0.2,0.5,0.5S16.3,1.6,16,1.6
	C8,1.6,1.4,8.1,1.4,16.2c0,8,6.5,14.6,14.6,14.6c8,0,14.6-6.5,14.6-14.6c0-1.4-0.2-2.7-0.6-4.1c-0.1-0.3,0.1-0.5,0.3-0.6
	c0.3-0.1,0.5,0.1,0.6,0.3c0.4,1.4,0.6,2.9,0.6,4.3C31.6,24.8,24.6,31.8,16,31.8z"/>
<path class="cryptoset1" d="M22.7,11.5c-0.1,0-0.1,0-0.2,0c-0.2-0.1-0.3-0.3-0.3-0.5l0-1.6h-1.6c-1,0-1.8-0.8-1.8-1.8V2
	c0-1,0.8-1.8,1.8-1.8h9.2c1,0,1.8,0.8,1.8,1.8v5.7c0,1-0.8,1.8-1.8,1.8h-4.4l-2.4,2C22.9,11.5,22.8,11.5,22.7,11.5z M20.6,1.2
	c-0.4,0-0.8,0.4-0.8,0.8v5.7c0,0.4,0.4,0.8,0.8,0.8h2.1c0.1,0,0.3,0.1,0.4,0.1c0.1,0.1,0.1,0.2,0.1,0.4l0,1l1.7-1.4
	c0.1-0.1,0.2-0.1,0.3-0.1h4.6c0.4,0,0.8-0.4,0.8-0.8V2c0-0.4-0.4-0.8-0.8-0.8H20.6z"/>
<g>
	<path id="svg-ico" class="cryptoset0" d="M22.5,4.4V2.4c0-0.2-0.2-0.4-0.4-0.4s-0.4,0.2-0.4,0.4v1.9c-0.4,0.1-0.6,0.5-0.6,0.9c0,0.4,0.3,0.8,0.6,0.9
		v0.5c0,0.2,0.2,0.4,0.4,0.4s0.4-0.2,0.4-0.4V6.2c0.4-0.1,0.6-0.5,0.6-0.9C23.1,4.9,22.9,4.5,22.5,4.4z"/>
	<path id="svg-ico" class="cryptoset0" d="M25.5,3.1V2.4c0-0.2-0.2-0.4-0.4-0.4s-0.4,0.2-0.4,0.4v0.7c-0.4,0.1-0.6,0.5-0.6,0.9c0,0.4,0.3,0.8,0.6,0.9
		v1.8c0,0.2,0.2,0.4,0.4,0.4s0.4-0.2,0.4-0.4V5c0.4-0.1,0.6-0.5,0.6-0.9C26.1,3.6,25.8,3.3,25.5,3.1z"/>
	<path id="svg-ico" class="cryptoset0" d="M28.4,5.5V2.4c0-0.2-0.2-0.4-0.4-0.4s-0.4,0.2-0.4,0.4v3.1C27.3,5.7,27,6,27,6.5c0,0.6,0.4,1,1,1
		c0.6,0,1-0.4,1-1C29,6,28.8,5.7,28.4,5.5z"/>
</g>
</svg>
