<?xml version="1.0" encoding="utf-8"?>
<!-- Generator: Adobe Illustrator 24.3.0, SVG Export Plug-In . SVG Version: 6.00 Build 0)  -->
<svg version="1.1" id="Layer_1" xmlns="http://www.w3.org/2000/svg" xmlns:xlink="http://www.w3.org/1999/xlink" x="0px" y="0px"
	 viewBox="0 0 32 32" style="enable-background:new 0 0 32 32;" xml:space="preserve">
<style type="text/css">
	.cryptowallet0{fill:#5E686B;}
	.cryptowallet1{fill:#EE5586;}
</style>
<path class="cryptowallet0" d="M27.4,31.8H4.6c-2.3,0-4.2-1.9-4.2-4.2V10.3c0-2.3,1.9-4.2,4.2-4.2h22.9c2.3,0,4.2,1.9,4.2,4.2v17.3
	C31.6,29.9,29.7,31.8,27.4,31.8z M4.6,7.1c-1.8,0-3.2,1.4-3.2,3.2v17.3c0,1.8,1.4,3.2,3.2,3.2h22.9c1.8,0,3.2-1.4,3.2-3.2V10.3
	c0-1.8-1.4-3.2-3.2-3.2H4.6z"/>
<path class="cryptowallet0" d="M0.9,10.8c-0.3,0-0.5-0.2-0.5-0.5c0-1.5,0.6-2.9,1.8-4.1c6-6,25.2-6,26-6c0.3,0,0.5,0.2,0.5,0.5v6
	c0,0.3-0.2,0.5-0.5,0.5s-0.5-0.2-0.5-0.5V1.2c-3.1,0-19.6,0.5-24.8,5.7c-1,1-1.5,2.1-1.5,3.4C1.4,10.5,1.1,10.8,0.9,10.8z"/>
<path class="cryptowallet0" d="M31.1,21.9h-5.9c-1.2,0-2.2-1-2.2-2.2v-1.7c0-1.2,1-2.2,2.2-2.2h5.9v1h-5.9c-0.7,0-1.2,0.5-1.2,1.2v1.7
	c0,0.7,0.5,1.2,1.2,1.2h5.9V21.9z"/>
<g>
	<path id="svg-ico" class="cryptowallet1" d="M19.2,23.2h-6.5c-0.2,0-0.4-0.1-0.5-0.3c-0.1-0.2,0-0.4,0.1-0.5l5.9-6.4h-5.5c-0.3,0-0.5-0.2-0.5-0.5
		s0.2-0.5,0.5-0.5h6.6c0.2,0,0.4,0.1,0.5,0.3c0.1,0.2,0,0.4-0.1,0.5l-5.9,6.4h5.4c0.3,0,0.5,0.2,0.5,0.5S19.5,23.2,19.2,23.2z"/>
	<path id="svg-ico" class="cryptowallet1" d="M16,25.7c-0.3,0-0.5-0.2-0.5-0.5v-2.4c0-0.3,0.2-0.5,0.5-0.5s0.5,0.2,0.5,0.5v2.4C16.5,25.5,16.3,25.7,16,25.7
		z"/>
	<path id="svg-ico" class="cryptowallet1" d="M16,16c-0.3,0-0.5-0.2-0.5-0.5v-2.6c0-0.3,0.2-0.5,0.5-0.5s0.5,0.2,0.5,0.5v2.6C16.5,15.8,16.3,16,16,16z"/>
	<path id="svg-ico" class="cryptowallet1" d="M16,28.5c-5.3,0-9.6-4.3-9.6-9.6s4.3-9.6,9.6-9.6c3.1,0,6.1,1.5,7.9,4.1c0.2,0.2,0.1,0.5-0.1,0.7
		c-0.2,0.2-0.5,0.1-0.7-0.1c-1.6-2.3-4.2-3.7-7.1-3.7c-4.7,0-8.6,3.9-8.6,8.6s3.9,8.6,8.6,8.6c2.8,0,5.4-1.4,7.1-3.7
		c0.2-0.2,0.5-0.3,0.7-0.1c0.2,0.2,0.3,0.5,0.1,0.7C22.1,27,19.1,28.5,16,28.5z"/>
</g>
<circle class="cryptowallet0" cx="26.5" cy="18.8" r="0.8"/>
</svg>
