<?xml version="1.0" encoding="utf-8"?>
<!-- Generator: Adobe Illustrator 24.3.0, SVG Export Plug-In . SVG Version: 6.00 Build 0)  -->
<svg version="1.1" id="Layer_1" xmlns="http://www.w3.org/2000/svg" xmlns:xlink="http://www.w3.org/1999/xlink" x="0px" y="0px"
	 viewBox="0 0 32 32" style="enable-background:new 0 0 32 32;" xml:space="preserve">
<style type="text/css">
	.criptosecurity0{fill:#808080;}
	.criptosecurity1{fill:#EE5586;}
</style>
<g>
	<path class="criptosecurity0" d="M16.8,31.1c-5.5,0-10.5-3-13.1-7.9c0-0.1-0.1-0.2-0.1-0.2l0-13.5c0-0.1,0-0.2,0.1-0.2
		c2.6-4.9,7.6-7.9,13.1-7.9C25,1.4,31.7,8,31.7,16.2C31.7,24.4,25,31.1,16.8,31.1z M4.6,22.9c2.4,4.5,7.1,7.3,12.2,7.3
		c7.7,0,13.9-6.2,13.9-13.9c0-7.7-6.2-13.9-13.9-13.9C11.7,2.4,7,5.1,4.6,9.6L4.6,22.9z"/>
	<path class="criptosecurity0" d="M4.8,24.5h-4c-0.4,0-0.7-0.3-0.7-0.7V8.6c0-0.4,0.3-0.7,0.7-0.7h4c0.2,0,0.4,0.2,0.4,0.4S5,8.7,4.8,8.7H0.8
		v15.1h3.9c0.2,0,0.4,0.2,0.4,0.4S5,24.5,4.8,24.5z"/>
	<path class="criptosecurity0" d="M3.9,8.7H0.6c-0.2,0-0.4-0.2-0.4-0.4c0-1.1,0.9-2,2-2s2,0.9,2,2C4.3,8.6,4.1,8.7,3.9,8.7z M1.1,8h2.4
		C3.3,7.5,2.8,7.1,2.3,7.1S1.2,7.5,1.1,8z"/>
	<path class="criptosecurity0" d="M2.3,26.2c-1.1,0-2-0.9-2-2c0-0.2,0.2-0.4,0.4-0.4h3.3c0.2,0,0.4,0.2,0.4,0.4C4.3,25.3,3.4,26.2,2.3,26.2z
		 M1.1,24.5c0.2,0.5,0.6,0.9,1.2,0.9s1.1-0.4,1.2-0.9H1.1z"/>
	<path class="criptosecurity0" d="M17.1,23.4c-3.8,0-6.9-3.1-6.9-6.9c0-3.8,3.1-6.9,6.9-6.9c3.8,0,6.9,3.1,6.9,6.9C24,20.3,20.9,23.4,17.1,23.4z
		 M17.1,10.5c-3.3,0-5.9,2.7-5.9,5.9c0,3.3,2.7,5.9,5.9,5.9c3.3,0,5.9-2.7,5.9-5.9C23,13.2,20.3,10.5,17.1,10.5z"/>
	<path class="criptosecurity0" d="M17.1,10.5c-0.3,0-0.5-0.2-0.5-0.5l0-1.7c0-0.3,0.2-0.5,0.5-0.5c0,0,0,0,0,0c0.3,0,0.5,0.2,0.5,0.5l0,1.7
		C17.6,10.3,17.3,10.5,17.1,10.5C17.1,10.5,17.1,10.5,17.1,10.5z"/>
	<path class="criptosecurity0" d="M21.8,23.6c-0.2,0-0.3-0.1-0.4-0.2l-1-1.4c-0.2-0.2-0.1-0.5,0.1-0.7c0.2-0.2,0.5-0.1,0.7,0.1l1,1.4
		c0.2,0.2,0.1,0.5-0.1,0.7C22.1,23.6,22,23.6,21.8,23.6z"/>
	<path  id="svg-ico" class="criptosecurity1" d="M17,8.6c-1,0-1.8-0.8-1.8-1.8s0.8-1.8,1.8-1.8s1.8,0.8,1.8,1.8S18,8.6,17,8.6z M17,6.1c-0.4,0-0.8,0.3-0.8,0.8
		s0.3,0.8,0.8,0.8c0.4,0,0.8-0.3,0.8-0.8S17.4,6.1,17,6.1z"/>
	<path  id="svg-ico" class="criptosecurity1" d="M22.7,26c-1,0-1.8-0.8-1.8-1.8s0.8-1.8,1.8-1.8s1.8,0.8,1.8,1.8S23.7,26,22.7,26z M22.7,23.5
		c-0.4,0-0.8,0.3-0.8,0.8s0.3,0.8,0.8,0.8s0.8-0.3,0.8-0.8S23.1,23.5,22.7,23.5z"/>
	<path class="criptosecurity0" d="M12.4,23.6c-0.1,0-0.2,0-0.3-0.1c-0.2-0.2-0.3-0.5-0.1-0.7l1-1.4c0.2-0.2,0.5-0.3,0.7-0.1
		c0.2,0.2,0.3,0.5,0.1,0.7l-1,1.4C12.7,23.5,12.5,23.6,12.4,23.6z"/>
	<path  id="svg-ico" class="criptosecurity1" d="M11.5,26.1c-1,0-1.8-0.8-1.8-1.8s0.8-1.8,1.8-1.8s1.8,0.8,1.8,1.8S12.5,26.1,11.5,26.1z M11.5,23.6
		c-0.4,0-0.8,0.3-0.8,0.8s0.3,0.8,0.8,0.8s0.8-0.3,0.8-0.8S11.9,23.6,11.5,23.6z"/>
	<path class="criptosecurity0" d="M10.9,15c0,0-0.1,0-0.1,0l-1.6-0.5c-0.3-0.1-0.4-0.4-0.3-0.6c0.1-0.3,0.4-0.4,0.6-0.3l1.6,0.5
		c0.3,0.1,0.4,0.4,0.3,0.6C11.3,14.9,11.1,15,10.9,15z"/>
	<path  id="svg-ico" class="criptosecurity1" d="M7.9,15.3c-1,0-1.8-0.8-1.8-1.8s0.8-1.8,1.8-1.8s1.8,0.8,1.8,1.8S8.8,15.3,7.9,15.3z M7.9,12.8
		c-0.4,0-0.8,0.3-0.8,0.8s0.3,0.8,0.8,0.8s0.8-0.3,0.8-0.8S8.3,12.8,7.9,12.8z"/>
	<path class="criptosecurity0" d="M23.2,15c-0.2,0-0.4-0.1-0.5-0.3c-0.1-0.3,0.1-0.5,0.3-0.6l1.6-0.5c0.3-0.1,0.5,0.1,0.6,0.3s-0.1,0.5-0.3,0.6
		L23.4,15C23.3,15,23.3,15,23.2,15z"/>
	<path  id="svg-ico" class="criptosecurity1" d="M26.2,15.3c-1,0-1.8-0.8-1.8-1.8s0.8-1.8,1.8-1.8s1.8,0.8,1.8,1.8S27.2,15.3,26.2,15.3z M26.2,12.8
		c-0.4,0-0.8,0.3-0.8,0.8s0.3,0.8,0.8,0.8s0.8-0.3,0.8-0.8S26.6,12.8,26.2,12.8z"/>
	<path  id="svg-ico" class="criptosecurity1" d="M17.1,20.8c-2.5,0-4.6-2-4.6-4.6s2-4.6,4.6-4.6c2.5,0,4.6,2,4.6,4.6S19.6,20.8,17.1,20.8z M17.1,12.7
		c-2,0-3.6,1.6-3.6,3.6c0,2,1.6,3.6,3.6,3.6c2,0,3.6-1.6,3.6-3.6C20.6,14.3,19,12.7,17.1,12.7z"/>
	<g>
		<path  id="svg-ico" class="criptosecurity1" d="M18.2,18h-2.3c-0.2,0-0.4-0.1-0.5-0.3c-0.1-0.2,0-0.4,0.1-0.5l1.6-1.7h-1.2c-0.3,0-0.5-0.2-0.5-0.5
			s0.2-0.5,0.5-0.5h2.4c0.2,0,0.4,0.1,0.5,0.3c0.1,0.2,0,0.4-0.1,0.5L17,17h1.2c0.3,0,0.5,0.2,0.5,0.5S18.5,18,18.2,18z"/>
		<path  id="svg-ico" class="criptosecurity1" d="M17.1,18.8c-0.3,0-0.5-0.2-0.5-0.5v-0.9c0-0.3,0.2-0.5,0.5-0.5s0.5,0.2,0.5,0.5v0.9
			C17.6,18.6,17.3,18.8,17.1,18.8z"/>
		<path  id="svg-ico" class="criptosecurity1" d="M17.1,15.4c-0.3,0-0.5-0.2-0.5-0.5v-0.9c0-0.3,0.2-0.5,0.5-0.5s0.5,0.2,0.5,0.5v0.9
			C17.6,15.2,17.3,15.4,17.1,15.4z"/>
	</g>
</g>
</svg>
