<?xml version="1.0" encoding="utf-8"?>
<!-- Generator: Adobe Illustrator 24.3.0, SVG Export Plug-In . SVG Version: 6.00 Build 0)  -->
<svg version="1.1" id="Layer_1" xmlns="http://www.w3.org/2000/svg" xmlns:xlink="http://www.w3.org/1999/xlink" x="0px" y="0px"
	 viewBox="0 0 32 32" style="enable-background:new 0 0 32 32;" xml:space="preserve">
<style type="text/css">
	.cryptolock0{fill:#EE5586;}
	.cryptolock1{fill:#5E686B;}
</style>
<path id="svg-ico" class="cryptolock0" d="M21.3,5.4c-0.2,0-0.4-0.2-0.4-0.4V4.3V4c0-1.6-1.3-3-3-3h-3.8c-1.6,0-3,1.3-3,3v3.4
	c0,0.2-0.2,0.4-0.4,0.4s-0.4-0.2-0.4-0.4V4c0-2.1,1.7-3.8,3.8-3.8h3.8c2.1,0,3.8,1.7,3.8,3.8V5C21.7,5.3,21.5,5.4,21.3,5.4L21.3,5.4
	z"/>
<path class="cryptolock1" d="M21,32.3H11c-5,0-9.1-4.1-9.1-9.1v-5c0-5,4.1-9.1,9.1-9.1h10c5,0,9.1,4.1,9.1,9.1v5C30.1,28.2,26,32.3,21,32.3z
	 M11,10.1c-4.5,0-8.1,3.6-8.1,8.1v5c0,4.5,3.6,8.1,8.1,8.1h10c4.5,0,8.1-3.6,8.1-8.1v-5c0-4.5-3.6-8.1-8.1-8.1H11z"/>
<path class="cryptolock1" d="M21.7,4.2"/>
<path class="cryptolock1" d="M21.7,4.3"/>
<path id="svg-ico" class="cryptolock0" d="M18.7,20.3c0.7-0.6,1.2-1.6,1.2-2.6c0-1.8-1.4-3.2-3.2-3.2h-0.2V13c0-0.3-0.2-0.5-0.5-0.5s-0.5,0.2-0.5,0.5v1.5
	h-1.2V13c0-0.3-0.2-0.5-0.5-0.5s-0.5,0.2-0.5,0.5v1.5h-1.9c-0.3,0-0.5,0.2-0.5,0.5s0.2,0.5,0.5,0.5h1.9v10.3h-1.9
	c-0.3,0-0.5,0.2-0.5,0.5s0.2,0.5,0.5,0.5h1.9v1.5c0,0.3,0.2,0.5,0.5,0.5s0.5-0.2,0.5-0.5v-1.5h1.2v1.5c0,0.3,0.2,0.5,0.5,0.5
	s0.5-0.2,0.5-0.5v-1.5h1.3c1.8,0,3.2-1.4,3.2-3.2C21,22.1,20,20.8,18.7,20.3z M16.7,15.5c1.2,0,2.2,1,2.2,2.2c0,1.2-1.1,2.4-2.2,2.4
	c-0.1,0-0.2,0-0.2,0.1h-2.1v-4.7H16.7z M17.8,25.8h-3.4v-4.6h3.4c1.2,0,2.2,1.1,2.2,2.4C20,24.8,19,25.8,17.8,25.8z"/>
</svg>
