<?xml version="1.0" encoding="utf-8"?>
<!-- Generator: Adobe Illustrator 24.3.0, SVG Export Plug-In . SVG Version: 6.00 Build 0)  -->
<svg version="1.1" id="Layer_1" xmlns="http://www.w3.org/2000/svg" xmlns:xlink="http://www.w3.org/1999/xlink" x="0px" y="0px"
	 viewBox="0 0 32 32" style="enable-background:new 0 0 32 32;" xml:space="preserve">
<style type="text/css">
	.criptoinvisible0{fill:#EE5586;}
	.criptoinvisible1{fill:#656565;}
</style>
<g>
	<path id="svg-ico" class="criptoinvisible0" d="M24.4,9.9c-0.1,0-0.2,0-0.2-0.1c-1.2-1.9-2.9-3.5-4.9-4.5C19.1,5.3,19,5.1,19.1,5c0.1-0.1,0.2-0.2,0.3-0.1
		c2.1,1,3.9,2.6,5.2,4.6c0.1,0.1,0,0.3-0.1,0.3C24.4,9.9,24.4,9.9,24.4,9.9z"/>
	<path id="svg-ico" class="criptoinvisible0" d="M14.7,23.4c-4.7,0-8.6-3.8-8.6-8.6s3.8-8.6,8.6-8.6s8.6,3.8,8.6,8.6S19.4,23.4,14.7,23.4z M14.7,7.2
		c-4.2,0-7.6,3.4-7.6,7.6c0,4.2,3.4,7.6,7.6,7.6c4.2,0,7.6-3.4,7.6-7.6C22.2,10.6,18.8,7.2,14.7,7.2z"/>
	<path id="svg-ico" class="criptoinvisible0" d="M16.8,14.5c0.4-0.5,0.7-1.1,0.7-1.7c0-1.3-1-2.3-2.3-2.3V9.6c0-0.3-0.2-0.5-0.5-0.5s-0.5,0.2-0.5,0.5v0.9h-0.5
		V9.6c0-0.3-0.2-0.5-0.5-0.5s-0.5,0.2-0.5,0.5v0.9h-1.1c-0.3,0-0.5,0.2-0.5,0.5s0.2,0.5,0.5,0.5h1.1v6.7h-1.1
		c-0.3,0-0.5,0.2-0.5,0.5s0.2,0.5,0.5,0.5h1.1v0.9c0,0.3,0.2,0.5,0.5,0.5s0.5-0.2,0.5-0.5v-0.9h0.5v0.9c0,0.3,0.2,0.5,0.5,0.5
		s0.5-0.2,0.5-0.5v-0.9h0.7c1.3,0,2.3-1.1,2.3-2.3C18.2,15.8,17.6,14.9,16.8,14.5z M15.1,11.5c0.7,0,1.3,0.6,1.3,1.3
		c0,0.8-0.7,1.5-1.3,1.5c-0.1,0-0.1,0-0.2,0h-1.3v-2.9H15.1z M15.9,18.2h-2.2v-2.8h2.2c0.7,0,1.3,0.7,1.3,1.5
		C17.2,17.6,16.6,18.2,15.9,18.2z"/>
	<path class="criptoinvisible1" d="M14.7,29.4c-8,0-14.6-6.5-14.6-14.6c0-8,6.5-14.6,14.6-14.6c8,0,14.6,6.5,14.6,14.6
		C29.2,22.9,22.7,29.4,14.7,29.4z M14.7,1.2C7.2,1.2,1.1,7.3,1.1,14.8s6.1,13.6,13.6,13.6c7.5,0,13.6-6.1,13.6-13.6
		S22.1,1.2,14.7,1.2z"/>
	<path class="criptoinvisible1" d="M30.6,31.6c-0.1,0-0.3,0-0.4-0.1l-6.1-6.1c-0.2-0.2-0.2-0.5,0-0.7s0.5-0.2,0.7,0l6.1,6.1
		c0.2,0.2,0.2,0.5,0,0.7C30.8,31.5,30.7,31.6,30.6,31.6z"/>
</g>
</svg>
