<?xml version="1.0" encoding="utf-8"?>
<!-- Generator: Adobe Illustrator 24.3.0, SVG Export Plug-In . SVG Version: 6.00 Build 0)  -->
<svg version="1.1" id="Layer_1" xmlns="http://www.w3.org/2000/svg" xmlns:xlink="http://www.w3.org/1999/xlink" x="0px" y="0px"
	 viewBox="0 0 32 32" style="enable-background:new 0 0 32 32;" xml:space="preserve">
<style type="text/css">
	.criptographic0{fill:#656565;}
	.criptographic1{fill:#EE5586;}
</style>
<path class="criptographic0" d="M2.5,31.9c-0.3,0-0.5-0.2-0.5-0.5V5.5C2,5.2,2.2,5,2.5,5S3,5.2,3,5.5v25.9C3,31.7,2.8,31.9,2.5,31.9z"/>
<path class="criptographic0" d="M10.1,26.6H6.4c-0.5,0-0.8-0.4-0.8-0.8v-6.1c0-0.5,0.4-0.8,0.8-0.8h3.7c0.5,0,0.8,0.4,0.8,0.8v6.1
	C11,26.2,10.6,26.6,10.1,26.6z M6.6,25.6H10v-5.8H6.6V25.6z"/>
<path class="criptographic0" d="M19.4,26.6h-3.7c-0.5,0-0.8-0.4-0.8-0.8V11.1c0-0.5,0.4-0.8,0.8-0.8h3.7c0.5,0,0.8,0.4,0.8,0.8v14.7
	C20.2,26.2,19.9,26.6,19.4,26.6z M15.8,25.6h3.4V11.3h-3.4V25.6z"/>
<path class="criptographic0" d="M28.5,26.6h-3.4c-0.5,0-1-0.4-1-1v-9.4c0-0.5,0.4-1,1-1h3.4c0.5,0,1,0.4,1,1v9.4C29.5,26.2,29,26.6,28.5,26.6z
	 M28.5,16.2l-3.4,0l0,9.3l3.4,0L28.5,16.2z M28.5,25.6L28.5,25.6L28.5,25.6z"/>
<path id="svg-ico" class="criptographic1" d="M26.8,13.2c-2.2,0-4-1.8-4-4c0-2.2,1.8-4,4-4s4,1.8,4,4C30.8,11.4,29,13.2,26.8,13.2z M26.8,5.7
	c-1.9,0-3.5,1.6-3.5,3.5s1.6,3.5,3.5,3.5s3.5-1.6,3.5-3.5S28.7,5.7,26.8,5.7z"/>
<g>
	<path id="svg-ico" class="criptographic1" d="M27.4,11.2h-2c-0.1,0-0.2-0.1-0.2-0.2s0.1-0.2,0.2-0.2h2c0.1,0,0.2,0.1,0.2,0.2S27.5,11.2,27.4,11.2z"/>
	<path id="svg-ico" class="criptographic1" d="M27,7.7h-1.6c-0.1,0-0.2-0.1-0.2-0.2s0.1-0.2,0.2-0.2H27c0.1,0,0.2,0.1,0.2,0.2S27.2,7.7,27,7.7z"/>
	<path id="svg-ico" class="criptographic1" d="M27.4,9.5h-1.2c-0.1,0-0.2-0.1-0.2-0.2S26,9,26.1,9h1.2c0.1,0,0.2,0.1,0.2,0.2S27.5,9.5,27.4,9.5z"/>
	<path id="svg-ico" class="criptographic1" d="M27,9.4c-0.1,0-0.2-0.1-0.2-0.2s0.1-0.2,0.2-0.2c0.3,0,0.6-0.3,0.6-0.7c0-0.3-0.3-0.6-0.6-0.6
		c-0.1,0-0.2-0.1-0.2-0.2s0.1-0.2,0.2-0.2c0.6,0,1.1,0.5,1.1,1.1C28.1,8.9,27.6,9.4,27,9.4z"/>
	<path id="svg-ico" class="criptographic1" d="M27.4,11.2c-0.1,0-0.2-0.1-0.2-0.2s0.1-0.2,0.2-0.2c0.3,0,0.6-0.3,0.6-0.6c0-0.4-0.3-0.7-0.6-0.7
		c-0.1,0-0.2-0.1-0.2-0.2S27.2,9,27.4,9c0.6,0,1.1,0.5,1.1,1.2C28.5,10.7,28,11.2,27.4,11.2z"/>
	<path id="svg-ico" class="criptographic1" d="M26.1,11.9c-0.1,0-0.2-0.1-0.2-0.2V6.8c0-0.1,0.1-0.2,0.2-0.2s0.2,0.1,0.2,0.2v4.8
		C26.4,11.8,26.3,11.9,26.1,11.9z"/>
	<path id="svg-ico" class="criptographic1" d="M26.8,11.9c-0.1,0-0.2-0.1-0.2-0.2V11c0-0.1,0.1-0.2,0.2-0.2s0.2,0.1,0.2,0.2v0.6
		C27.1,11.8,26.9,11.9,26.8,11.9z"/>
	<path id="svg-ico" class="criptographic1" d="M26.8,7.7c-0.1,0-0.2-0.1-0.2-0.2V6.8c0-0.1,0.1-0.2,0.2-0.2s0.2,0.1,0.2,0.2v0.6C27.1,7.6,26.9,7.7,26.8,7.7z
		"/>
</g>
<path id="svg-ico" class="criptographic1" d="M17.5,8.3c-2.2,0-4-1.8-4-4c0-2.2,1.8-4,4-4s4,1.8,4,4C21.5,6.5,19.7,8.3,17.5,8.3z M17.5,0.8
	c-1.9,0-3.5,1.6-3.5,3.5s1.6,3.5,3.5,3.5S21,6.2,21,4.3S19.5,0.8,17.5,0.8z"/>
<path id="svg-ico" class="criptographic1" d="M8.3,17c-2.2,0-4-1.8-4-4c0-2.2,1.8-4,4-4c2.2,0,4,1.8,4,4C12.2,15.2,10.5,17,8.3,17z M8.3,9.5
	c-1.9,0-3.5,1.6-3.5,3.5s1.6,3.5,3.5,3.5s3.5-1.6,3.5-3.5S10.2,9.5,8.3,9.5z"/>
<g>
	<path id="svg-ico" class="criptographic1" d="M18.8,6h-2.5C16.2,6,16.1,6,16,5.9c0-0.1,0-0.2,0-0.3l2.2-2.4h-2C16.1,3.2,16,3.1,16,3s0.1-0.2,0.2-0.2h2.6
		c0.1,0,0.2,0.1,0.2,0.1c0,0.1,0,0.2,0,0.3l-2.2,2.4h1.9c0.1,0,0.2,0.1,0.2,0.2S18.9,6,18.8,6z"/>
	<path id="svg-ico" class="criptographic1" d="M17.5,7c-0.1,0-0.2-0.1-0.2-0.2V5.8c0-0.1,0.1-0.2,0.2-0.2s0.2,0.1,0.2,0.2v0.9C17.8,6.9,17.7,7,17.5,7z"/>
	<path id="svg-ico" class="criptographic1" d="M17.5,3.2c-0.1,0-0.2-0.1-0.2-0.2V2c0-0.1,0.1-0.2,0.2-0.2s0.2,0.1,0.2,0.2v1C17.8,3.1,17.7,3.2,17.5,3.2z"/>
</g>
<g>
	<path id="svg-ico" class="criptographic1" d="M8.3,15.3C7.5,15.3,7,14.8,7,14c0-0.1,0.1-0.2,0.2-0.2s0.2,0.1,0.2,0.2c0,0.4,0.4,0.8,0.8,0.8s0.8-0.4,0.8-0.8
		c0-0.4-0.3-0.7-0.9-0.8C7.5,13.1,7,12.6,7,11.9c0-0.7,0.6-1.3,1.3-1.3c0.7,0,1.3,0.6,1.3,1.3c0,0.1-0.1,0.2-0.2,0.2S9,12.1,9,11.9
		c0-0.4-0.4-0.8-0.8-0.8c-0.4,0-0.8,0.3-0.8,0.8c0,0.4,0.3,0.7,0.8,0.8c0.8,0.1,1.3,0.6,1.3,1.3C9.6,14.8,9,15.3,8.3,15.3z"/>
	<path id="svg-ico" class="criptographic1" d="M8.3,15.9c-0.1,0-0.2-0.1-0.2-0.2v-0.6c0-0.1,0.1-0.2,0.2-0.2s0.2,0.1,0.2,0.2v0.6C8.5,15.8,8.4,15.9,8.3,15.9
		z"/>
	<path id="svg-ico" class="criptographic1" d="M8.3,11.2c-0.1,0-0.2-0.1-0.2-0.2v-0.6c0-0.1,0.1-0.2,0.2-0.2s0.2,0.1,0.2,0.2v0.6C8.5,11.1,8.4,11.2,8.3,11.2
		z"/>
</g>
<path id="svg-ico" class="criptographic1" d="M31.5,30H0.6c-0.3,0-0.5-0.2-0.5-0.5S0.3,29,0.6,29h30.9c0.3,0,0.5,0.2,0.5,0.5S31.7,30,31.5,30z"/>
</svg>
