<svg xmlns="http://www.w3.org/2000/svg" xmlns:xlink="http://www.w3.org/1999/xlink" width="62" height="62" viewBox="0 0 62 62">
  <defs>
    <linearGradient id="linear-gradient" x1="0.5" x2="0.5" y2="1" gradientUnits="objectBoundingBox">
      <stop offset="0" stop-color="#699fff"/>
      <stop offset="0.517" stop-color="#6a9fff"/>
      <stop offset="1" stop-color="#3775f2"/>
    </linearGradient>
  </defs>
  <g id="svgexport-7_-_2022-12-25T163234.814" data-name="svgexport-7 - 2022-12-25T163234.814" transform="translate(-1 -1)">
    <path id="Path_632" data-name="Path 632" d="M55,29a8,8,0,0,0,0-16,7.86,7.86,0,0,0-1.636.173A11.972,11.972,0,0,0,34.775,7.434,13.99,13.99,0,0,0,9.59,11.009,9,9,0,0,0,10,29h9.363A12.772,12.772,0,0,0,20,31H14a5.006,5.006,0,0,0-5,5v1H4a3,3,0,0,0-3,3V60a3,3,0,0,0,3,3H16a3,3,0,0,0,3-3V40a3,3,0,0,0-3-3H11V36a3,3,0,0,1,3-3h7.063A13,13,0,0,0,31,38.949V43H26a3,3,0,0,0-3,3V57a2,2,0,0,0-2,2,4,4,0,0,0,4,4H39a4,4,0,0,0,4-4,2,2,0,0,0-2-2V46a3,3,0,0,0-3-3H33V38.949A13,13,0,0,0,42.937,33H50a3,3,0,0,1,3,3v1H47a2,2,0,0,0-2,2V49a2,2,0,0,0,2,2h3v2H48v2H60V53H58V51h3a2,2,0,0,0,2-2V39a2,2,0,0,0-2-2H55V36a5.006,5.006,0,0,0-5-5H44a12.985,12.985,0,0,0,.64-2ZM3,47H17v6H3ZM16,61H4a1,1,0,0,1-1-1V55H17v5A1,1,0,0,1,16,61Zm1-21v5H3V40a1,1,0,0,1,1-1H16A1,1,0,0,1,17,40ZM39,61H25a2,2,0,0,1-2-2H41A2,2,0,0,1,39,61Zm0-15V57H25V46a1,1,0,0,1,1-1H38A1,1,0,0,1,39,46Zm17,7H52V51h4Zm-9-4V47H61v2Zm14-4H47V39H61ZM10,27a7,7,0,0,1,0-14c.052,0,.1,0,.155.008l.986.043.189-.805A11.991,11.991,0,0,1,33.27,8.8a12.053,12.053,0,0,0-1.329,1.658l1.676,1.092a9.993,9.993,0,0,1,18.09,3.092l.26,1.075,1.043-.367A6,6,0,1,1,55,27H44.949c.026-.331.051-.662.051-1a13,13,0,0,0-26,0c0,.338.025.669.051,1Zm31.786,4H37.569a27.288,27.288,0,0,0,.409-4h4.971a10.9,10.9,0,0,1-1.163,4ZM32,37c-1.075,0-2.22-1.527-3.009-4h6.018c-.789,2.473-1.934,4-3.009,4Zm-3.519-6a24.8,24.8,0,0,1-.46-4h7.958a24.91,24.91,0,0,1-.46,4Zm-6.267,0a10.919,10.919,0,0,1-1.164-4h4.971a27.425,27.425,0,0,0,.409,4H22.214Zm15.764-6a27.425,27.425,0,0,0-.409-4h4.217a10.919,10.919,0,0,1,1.164,4Zm-2,0H28.021a24.91,24.91,0,0,1,.46-4h7.038A24.8,24.8,0,0,1,35.979,25ZM37.1,19a13.86,13.86,0,0,0-1.391-3.341A11.029,11.029,0,0,1,40.478,19Zm-2.1,0H28.991c.789-2.473,1.935-4,3.009-4S34.22,16.527,35.009,19Zm-8.114,0H23.521a11.034,11.034,0,0,1,4.764-3.341A13.9,13.9,0,0,0,26.895,19Zm-4.681,2h4.217a27.288,27.288,0,0,0-.409,4H21.051A10.9,10.9,0,0,1,22.214,21Zm1.307,12h3.374a13.86,13.86,0,0,0,1.391,3.341A11.038,11.038,0,0,1,23.521,33Zm12.193,3.341A13.86,13.86,0,0,0,37.1,33h3.374A11.038,11.038,0,0,1,35.714,36.341ZM37,47H27v8H37Zm-2,6H29V49h6ZM11,43H9V41h2ZM7,43H5V41H7Zm8,6v2H13V49ZM9,49h2v2H9ZM5,57H7v2H5Zm4,0h2v2H9ZM23,7a7.959,7.959,0,0,0-7.169,4.445l-1.791-.891a10,10,0,0,1,16.738-1.84L29.223,9.972A7.97,7.97,0,0,0,23,7Z" fill="url(#linear-gradient)"/>
  </g>
</svg>
