<svg id="svgexport-7_65_" data-name="svgexport-7 (65)" xmlns="http://www.w3.org/2000/svg" xmlns:xlink="http://www.w3.org/1999/xlink" width="66.455" height="66.455" viewBox="0 0 66.455 66.455">
  <defs>
    <linearGradient id="linear-gradient" x1="0.5" x2="0.5" y2="1" gradientUnits="objectBoundingBox">
      <stop offset="0" stop-color="#699fff"/>
      <stop offset="0.517" stop-color="#6a9fff"/>
      <stop offset="1" stop-color="#3775f2"/>
    </linearGradient>
  </defs>
  <g id="Group_18" data-name="Group 18" transform="translate(8.307 38.765)">
    <path id="Path_83" data-name="Path 83" d="M21,16.769H4.384a1.384,1.384,0,1,1,0-2.769H21a1.384,1.384,0,1,1,0,2.769Z" transform="translate(-3 -14)" fill="url(#linear-gradient)"/>
  </g>
  <g id="Group_19" data-name="Group 19" transform="translate(8.307 47.072)">
    <path id="Path_84" data-name="Path 84" d="M18.229,19.769H4.384a1.384,1.384,0,1,1,0-2.769H18.229a1.384,1.384,0,1,1,0,2.769Z" transform="translate(-3 -17)" fill="url(#linear-gradient)"/>
  </g>
  <g id="Group_20" data-name="Group 20" transform="translate(17.998 8.307)">
    <path id="Path_85" data-name="Path 85" d="M12.038,14.076a5.538,5.538,0,1,1,5.538-5.538A5.543,5.543,0,0,1,12.038,14.076Zm0-8.307a2.769,2.769,0,1,0,2.769,2.769A2.774,2.774,0,0,0,12.038,5.769Z" transform="translate(-6.5 -3)" fill="url(#linear-gradient)"/>
  </g>
  <g id="Group_21" data-name="Group 21" transform="translate(12.46 22.152)">
    <path id="Path_86" data-name="Path 86" d="M25.267,19.076a1.385,1.385,0,0,1-1.384-1.384V14.922a4.159,4.159,0,0,0-4.153-4.153H11.422a4.159,4.159,0,0,0-4.153,4.153v2.769a1.384,1.384,0,0,1-2.769,0V14.922A6.932,6.932,0,0,1,11.422,8h8.307a6.932,6.932,0,0,1,6.922,6.922v2.769A1.385,1.385,0,0,1,25.267,19.076Z" transform="translate(-4.5 -8)" fill="url(#linear-gradient)"/>
  </g>
  <g id="Group_22" data-name="Group 22">
    <path id="Path_87" data-name="Path 87" d="M26.305,58.148H6.922A6.932,6.932,0,0,1,0,51.226V6.922A6.932,6.932,0,0,1,6.922,0H40.15a6.932,6.932,0,0,1,6.922,6.922V23.7a1.384,1.384,0,0,1-2.769,0V6.922A4.159,4.159,0,0,0,40.15,2.769H6.922A4.159,4.159,0,0,0,2.769,6.922v44.3a4.159,4.159,0,0,0,4.153,4.153H26.305a1.384,1.384,0,1,1,0,2.769Z" fill="url(#linear-gradient)"/>
  </g>
  <g id="Group_23" data-name="Group 23" transform="translate(30.459 30.459)">
    <path id="Path_88" data-name="Path 88" d="M29,47A18,18,0,1,1,47,29,18.019,18.019,0,0,1,29,47Zm0-33.228A15.229,15.229,0,1,0,44.228,29,15.246,15.246,0,0,0,29,13.769Z" transform="translate(-11 -11)" fill="url(#linear-gradient)"/>
  </g>
  <g id="Group_24" data-name="Group 24" transform="translate(38.765 41.533)">
    <path id="Path_89" data-name="Path 89" d="M20.923,28.846a1.4,1.4,0,0,1-.98-.4L14.4,22.9a1.384,1.384,0,0,1,1.958-1.958l4.491,4.491,8.717-9.963A1.385,1.385,0,1,1,31.655,17.3L21.964,28.375a1.381,1.381,0,0,1-1,.471Z" transform="translate(-14 -14.999)" fill="url(#linear-gradient)"/>
  </g>
</svg>
