<svg id="svgexport-7_63_" data-name="svgexport-7 (63)" xmlns="http://www.w3.org/2000/svg" xmlns:xlink="http://www.w3.org/1999/xlink" width="66.281" height="66.281" viewBox="0 0 66.281 66.281">
  <defs>
    <linearGradient id="linear-gradient" x1="0.5" x2="0.5" y2="1" gradientUnits="objectBoundingBox">
      <stop offset="0" stop-color="#699fff"/>
      <stop offset="0.517" stop-color="#6a9fff"/>
      <stop offset="1" stop-color="#3775f2"/>
    </linearGradient>
  </defs>
  <path id="Path_59" data-name="Path 59" d="M209.572,187.238a6.912,6.912,0,0,1-6.9-6.9v-2.762a6.9,6.9,0,1,1,13.808,0v2.762A6.912,6.912,0,0,1,209.572,187.238Zm0-13.809a4.147,4.147,0,0,0-4.143,4.143v2.762a4.143,4.143,0,0,0,8.285,0v-2.762A4.147,4.147,0,0,0,209.572,173.43Zm0,0" transform="translate(-176.432 -148.574)" fill="url(#linear-gradient)"/>
  <path id="Path_60" data-name="Path 60" d="M162.762,288.379H160v-3.4a2.751,2.751,0,0,1,1.232-2.3l7.053-4.7v-.642h2.762v1.381a1.383,1.383,0,0,1-.614,1.149l-7.671,5.113Zm0,0" transform="translate(-139.287 -241.43)" fill="url(#linear-gradient)"/>
  <path id="Path_61" data-name="Path 61" d="M277.715,288.379h-2.762v-3.4l-7.671-5.113a1.383,1.383,0,0,1-.614-1.149v-1.381h2.762v.642l7.055,4.7a2.756,2.756,0,0,1,1.23,2.3Zm0,0" transform="translate(-232.146 -241.43)" fill="url(#linear-gradient)"/>
  <path id="Path_62" data-name="Path 62" d="M126,66.281c-10.841,0-19.332-14.557-19.332-33.141S115.159,0,126,0a12.055,12.055,0,0,1,6.215,1.567l-1.384,2.389A9.387,9.387,0,0,0,126,2.762c-9.137,0-16.57,13.628-16.57,30.379S116.863,63.52,126,63.52s16.57-13.628,16.57-30.379a45.075,45.075,0,0,0-5.352-21.429l2.419-1.33a48,48,0,0,1,5.695,22.759c0,18.583-8.491,33.141-19.332,33.141Zm0,0" transform="translate(-92.859)" fill="url(#linear-gradient)"/>
  <path id="Path_63" data-name="Path 63" d="M65.712,120.732A47.354,47.354,0,0,1,42.237,114C26.143,104.712,17.78,90.079,23.2,80.688c2.621-4.543,8.056-7.036,15.319-7.036.1,0,.2,0,.294,0,7.124.066,15.2,2.5,22.755,6.86,12.582,7.261,20.713,17.628,20.713,26.41a15.2,15.2,0,0,1-.676,4.678,1.381,1.381,0,1,1-2.628-.849,12.5,12.5,0,0,0,.541-3.829c0-7.693-7.768-17.347-19.332-24.019-7.144-4.124-14.745-6.429-21.4-6.49-6.407-.069-11.058,1.95-13.2,5.654-4.568,7.915,3.519,21.167,18.026,29.542a45.224,45.224,0,0,0,22.094,6.36,18.761,18.761,0,0,0,7.717-1.258,1.38,1.38,0,0,1,1.135,2.516,21.283,21.283,0,0,1-8.853,1.5Zm0,0" transform="translate(-18.762 -64.117)" fill="url(#linear-gradient)"/>
  <path id="Path_64" data-name="Path 64" d="M38.345,120.846c-5.383,0-10-1.388-13.076-4.218a1.381,1.381,0,0,1,1.871-2.031c6.084,5.6,20.208,4.321,32.853-2.984,14.509-8.374,22.6-21.626,18.027-29.541-2.139-3.705-6.852-5.706-13.2-5.654-6.656.061-14.256,2.367-21.4,6.49-11.564,6.673-19.332,16.326-19.332,24.019a1.381,1.381,0,0,1-2.762,0c0-8.782,8.13-19.15,20.713-26.41,7.551-4.358,15.631-6.794,22.755-6.86,7.455-.064,12.957,2.432,15.613,7.034,5.42,9.391-2.943,24.024-19.037,33.315-7.825,4.518-16.068,6.841-23.031,6.841Zm0,0" transform="translate(-18.57 -64.12)" fill="url(#linear-gradient)"/>
  <path id="Path_65" data-name="Path 65" d="M281.475,8.285a4.143,4.143,0,1,1,4.143-4.143A4.148,4.148,0,0,1,281.475,8.285Zm0-5.524a1.381,1.381,0,1,0,1.381,1.381A1.382,1.382,0,0,0,281.475,2.762Zm0,0" transform="translate(-241.43)" fill="url(#linear-gradient)"/>
  <path id="Path_66" data-name="Path 66" d="M14.811,360.285a4.143,4.143,0,1,1,4.143-4.143A4.147,4.147,0,0,1,14.811,360.285Zm0-5.524a1.381,1.381,0,1,0,1.381,1.381A1.383,1.383,0,0,0,14.811,354.762Zm0,0" transform="translate(-9.287 -306.432)" fill="url(#linear-gradient)"/>
  <path id="Path_67" data-name="Path 67" d="M441.475,360.285a4.143,4.143,0,1,1,4.143-4.143A4.148,4.148,0,0,1,441.475,360.285Zm0-5.524a1.381,1.381,0,1,0,1.381,1.381A1.381,1.381,0,0,0,441.475,354.762Zm0,0" transform="translate(-380.717 -306.432)" fill="url(#linear-gradient)"/>
  <path id="Path_68" data-name="Path 68" d="M490.668,245.332h2.762v2.762h-2.762Zm0,0" transform="translate(-427.148 -213.572)" fill="url(#linear-gradient)"/>
  <path id="Path_69" data-name="Path 69" d="M373.332,458.668h2.762v2.762h-2.762Zm0,0" transform="translate(-325.002 -399.291)" fill="url(#linear-gradient)"/>
  <path id="Path_70" data-name="Path 70" d="M117.332,458.668h2.762v2.762h-2.762Zm0,0" transform="translate(-102.143 -399.291)" fill="url(#linear-gradient)"/>
  <path id="Path_71" data-name="Path 71" d="M373.332,32h2.762v2.762h-2.762Zm0,0" transform="translate(-325.002 -27.857)" fill="url(#linear-gradient)"/>
  <path id="Path_72" data-name="Path 72" d="M117.332,32h2.762v2.762h-2.762Zm0,0" transform="translate(-102.143 -27.857)" fill="url(#linear-gradient)"/>
  <path id="Path_73" data-name="Path 73" d="M0,245.332H2.762v2.762H0Zm0,0" transform="translate(0 -213.572)" fill="url(#linear-gradient)"/>
</svg>
