<svg xmlns="http://www.w3.org/2000/svg" width="56.783" height="54.343" viewBox="0 0 56.783 54.343">
  <g id="svgexport-6_74_" data-name="svgexport-6 (74)" transform="translate(0 -11)">
    <path id="Path_715" data-name="Path 715" d="M63,49.228a27.171,27.171,0,1,1,0-22.112,27.25,27.25,0,0,0,0,22.112Z" transform="translate(-9.78)" fill="#fff"/>
    <path id="Path_716" data-name="Path 716" d="M2.218,95.489H51.831a27.3,27.3,0,0,1-5.5,6.654H4.436A4.436,4.436,0,0,1,0,97.707,2.218,2.218,0,0,1,2.218,95.489ZM45.063,60.28q-.182-.142-.366-.28H10.2a4.436,4.436,0,0,0-4.436,4.436v24.4A4.436,4.436,0,0,0,10.2,93.271H52.347a4.48,4.48,0,0,0,.678-.051,26.973,26.973,0,0,0,1.6-4.385c0-.012.139-8.5.139-8.5a25.384,25.384,0,0,0-9.7-20.056Z" transform="translate(0 -43.566)" fill="#056099"/>
    <path id="Path_717" data-name="Path 717" d="M9.76,102.143H4.436A4.436,4.436,0,0,1,0,97.707a2.218,2.218,0,0,1,2.218-2.218H7.541a2.218,2.218,0,0,0-2.218,2.218A4.436,4.436,0,0,0,9.76,102.143ZM14.639,60H10.2a4.436,4.436,0,0,0-4.436,4.436v24.4A4.436,4.436,0,0,0,10.2,93.271h4.436A4.436,4.436,0,0,1,10.2,88.835v-24.4A4.436,4.436,0,0,1,14.639,60Zm8.65,35.489a3.327,3.327,0,0,0,3.327,3.327H36.6a3.327,3.327,0,0,0,3.327-3.327Z" transform="translate(0 -43.566)" fill="#013f69"/>
    <path id="Path_718" data-name="Path 718" d="M117.142,100a27.226,27.226,0,0,1,5.283,24.4H94.218A2.218,2.218,0,0,1,92,122.181V102.218A2.218,2.218,0,0,1,94.218,100Z" transform="translate(-81.797 -79.13)" fill="#75a5d3"/>
    <path id="Path_719" data-name="Path 719" d="M181.5,195.527V181.109A1.109,1.109,0,0,1,182.609,180H215.6a27.341,27.341,0,0,1,.4,15.527Z" transform="translate(-161.371 -150.257)" fill="#fff5f5"/>
    <path id="Path_720" data-name="Path 720" d="M113.327,193.308h-2.218A1.109,1.109,0,0,1,110,192.2v-11.09A1.109,1.109,0,0,1,111.109,180h2.218a1.109,1.109,0,0,1,1.109,1.109V192.2A1.109,1.109,0,0,1,113.327,193.308Z" transform="translate(-97.801 -150.257)" fill="#5592ca"/>
    <path id="Path_721" data-name="Path 721" d="M121.73,206.568A1.032,1.032,0,1,1,120.7,207.6,1.032,1.032,0,0,1,121.73,206.568Zm-1.032-2.407a1.032,1.032,0,1,0,1.032-1.032A1.032,1.032,0,0,0,120.7,204.161Zm0-3.439a1.032,1.032,0,1,0,1.032-1.032A1.032,1.032,0,0,0,120.7,200.722Z" transform="translate(-107.312 -167.764)" fill="#0571b3"/>
    <path id="Path_722" data-name="Path 722" d="M379.981,192.2v-11.09A1.109,1.109,0,0,0,378.872,180h-7.763A1.109,1.109,0,0,0,370,181.109V192.2a1.109,1.109,0,0,0,1.109,1.109h7.763A1.109,1.109,0,0,0,379.981,192.2Z" transform="translate(-328.966 -150.257)" fill="#75a5d3"/>
    <path id="Path_723" data-name="Path 723" d="M94.218,100h19.791a27.169,27.169,0,0,1,4.054,6.654H92v-4.436A2.218,2.218,0,0,1,94.218,100Z" transform="translate(-81.797 -79.13)" fill="#fd73c4"/>
    <path id="Path_724" data-name="Path 724" d="M120.631,121.73A1.032,1.032,0,1,1,119.6,120.7,1.032,1.032,0,0,1,120.631,121.73Zm-4.471-1.032a1.032,1.032,0,1,0,1.032,1.032A1.032,1.032,0,0,0,116.161,120.7Zm-3.439,0a1.032,1.032,0,1,0,1.032,1.032A1.032,1.032,0,0,0,112.722,120.7Z" transform="translate(-99.303 -97.532)" fill="#f02399"/>
    <path id="Path_725" data-name="Path 725" d="M305.73,15.436V32.294a4.436,4.436,0,0,1-4.436,4.436H289.662V33.565a4.436,4.436,0,0,0-4.436-4.436H280V15.436A4.436,4.436,0,0,1,284.436,11h16.857A4.436,4.436,0,0,1,305.73,15.436Z" transform="translate(-248.947 0)" fill="#c92e43"/>
    <path id="Path_726" data-name="Path 726" d="M360.409,15.436V28.4a12.869,12.869,0,0,1-17.4-17.4h12.967A4.436,4.436,0,0,1,360.409,15.436Z" transform="translate(-303.626)" fill="#fd4343"/>
    <path id="Path_727" data-name="Path 727" d="M386.316,72.7l-7.493-.423-.423-7.493a1.109,1.109,0,0,1,.916-1.054l6.12-1.08a2.6,2.6,0,0,1,3.015,3.015l-1.08,6.12a1.109,1.109,0,0,1-1.054.916Z" transform="translate(-336.434 -45.888)" fill="#f5dc90"/>
    <path id="Path_728" data-name="Path 728" d="M401.5,94.9a1.109,1.109,0,0,1-1.054.916l-4.764-.238-1.39-5.915a1.109,1.109,0,0,1,.916-1.054l6.922.047a.4.4,0,0,1,.39.468Z" transform="translate(-350.563 -69)" fill="#f9eecf"/>
    <path id="Path_729" data-name="Path 729" d="M438.784,59.928l2.439-.43a1.109,1.109,0,0,1,1.285,1.285l-.43,2.439Z" transform="translate(-390.121 -43.104)" fill="#013f69"/>
    <path id="Path_730" data-name="Path 730" d="M299.335,80.184a1.664,1.664,0,0,1,0,2.353l-9.554,9.554h-5.345A4.436,4.436,0,0,1,280,87.654V84.306l10.552-10.552a1.664,1.664,0,0,1,2.353,0Z" transform="translate(-248.947 -55.361)" fill="#ecb700"/>
    <path id="Path_731" data-name="Path 731" d="M300.638,93.521a1.664,1.664,0,0,1,0,2.353l-9.554,9.554H285.74a4.438,4.438,0,0,1-4.274-3.242l13.918-13.918Z" transform="translate(-250.25 -68.698)" fill="#fde803"/>
    <path id="Path_732" data-name="Path 732" d="M314.86,105.294l-8.321,8.321a1.109,1.109,0,0,1-1.568-1.568l8.321-8.321a1.109,1.109,0,0,1,1.568,1.568Zm-3.921-5.489a1.109,1.109,0,0,0-1.568,0l-8.321,8.321a1.109,1.109,0,0,0,1.568,1.568l8.321-8.321A1.109,1.109,0,0,0,310.939,99.805Z" transform="translate(-267.374 -78.667)" fill="#cd9e00"/>
  </g>
</svg>
