<svg xmlns="http://www.w3.org/2000/svg" width="55.719" height="45.925" viewBox="0 0 55.719 45.925">
  <g id="svgexport-6_75_" data-name="svgexport-6 (75)" transform="translate(0.001 0)">
    <path id="Path_733" data-name="Path 733" d="M185.949,336.809H201.2v7.341H185.949Zm0,0" transform="translate(-165.713 -300.156)" fill="#3b7191"/>
    <path id="Path_734" data-name="Path 734" d="M295.148,336.809h3.363v7.341h-3.363Zm0,0" transform="translate(-263.029 -300.156)" fill="#2b6182"/>
    <path id="Path_735" data-name="Path 735" d="M53.925,38.083H1.792A1.793,1.793,0,0,1,0,36.291V1.793A1.793,1.793,0,0,1,1.792,0H53.925a1.793,1.793,0,0,1,1.793,1.793v34.5A1.793,1.793,0,0,1,53.925,38.083Zm0,0" fill="#bdf9ff"/>
    <path id="Path_736" data-name="Path 736" d="M467.977,0h-3.363a1.793,1.793,0,0,1,1.794,1.792v34.5a1.793,1.793,0,0,1-1.794,1.792h3.363a1.793,1.793,0,0,0,1.794-1.792V1.792A1.793,1.793,0,0,0,467.977,0Zm0,0" transform="translate(-414.052 0)" fill="#8cf2ff"/>
    <path id="Path_737" data-name="Path 737" d="M0,311.469v-2.687H55.719v2.688a1.793,1.793,0,0,1-1.793,1.793H1.793A1.793,1.793,0,0,1,0,311.469Zm0,0" transform="translate(0 -275.178)" fill="#4380a0"/>
    <path id="Path_738" data-name="Path 738" d="M466.407,308.781v2.688a1.793,1.793,0,0,1-1.793,1.792h3.363a1.793,1.793,0,0,0,1.794-1.792v-2.688Zm0,0" transform="translate(-414.052 -275.178)" fill="#3b7191"/>
    <path id="Path_739" data-name="Path 739" d="M141.484,394.482h-28.03a1.68,1.68,0,1,1,0-3.36h28.03a1.68,1.68,0,1,1,0,3.36Zm0,0" transform="translate(-99.61 -348.557)" fill="#4380a0"/>
    <path id="Path_740" data-name="Path 740" d="M357.23,391.121h-3.363a1.68,1.68,0,1,1,0,3.36h3.363a1.68,1.68,0,1,0,0-3.36Zm0,0" transform="translate(-315.357 -348.557)" fill="#3b7191"/>
    <path id="Path_741" data-name="Path 741" d="M382.2,44.765h-4.372a1.906,1.906,0,0,1,0-3.812H382.2a1.906,1.906,0,1,1,0,3.812Zm0,0" transform="translate(-335.016 -36.497)" fill="#ff50b5"/>
    <path id="Path_742" data-name="Path 742" d="M62.54,64.229H51.553a.9.9,0,0,1-.9-.9V41.807a.9.9,0,0,1,.9-.9H62.54a.9.9,0,0,1,.9.9V63.333A.9.9,0,0,1,62.54,64.229Zm0,0" transform="translate(-45.144 -36.459)" fill="#af7fdf"/>
    <path id="Path_743" data-name="Path 743" d="M221.478,64.229H210.491a.9.9,0,0,1-.9-.9V41.807a.9.9,0,0,1,.9-.9h10.987a.9.9,0,0,1,.9.9V63.333A.9.9,0,0,1,221.478,64.229Zm0,0" transform="translate(-186.785 -36.459)" fill="#f5f5f5"/>
    <path id="Path_744" data-name="Path 744" d="M388.4,105.283a3.495,3.495,0,1,1-3.494-3.495A3.494,3.494,0,0,1,388.4,105.283Zm0,0" transform="translate(-339.907 -90.712)" fill="#00bcd4"/>
    <path id="Path_745" data-name="Path 745" d="M388.4,195.319a3.495,3.495,0,1,1-3.494-3.494A3.494,3.494,0,0,1,388.4,195.319Zm0,0" transform="translate(-339.907 -170.949)" fill="#ffd54f"/>
    <path id="Path_746" data-name="Path 746" d="M105.946,73.465h-2.915a.816.816,0,1,0,0,1.632h2.915a.816.816,0,0,0,0-1.632Zm0,0" transform="translate(-91.092 -65.47)" fill="#f5f5f5"/>
    <path id="Path_747" data-name="Path 747" d="M82.076,104.059h-5.83a.816.816,0,0,0,0,1.632h5.83a.816.816,0,0,0,0-1.632Zm0,0" transform="translate(-67.222 -92.735)" fill="#f5f5f5"/>
    <path id="Path_748" data-name="Path 748" d="M82.076,134.656h-5.83a.816.816,0,0,0,0,1.632h5.83a.816.816,0,1,0,0-1.632Zm0,0" transform="translate(-67.222 -120.002)" fill="#f5f5f5"/>
    <path id="Path_749" data-name="Path 749" d="M82.076,165.25h-5.83a.816.816,0,0,0,0,1.632h5.83a.816.816,0,1,0,0-1.632Zm0,0" transform="translate(-67.222 -147.267)" fill="#f5f5f5"/>
    <path id="Path_750" data-name="Path 750" d="M79.255,195.848H76.246a.816.816,0,0,0,0,1.632h3.009a.816.816,0,1,0,0-1.632Zm0,0" transform="translate(-67.222 -174.535)" fill="#f5f5f5"/>
    <g id="Group_2387" data-name="Group 2387" transform="translate(25.468 7.995)">
      <path id="Path_751" data-name="Path 751" d="M261.629,75.1h2.915a.816.816,0,0,0,0-1.632h-2.915a.816.816,0,0,0,0,1.632Zm0,0" transform="translate(-257.898 -73.465)" fill="#af7fdf"/>
      <path id="Path_752" data-name="Path 752" d="M240.674,104.059h-5.83a.816.816,0,1,0,0,1.632h5.83a.816.816,0,1,0,0-1.632Zm0,0" transform="translate(-234.028 -100.73)" fill="#af7fdf"/>
      <path id="Path_753" data-name="Path 753" d="M240.674,134.656h-5.83a.816.816,0,1,0,0,1.632h5.83a.816.816,0,1,0,0-1.632Zm0,0" transform="translate(-234.028 -127.997)" fill="#af7fdf"/>
      <path id="Path_754" data-name="Path 754" d="M240.674,165.25h-5.83a.816.816,0,1,0,0,1.632h5.83a.816.816,0,1,0,0-1.632Zm0,0" transform="translate(-234.028 -155.261)" fill="#af7fdf"/>
      <path id="Path_755" data-name="Path 755" d="M237.613,195.848h-2.77a.816.816,0,0,0,0,1.632h2.77a.816.816,0,0,0,0-1.632Zm0,0" transform="translate(-234.027 -182.53)" fill="#af7fdf"/>
    </g>
  </g>
</svg>
