<svg xmlns="http://www.w3.org/2000/svg" width="50.532" height="50.266" viewBox="0 0 50.532 50.266">
  <g id="svgexport-6_77_" data-name="svgexport-6 (77)" transform="translate(-24 -24.266)">
    <rect id="Rectangle_337" data-name="Rectangle 337" width="42" height="33" rx="2" transform="translate(24.267 31.266)" fill="#3397e8"/>
    <path id="Path_781" data-name="Path 781" d="M65.82,328v3.485a3.485,3.485,0,0,1-3.485,3.485H27.485A3.485,3.485,0,0,1,24,331.485V328Z" transform="translate(0 -270.893)" fill="#e9eef2"/>
    <rect id="Rectangle_338" data-name="Rectangle 338" width="35" height="29" rx="2" transform="translate(27.267 24.266)" fill="#e9eef2"/>
    <path id="Path_782" data-name="Path 782" d="M90.85,88v20.91a1.742,1.742,0,0,1-1.742,1.742H57.742A1.742,1.742,0,0,1,56,108.91V88Z" transform="translate(-28.515 -57.03)" fill="#7e8589"/>
    <path id="Path_783" data-name="Path 783" d="M61.227,88v22.652H57.742A1.742,1.742,0,0,1,56,108.91V88Z" transform="translate(-28.515 -57.03)" fill="#6a7073"/>
    <path id="Path_784" data-name="Path 784" d="M118.652,456H99.485A3.485,3.485,0,0,0,96,459.485h26.137A3.485,3.485,0,0,0,118.652,456Z" transform="translate(-64.159 -384.953)" fill="#e9eef2"/>
    <path id="Path_785" data-name="Path 785" d="M170.455,392h-8.712L160,398.97h12.2Z" transform="translate(-121.189 -327.923)" fill="#dadcde"/>
    <circle id="Ellipse_590" data-name="Ellipse 590" cx="1" cy="1" r="1" transform="translate(30.267 26.266)" fill="#eb423f"/>
    <circle id="Ellipse_591" data-name="Ellipse 591" cx="1" cy="1" r="1" transform="translate(33.267 26.266)" fill="#ffd33a"/>
    <circle id="Ellipse_592" data-name="Ellipse 592" cx="1" cy="1" r="1" transform="translate(37.267 26.266)" fill="#3dc285"/>
    <g id="Group_2425" data-name="Group 2425" transform="translate(35.326 33.584)">
      <circle id="Ellipse_593" data-name="Ellipse 593" cx="1" cy="1" r="1" transform="translate(-0.059 -0.318)" fill="#e9eef2"/>
      <circle id="Ellipse_594" data-name="Ellipse 594" cx="1" cy="1" r="1" transform="translate(-0.059 3.682)" fill="#e9eef2"/>
      <circle id="Ellipse_595" data-name="Ellipse 595" cx="1" cy="1" r="1" transform="translate(-0.059 6.682)" fill="#e9eef2"/>
      <circle id="Ellipse_596" data-name="Ellipse 596" cx="1" cy="1" r="1" transform="translate(-0.059 10.682)" fill="#e9eef2"/>
      <circle id="Ellipse_597" data-name="Ellipse 597" cx="1" cy="1" r="1" transform="translate(-0.059 15.682)" fill="#e9eef2"/>
    </g>
    <path id="Path_786" data-name="Path 786" d="M162.614,113.742h-1.742a.871.871,0,0,1,0-1.742h1.742a.871.871,0,0,1,0,1.742Z" transform="translate(-121.189 -78.416)" fill="#ed6f6d"/>
    <path id="Path_787" data-name="Path 787" d="M196.356,209.742h-3.485a.871.871,0,0,1,0-1.742h3.485a.871.871,0,1,1,0,1.742Z" transform="translate(-149.704 -163.961)" fill="#3dc285"/>
    <path id="Path_788" data-name="Path 788" d="M169.584,145.742h-8.712a.871.871,0,0,1,0-1.742h8.712a.871.871,0,1,1,0,1.742Z" transform="translate(-121.189 -106.931)" fill="#3397e8"/>
    <path id="Path_789" data-name="Path 789" d="M279.841,145.742h-6.97a.871.871,0,1,1,0-1.742h6.97a.871.871,0,1,1,0,1.742Z" transform="translate(-220.991 -106.931)" fill="#3dc285"/>
    <path id="Path_790" data-name="Path 790" d="M169.584,257.742h-8.712a.871.871,0,1,1,0-1.742h8.712a.871.871,0,1,1,0,1.742Z" transform="translate(-121.189 -206.734)" fill="#3397e8"/>
    <path id="Path_791" data-name="Path 791" d="M198.1,177.742h-5.227a.871.871,0,0,1,0-1.742H198.1a.871.871,0,0,1,0,1.742Z" transform="translate(-149.704 -135.446)" fill="#ffd33a"/>
    <path id="Path_792" data-name="Path 792" d="M0,0H3.7V8.625H0Z" transform="translate(58.842 61.464) rotate(-45)" fill="#dadcde"/>
    <path id="Path_793" data-name="Path 793" d="M196.2,184a12.2,12.2,0,1,0,12.2,12.2A12.2,12.2,0,0,0,196.2,184Z" transform="translate(-142.575 -142.575)" fill="#2978b8"/>
    <path id="Path_794" data-name="Path 794" d="M224.712,216a8.712,8.712,0,1,0,8.712,8.712A8.712,8.712,0,0,0,224.712,216Z" transform="translate(-171.09 -171.09)" fill="#e9eef2"/>
    <path id="Path_795" data-name="Path 795" d="M266.615,264.711a.871.871,0,0,1-.725-.388l-1.742-2.614a.871.871,0,1,1,1.45-.967l.91,1.365,2.814-5.627a.871.871,0,1,1,1.558.779l-3.485,6.97a.871.871,0,0,1-.725.48C266.651,264.711,266.633,264.711,266.615,264.711Z" transform="translate(-213.864 -206.732)" fill="#3dc285"/>
    <path id="Path_796" data-name="Path 796" d="M404.389,400.692l-5.663-5.663-3.7,3.7,5.663,5.663a2.614,2.614,0,0,0,3.7-3.7Z" transform="translate(-330.622 -330.622)" fill="#fff"/>
  </g>
</svg>
