<svg xmlns="http://www.w3.org/2000/svg" width="55.54" height="53.46" viewBox="0 0 55.54 53.46">
  <g id="svgexport-6_25_" data-name="svgexport-6 (25)" transform="translate(-0.001 -0.5)">
    <path id="Path_428" data-name="Path 428" d="M55.036,303.336v6.729H49.527a2.824,2.824,0,1,0,0,1.632h6.326a.816.816,0,0,0,.816-.816v-7.545a.816.816,0,1,0-1.632,0Zm-8.212,8.737a1.191,1.191,0,1,1,1.191-1.192A1.193,1.193,0,0,1,46.824,312.072Zm0,0" transform="translate(-39.226 -269.258)" fill="#fff"/>
    <path id="Path_429" data-name="Path 429" d="M196.148,302.52a.816.816,0,0,0-.816.816v14.355a2.824,2.824,0,1,0,1.632,0V303.336a.816.816,0,0,0-.816-.816Zm1.192,17.874a1.191,1.191,0,1,1-1.191-1.192A1.193,1.193,0,0,1,197.339,320.394Zm0,0" transform="translate(-172.352 -269.258)" fill="#fff"/>
    <path id="Path_430" data-name="Path 430" d="M343.711,302.52a.816.816,0,0,0-.817.816v7.545a.816.816,0,0,0,.817.816h6.326a2.824,2.824,0,1,0,0-1.632h-5.509v-6.729a.816.816,0,0,0-.816-.816Zm9.029,7.17a1.192,1.192,0,1,1-1.191,1.192A1.193,1.193,0,0,1,352.74,309.689Zm0,0" transform="translate(-305.698 -269.258)" fill="#fff"/>
    <path id="Path_431" data-name="Path 431" d="M261.125,302.52a.816.816,0,0,0-.817.816v14.355a2.824,2.824,0,1,0,1.633,0V303.336A.816.816,0,0,0,261.125,302.52Zm1.191,17.874a1.191,1.191,0,1,1-1.191-1.192A1.193,1.193,0,0,1,262.316,320.394Zm0,0" transform="translate(-230.281 -269.258)" fill="#fff"/>
    <path id="Path_432" data-name="Path 432" d="M145.742,232.285V233.5a.816.816,0,1,0,1.632,0v-1.211a.816.816,0,0,0-1.632,0Zm0,0" transform="translate(-129.932 -205.914)" fill="#fff"/>
    <path id="Path_433" data-name="Path 433" d="M211.832,232.285V233.5a.816.816,0,1,0,1.632,0v-1.211a.816.816,0,0,0-1.632,0Zm0,0" transform="translate(-188.853 -205.914)" fill="#fff"/>
    <path id="Path_434" data-name="Path 434" d="M277.621,231.469a.817.817,0,0,0-.817.816V233.5a.816.816,0,0,0,1.633,0v-1.211A.816.816,0,0,0,277.621,231.469Zm0,0" transform="translate(-246.777 -205.915)" fill="#fff"/>
    <path id="Path_435" data-name="Path 435" d="M342.895,232.285V233.5a.816.816,0,0,0,1.633,0v-1.211a.816.816,0,0,0-1.633,0Zm0,0" transform="translate(-305.698 -205.914)" fill="#fff"/>
    <path id="Path_436" data-name="Path 436" d="M31.755,1.706a.816.816,0,0,0-.923-.693,15.75,15.75,0,0,0-11.7,8.269,8.646,8.646,0,0,0-10.62,5.789A8.618,8.618,0,0,0,0,23.809a8.716,8.716,0,0,0,8.74,8.509H46.976a8.793,8.793,0,0,0,8.388-6.225.816.816,0,1,0-1.564-.466,7.151,7.151,0,0,1-6.824,5.059H8.741a7.078,7.078,0,0,1-7.107-6.9,6.987,6.987,0,0,1,7-7.085h0a1.478,1.478,0,0,0,1.42-1.06A7.008,7.008,0,0,1,18.8,10.884a1.467,1.467,0,0,0,1.73-.736A14.117,14.117,0,0,1,31.062,2.63a.816.816,0,0,0,.693-.923Zm0,0" transform="translate(0 -0.451)" fill="#fff"/>
    <path id="Path_437" data-name="Path 437" d="M326.058,15.032a1.474,1.474,0,0,0,1.214,1.333,6.956,6.956,0,0,1,5.586,5.407.817.817,0,0,0,.8.645.825.825,0,0,0,.172-.018.817.817,0,0,0,.627-.969,8.582,8.582,0,0,0-6.779-6.65A15.73,15.73,0,0,0,313.778.5a.816.816,0,0,0-.182,1.622,14.1,14.1,0,0,1,12.462,12.9Zm0,0" transform="translate(-278.931 0)" fill="#fff"/>
  </g>
</svg>
