<svg id="svgexport-6_73_" data-name="svgexport-6 (73)" xmlns="http://www.w3.org/2000/svg" width="52.296" height="53.444" viewBox="0 0 52.296 53.444">
  <g id="Group_2382" data-name="Group 2382" transform="translate(0 0)">
    <path id="Path_687" data-name="Path 687" d="M59.123,13.5,49.478,3.491A25.558,25.558,0,1,0,59.123,13.5Z" transform="translate(-9.853 0)" fill="#fff"/>
    <path id="Path_688" data-name="Path 688" d="M184.313,120.781a2.807,2.807,0,0,0,2.639.09.318.318,0,0,1,.283,0L205.06,90l-2.273-1.312-18.514,32.067Z" transform="translate(-165.039 -79.431)" fill="#ffb332"/>
    <path id="Path_689" data-name="Path 689" d="M193.642,273.511a1.408,1.408,0,0,1-1.835-1.178.428.428,0,0,0-.075-.178l-7.457,12.916.039.025a2.807,2.807,0,0,0,2.639.09.317.317,0,0,1,.283,0l6.706-11.615a.429.429,0,0,0-.3-.065Z" transform="translate(-165.039 -243.747)" fill="#ff9100"/>
    <path id="Path_690" data-name="Path 690" d="M256.335,157.516a2.807,2.807,0,0,0,1.4,2.24l.041.022,18.514-32.067-2.273-1.312L256.19,157.273A.317.317,0,0,1,256.335,157.516Z" transform="translate(-229.448 -113.205)" fill="#ffb332"/>
    <path id="Path_691" data-name="Path 691" d="M264.924,310.062a1.348,1.348,0,0,1-1.722-1.089.428.428,0,0,0-.175-.249l-6.837,11.842a.318.318,0,0,1,.145.243,2.807,2.807,0,0,0,1.4,2.24l.041.022,7.475-12.948A.446.446,0,0,0,264.924,310.062Z" transform="translate(-229.448 -276.498)" fill="#ff9100"/>
    <path id="Path_692" data-name="Path 692" d="M212.667,132.142a.32.32,0,0,1,.164.257,2.808,2.808,0,0,0,4.036,2.33.32.32,0,0,1,.3.013c.007,0,.012.01.019.014l17.825-30.874-4.545-2.624-17.825,30.874C212.653,132.136,212.661,132.138,212.667,132.142Z" transform="translate(-190.449 -90.689)" fill="#ffdd40"/>
    <path id="Path_693" data-name="Path 693" d="M223.68,288.092c-2.935.676-3.879-1.243-4.148-2.093a.439.439,0,0,0-.181-.236l-6.706,11.615.022.009a.32.32,0,0,1,.164.257,2.808,2.808,0,0,0,4.036,2.33.32.32,0,0,1,.3.013c.007,0,.012.01.019.014l6.837-11.842A.438.438,0,0,0,223.68,288.092Z" transform="translate(-190.449 -255.933)" fill="#ffb332"/>
    <path id="Path_694" data-name="Path 694" d="M175.7,401.319a8.4,8.4,0,0,1,4.526,2.613l4.478-3.221a2.488,2.488,0,0,0,.969-.943l.106-.184-.042-.021a2.617,2.617,0,0,1-1.3-2.091.52.52,0,0,0-.738-.426,2.621,2.621,0,0,1-3.767-2.175.52.52,0,0,0-.738-.426,2.617,2.617,0,0,1-2.463-.084c-.014-.008-.026-.017-.039-.025l-.106.184a2.489,2.489,0,0,0-.332,1.311Z" transform="translate(-157.356 -353.173)" fill="#fcf9eb"/>
    <g id="Group_2373" data-name="Group 2373">
      <path id="Path_695" data-name="Path 695" d="M179.01,399.133c.552-2.049,1.666-2.219,2.369-2.092a2.606,2.606,0,0,1-1.455-2.171.52.52,0,0,0-.738-.426,2.617,2.617,0,0,1-2.463-.084l-.039-.025-.106.184a2.488,2.488,0,0,0-.332,1.311l-.551,5.489a8.392,8.392,0,0,1,2.445.931C178.364,401.479,178.658,400.439,179.01,399.133Z" transform="translate(-157.355 -353.172)" fill="#fceca9"/>
      <path id="Path_696" data-name="Path 696" fill="#fceca9"/>
    </g>
    <g id="Group_2374" data-name="Group 2374" transform="translate(36.825 13.774)">
      <path id="Path_697" data-name="Path 697" d="M358.183,136.291a.849.849,0,0,1-.426-.115l-4.545-2.624a.854.854,0,0,1,.854-1.479l4.545,2.624a.854.854,0,0,1-.428,1.593Z" transform="translate(-352.784 -131.959)" fill="#fceca9"/>
    </g>
    <path id="Path_698" data-name="Path 698" d="M53.714,236.907H35.376a2.145,2.145,0,0,0-2.138,2.138V248.5a2.145,2.145,0,0,0,2.138,2.138h1.9a.63.63,0,0,1,.527.284l1.311,2a.807.807,0,0,0,1.349,0l1.311-2a.63.63,0,0,1,.527-.284h11.41a2.145,2.145,0,0,0,2.138-2.138v-9.459A2.145,2.145,0,0,0,53.714,236.907Z" transform="translate(-29.769 -212.178)" fill="#ff4155"/>
    <path id="Path_699" data-name="Path 699" d="M35.375,55.564H53.713A2.145,2.145,0,0,1,55.851,57.7v9.459A2.145,2.145,0,0,1,53.713,69.3h-1.9a.63.63,0,0,0-.527.284l-1.311,2a.807.807,0,0,1-1.349,0l-1.311-2a.63.63,0,0,0-.527-.284H35.375a2.145,2.145,0,0,1-2.138-2.138V57.7a2.145,2.145,0,0,1,2.138-2.138Z" transform="translate(-29.768 -49.764)" fill="#42c3fc"/>
    <path id="Path_700" data-name="Path 700" d="M41.481,248.5v-9.459a2.145,2.145,0,0,1,2.138-2.138H35.375a2.145,2.145,0,0,0-2.138,2.138V248.5a2.145,2.145,0,0,0,2.138,2.138h1.9a.63.63,0,0,1,.527.284l1.311,2a.807.807,0,0,0,1.349,0l1.311-2a.63.63,0,0,1,.527-.284h1.316A2.145,2.145,0,0,1,41.481,248.5Z" transform="translate(-29.768 -212.178)" fill="#e80054"/>
    <g id="Group_2375" data-name="Group 2375" transform="translate(3.469 5.8)">
      <path id="Path_701" data-name="Path 701" d="M41.481,67.16V57.7a2.145,2.145,0,0,1,2.138-2.138H35.375A2.145,2.145,0,0,0,33.237,57.7V67.16A2.145,2.145,0,0,0,35.375,69.3h8.244A2.145,2.145,0,0,1,41.481,67.16Z" transform="translate(-33.237 -55.563)" fill="#1aa9e8"/>
    </g>
    <path id="Path_702" data-name="Path 702" d="M369.678,33.444a1.685,1.685,0,0,0-.314,3.061l8.884,5.129A25.7,25.7,0,0,0,369.678,33.444Z" transform="translate(-330.053 -29.953)" fill="#e9efff"/>
    <path id="Path_703" data-name="Path 703" d="M371.9,37.37a1.453,1.453,0,0,1,.913-1.407.648.648,0,0,0,.218-.171,25.644,25.644,0,0,0-3.357-2.349,1.685,1.685,0,0,0-.314,3.061l2.351,1.357A.641.641,0,0,0,371.9,37.37Z" transform="translate(-330.053 -29.953)" fill="#d3dcfb"/>
    <path id="Path_704" data-name="Path 704" d="M365.195,67.343a1.685,1.685,0,0,0,.189-.5q-.567-1.057-1.228-2.052l-8.669-5a1.687,1.687,0,0,0-1.687,2.922l9.09,5.248a1.687,1.687,0,0,0,2.3-.618Z" transform="translate(-316.113 -53.346)" fill="#d3dcfb"/>
    <path id="Path_705" data-name="Path 705" d="M355.488,59.79a1.687,1.687,0,0,0-1.687,2.922l2.066,1.193a.628.628,0,0,0,.091-.4,1.95,1.95,0,0,1,1.569-2.092.63.63,0,0,0,.331-.25Z" transform="translate(-316.114 -53.347)" fill="#bec8f7"/>
    <path id="Path_706" data-name="Path 706" d="M174.539,460.405a8.6,8.6,0,0,0-2.546-.972l-.446,4.447a.931.931,0,0,0,1.479.854l3.628-2.61A8.6,8.6,0,0,0,174.539,460.405Z" transform="translate(-153.634 -411.476)" fill="#5f5f9b"/>
    <path id="Path_707" data-name="Path 707" d="M173.931,462.176s.195-.61.54-1.808a8.6,8.6,0,0,0-2.48-.936l-.446,4.447a.931.931,0,0,0,1.479.854l1.447-1.041C173.6,463.3,173.931,462.176,173.931,462.176Z" transform="translate(-153.633 -411.475)" fill="#47477f"/>
    <g id="Group_2376" data-name="Group 2376" transform="translate(6.638 27.543)">
      <path id="Path_708" data-name="Path 708" d="M71.209,265.576H64.447a.854.854,0,1,1,0-1.707H71.21a.854.854,0,1,1,0,1.707Z" transform="translate(-63.593 -263.868)" fill="#fc95a9"/>
    </g>
    <g id="Group_2377" data-name="Group 2377" transform="translate(6.638 30.743)">
      <path id="Path_709" data-name="Path 709" d="M79.016,296.229H64.447a.854.854,0,1,1,0-1.707h14.57a.854.854,0,1,1,0,1.707Z" transform="translate(-63.593 -294.521)" fill="#ff7186"/>
    </g>
    <g id="Group_2378" data-name="Group 2378" transform="translate(6.638 33.943)">
      <path id="Path_710" data-name="Path 710" d="M79.016,326.882H64.447a.854.854,0,1,1,0-1.707h14.57a.854.854,0,1,1,0,1.707Z" transform="translate(-63.593 -325.174)" fill="#ff7186"/>
    </g>
    <g id="Group_2379" data-name="Group 2379" transform="translate(14.445 8.614)">
      <path id="Path_711" data-name="Path 711" d="M146,84.232h-6.763a.854.854,0,1,1,0-1.707H146a.854.854,0,1,1,0,1.707Z" transform="translate(-138.381 -82.525)" fill="#b8f0ff"/>
    </g>
    <g id="Group_2380" data-name="Group 2380" transform="translate(6.638 11.814)">
      <path id="Path_712" data-name="Path 712" d="M79.016,114.885H64.447a.854.854,0,0,1,0-1.707h14.57a.854.854,0,1,1,0,1.707Z" transform="translate(-63.593 -113.178)" fill="#8ae1ff"/>
    </g>
    <g id="Group_2381" data-name="Group 2381" transform="translate(6.638 15.013)">
      <path id="Path_713" data-name="Path 713" d="M79.016,145.538H64.447a.854.854,0,0,1,0-1.708h14.57a.854.854,0,1,1,0,1.708Z" transform="translate(-63.593 -143.831)" fill="#8ae1ff"/>
    </g>
    <path id="Path_714" data-name="Path 714" d="M342.812,218.582c-2.847,4.806-11.925,20.29-11.925,20.29s-1.338,2.827.768,4.513a25.582,25.582,0,0,0,16.613-23.958q0-1.117-.1-2.211C346.713,216.284,344.531,215.681,342.812,218.582Z" transform="translate(-295.972 -193.853)" fill="#f8f9f9"/>
  </g>
</svg>
