<svg xmlns="http://www.w3.org/2000/svg" width="299.015" height="260.172" viewBox="0 0 299.015 260.172">
  <g id="Group_75674" data-name="Group 75674" transform="translate(-1152.08 -78.256)">
    <path id="Path_25526" data-name="Path 25526" d="M36.516,43.559V186.207a118.206,118.206,0,0,0,19.865,66.366c32.423,47.192,90.135,50.855,107.1,50.855,2.142,0,3.766,0,4.526-.1h9.345a140.126,140.126,0,0,1-95.525-57,105.372,105.372,0,0,1-19.848-59.785V67.345h76.454A107.841,107.841,0,0,1,190.79,80.939,84.642,84.642,0,0,1,235.7,150.588v59.561l24.771,25V150.657a111.072,111.072,0,0,0-6.322-34.79,104.387,104.387,0,0,0-48.592-58.161,115.528,115.528,0,0,0-55.277-14.13H36.516Zm75.245,68.457v84.4a110.709,110.709,0,0,0,6.322,34.738,104.4,104.4,0,0,0,48.609,58.11,115.183,115.183,0,0,0,55.173,14.13H335.528v-147.1a100.536,100.536,0,0,0-5.856-33.84A117.066,117.066,0,0,0,292.309,69.02a147.537,147.537,0,0,0-92.744-25.462h-4.819l2.28.812c47.5,15.46,87.337,43.012,101.467,70.2a82.207,82.207,0,0,1,10.572,43.34V279.607H233.629A108.032,108.032,0,0,1,185.815,268.4a85.3,85.3,0,0,1-46.156-54.206,92.223,92.223,0,0,1-3.127-23.907V136.976Z" transform="translate(1115.566 35)"/>
  </g>
</svg>
