<svg xmlns="http://www.w3.org/2000/svg" width="269.595" height="81.97" viewBox="0 0 269.595 81.97">
  <g id="logo1" transform="translate(-1115.565 -34.984)">
    <path id="Path_1" data-name="Path 1" d="M40.986,81.969a40.984,40.984,0,1,1,28.981-12,40.985,40.985,0,0,1-28.981,12Zm-23.5-61.2V43.329a18.7,18.7,0,0,0,3.142,10.5c5.128,7.465,14.257,8.044,16.94,8.044.339,0,.6,0,.716-.016h1.478a22.164,22.164,0,0,1-15.109-9.016,16.667,16.667,0,0,1-3.139-9.456V24.528H33.609a17.057,17.057,0,0,1,8.281,2.15,13.388,13.388,0,0,1,7.1,11.016v9.421l3.918,3.954V37.706a17.568,17.568,0,0,0-1-5.5A16.511,16.511,0,0,0,44.227,23a18.273,18.273,0,0,0-8.743-2.235H17.489Zm11.9,10.828v13.35a17.511,17.511,0,0,0,1,5.495,16.514,16.514,0,0,0,7.689,9.191,18.219,18.219,0,0,0,8.727,2.235H64.784V38.6a15.9,15.9,0,0,0-.926-5.352,18.517,18.517,0,0,0-5.91-8.451,23.336,23.336,0,0,0-14.67-4.027h-.762l.361.128C50.391,23.34,56.691,27.7,58.926,32A13,13,0,0,1,60.6,38.854V58.1H48.667A17.088,17.088,0,0,1,41.1,56.329a13.492,13.492,0,0,1-7.3-8.574,14.587,14.587,0,0,1-.495-3.781V35.542Z" transform="translate(1115.566 34.984)" fill="#fff"/>
    <g id="Group_3" data-name="Group 3" transform="translate(1212.744 63.984)">
      <g id="Group_2" data-name="Group 2">
        <g id="Group_1" data-name="Group 1" transform="translate(0 0)">
          <path id="Path_2" data-name="Path 2" d="M.559,12.792V10.21a7.123,7.123,0,0,0,4.328,1.454q3.169,0,3.169-2.112a1.833,1.833,0,0,0-.273-1.019,2.7,2.7,0,0,0-.735-.74,5.648,5.648,0,0,0-1.093-.579q-.623-.257-1.342-.546a17.3,17.3,0,0,1-1.757-.79,5.3,5.3,0,0,1-1.262-.91A3.385,3.385,0,0,1,.832,3.814,4.077,4.077,0,0,1,.575,2.3,3.59,3.59,0,0,1,1.059.431,4.3,4.3,0,0,1,2.351-.935a6.011,6.011,0,0,1,1.842-.82,8.169,8.169,0,0,1,2.134-.273,8.623,8.623,0,0,1,3.492.675V1.084A6.806,6.806,0,0,0,5.993-.009,4.459,4.459,0,0,0,4.775.144a2.981,2.981,0,0,0-.932.432,2,2,0,0,0-.6.667,1.76,1.76,0,0,0-.213.858,2.06,2.06,0,0,0,.213.984,2.164,2.164,0,0,0,.623.7,4.768,4.768,0,0,0,1,.546q.587.249,1.336.546a18.579,18.579,0,0,1,1.79.784,6.139,6.139,0,0,1,1.35.91A3.552,3.552,0,0,1,10.2,7.743a3.762,3.762,0,0,1,.3,1.571A3.7,3.7,0,0,1,10,11.251,4.213,4.213,0,0,1,8.69,12.617a6.011,6.011,0,0,1-1.893.82,9.347,9.347,0,0,1-2.246.273,8.525,8.525,0,0,1-3.992-.918Zm35,.546H33.152V4.71a6.511,6.511,0,0,0-.77-3.609,2.921,2.921,0,0,0-2.59-1.115,3.208,3.208,0,0,0-2.62,1.41,5.391,5.391,0,0,0-1.09,3.372v8.571h-2.4V4.415q0-4.432-3.418-4.432a3.167,3.167,0,0,0-2.612,1.328,5.489,5.489,0,0,0-1.027,3.456v8.571H14.22V-1.689h2.407V.688h.057a5.107,5.107,0,0,1,4.667-2.732,4.353,4.353,0,0,1,2.686.858,4.32,4.32,0,0,1,1.571,2.251A5.363,5.363,0,0,1,30.6-2.047q4.959,0,4.959,6.12Zm21.161,0H53.988l-2.224-5.9H42.838l-2.1,5.9H38.007L46.078-7.7h2.555ZM50.945,5.224l-3.3-8.967a8.585,8.585,0,0,1-.322-1.41H47.27a7.861,7.861,0,0,1-.339,1.41L43.652,5.224ZM67.338.748a2.943,2.943,0,0,0-1.82-.484,3.071,3.071,0,0,0-2.577,1.454A6.716,6.716,0,0,0,61.9,5.688v7.65H59.494V-1.689H61.9v3.1h.057a5.249,5.249,0,0,1,1.571-2.473,3.582,3.582,0,0,1,2.363-.888,3.929,3.929,0,0,1,1.445.208ZM76.9,13.191a4.645,4.645,0,0,1-2.246.47q-3.948,0-3.948-4.4V.366H68.125V-1.689h2.582V-5.358l2.407-.779v4.448H76.9V.366H73.128v8.47a3.511,3.511,0,0,0,.514,2.158,2.049,2.049,0,0,0,1.7.645,2.53,2.53,0,0,0,1.557-.5Z" transform="translate(-0.559 10.542)" fill="#fff"/>
          <path id="Path_3" data-name="Path 3" d="M15.718-3.249,9.062,13.456H6.436L.1-3.249H3.043L7.283,8.885a10.894,10.894,0,0,1,.587,2.333h.066a11.03,11.03,0,0,1,.522-2.268L12.9-3.249Zm4.24-4.24a1.694,1.694,0,0,1-1.224-.489,1.639,1.639,0,0,1-.505-1.24,1.678,1.678,0,0,1,.505-1.249,1.68,1.68,0,0,1,1.224-.5,1.727,1.727,0,0,1,1.249.5,1.664,1.664,0,0,1,.514,1.249,1.653,1.653,0,0,1-.514,1.224,1.713,1.713,0,0,1-1.249.505Zm1.306,20.946H18.589V-3.249h2.675Zm4.4-.6V9.978a7.924,7.924,0,0,0,4.812,1.615Q34,11.593,34,9.243a2.038,2.038,0,0,0-.3-1.134,3.005,3.005,0,0,0-.82-.82,6.284,6.284,0,0,0-1.208-.645q-.694-.273-1.492-.6a19.224,19.224,0,0,1-1.948-.888,5.888,5.888,0,0,1-1.4-1.011,3.762,3.762,0,0,1-.847-1.281,4.53,4.53,0,0,1-.273-1.68,3.992,3.992,0,0,1,.546-2.079A4.773,4.773,0,0,1,27.7-2.407a6.694,6.694,0,0,1,2.046-.921,9.079,9.079,0,0,1,2.374-.309A9.582,9.582,0,0,1,36-2.885V-.178a7.566,7.566,0,0,0-4.24-1.208,4.956,4.956,0,0,0-1.366.172,3.314,3.314,0,0,0-1.036.481,2.224,2.224,0,0,0-.669.743,1.956,1.956,0,0,0-.238.954,2.29,2.29,0,0,0,.238,1.093,2.407,2.407,0,0,0,.694.784,5.3,5.3,0,0,0,1.109.62q.653.273,1.484.6a20.658,20.658,0,0,1,1.989.872,6.831,6.831,0,0,1,1.5,1.011,3.951,3.951,0,0,1,.954,1.3,4.183,4.183,0,0,1,.333,1.746,4.115,4.115,0,0,1-.546,2.153,4.683,4.683,0,0,1-1.459,1.516,6.686,6.686,0,0,1-2.1.9,10.383,10.383,0,0,1-2.495.292,9.475,9.475,0,0,1-4.478-1ZM42.226-7.489A1.694,1.694,0,0,1,41-7.978a1.639,1.639,0,0,1-.505-1.24A1.678,1.678,0,0,1,41-10.467a1.68,1.68,0,0,1,1.224-.5,1.727,1.727,0,0,1,1.249.5,1.664,1.664,0,0,1,.514,1.249,1.653,1.653,0,0,1-.514,1.224,1.713,1.713,0,0,1-1.251.505Zm1.306,20.946H40.857V-3.249h2.675Zm12.4.391a7.749,7.749,0,0,1-5.913-2.342A8.669,8.669,0,0,1,47.805,5.3a9.033,9.033,0,0,1,2.3-6.571A8.268,8.268,0,0,1,56.316-3.64a7.492,7.492,0,0,1,5.831,2.3,9.12,9.12,0,0,1,2.1,6.377,8.973,8.973,0,0,1-2.26,6.4,7.924,7.924,0,0,1-6.057,2.407Zm.183-15.235A5.087,5.087,0,0,0,52.032.366a7.2,7.2,0,0,0-1.5,4.836,6.812,6.812,0,0,0,1.516,4.68A5.156,5.156,0,0,0,56.111,11.6,4.891,4.891,0,0,0,60.1,9.915a7.29,7.29,0,0,0,1.393-4.779A7.415,7.415,0,0,0,60.1.309,4.869,4.869,0,0,0,56.111-1.388ZM82.374,13.456H79.7V3.929q0-5.317-3.883-5.317A4.21,4.21,0,0,0,72.5.12a5.593,5.593,0,0,0-1.314,3.809v9.527H68.508V-3.249h2.675V-.476h.066A6.027,6.027,0,0,1,76.74-3.64a5.109,5.109,0,0,1,4.191,1.771,7.883,7.883,0,0,1,1.451,5.115Z" transform="translate(90.015 10.965)" fill="#fff"/>
          <animateMotion  accumulate="none" additive="replace" begin="0s" calcMode="paced" dur="6s" fill="remove" path="M210,0 0 0 210,0"  restart="always">
		      </animateMotion>
        </g>
      </g>
    </g>
  </g>
</svg>
