<svg xmlns="http://www.w3.org/2000/svg" version="1.1" xmlns:xlink="http://www.w3.org/1999/xlink" xmlns:svgjs="http://svgjs.com/svgjs" width="512" height="512" x="0" y="0" viewBox="0 0 508 508" style="enable-background:new 0 0 512 512" xml:space="preserve"><g><path d="M254 0C146.7 0 0 81.1 0 254c0 168.5 141.1 254 254 254 193.7 0 254-169.7 254-254C508 129.6 412.8 0 254 0zm-58.9 23.9c-26.5 22.6-48.5 60-62.7 106.4-18.4-10.9-35.3-24.4-50.3-40.1 31-32.5 70.2-55.3 113-66.3zM71.2 102.4c16.8 17.5 35.9 32.4 56.7 44.2-7.8 30.3-12.4 63.9-13 99.2H16.6c1.8-52.7 21-103 54.6-143.4zm0 303.2c-33.7-40.4-52.8-90.7-54.6-143.4h98.3c.6 35.4 5.2 68.9 13 99.2-20.7 11.9-39.8 26.7-56.7 44.2zm10.9 12.3c15-15.7 31.9-29.2 50.3-40.1 14.2 46.3 36.2 83.8 62.7 106.4-42.8-11.1-82-33.9-113-66.3zM245.8 491c-42.6-5.4-79.3-53-99.1-121.2 30.6-15.5 64.4-24.2 99.1-25.5V491zm0-163c-36.2 1.2-71.4 10.1-103.3 25.7-6.7-28-10.7-58.9-11.3-91.5h114.6V328zm0-82.2H131.2c.6-32.6 4.6-63.5 11.3-91.5 32 15.6 67.2 24.5 103.3 25.7v65.8zm0-82.1c-34.8-1.2-68.5-10-99.1-25.5C166.5 69.9 203.2 22.4 245.8 17v146.7zm191-61.3c33.6 40.4 52.8 90.7 54.6 143.4h-98.2c-.6-35.4-5.2-68.9-13-99.2 20.7-11.9 39.8-26.7 56.6-44.2zm-10.9-12.3c-15 15.7-31.9 29.2-50.3 40.1-14.2-46.3-36.2-83.7-62.7-106.4 42.8 11.1 82 33.9 113 66.3zM262.2 17c42.6 5.4 79.3 53 99.1 121.2-30.6 15.5-64.3 24.2-99.1 25.5V17zm0 163c36.2-1.2 71.4-10.1 103.3-25.7 6.7 28 10.7 58.9 11.3 91.5H262.2V180zm0 82.2h114.6c-.6 32.6-4.6 63.5-11.3 91.5A251.24 251.24 0 0 0 262.2 328v-65.8zm0 228.8V344.3c34.8 1.2 68.5 10 99.1 25.5-19.8 68.3-56.5 115.8-99.1 121.2zm50.7-6.9c26.5-22.6 48.5-60 62.7-106.4 18.4 10.9 35.3 24.4 50.3 40.1-31 32.5-70.2 55.3-113 66.3zm123.9-78.5c-16.8-17.5-35.9-32.3-56.6-44.2 7.8-30.3 12.4-63.9 13-99.2h98.2c-1.8 52.7-21 103-54.6 143.4z" fill="#000000" data-original="#000000"></path></g></svg>