<?xml version="1.0" encoding="utf-8"?>
<!-- Generator: Adobe Illustrator 24.3.0, SVG Export Plug-In . SVG Version: 6.00 Build 0)  -->
<svg version="1.1" id="WordPress" xmlns="http://www.w3.org/2000/svg" xmlns:xlink="http://www.w3.org/1999/xlink" x="0px" y="0px"
	 viewBox="0 0 155.9 56.7" style="enable-background:new 0 0 155.9 56.7;" xml:space="preserve">
<style type="text/css">
	.st0{fill:#4E5157;}
</style>
<path class="st0" d="M62.4,48.4c0-1-0.4-1.9-1.5-1.9c-1.5,0-1.7,2-1.7,3.1c0,1.2,0.1,2.8,1.8,2.8c1,0,1.5-0.8,1.6-1.7l2.1,0.1
	c-0.2,2.1-1.7,3.3-3.8,3.3c-2.7,0-4-2.2-4-4.7s1.4-4.7,4.1-4.7c2.3,0,3.5,1.3,3.7,3.5L62.4,48.4"/>
<path class="st0" d="M71.5,49.9c1-0.4,1.6-1.3,1.6-2.3c0-0.9-0.4-1.8-1.2-2.3c-0.7-0.5-1.5-0.5-2.4-0.5h-3.9v9.1h2.1v-3.6h1.6
	l1.4,3.6h2.4L71.5,49.9z M70.4,48.6c-0.4,0.2-0.9,0.2-1.3,0.2h-1.2v-2.3H69c0.4,0,1-0.1,1.4,0.2c0.3,0.2,0.5,0.6,0.5,0.9
	C70.9,47.9,70.7,48.4,70.4,48.6z"/>
<path class="st0" d="M76.7,46.6v1.8h3.5v1.7h-3.5v2h4.4v1.8h-6.6v-9.1h6.6v1.8L76.7,46.6"/>
<path class="st0" d="M88.4,45.9c-1-0.9-2.1-1-3.5-1h-2.7V54h3c1.3,0,2.4-0.3,3.3-1.3c0.8-0.9,1.2-2.1,1.2-3.3
	C89.8,48,89.4,46.8,88.4,45.9z M87.1,51.2c-0.5,0.8-1.1,1-2,1h-0.7v-5.7h0.7c0.8,0,1.3,0.1,1.8,0.7c0.4,0.6,0.7,1.3,0.7,2.1
	C87.6,50,87.4,50.7,87.1,51.2z"/>
<path class="st0" d="M93.3,53.9h-2.1v-9.1h2.1V53.9"/>
<path class="st0" d="M101.2,46.6h-2.3v7.3h-2.1v-7.3h-2.3v-1.8h6.8L101.2,46.6"/>
<path class="st0" d="M113.5,50.3c0,1,0,2-0.7,2.8c-0.7,0.7-1.8,1-2.8,1s-2.1-0.1-2.8-0.8c-0.9-0.8-0.9-1.8-0.9-2.9v-5.5h2.3v5.5
	c0,0.4,0,1,0.2,1.4c0.3,0.5,0.9,0.6,1.4,0.6c0.4,0,1.1-0.1,1.3-0.5c0.3-0.4,0.3-1,0.3-1.5v-5.5h1.8v5.4"/>
<path class="st0" d="M122.2,53.9h-1.8l-3.5-6.1h-0.1v6.1h-1.7v-9.1h2.3l3.1,5.3l0,0v-5.3h1.7V53.9"/>
<path class="st0" d="M126.2,53.9H124v-9.1h2.1L126.2,53.9"/>
<path class="st0" d="M134.5,46.1c-0.7-1-1.7-1.4-2.9-1.4c-2.7,0-3.9,2.2-3.9,4.7c0,1.1,0.3,2.3,1,3.3c0.7,1,1.7,1.4,3,1.4
	s2.3-0.5,3-1.5c0.6-0.9,0.9-2.1,0.9-3.1C135.4,48.3,135.1,47,134.5,46.1z M132.9,51.3c-0.2,0.7-0.6,1-1.4,1c-1.5,0-1.7-1.8-1.7-3
	c0-0.6,0.1-1.3,0.3-1.9c0.3-0.7,0.7-1,1.4-1s1.1,0.3,1.3,0.9c0.3,0.6,0.3,1.4,0.3,2.1C133.2,50,133.1,50.7,132.9,51.3z"/>
<path class="st0" d="M143.9,53.9H142l-3.5-6.1h-0.1v6.1h-1.7v-9.1h2.3l3.1,5.3l0,0v-5.3h1.7L143.9,53.9"/>
<path class="st0" d="M15.4,15.3h-3l-12,24.6H4L7.4,33h12.5l3.3,6.9H27L15.4,15.3z M8.6,30.6L13.7,19h0.1l4.8,11.5h-10V30.6z"/>
<path class="st0" d="M28.4,15.3h3.1L41,29.8l9.4-14.5h3.3v24.6h-3.2V21.8L41,35.3l-9.4-13.5v18.1h-3.3L28.4,15.3"/>
<path class="st0" d="M68.6,15.3H57.2v24.6h3.2v-11h8.9c3.9,0,8.9-1.4,8.9-6.8C78.2,16.9,73.7,15.3,68.6,15.3z M69.3,26.1h-8.9V18
	h8.9c3.2,0,5.5,1.3,5.5,4.1S72.5,26.1,69.3,26.1z"/>
<path class="st0" d="M80.6,15.3h3.2v21.3h15.6v3.3H80.6V15.3"/>
<path class="st0" d="M101.9,15.3h3.2v24.6h-3.2V15.3"/>
<path class="st0" d="M109.1,15.3h18.6v3h-15.4v7.3h9.6v3.3h-9.6v11h-3.2V15.3"/>
<path class="st0" d="M140.8,27.9l-11.6-12.6h5l8.2,9.7l8.5-9.7h4.7L144,27.9v12h-3.2V27.9"/>
<g>
	<path class="st0" d="M54.5,5.7l1.9-2.8c-3.2-1.4-9-2.4-15.6-2.4c-6.1,0-11.4,0.8-14.7,2L28,5.4C31.2,4.5,35.7,4,40.8,4
		C46.2,4,51.2,4.7,54.5,5.7"/>
	<path class="st0" d="M28.7,6.6l2,3.1c2.9-0.5,6.4-0.8,10.1-0.8c4.1,0,7.9,0.4,11,1l2-3c-3.3-0.9-7.9-1.5-13-1.5
		C36.1,5.4,31.9,5.8,28.7,6.6"/>
	<path class="st0" d="M31.6,11.1l2.1,3.2c2.2-0.2,4.6-0.4,7.1-0.4c2.8,0,5.5,0.2,7.9,0.5l2.1-3.2c-2.9-0.5-6.3-0.8-10-0.8
		C37.4,10.4,34.3,10.7,31.6,11.1"/>
	<path class="st0" d="M34.8,16.1l2.2,3.3c1.2-0.1,2.5-0.1,3.8-0.1c1.6,0,3.1,0.1,4.5,0.1l2.2-3.3c-2.1-0.2-4.3-0.3-6.7-0.3
		C38.7,15.8,36.7,15.9,34.8,16.1"/>
	<path class="st0" d="M38.2,21.3l2.2,3.4c0.1,0,0.2,0,0.3,0c0.3,0,0.6,0,1,0l2.3-3.4c-1.1-0.1-2.1-0.1-3.3-0.1
		C39.9,21.2,39,21.2,38.2,21.3"/>
</g>
</svg>
