<?xml version="1.0" encoding="utf-8"?>
<!-- Generator: Adobe Illustrator 24.3.0, SVG Export Plug-In . SVG Version: 6.00 Build 0)  -->
<svg version="1.1" id="WordPress" xmlns="http://www.w3.org/2000/svg" xmlns:xlink="http://www.w3.org/1999/xlink" x="0px" y="0px"
	 viewBox="0 0 145.6 56.7" style="enable-background:new 0 0 145.6 56.7;" xml:space="preserve">
<style type="text/css">
	.st0{fill:#4E5157;}
</style>
<g id="BG">
</g>
<g>
	<path class="st0" d="M62.6,45.4C59.2,43,55,41.9,51.3,42c-3.8,0.2-5.5,2.9-5.5,2.9C44.1,42,40.7,40,35.4,40
		c-8.5,0.1-17,4.1-23.7,4.1c-6.4,0-11.1-4.1-11-11.2c0.5-12.4,11-23.8,19-28.9c4.6-2.9,8.3-3.8,10.9-3.6c1.8,0.2,4.1,2.3,2.6,5.4
		c-2,4.6-4.9,4.2-4.7,2c0.1-1.4,1-2.3,1.7-2.7c0.5-0.3,1.2-0.4,1.6-0.4c0.4-0.3,0.7-2.8-2.5-2c-3.3,0.8-7.2,4.1-11,8.1
		C14.4,15,8.5,22.8,7.1,31C6.5,35,7,41.9,15.9,41.9c7.6-0.1,19-5.1,29.4-5c4.1,0.1,7.5,1.1,10.3,2.8C58.3,41.3,61.5,43.8,62.6,45.4"
		/>
	<path class="st0" d="M59.2,28.8c-1.9,1-1.2-0.8-0.7-1.6c0.7-1.1,9.1-15.2,9.1-15.2h-4.5l-0.5,0.8c0,0-0.9-1.4-2.4-1.3
		c-4.6,0.3-9.9,7.5-12.3,10.7c-2.3,3.2-7.5,9.2-10.2,8.1c-2.9-1.1,0-6.6,1.9-9.8c2-3.5,5.8-6.9,7.2-6.9c1.8-0.1,1.1,1.6,1.1,1.6
		s-1.3-0.2-2.3,1.1c-0.7,0.8-1.2,2.1-0.6,2.8c1,1.1,2.4,0,3.3-1.2c2.5-4,0.7-6-1.3-6.3c-4.3-0.6-8.2,4.9-11.3,6.9
		c-2,1.4-2.9,1.3-2.9,1.3s3.7-7.1-0.7-8.2s-11.6,6.3-14.6,12.3c-1.9,3.8-2.7,8.4,0.6,9.6c3.4,1.1,9-4.9,10.4-6.7
		c1.3-1.8,3.6-5.3,3.6-5.3s0.7-0.1,1.1-0.2c0.5-0.1,1.1-0.3,1.1-0.3s-0.8,1.4-1.5,2.9c-0.8,1.8-3.3,7.7,1.3,9.5
		c4.5,1.6,10.7-5.4,11.1-5.5c0,0-1.9,4.9,1,5.6c3.2,0.8,6.7-3.3,6.7-3.3s-0.7,3,1.7,3.4c4.3,0.4,12.1-11,12.1-11h-1.5
		C65.2,22.6,61.1,27.8,59.2,28.8 M30.2,21.4c-0.1,0.1-1.5,2.5-2.7,4.1c-1.3,1.6-3.7,4.2-5.1,3.7c-2.2-0.8,0.2-5.7,1.8-8
		c1.6-2.3,1.8-2.6,1.9-2.7l0.1-0.1c0.1,0.1,0.6,1.1,1.6,1.8c1,0.7,2.2,1,2.3,1L30.2,21.4 M32.1,17.6c-0.4,1.1-0.8,1.8-0.8,1.9
		c-0.1,0.3-0.5,0.2-0.5,0.2c-0.3,0-3.2-0.6-3-2.8c0-2.1,3-4.3,4.2-3.4C33,14.5,32.5,16.6,32.1,17.6 M53.4,27.5
		c-1,1.1-1.6,1.6-2.2,1.8c-0.3,0.1-0.6,0.1-0.8-0.1c-0.8-0.5-0.2-2.3,1.2-5c1.3-2.3,3.2-4.7,5.4-7.6c2.3-2.8,3.5-3.2,4.2-3.2
		c0.6,0,0.7,0.6,0.7,0.6s-5,8.7-6.8,11.3C54.3,26.3,53.8,27,53.4,27.5"/>
	<path class="st0" d="M75.1,12h-4.3l-2.4,3.9h4.3L75.1,12z"/>
	<path class="st0" d="M138.5,4.8c-3.2,2-7.5,3.9-11.8,3.5c-1.1,1.1-2.2,2.3-3.4,3.8c7.3,1.4,13.7-3.2,17.2-6.9
		c2.1-2.4,3.2-4.6,3.2-4.6S141.6,2.8,138.5,4.8"/>
	<path class="st0" d="M126.6,39.8c-2,1.1-1.3-0.7-0.7-1.6c0.7-1.1,9-15.3,9-15.3h-4.5l-0.7,1.1c0,0-0.9-1.6-2.4-1.6
		c-2.6,0.1-5.4,2-8.4,5.6c-2.2,2.5-6,8.3-6,8.3s-2.8,4.5-4.4,4.1c-2.4-0.6,2-9.9,2-9.9s2.4-1.5,5.5-4.2c1.9-1.6,4.3-3.9,6.3-6
		c1.9-1.9,4.2-4.6,6.3-7.4c-0.6,0.1-1.1,0.2-1.6,0.2c-1.9,2.5-3.9,4.8-5.6,6.6c-2.5,2.6-5,4.9-6.7,6.2c-1.6,1.3-2.7,1.9-2.7,1.9
		s3.2-6.4,8.4-13.6c5.3-7.2,12.5-13.7,12-10.6c-0.2,0.9-0.7,2.2-1.5,3.8c0.6-0.1,1.1-0.3,1.7-0.5c1.2-2.5,1.6-4.8,0.7-5.4
		c-4-2.5-13.7,7.9-18.6,14c-4.9,6-9.3,15.3-9.3,15.3s-0.7,0.3-1.6,0.5c-0.5,0.1-0.7,0.1-0.8,0.1c-0.1,0-0.1-0.1-0.1-0.1s4.3-8-0.1-9
		c-4.3-1-11.6,6.8-14.2,12.3c-1.8,3.8-2.8,8.5,0.3,9.6c3.4,1.2,9-4.9,10.4-6.7c1.3-1.8,2.9-4.7,2.9-4.7s0.8-0.1,1.2-0.1
		c0.8-0.1,1.2-0.2,1.2-0.2s-0.6,1.4-1.1,3.3c-1.1,3.5-2.1,8.3,1.9,8.5c2.5,0.1,6.3-4.5,6.3-4.5s-1,4.1,2.3,4.5c2.4,0.3,6-3.6,6-3.6
		s-0.8,3.3,1.7,3.6c2.1,0.2,5.1-2.2,7.6-5c2.7-2.9,4.8-6.3,4.8-6.3h-1.5C132.5,33.1,129,38.4,126.6,39.8 M100.7,32.7
		c-0.1,0.1-1.2,2.1-2.4,3.7c-1.3,1.6-3.7,4.2-5.1,3.7c-2.2-0.8,0.2-5.7,1.8-8c1.6-2.3,1.8-2.5,1.8-2.5l0.1-0.1
		c0.1,0.1,0.6,1,1.5,1.9c1,0.8,2,1.3,2,1.3C100.7,32.5,100.7,32.5,100.7,32.7 M101.6,31c-0.1,0.2-0.2,0.2-0.5,0.2
		c-0.5-0.2-2.6-1.2-2.6-3.5c0-2.1,3-4.3,4.2-3.4c1.1,0.8,0.6,2.9,0.2,4.1C102.4,29.6,101.8,30.8,101.6,31 M120.6,38.3
		c-1,1.1-1.6,1.6-2.1,1.8c-0.3,0.1-0.6,0.1-0.8-0.1c-0.8-0.5-0.2-2.4,1.2-5.1c1.3-2.4,2.8-4.8,5.3-7.5c2.4-2.7,3.5-2.8,4.2-2.8
		c0.6,0,0.7,0.6,0.7,0.6s-0.1,0.1-0.1,0.3c-0.8,1.4-5,8.5-6.6,10.8C121.5,37.1,121,37.8,120.6,38.3"/>
	<path class="st0" d="M138.5,4.8c-3.2,2-7.5,3.9-11.8,3.5c-1.1,1.1-2.2,2.3-3.4,3.8c7.3,1.4,13.7-3.2,17.2-6.9
		c2.1-2.4,3.2-4.6,3.2-4.6S141.6,2.8,138.5,4.8"/>
	<path class="st0" d="M108.5,0.9c-4-0.3-7.1,1.1-7.1,1.1s-1.2-1.6-5-1.1S81,6.3,71.3,22c-8.8,14.2-4.7,22.4,1.6,22.3
		c6.9-0.1,13.5-7.8,15.6-14.1c2.2-6.3-0.4-8-2.4-7.9c-2.2,0.2-6.2,2.2-8.4,6.6c-2.2,4.4-2.2,7.1-2.2,7.1s1.1-1.2,2.8-2.5
		c1.7-1.3,3-1.8,3-1.8s0.3-1.6,1.1-3.3c0.8-1.6,2-3.4,3.6-3.8c3.2-0.8,1.6,4.9-0.7,8.6c-1.2,2-5.6,7.7-9.3,7.7c-3.8,0-4.5-3.7-3.7-7
		c0.8-3.4,1.9-7.7,7.3-15.5C85.1,10.6,91.1,5.9,94.5,4c3.6-2,5-1.1,5-1.1S95,5.6,92.4,9c-2.4,3.3-3.9,6.8-2.7,8.5
		c1.1,1.6,4.9,1.7,9-4.4c4.2-6,3.2-9.6,3.2-9.6s0.5-0.2,0.8-0.2c2-0.3,3.7,0.3,6.2,1.5c2.6,1.3,5.2,3.6,8.6,5.3
		c1-1.1,2.2-2.3,3.5-3.6C116.6,4.4,113.1,1.1,108.5,0.9 M99.8,9c-1.1,2.8-2.8,4.9-4.6,6.3c-2.2,1.9-3.4,1.9-3.9,1.5
		c-1.3-1,0.5-4.9,3.6-8.3C98.1,5,100.7,4,100.7,4S101.3,5.7,99.8,9"/>
	<path class="st0" d="M5.8,52.9v1.6h4.3V56H4.2v-7.7H10v1.5H5.8v1.6h3.7v1.4L5.8,52.9z"/>
	<path class="st0" d="M14.9,56.2c-2,0-3.4-1.1-3.4-3.5v-4.5h1.8v4.4c0,1.2,0.6,1.9,1.6,1.9s1.6-0.6,1.6-1.8v-4.5h1.7v4.4
		C18.2,55,16.9,56.2,14.9,56.2"/>
	<path class="st0" d="M24.7,53.3c1-0.3,1.6-1.1,1.6-2.4c0-1.6-1.1-2.5-2.9-2.5h-3.6v7.8h1.7v-2.4h1.3l1.6,2.4h2L24.7,53.3z M24.6,51
		c0,0.6-0.5,1.1-1.3,1.1h-1.7v-2.2h1.6C24.1,49.9,24.6,50.3,24.6,51L24.6,51z"/>
	<path class="st0" d="M31.8,48.2c-2.4,0-4.2,1.8-4.2,4.1c0,2.2,1.7,4,4.1,4s4.2-1.8,4.2-4.1C35.8,50,34.1,48.2,31.8,48.2 M34.1,52.2
		c0,1.3-1,2.4-2.3,2.4s-2.3-1.1-2.3-2.4s1-2.4,2.3-2.4S34.1,50.9,34.1,52.2z"/>
	<path class="st0" d="M40.5,48.3h-3.2V56H39v-2.3h1.3c1.7,0,3.2-0.9,3.2-2.7C43.4,49.5,42.3,48.3,40.5,48.3 M41.7,51.1
		c0,0.7-0.5,1.1-1.3,1.1h-1.3v-2.3h1.3C41.2,49.9,41.7,50.3,41.7,51.1L41.7,51.1z"/>
	<path class="st0" d="M46.4,52.9v1.6h4.2V56h-5.8v-7.7h5.8v1.5h-4.2v1.6h3.7v1.4L46.4,52.9z"/>
	<path class="st0" d="M56.3,48.2h-1.5L51.4,56h1.7l0.7-1.7h3.3l0.7,1.7h1.8L56.3,48.2z M54.5,52.8l1-2.5l1,2.5H54.5z"/>
	<path class="st0" d="M67.7,48.3V56h-1.4l-3.8-4.9V56h-1.7v-7.7h1.6l3.7,4.8v-4.8H67.7z"/>
	<path class="st0" d="M76.1,48.3h-3.2V56h1.7v-2.3h1.2c1.7,0,3.2-0.9,3.2-2.7C79,49.5,77.9,48.3,76.1,48.3 M77.3,51.1
		c0,0.7-0.5,1.1-1.3,1.1h-1.3v-2.3H76C76.8,49.9,77.3,50.3,77.3,51.1L77.3,51.1z"/>
	<path class="st0" d="M83.7,48.2h-1.5L78.8,56h1.7l0.7-1.7h3.3l0.7,1.7H87L83.7,48.2z M81.9,52.8l1-2.5l1,2.5H81.9z"/>
	<path class="st0" d="M93,53.3c1-0.3,1.6-1.1,1.6-2.4c0-1.6-1.1-2.5-2.9-2.5h-3.4v7.8H90v-2.4h1.3l1.6,2.4h2L93,53.3z M93,51
		c0,0.6-0.5,1.1-1.3,1.1H90v-2.2h1.6C92.4,49.9,93,50.3,93,51L93,51z"/>
	<path class="st0" d="M99.7,49.9v6.2H98v-6.2h-2.3v-1.5h6.4v1.5H99.7z"/>
	<path class="st0" d="M110.3,48.3V56h-1.4l-3.9-4.9V56h-1.6v-7.7h1.5l3.7,4.8v-4.8H110.3z"/>
	<path class="st0" d="M113.8,52.9v1.6h4.3V56h-5.9v-7.7h5.9v1.5h-4.3v1.6h3.8v1.4L113.8,52.9z"/>
	<path class="st0" d="M124.3,53.3c1-0.3,1.6-1.1,1.6-2.4c0-1.6-1.1-2.5-2.9-2.5h-3.6v7.8h1.7v-2.4h1.3l1.6,2.4h2L124.3,53.3z
		 M124.2,51c0,0.6-0.5,1.1-1.3,1.1h-1.7v-2.2h1.6C123.7,49.9,124.2,50.3,124.2,51L124.2,51z"/>
	<path class="st0" d="M130.3,56.2c-1.1,0-2.3-0.4-3.3-1.2l1-1.2c0.7,0.6,1.4,0.9,2.3,0.9c0.7,0,1.1-0.3,1.1-0.7s-0.3-0.6-1.5-1
		c-1.5-0.4-2.5-0.8-2.5-2.3c0-1.4,1.1-2.3,2.7-2.3c1.1,0,2,0.3,2.8,1l-0.8,1.2c-0.7-0.5-1.4-0.7-2-0.7s-1,0.3-1,0.7
		c0,0.5,0.3,0.7,1.6,1c1.5,0.4,2.4,1,2.4,2.3C133.1,55.3,132,56.2,130.3,56.2"/>
</g>
</svg>
