<?xml version="1.0" encoding="utf-8"?>
<!-- Generator: Adobe Illustrator 24.3.0, SVG Export Plug-In . SVG Version: 6.00 Build 0)  -->
<svg version="1.1" id="WordPress" xmlns="http://www.w3.org/2000/svg" xmlns:xlink="http://www.w3.org/1999/xlink" x="0px" y="0px"
	 viewBox="0 0 155.9 56.7" style="enable-background:new 0 0 155.9 56.7;" xml:space="preserve">
<style type="text/css">
	.st0{fill:#4E5157;}
</style>
<g>
	<g id="BG">
	</g>
	<path class="st0" d="M130.1,9c15.1,2.4,23,13.4,22,23.5c-1.2,13.3-17.9,22.5-37.5,20.8c0.5,0.1,1.1,0.2,1.7,0.2
		c20.2,2.2,38-7,39.2-20.6C156.5,22.6,147.6,11,130.1,9z"/>
	<path class="st0" d="M6.8,44.3c0,0,0.5-3.5,1.2-6.8C8.3,35.8,8.5,34,8.7,33c0.1-0.5,0.1-0.7,0.2-0.9c1,0,6.9,0,6.9,0
		c4.7,0,10.1-2.9,11-8.2s-3.6-8.2-8.3-8.2H6.1H5.3l-3,17.4l-0.7,4.5l-1.2,6.8l-0.2,1.2h6.4C6.7,45.1,6.7,44.7,6.8,44.3z M10.9,20.3
		c0.9,0,6.3,0,6.3,0c1.9,0,3.7,1.1,3.3,3.7c-0.5,2.6-2.6,3.7-4.5,3.7c0,0-5.4,0-6.3,0C9.8,26.7,10.7,21.3,10.9,20.3z"/>
	<path class="st0" d="M122.9,37.7l2-11.8c1.1-6.6-3.1-10.1-9.9-10.1c-3.6,0-6.8,0.7-9.5,2.2c0.5,0.6,0.9,1.3,1.2,2
		c0.3,0.6,0.4,1.2,0.5,1.9c1.9-0.8,4.3-1.5,6.6-1.5c3.9,0,5.3,2,4.8,4.8l-0.4,2l-6,0.5c-5.7,0.5-10.8,3.7-11.8,9.3
		c-0.3,1.4-0.1,2.6,0.3,3.7c0.2,0.5,0.4,1,0.7,1.5c1.4,2.1,3.8,3.4,7.3,3.4c3.3,0,6.4-1,8.6-3.4c0.5,1.6,2,3,4.1,3.4l4.4-3.6
		C123.7,41.8,122.5,40.4,122.9,37.7z M116.7,35.5c-0.5,3.2-4.1,5.7-7,5.7c-2.3,0-3.7-1.8-3.3-4c0.5-2.6,2.5-4.7,5.8-5l5.1-0.4
		L116.7,35.5z"/>
	<path class="st0" d="M97.8,37.7l2-11.8c0.9-5.6-1.9-8.9-6.9-9.9c-0.9-0.2-1.9-0.3-3-0.3c-3.6,0-6.9,0.7-9.6,2.2l0,0
		c0.5,0.6,1,1.3,1.4,2c0.1,0.2,0.2,0.4,0.3,0.6c0.2,0.4,0.3,0.7,0.4,1.1c1.8-0.8,4.1-1.3,6.2-1.3c0.3,0,0.5,0,0.7,0
		c3.4,0.2,4.6,2.1,4.1,4.8l-0.4,2l-6,0.5c-5.7,0.5-10.8,3.7-11.8,9.3c-0.1,0.5-0.1,0.8-0.1,1.3c-0.7,0.5-1.6,1.1-2.6,1.6
		c-0.2,0.1-0.5,0.3-0.6,0.4c-0.2,0.1-0.5,0.1-0.6,0.2c-1.5,0.4-3,0.6-4.7,0.6c-0.3,0-0.5,0-0.7,0c-6-0.4-8.2-5-7.8-8.9h0.1V32h0.1
		h3.6h9.6h2.6c1.3-1.7,3-3.1,5-3.9c0.1-0.5,0.2-1,0.3-1.5c0.3-1.7,0.2-3.4-0.5-4.9c-0.5-1.1-1.1-2.1-1.9-3c-1.8-1.8-4.6-3-8.4-3
		c-6.4,0-13.5,4.4-16.2,11.9h-1.8l2-11.9h-6.4c0,0-1.8,10.8-2,11.9c-1.4,0-8.9,0-10.3,0c0.2-1.1,2-11.9,2-11.9h-6.5L25,41.4
		l-0.7,4.2h6.5c0.1-0.5,0.2-1.1,0.3-1.6c0,0,1.8-10.6,2-11.8c1.4,0,8.9,0,10.3,0c-0.1,0.7-1,5.9-1.6,9.2c0,0-0.4,1.9-0.7,4.2h6.4
		l0.3-1.6l2-11.7h1.6C50.6,40.6,56.5,46,64.7,46c3.9,0,6.7-0.6,8.8-1.6l0,0h0.1c0,0,0,0,0.1,0l0,0c0.5-0.3,1-0.5,1.5-0.8
		s0.8-0.5,1.2-0.7c0.1,0.2,0.2,0.4,0.4,0.5c0.5,0.6,1.2,1.2,2,1.6c1.3,0.7,2.9,1.1,4.8,1.1c2.6,0,5.1-0.6,7.1-2.1
		c0.5-0.4,1-0.7,1.5-1.3c0.2,0.8,0.7,1.6,1.5,2.2c0.7,0.5,1.6,1,2.6,1.2l4.4-3.6C98.6,41.8,97.4,40.5,97.8,37.7z M66.5,20.5
		c0.5-0.2,1.1-0.2,1.6-0.2c1.6,0,2.6,0.6,3.5,1.6c1.1,1.3,1.6,3.1,1.3,4.8c0,0.3-0.1,0.7-0.3,1h-3.1H59.3H59
		C60.3,24.1,63.4,21.2,66.5,20.5z M91.6,35.6c-0.5,3.2-4.1,5.8-7,5.8c-1,0-1.8-0.4-2.4-1c-0.7-0.7-1.1-1.8-0.8-3
		c0.5-2.6,2.5-4.7,5.8-5l2-0.2l3.1-0.3L91.6,35.6z"/>
	<path class="st0" d="M149.7,12.9c0-0.2-0.1-0.4-0.3-0.4s-0.4,0.1-0.4,0.4c0,0.5,1,0.3,1,1c0,0.5-0.4,0.6-0.6,0.6
		c-0.5,0-0.6-0.3-0.6-0.6h0.3c0,0.3,0,0.5,0.4,0.5c0.2,0,0.4-0.2,0.4-0.4c0-0.5-1-0.3-1-1c0-0.2,0.1-0.5,0.6-0.5
		c0.4,0,0.5,0.2,0.5,0.5L149.7,12.9L149.7,12.9z"/>
	<path class="st0" d="M150.2,12.5h0.5l0.4,1.6l0,0l0.4-1.6h0.5v2h-0.2v-1.8l0,0l-0.5,1.8H151l-0.5-1.8l0,0v1.8h-0.3L150.2,12.5
		L150.2,12.5z"/>
	<path class="st0" d="M130.5,16.3c0.2-0.1,3.5-1.3,8.6-3c-1.7-1.2-4.5-2.6-9-4.3c4.7,0.5,8.7,1.7,12,3.4c4.4-1.5,8.5-2.8,8.9-3
		c1.1-0.4,1.1-0.8,0-1.1c-5.2-1.7-20.4-6.8-21.3-7.1c-0.9-0.3-1.2-0.3-2.2,0c-1,0.4-20.6,6.9-21.4,7.2c-0.9,0.3-0.9,0.6,0,1
		c0.7,0.3,19.3,6.5,20.8,7C128.7,16.8,128.8,16.8,130.5,16.3z"/>
	<path class="st0" d="M139.8,13.6c7.5,6.2,7.8,14.4,6.4,19.8c-3.6,12.7-18.5,19.7-38,16.8c0.5,0.1,1.1,0.2,1.6,0.3
		c20.1,3.5,37.8-4.6,40-17.8C151.2,24.4,144.8,16.2,139.8,13.6z"/>
</g>
</svg>
