<?xml version="1.0" encoding="utf-8"?>
<!-- Generator: Adobe Illustrator 24.3.0, SVG Export Plug-In . SVG Version: 6.00 Build 0)  -->
<svg version="1.1" id="WordPress" xmlns="http://www.w3.org/2000/svg" xmlns:xlink="http://www.w3.org/1999/xlink" x="0px" y="0px"
	 viewBox="0 0 190.7 51.3" style="enable-background:new 0 0 190.7 51.3;" xml:space="preserve">
<style type="text/css">
	.st0{fill:#4E5157;}
</style>
<path class="st0" d="M85.9,18.9h-9.8v1c3.1,0,3.6,0.7,3.6,4.6v7c0,3.9-0.5,4.6-3.6,4.6c-2.4-0.3-4-1.6-6.2-4l-2.5-2.7
	c3.4-0.6,5.2-2.7,5.2-5.2c0-3-2.6-5.3-7.4-5.3h-9.7v1c3.1,0,3.6,0.7,3.6,4.6v7c0,3.9-0.5,4.6-3.6,4.6v1h10.9v-1
	c-3.1,0-3.6-0.7-3.6-4.6v-2h0.9l6.1,7.6h16c7.9,0,11.3-4.2,11.3-9.2C97.2,23,93.8,18.9,85.9,18.9z M62.9,27.9v-7.3h2.3
	c2.5,0,3.6,1.7,3.6,3.7c0,1.9-1.1,3.6-3.6,3.6H62.9z M86.1,35.5h-0.4c-2,0-2.3-0.5-2.3-3V20.6c0,0,2.4,0,2.6,0
	c5.7,0,6.8,4.2,6.8,7.4C92.8,31.3,91.8,35.5,86.1,35.5z"/>
<path class="st0" d="M25,29.9l3.8-11.2c1.1-3.2,0.6-4.2-2.9-4.2v-1.1h10.3v1.1c-3.5,0-4.3,0.8-5.7,4.8l-6.3,18.8h-0.7l-5.6-17.2
	l-5.7,17.2h-0.7L5.4,19.4c-1.3-4-2.2-4.8-5.4-4.8v-1.1h12.2v1.1c-3.2,0-4.1,0.8-3,4.2L12.9,30l5.5-16.5h1L25,29.9z"/>
<path class="st0" d="M43.6,37.9c-6,0-11-4.4-11-9.9c0-5.4,4.9-9.8,11-9.8c6,0,11,4.4,11,9.8C54.6,33.5,49.7,37.9,43.6,37.9z
	 M43.6,19.9c-5.1,0-6.8,4.6-6.8,8.1c0,3.6,1.8,8.1,6.8,8.1c5.1,0,6.9-4.5,6.9-8.1C50.5,24.5,48.8,19.9,43.6,19.9z"/>
<path class="st0" d="M110.7,36.1v1.1H98.1v-1.1c3.7,0,4.3-0.9,4.3-6.4v-8.8c0-5.5-0.7-6.4-4.3-6.4v-1.1h11.4c5.7,0,8.8,2.9,8.8,6.8
	c0,3.8-3.1,6.8-8.8,6.8h-3.1v2.7C106.4,35.2,107.1,36.1,110.7,36.1z M109.5,15.4h-3.1V25h3.1c3.1,0,4.5-2.1,4.5-4.7
	C114,17.6,112.6,15.4,109.5,15.4z"/>
<path class="st0" d="M156.1,32l-0.3,1c-0.5,1.8-1.1,2.5-5,2.5H150c-2.9,0-3.3-0.7-3.3-4.6v-2.5c4.3,0,4.6,0.4,4.6,3.2h1v-8.2h-1
	c0,2.9-0.3,3.2-4.6,3.2v-6.1h3c3.9,0,4.5,0.7,5,2.5l0.3,1h0.9l-0.4-5.2h-16.1v1c3.1,0,3.6,0.7,3.6,4.6v7c0,3.6-0.4,4.5-2.8,4.6
	c-2.3-0.4-3.9-1.6-6.1-4l-2.5-2.7c3.4-0.6,5.2-2.7,5.2-5.2c0-3-2.6-5.3-7.4-5.3h-9.7v1c3.1,0,3.6,0.7,3.6,4.6v7
	c0,3.9-0.5,4.6-3.6,4.6v1h10.9v-1c-3.1,0-3.6-0.7-3.6-4.6v-2h0.9L134,37h22.6l0.3-5.2h-0.8V32z M126.9,27.9v-7.3h2.3
	c2.5,0,3.6,1.7,3.6,3.7c0,1.9-1.1,3.6-3.6,3.6H126.9z"/>
<path class="st0" d="M167.2,37.9c-2.2,0-4.1-1.2-4.9-1.9c-0.3,0.3-0.8,1.1-0.9,1.9h-1v-7.6h1.1c0.4,3.6,3,5.8,6.2,5.8
	c1.8,0,3.2-1,3.2-2.6c0-1.4-1.3-2.5-3.5-3.6l-3.1-1.5c-2.2-1-3.8-2.9-3.8-5.3c0-2.6,2.5-4.9,5.9-4.9c1.8,0,3.3,0.7,4.3,1.4
	c0.3-0.2,0.5-0.8,0.7-1.5h1v6.5h-1.2c-0.4-2.6-1.8-4.7-4.7-4.7c-1.5,0-3,0.9-3,2.3s1.2,2.2,3.8,3.4l3,1.5c2.6,1.3,3.7,3.3,3.7,4.9
	C173.9,35.5,170.9,37.9,167.2,37.9z"/>
<path class="st0" d="M183.8,37.9c-2.2,0-4.1-1.2-4.9-1.9c-0.3,0.3-0.8,1.1-0.9,1.9h-1v-7.6h1.1c0.4,3.6,3,5.8,6.2,5.8
	c1.8,0,3.2-1,3.2-2.6c0-1.4-1.3-2.5-3.5-3.6l-3.1-1.5c-2.2-1-3.8-2.9-3.8-5.3c0-2.6,2.5-4.9,5.9-4.9c1.8,0,3.3,0.7,4.3,1.4
	c0.3-0.2,0.5-0.8,0.7-1.5h1v6.5h-1.2c-0.4-2.6-1.8-4.7-4.7-4.7c-1.5,0-3,0.9-3,2.3s1.2,2.2,3.8,3.4l3,1.5c2.6,1.3,3.7,3.3,3.7,4.9
	C190.5,35.5,187.5,37.9,183.8,37.9z"/>
</svg>
