<?xml version="1.0" encoding="utf-8"?>
<!-- Generator: Adobe Illustrator 24.3.0, SVG Export Plug-In . SVG Version: 6.00 Build 0)  -->
<svg version="1.1" id="WordPress" xmlns="http://www.w3.org/2000/svg" xmlns:xlink="http://www.w3.org/1999/xlink" x="0px" y="0px"
	 viewBox="0 0 55 55" style="enable-background:new 0 0 55 55;" xml:space="preserve">
<style type="text/css">
	.st0{fill:#2C2945;}
	.st1{fill:#F9B28F;}
	.st2{fill:#E95F33;}
	.st3{fill:#FAD8B4;}
	.st4{fill:#3793B5;}
	.st5{fill:#F2A381;}
	.st6{fill:#FEB01B;}
	.st7{fill:#CD7659;}
	.st8{fill:#BF674F;}
</style>
<g>
	<g>
		<path d="M18.7,53.2c0.1-1.4,0.2-2.9,0.2-4.3c0-0.4-0.6-0.4-0.6,0c-0.1,1.4-0.2,2.9-0.2,4.3C18,53.6,18.6,53.6,18.7,53.2L18.7,53.2
			z"/>
		<path d="M36.8,53.2c-0.1-1.4-0.1-2.9-0.2-4.3c0-0.4-0.6-0.4-0.6,0c0.1,1.4,0.1,2.9,0.2,4.3C36.2,53.6,36.8,53.6,36.8,53.2
			L36.8,53.2z"/>
		<g>
			<path class="st0" d="M25.5,45.5l0.3,9c1.1,0.1,2.3,0.1,3.6,0l0.3-8.8C28.3,45.8,26.9,45.7,25.5,45.5z"/>
			<path class="st1" d="M34,39.6c-0.2-0.1-0.5-0.1-0.7-0.2c-0.4-0.1-0.9-0.1-1.3-0.1l-8.3,0.1c0,0-0.6,0-1.4,0.2
				c-0.3,0.1-0.6,0.1-0.9,0.2c1.1,2.6,4.2,4.9,4.2,4.9l0,0.8c1.3,0.2,2.8,0.3,4.2,0.3l0-1C29.8,44.7,32.9,42.3,34,39.6z"/>
			<path class="st2" d="M25.6,48c-3.5-0.3-6.8-1.6-9.4-4c-0.1,0.3-0.1,0.6-0.2,1c-0.1,0.6-0.2,1.2-0.3,1.8c2.9,2,6.4,2.8,9.9,2.8
				L25.6,48z"/>
			<path class="st3" d="M25.7,51.4l-0.1-1.8c-3.5,0-7-0.8-9.9-2.8c-0.1,0.6-0.2,1.1-0.3,1.7c0,0.3-0.1,0.5-0.1,0.8
				C18.5,50.8,22.2,51.5,25.7,51.4z"/>
			<path class="st4" d="M15.4,49.2c-0.2,1.6-0.4,2.7-0.4,2.7s4.6,2.1,10.9,2.5l-0.1-3.1C22.2,51.5,18.5,50.8,15.4,49.2z"/>
			<path class="st4" d="M25.5,44.7c0,0-3-2.3-4.2-4.9c-1.1,0.3-2.4,0.7-3.5,1.4c-0.8,0.6-1.5,1.3-1.6,2.3c0,0.2-0.1,0.3-0.1,0.5
				c2.6,2.3,6,3.7,9.4,4L25.5,44.7z"/>
			<path class="st4" d="M29.6,51l-0.1,3.6c3.4-0.1,7-0.9,10.6-2.7L39.5,48C36.4,49.9,33.1,51,29.6,51z"/>
			<path class="st3" d="M39.1,45.8c-2.9,1.9-6.3,3-9.5,3.7L29.6,51c3.5,0,6.9-1.1,9.9-2.9l0,0L39.1,45.8z"/>
			<path class="st2" d="M39,44.7l-0.1-0.9c-2.5,2.4-5.8,3.7-9.2,4.3l-0.1,1.5c3.3-0.7,6.7-1.8,9.5-3.7L39,44.7z"/>
			<path class="st4" d="M38.8,43.4c0,0-0.5-1.2-1.8-2.3c-0.7-0.6-1.7-1.1-3-1.4c-1.1,2.7-4.2,5.1-4.2,5.1l-0.1,3.4
				c3.4-0.6,6.7-1.9,9.2-4.3L38.8,43.4z"/>
		</g>
		<path class="st5" d="M18.8,23.3c0,1.8-1.4,3.3-3.1,3.3c-1.7,0-3.1-1.4-3.1-3.2c0-1.8,1.4-3.3,3.1-3.3
			C17.4,20.1,18.8,21.6,18.8,23.3z"/>
		<path class="st5" d="M42.4,23.3c0,1.8-1.4,3.3-3.1,3.3c-1.7,0-3.1-1.4-3.1-3.2c0-1.8,1.4-3.3,3.1-3.3C41,20,42.4,21.5,42.4,23.3z"
			/>
		<path class="st1" d="M23.6,39.4c0,0,1.1,1.3,4,1.3c2.9,0,4.3-1.4,4.3-1.4s-1-1-1.7-2.6c-1.7,0.8-3.6,1.2-5.5,1.3
			C24.4,38.6,24.1,39,23.6,39.4z"/>
		<path class="st5" d="M25.6,34.6c0,0-0.1,1.9-0.9,3.4c1.9-0.1,3.8-0.5,5.5-1.3c-0.3-0.6-0.5-1.4-0.6-2.2
			C29.7,34.5,27.3,35.1,25.6,34.6z"/>
		<g>
			<path d="M13.5,23.6c0.3,0.1,0.6-0.4,0.8-0.5c0.3-0.2,0.7-0.2,1-0.1c0.3,0.2,0.4,0.5,0.7,0.7c0.2,0.2,0.5,0.1,0.5-0.1
				c0.1-0.8-0.8-1.5-1.5-1.5c-0.8,0-1.5,0.5-1.5,1.3c0-0.1,0.1-0.1,0.1-0.2c0,0,0,0,0,0C13.3,23.3,13.3,23.5,13.5,23.6L13.5,23.6z"
				/>
			<path d="M14.6,24.4c0.3-0.1,0.5-0.2,0.7-0.3c0.2-0.1,0.5-0.1,0.8-0.1c0.5,0,0.5-0.8,0-0.8c-0.4,0-0.8,0-1.1,0.2
				c-0.2,0.1-0.3,0.2-0.4,0.4c-0.1,0.1-0.1,0.1-0.1,0.2c0,0,0,0.1,0,0.1c0,0.1,0,0.1,0,0C14.3,24.2,14.5,24.4,14.6,24.4L14.6,24.4z"
				/>
		</g>
		<g>
			<path d="M41.3,23.1C41.3,23.1,41.3,23.1,41.3,23.1c0,0.1,0.1,0.1,0.1,0.2c0-0.8-0.8-1.3-1.6-1.3c-0.7,0-1.7,0.7-1.5,1.5
				c0,0.2,0.4,0.3,0.5,0.1c0.4-0.4,0.5-0.8,1.1-0.8c0.5,0,0.8,0.3,1.1,0.6c0,0,0.1,0.1,0.2,0c0,0,0,0,0,0
				C41.5,23.4,41.5,23.2,41.3,23.1L41.3,23.1z"/>
			<path d="M40.4,24C40.4,24.1,40.4,24.1,40.4,24c0,0,0-0.1,0-0.1c0-0.1,0-0.1-0.1-0.2c-0.1-0.2-0.3-0.3-0.5-0.4
				c-0.3-0.2-0.7-0.2-1.1-0.2c-0.5,0-0.5,0.8,0,0.8c0.3,0,0.5-0.1,0.8,0.1c0.2,0.1,0.5,0.2,0.7,0.3C40.3,24.3,40.5,24.2,40.4,24
				L40.4,24z"/>
		</g>
		<path d="M18.7,53.2c0.1-1.4,0.2-2.9,0.2-4.3c0-0.4-0.6-0.4-0.6,0c-0.1,1.4-0.2,2.9-0.2,4.3C18,53.6,18.6,53.6,18.7,53.2L18.7,53.2
			z"/>
		<path d="M36.8,53.2c-0.1-1.4-0.1-2.9-0.2-4.3c0-0.4-0.6-0.4-0.6,0c0.1,1.4,0.1,2.9,0.2,4.3C36.2,53.6,36.8,53.6,36.8,53.2
			L36.8,53.2z"/>
		<g>
			<path class="st1" d="M38.6,22.1c-0.1-6.7-2.2-13.8-11.3-13.7c-8,0-11,6.9-11.2,13.6c0,0.2,0,0.3,0,0.5c0,5,2.7,9.3,6.6,11.2
				c6.1,0.2,11.7-3.1,15.4-7.9c0.3-1.1,0.4-2.2,0.4-3.4C38.6,22.3,38.6,22.2,38.6,22.1z"/>
			<path class="st5" d="M22.8,33.7c1.4,0.7,3,1.1,4.6,1.1c5.1,0,9.4-3.8,10.8-9C34.5,30.5,28.9,33.8,22.8,33.7z"/>
		</g>
		<path d="M23.3,22.6c0,0.5-0.3,0.9-0.7,0.9c-0.4,0-0.7-0.4-0.7-0.9c0-0.5,0.3-0.9,0.7-0.9C23,21.7,23.3,22.1,23.3,22.6z"/>
		<path d="M34,22.6c0,0.5-0.3,0.9-0.7,0.9s-0.7-0.4-0.7-0.9c0-0.5,0.3-0.9,0.7-0.9S34,22.1,34,22.6z"/>
		<path class="st6" d="M18.9,14.6c0-0.2,0.1-0.4,0.1-0.5c0,0-0.1,0-0.1,0C18.8,14.2,18.9,14.4,18.9,14.6z"/>
		<path class="st6" d="M18.8,14.1C18.8,14.1,18.8,14.1,18.8,14.1C18.8,14,18.8,13.9,18.8,14.1z"/>
		<path d="M26.9,27c-0.3,0.3,0,1,0.2,1.3c0.3,0.4,0.9,0.5,1.4,0.4c0.5,0,0.5-0.8,0-0.8c-0.3,0-0.7,0.1-0.9-0.2
			c-0.2-0.2-0.2-0.6-0.5-0.8C27,26.9,26.9,26.9,26.9,27L26.9,27z"/>
		<path d="M28.9,26.6c0.7-0.4,2.3-2.6,0.8-3.1c-1.1-0.3-1.7,1.6-2.2-0.5c-0.3-1.1-0.1-3.5,0.2-4.6c0.1-0.2-0.2-0.5-0.4-0.4
			c-0.5,0.2-0.5,1.1-0.5,1.5c-0.1,1.4-0.3,3.2,0,4.6c0.1,0.5,0.3,1.1,0.9,1.1c0.3,0,0.5-0.2,0.7-0.3c0.4-0.2,0.4-0.5,0.8-0.1
			c0.4,0.4-0.2,1.1-0.6,1.5C28.5,26.5,28.7,26.7,28.9,26.6L28.9,26.6z"/>
		<path class="st7" d="M18.6,20.1c0,0,2.3-3,4.1-3.4c0.9-0.3,1,0.3,0.9,0.5c0,0,0.4,0.5-0.2,0.9c0,0-0.2,0.5-1,0.6
			C21.6,19,18.2,20.9,18.6,20.1z"/>
		<path class="st7" d="M36.5,20.1c0,0-2.3-3-4.1-3.4c-0.9-0.3-1,0.3-0.9,0.5c0,0-0.4,0.5,0.2,0.9c0,0,0.2,0.5,1,0.6
			C33.5,19,36.9,20.9,36.5,20.1z"/>
	</g>
	<path class="st7" d="M22.1,11c6.7,1.1,13.4,0.4,19.4-1.9c-0.4-0.6-1.3-0.7-1.3-0.7c0.7-1.5,1-3.5-1.3-2.8
		c-2.2,0.6-4.1,0.1-10.1-0.6s-8.3,3.5-8.3,3.5s-0.2-3.8-1.1-3.2c-1,0.6,0.4,3.2,0.4,3.2s-1.3-2.5-1.6-1.9s1,2.2,1,2.2
		c-3.8-0.1-5.7,2.9-5.8,5.7c-0.1,2.8,2.2,5.8,2.2,5.8h0.6C18.2,19.8,22,12,22,12c0.1,0,0.2,0.1,0.3,0.1C22.3,11.7,22.3,11.4,22.1,11
		z"/>
	<path class="st8" d="M41.5,9.1c-6,2.3-12.7,2.9-19.4,1.9c0.2,0.4,0.2,0.8,0.1,1.1c10.1,4.3,14,2.5,14,2.5c0,2.3,2.5,5.7,2.5,5.7
		c0.1-0.3,1.8,0,1.8,0c-0.2-0.1,0.4-6.2,1.1-7.6c0.7-1.4-0.1-2.6-0.1-2.6C41.7,9.7,41.7,9.4,41.5,9.1z"/>
	<path class="st2" d="M24.8,37.8c0,0-2.9,0.9-3.6,1.6c-0.7,0.7,0.5,4.6,4.4,6.3c0,0,0.7-0.2-0.7-2.3c-1.4-2.1-2.2-3.1-1.3-4
		C24.6,38.6,24.5,38.5,24.8,37.8z"/>
	<path class="st2" d="M30.6,37.5c0,0,3.3,1,3.9,1.7c0.6,0.7-0.7,5-4.8,6.5c0,0-0.7-0.6,1.3-2.7c1.5-1.8,1.5-3.1,0.7-3.9
		C30.8,38.3,30.8,38.1,30.6,37.5z"/>
</g>
</svg>
