<?xml version="1.0" encoding="utf-8"?>
<!-- Generator: Adobe Illustrator 24.3.0, SVG Export Plug-In . SVG Version: 6.00 Build 0)  -->
<svg version="1.1" id="WordPress" xmlns="http://www.w3.org/2000/svg" xmlns:xlink="http://www.w3.org/1999/xlink" x="0px" y="0px"
	 viewBox="0 0 55 55" style="enable-background:new 0 0 55 55;" xml:space="preserve">
<style type="text/css">
	.st0{fill:#E95F33;}
	.st1{fill:#F9B28F;}
	.st2{fill:#3793B5;}
	.st3{fill:#F2A381;}
	.st4{fill:#FEB01B;}
	.st5{fill:#FAD8B4;}
	.st6{fill:#FCD0A7;}
	.st7{fill:#D67B63;}
</style>
<g>
	<path d="M19.7,53.2c0.1-1.5,0.2-2.9,0.2-4.4c0-0.2-0.3-0.2-0.3,0c-0.1,1.5-0.2,2.9-0.2,4.4C19.4,53.4,19.7,53.4,19.7,53.2
		L19.7,53.2z"/>
	<path d="M38.2,53.2c-0.1-1.5-0.1-2.9-0.2-4.4c0-0.2-0.3-0.2-0.3,0c0.1,1.5,0.1,2.9,0.2,4.4C37.9,53.4,38.2,53.4,38.2,53.2
		L38.2,53.2z"/>
	<g>
		<path class="st0" d="M29.1,41.7c3.2,0,5-1.2,5.9-2.4c-0.1,0-0.2,0-0.2,0c-0.4-0.1-0.8-0.1-1.2-0.1c0,0-0.1,0-0.1,0l-8.4,0.1
			c0,0-0.4,0-0.9,0.1c-0.1,0-0.3,0-0.4,0.1c-0.3,0-0.6,0.1-0.9,0.2C23.3,40.3,25,41.7,29.1,41.7z"/>
		<g>
			<path class="st1" d="M16.5,49.4c-0.2,1.5-0.4,2.6-0.4,2.6s1.3,0.6,3.4,1.2l0.2-2.6C19.7,50.6,18.1,50.5,16.5,49.4z"/>
			<path class="st2" d="M41.3,49.5l0-0.2L41,48l-0.5-3.4l-0.2-1.4c0,0-0.5-1.2-1.8-2.3c-0.8-0.7-2-1.3-3.6-1.6
				c-0.9,1.2-2.7,2.4-5.9,2.4c-4.1,0-5.8-1.4-6.4-2.1c-1.1,0.3-2.5,0.7-3.6,1.4c-0.8,0.6-1.5,1.3-1.7,2.3c-0.1,0.5-0.2,1-0.2,1.5
				c-0.2,1.2-0.4,2.4-0.6,3.5c0,0.3-0.1,0.6-0.1,0.9c0,0.1,0,0.1,0,0.1c1.6,1,3.3,1.2,3.3,1.2l-0.2,2.6c0.1,0,0.1,0,0.2,0.1
				c4.1,1.2,11.1,2.4,18.2,0.1c0.1,0,0.2-0.1,0.3-0.1L38,50.6C38,50.6,39.6,50.5,41.3,49.5z"/>
			<path class="st1" d="M41.3,49.5c-1.6,1-3.2,1.2-3.2,1.2l0.2,2.7c1.1-0.4,2.3-0.8,3.4-1.4L41.3,49.5z"/>
		</g>
	</g>
	<path class="st3" d="M20,22.9c0,1.8-1.4,3.3-3.2,3.3c-1.7,0-3.2-1.5-3.2-3.3c0-1.8,1.4-3.3,3.2-3.3C18.6,19.6,20,21,20,22.9z"/>
	<path class="st3" d="M44,22.8c0,1.8-1.4,3.3-3.2,3.3c-1.7,0-3.2-1.5-3.2-3.3c0-1.8,1.4-3.3,3.2-3.3C42.6,19.5,44,21,44,22.8z"/>
	<path class="st1" d="M24.9,39.2c0,0,1.1,1.4,4.1,1.3s4.3-1.4,4.3-1.4s-1.1-1-1.8-2.6c-1.7,0.8-3.7,1.2-5.6,1.3
		C25.8,38.3,25.4,38.8,24.9,39.2z"/>
	<path class="st3" d="M26.6,34c0,0,0.2,2.2-0.6,3.8c1.9-0.1,3.9-0.5,5.6-1.3c-0.3-0.7-0.5-1.4-0.6-2.3C31.1,34.2,28.4,34.5,26.6,34z
		"/>
	<g>
		<path d="M14.6,23C14.6,23,14.6,23,14.6,23c0.1,0,0.1,0,0.1,0c0.3-0.4,0.6-0.7,1.2-0.7c0.6-0.1,1,0.4,1.3,0.9
			c0.1,0.1,0.3,0.1,0.3-0.1c0-0.7-0.8-1.2-1.4-1.2c-0.4,0-0.8,0.1-1.1,0.4c-0.1,0.1-0.5,0.7-0.4,0.7C14.5,22.8,14.5,23,14.6,23
			L14.6,23z"/>
		<path d="M15.7,23.8c0.2-0.1,0.5-0.3,0.7-0.4c0.2-0.1,0.5-0.1,0.8-0.1c0.3,0,0.3-0.4,0-0.4c-0.3,0-0.6,0-0.9,0.1
			c-0.2,0.1-0.3,0.2-0.4,0.3c-0.1,0.1-0.1,0.2-0.2,0.3C15.6,23.7,15.7,23.8,15.7,23.8L15.7,23.8z"/>
	</g>
	<g>
		<path d="M42.9,22.7c0.1,0-0.3-0.6-0.4-0.7c-0.3-0.2-0.7-0.4-1.1-0.4c-0.7,0-1.4,0.5-1.4,1.2c0,0.2,0.2,0.2,0.3,0.1
			c0.3-0.5,0.6-0.9,1.3-0.9c0.5,0,0.9,0.3,1.2,0.7c0,0,0.1,0.1,0.1,0c0,0,0,0,0,0C43,22.9,43,22.7,42.9,22.7L42.9,22.7z"/>
		<path d="M41.9,23.6c-0.1-0.1-0.1-0.2-0.2-0.3c-0.1-0.1-0.3-0.2-0.4-0.3c-0.3-0.2-0.6-0.1-0.9-0.1c-0.3,0-0.3,0.4,0,0.4
			c0.3,0,0.6-0.1,0.8,0.1c0.2,0.1,0.4,0.3,0.7,0.4C41.9,23.8,41.9,23.7,41.9,23.6L41.9,23.6z"/>
	</g>
	<path d="M19.7,53.2c0.1-1.5,0.2-2.9,0.2-4.4c0-0.2-0.3-0.2-0.3,0c-0.1,1.5-0.2,2.9-0.2,4.4C19.4,53.4,19.7,53.4,19.7,53.2
		L19.7,53.2z"/>
	<path d="M38.2,53.2c-0.1-1.5-0.1-2.9-0.2-4.4c0-0.2-0.3-0.2-0.3,0c0.1,1.5,0.1,2.9,0.2,4.4C37.9,53.4,38.2,53.4,38.2,53.2
		L38.2,53.2z"/>
	<g>
		<path class="st1" d="M40.2,21.6c-0.1-6-1.8-12.3-8.5-13.7c-1.8,7-6.9,13.1-14.3,13.7c0,0.1,0,0.2,0,0.4c0,5.1,2.8,9.4,6.7,11.4
			c6.2,0.2,11.9-3.2,15.7-8c0.3-1.1,0.4-2.3,0.4-3.4C40.2,21.8,40.2,21.7,40.2,21.6z"/>
		<path class="st3" d="M31.7,7.9c-0.9-0.2-1.9-0.3-3-0.3c-8.1,0-11.2,7.1-11.4,13.8c0,0.1,0,0.1,0,0.2C24.8,21,29.9,15,31.7,7.9z"/>
		<path class="st3" d="M24.1,33.4c1.4,0.7,3,1.1,4.7,1.1c5.2,0,9.6-3.9,10.9-9.1C36,30.2,30.3,33.5,24.1,33.4z"/>
	</g>
	<path d="M24.6,22.1c0,0.5-0.3,0.9-0.7,0.9c-0.4,0-0.7-0.4-0.7-0.9c0-0.5,0.3-0.9,0.7-0.9C24.3,21.2,24.6,21.6,24.6,22.1z"/>
	<path d="M35.4,22.1c0,0.5-0.3,0.9-0.7,0.9s-0.7-0.4-0.7-0.9c0-0.5,0.3-0.9,0.7-0.9S35.4,21.6,35.4,22.1z"/>
	<path class="st4" d="M20.1,13.9c0-0.2,0.1-0.4,0.1-0.5c0,0-0.1,0-0.1,0C20.1,13.6,20.1,13.7,20.1,13.9z"/>
	<path class="st4" d="M20,13.4C20,13.4,20,13.4,20,13.4C20,13.3,20,13.3,20,13.4z"/>
	<path d="M28.3,26.7c-0.1,0.4,0.2,1,0.5,1.2c0.3,0.2,1,0.4,1.3,0.2c0.1-0.1,0.1-0.2,0-0.3c-0.3-0.2-0.7,0-1-0.2
		c-0.3-0.2-0.4-0.7-0.6-1C28.4,26.6,28.3,26.6,28.3,26.7L28.3,26.7z"/>
	<path d="M30.3,26.1c0.6-0.4,2.2-2.4,0.8-2.8c-1.1-0.4-1.4,1.9-2.4-0.2c-0.3-0.5,0-1.7,0-2.3c0-0.7-0.1-2.3,0.3-2.9
		c0.1-0.1-0.1-0.3-0.2-0.2c-0.4,0.3-0.4,1.5-0.4,1.9c-0.1,1.2-0.3,2.9,0.1,4.1c0.1,0.5,0.2,0.9,0.8,1c0.3,0,0.5-0.3,0.8-0.4
		c0.4-0.5,0.8-0.3,1.1,0.5c-0.2,0.5-0.5,0.9-0.9,1.3C30,26,30.2,26.2,30.3,26.1L30.3,26.1z"/>
	<path class="st3" d="M25.4,26.6c-0.2,0.8-1.5,1.2-2.9,0.8c-1.4-0.3-2.4-1.2-2.2-2c0.2-0.8,1.5-1.2,2.9-0.8
		C24.6,24.9,25.6,25.8,25.4,26.6z"/>
	<path class="st3" d="M37,24.5c0.4,0.7-0.3,1.9-1.5,2.6c-1.3,0.7-2.6,0.8-3,0.1c-0.4-0.7,0.3-1.9,1.5-2.6
		C35.3,23.8,36.6,23.8,37,24.5z"/>
	<path d="M21.3,20.3c0.1,0,1-1.1,1.2-1.3c0.6-0.5,1.3-0.9,2-1.3c0.1-0.1,0-0.3-0.1-0.2c-0.7,0.3-1.4,0.7-1.9,1.2
		c-0.5,0.4-1,1-1.2,1.6c0,0.1,0,0.2,0.1,0.1c0,0,0,0,0,0C21.3,20.4,21.3,20.3,21.3,20.3L21.3,20.3z"/>
	<path d="M33.5,17.1C33.5,17.1,33.5,17.1,33.5,17.1c0.2,0.2,0.3-0.1,0.1-0.1c0,0,0,0,0,0C33.4,16.9,33.4,17.1,33.5,17.1
		c1.1,0.7,2.1,1.5,3,2.3c0.1,0.1,0.3,0,0.2-0.1c-0.8-1-2-1.7-3.1-2.3C33.6,17,33.6,17.1,33.5,17.1c0.1,0.1,0.1,0.1,0.1,0.1
		c0.2,0,0.1-0.3-0.1-0.2C33.5,17,33.5,17,33.5,17.1C33.5,17,33.5,17,33.5,17.1L33.5,17.1z"/>
	<path class="st5" d="M22.6,44.6c0,0-4.7,1.8-2,5.8c2,3.1,6.1,1.6,7.5,3.8c1.4,2.2,1.5-3.8,0.2-6.5C26.9,45.1,24.7,43.5,22.6,44.6z"
		/>
	<path class="st5" d="M12.6,35.3c-0.6,1.8-0.8,4.4,1.1,6.4c3.4,3.6,9.6,4.2,9.6,4.2s3.3-4.1,2.2-8.1c0-0.1-0.1-0.2-0.1-0.2
		c-1.1,0.9-2.3,1.6-3.4,2.1C18.4,40.9,15.6,37.4,12.6,35.3z"/>
	<path class="st6" d="M21.2,33.5l-7.5-0.6c0,0-0.7,1-1.1,2.4c3,2.1,5.8,5.6,9.4,4.3c1.1-0.4,2.3-1.1,3.4-2.1
		C24.2,33.8,21.2,33.5,21.2,33.5z"/>
	<path class="st5" d="M31.7,15.1C31.7,15.1,31.7,15.1,31.7,15.1C31.7,15.1,31.7,15.1,31.7,15.1z"/>
	<path class="st5" d="M37.2,6.1c-7-2.5-13.2-0.9-18.2,3.6c0,0-8,2.2-7.6,7.4c0.4,5.1,1.1,5.4,1.1,5.4s0.1,1.2-0.6,3.4
		c-0.7,2.2-2,4.3,0.5,7.2c2.4,2.9,7.8,5.5,7.8,5.5s4.2-1.6,4.7-4.8c0,0-3.2-1.3-4.4-3.2s-2-3-2.4-4.7c0,0-3.9,0.7-4.4-2.5
		c-0.3-1.8,1.4-4.3,3.8-3.5c0,0,0.7-2,0.9-4.3c0,0,0.1,2.3,1.2,2.1c1.1-0.2,0.7-3.1,0.7-3.1s0.1,1.2,1.5,0.8
		c1.4-0.4,1.1-3.3,1.1-3.3s0.2,0.2,0.5,0.5c-0.1-0.9-0.1-1.8-0.3-2.6c1.1,2.6,3.7,4.7,6.3,4.2c1.1-0.5,1.1-2.6,0.5-3.7
		c2.1,3.2,4.2,7.4,7.9,6.9c2.1,0,2.1-3.2,1.1-5.3c0.6,1.5,2.1,2.9,3.8,3.5C42.4,12.2,41.3,7.6,37.2,6.1z"/>
	<path class="st6" d="M38.8,12.2c1.1,2.1,1.1,5.3-1.1,5.3c-3.7,0.5-5.8-3.7-7.9-6.9c0.5,1.1,0.5,3.2-0.5,3.7
		c-2.6,0.5-5.3-1.6-6.3-4.2c0.3,0.8,0.3,1.7,0.3,2.6c1.5,1.5,5.9,5.8,7.7,5.5c2.1-0.4,0.9-2.7,0.7-3c0,0,0-0.1,0-0.1s0,0,0,0.1
		c0.4,0.6,3.9,6.6,6.4,6.1c2.6-0.6,2.1-1.7,2.1-1.7l2.4,0.5c0,0,0.3-1.9,0.1-4.3C40.9,15,39.4,13.7,38.8,12.2z"/>
	<path class="st7" d="M15,29.7c2.2,1.1,3.5,3.2,4.7,5.2c0.1,0.1,0.3,0,0.2-0.1c-0.5-1.4-1.4-2.6-2.4-3.7c-0.4-0.4-1.9-2-2.6-1.7
		C15,29.5,15,29.7,15,29.7L15,29.7z"/>
	<path class="st7" d="M18.8,32.6c0-0.8,0.1-1.6,0.2-2.4c0-0.2-0.2-0.2-0.3-0.1c-0.2,0.8-0.2,1.7-0.2,2.5
		C18.6,32.7,18.7,32.7,18.8,32.6L18.8,32.6z"/>
	<path class="st7" d="M17.3,39.3c0,0,0,0.1,0.1,0.1c0-0.1,0.1-0.1,0.1-0.2C17.4,39.2,17.4,39.2,17.3,39.3c-0.1-0.1-0.1,0.1,0,0.1
		c2.1,0.4,3.5,2.6,4.7,4.3c0.1,0.2,0.3,0,0.3-0.2c-0.5-1.1-1.3-1.9-2.1-2.8c-0.8-0.9-1.6-1.4-2.8-1.6c0,0.1,0,0.2,0,0.2
		c0,0,0,0,0.1,0c0.1,0,0.2-0.1,0.1-0.2c0,0-0.1,0-0.1-0.1C17.3,39.2,17.2,39.2,17.3,39.3L17.3,39.3z"/>
	<path class="st7" d="M21,41.3c-0.2-0.2,0.4-1.6,0.5-1.9c0.4-1,0.8-1.9,1.4-2.8c0.1-0.2-0.2-0.3-0.3-0.2c-0.6,0.8-1,1.7-1.3,2.6
		c-0.2,0.7-0.7,1.6-0.6,2.3c0,0.1,0.1,0.1,0.2,0.1c0,0,0,0,0.1-0.1C21.1,41.4,21.1,41.4,21,41.3L21,41.3z"/>
</g>
</svg>
