<?xml version="1.0" encoding="utf-8"?>
<!-- Generator: Adobe Illustrator 24.3.0, SVG Export Plug-In . SVG Version: 6.00 Build 0)  -->
<svg version="1.1" id="WordPress" xmlns="http://www.w3.org/2000/svg" xmlns:xlink="http://www.w3.org/1999/xlink" x="0px" y="0px"
	 viewBox="0 0 55 55" style="enable-background:new 0 0 55 55;" xml:space="preserve">
<style type="text/css">
	.st0{fill:#826459;}
	.st1{fill:#FAD8B4;}
	.st2{fill:#E95F33;}
	.st3{fill:#6B4E45;}
	.st4{fill:#FEB01B;}
	.st5{fill:#1E1D35;}
	.st6{fill:#2C2945;}
</style>
<g>
	<g>
		<path d="M19.8,53.5c0.1-1.2,0.1-2.5,0.2-3.7c0-0.4-0.6-0.4-0.6,0c-0.1,1.2-0.1,2.5-0.2,3.7C19.2,53.9,19.8,53.9,19.8,53.5
			L19.8,53.5z"/>
		<path d="M35.5,53.5c0-1.2-0.1-2.5-0.1-3.7c0-0.4-0.6-0.4-0.6,0c0,1.2,0.1,2.5,0.1,3.7C35,53.9,35.6,53.9,35.5,53.5L35.5,53.5z"/>
		<g>
			<path class="st0" d="M31.7,46.9l-0.1-5.4c-0.1,0-0.2,0-0.2,0v0c0,0-0.1,0-0.1,0l-7.2,0.1c0,0-0.3,0-0.8,0.1v0c0,0-0.1,0-0.1,0
				l0.2,5.4L31.7,46.9z"/>
			<path class="st0" d="M35.2,51.1l2.7-1L37.8,49l-0.4-2.9c0,0-0.1-0.9-0.2-1.2c-0.2-0.6-0.4-1-1.6-2c-0.7-0.5-1.6-1.1-2.9-1.3
				c0.3,5.9,2.5,8.9,2.5,8.9V51.1z"/>
			<path class="st0" d="M16.9,50.1c-0.2,1.3-0.3,2.3-0.3,2.3s1.2,0.5,3.1,1.1c0-0.9,0-1.8,0-2.4L16.9,50.1z"/>
			<path class="st0" d="M38.3,52.4L38,50.1l-2.7,1v2.5C36.3,53.3,37.3,52.9,38.3,52.4z"/>
			<path class="st0" d="M21.8,42c-0.9,0.2-1.9,0.6-2.7,1.1c-0.7,0.5-1.3,1.1-1.4,2c-0.1,0.4-0.1,0.8-0.2,1.3c-0.2,1-0.3,2-0.5,3
				c0,0.3-0.1,0.5-0.1,0.7l2.7,1c0-0.5,0-0.8,0-0.8C21.4,47.7,21.7,43.9,21.8,42z"/>
			
				<rect x="35.2" y="51.1" transform="matrix(0.9394 -0.3427 0.3427 0.9394 -15.3889 15.1581)" class="st0" width="0.1" height="0"/>
			<polygon class="st0" points="19.7,51.1 19.6,51.1 19.6,51.1 19.7,51.1 			"/>
			<path class="st1" d="M20.2,49.3c-0.2,0.4-0.4,0.7-0.6,1.1c0,0,0,0.3,0,0.8l0.1,0v0l-0.1,0c0,0.2,0,0.4,0,0.6
				c5,1.6,10.5,1.3,15.6-0.5v-0.2l-0.1,0v0l0.1,0v-0.6c0,0-0.4-0.6-1-1.9C29.6,49.6,24.9,50.3,20.2,49.3z"/>
			<path class="st1" d="M21.4,45.7c0.7,0.1,1.3,0.2,2,0.2l-0.1-2.6c-0.5,0-1-0.1-1.5-0.2C21.7,43.9,21.6,44.8,21.4,45.7z"/>
			<path class="st2" d="M22.9,41.7c-0.3,0.1-0.7,0.1-1.1,0.3c0,0.3,0,0.7-0.1,1.2c0.5,0.1,1,0.2,1.5,0.2l-0.1-1.7
				C23.1,41.7,23,41.7,22.9,41.7z"/>
			<path class="st2" d="M31.7,45.9l0,1l-8.4,0.2l0-1.2c-0.7-0.1-1.3-0.1-2-0.2c-0.2,1.2-0.6,2.4-1.1,3.6c4.6,1,9.4,0.3,14-0.6
				c-0.3-0.8-0.7-1.7-0.9-3C32.8,45.8,32.3,45.9,31.7,45.9z"/>
			<path class="st2" d="M32.8,41.7c-0.1,0-0.2,0-0.3-0.1c-0.3,0-0.5-0.1-0.8-0.1l0,1c0.4-0.1,0.8-0.2,1.2-0.3
				C32.8,42.1,32.8,41.9,32.8,41.7z"/>
			<path class="st1" d="M31.7,42.6l0.1,3.4c0.5-0.1,1.1-0.1,1.6-0.2c-0.2-1-0.4-2.1-0.5-3.4C32.4,42.4,32,42.5,31.7,42.6z"/>
			<path class="st2" d="M19.6,51.7c0,0.5,0,1.2,0,1.8c0,0,0,0,0,0v0c3.5,1,9.5,2,15.5,0.1v0c0,0,0,0,0,0v-2.3
				C30.2,53,24.6,53.3,19.6,51.7z"/>
		</g>
		<path class="st3" d="M19.9,27.6c0,1.6-1.2,2.8-2.7,2.8s-2.7-1.3-2.7-2.8c0-1.6,1.2-2.8,2.7-2.8C18.7,24.8,19.9,26.1,19.9,27.6z"/>
		<path class="st3" d="M40.4,27.5c0,1.6-1.2,2.8-2.7,2.8c-1.5,0-2.7-1.3-2.7-2.8c0-1.6,1.2-2.8,2.7-2.8C39.2,24.7,40.4,26,40.4,27.5
			z"/>
		<path class="st0" d="M24.1,41.5c0,0,0.9,1.2,3.5,1.1c2.5,0,3.7-1.2,3.7-1.2s-0.9-0.9-1.5-2.3c-1.5,0.7-3.1,1-4.8,1.1
			C24.8,40.8,24.5,41.2,24.1,41.5z"/>
		<path class="st3" d="M25.8,37.4c0,0-0.1,1.6-0.8,3c1.7-0.1,3.3-0.5,4.8-1.1c-0.2-0.6-0.4-1.2-0.5-1.9
			C29.3,37.3,27.3,37.8,25.8,37.4z"/>
		<g>
			<path d="M15.3,27.8c0.2,0.1,0.5-0.3,0.7-0.4c0.2-0.1,0.5-0.2,0.8-0.1c0.3,0.1,0.4,0.4,0.6,0.6c0.2,0.1,0.5,0.1,0.5-0.1
				c0.2-0.7-0.7-1.3-1.4-1.3c-0.7,0-1.4,0.5-1.4,1.2c0-0.1,0.1-0.1,0.1-0.2c0,0,0,0,0,0C15.1,27.5,15.1,27.7,15.3,27.8L15.3,27.8z"
				/>
			<path d="M16.3,28.5c0.2,0,0.4-0.1,0.6-0.2c0.2-0.1,0.4-0.1,0.6-0.1c0.5,0,0.5-0.8,0-0.8c-0.3,0-0.7,0-1,0.2
				c-0.2,0.2-0.6,0.4-0.5,0.7c0,0,0-0.1,0-0.1c0,0,0,0,0,0.1C16,28.4,16.1,28.5,16.3,28.5L16.3,28.5z"/>
		</g>
		<g>
			<path d="M39.4,27.4C39.4,27.4,39.4,27.4,39.4,27.4c0,0.1,0.1,0.1,0.1,0.2c0-0.7-0.7-1.2-1.4-1.2c-0.6,0-1.6,0.6-1.4,1.3
				c0.1,0.2,0.3,0.3,0.5,0.1c0.2-0.2,0.3-0.4,0.5-0.6c0.3-0.2,0.6-0.1,0.9,0c0.2,0.1,0.5,0.5,0.7,0.4C39.6,27.7,39.6,27.4,39.4,27.4
				L39.4,27.4z"/>
			<path d="M38.6,28.2C38.6,28.2,38.6,28.2,38.6,28.2C38.6,28.2,38.6,28.2,38.6,28.2c0.1-0.2-0.3-0.5-0.5-0.6
				c-0.3-0.2-0.6-0.2-1-0.2c-0.5,0-0.5,0.8,0,0.8c0.2,0,0.4-0.1,0.6,0c0.2,0.1,0.4,0.2,0.6,0.2C38.6,28.5,38.7,28.3,38.6,28.2
				L38.6,28.2z"/>
		</g>
		<path d="M19.8,53.5c0.1-1.2,0.1-2.5,0.2-3.7c0-0.4-0.6-0.4-0.6,0c-0.1,1.2-0.1,2.5-0.2,3.7C19.2,53.9,19.8,53.9,19.8,53.5
			L19.8,53.5z"/>
		<path d="M35.5,53.5c0-1.2-0.1-2.5-0.1-3.7c0-0.4-0.6-0.4-0.6,0c0,1.2,0.1,2.5,0.1,3.7C35,53.9,35.6,53.9,35.5,53.5L35.5,53.5z"/>
		<g>
			<path class="st0" d="M37.1,26.5C37,21.4,35.6,16,29.9,14.9c-1.6,6-5.9,11.1-12.2,11.7c0,0.1,0,0.2,0,0.3c0,4.3,2.4,8,5.7,9.7
				c5.3,0.1,10.1-2.7,13.3-6.8c0.2-0.9,0.4-1.9,0.4-2.9C37.1,26.7,37.1,26.6,37.1,26.5z"/>
			<path class="st3" d="M29.9,14.9c-0.8-0.2-1.6-0.2-2.5-0.2c-6.9,0-9.6,6-9.7,11.8c0,0,0,0.1,0,0.1C24,26,28.3,20.9,29.9,14.9z"/>
			<path class="st3" d="M23.4,36.6c1.2,0.6,2.6,1,4,0.9c4.4,0,8.2-3.3,9.3-7.8C33.5,33.8,28.7,36.7,23.4,36.6z"/>
		</g>
		<path d="M23.8,27c0,0.4-0.3,0.8-0.6,0.8c-0.3,0-0.6-0.3-0.6-0.8c0-0.4,0.3-0.8,0.6-0.8C23.6,26.2,23.8,26.6,23.8,27z"/>
		<ellipse cx="32.5" cy="27" rx="0.6" ry="0.8"/>
		<path class="st4" d="M20,20c0-0.2,0-0.3,0.1-0.4c0,0-0.1,0-0.1,0C19.9,19.7,20,19.8,20,20z"/>
		<path class="st4" d="M19.9,19.6C19.9,19.6,19.9,19.6,19.9,19.6C19.9,19.5,19.9,19.4,19.9,19.6z"/>
		<path d="M26.9,30.7c-0.4,0.2-0.1,0.9,0.1,1.2c0.3,0.4,0.8,0.5,1.3,0.4c0.5,0,0.5-0.8,0-0.8c-0.3,0-0.6,0-0.8-0.3
			C27.4,31.1,27.2,30.6,26.9,30.7L26.9,30.7z"/>
		<path d="M28.7,30.5c0.7-0.4,2.1-2.3,0.7-2.7c-1-0.3-1.4,1.3-1.9-0.4c-0.3-1-0.1-3,0.2-4c0.1-0.2-0.2-0.5-0.4-0.4c0,0,0,0,0,0
			c-0.1,0-0.2,0.1-0.2,0.2c-0.2,1-0.3,2-0.3,3.1c0,0.7-0.2,1.9,0.2,2.5c0.2,0.3,0.4,0.5,0.8,0.4c0.3,0,0.4-0.3,0.7-0.4
			c0.3-0.4,0.5-0.3,0.7,0.2c-0.2,0.4-0.4,0.7-0.7,1.1C28.3,30.3,28.5,30.6,28.7,30.5L28.7,30.5z"/>
	</g>
	<path class="st3" d="M24.5,30.8c-0.2,0.7-1.3,1-2.5,0.7c-1.2-0.3-2.1-1.1-1.9-1.7c0.2-0.7,1.3-1,2.5-0.7
		C23.8,29.3,24.7,30.1,24.5,30.8z"/>
	<path class="st3" d="M34.4,29c0.4,0.6-0.2,1.6-1.3,2.2c-1.1,0.6-2.2,0.7-2.6,0.1c-0.4-0.6,0.2-1.6,1.3-2.2
		C32.9,28.4,34.1,28.4,34.4,29z"/>
	<path d="M21.1,25.3c0,0.1,0.5-0.5,0.6-0.5c0.2-0.2,0.4-0.5,0.7-0.7c0.5-0.3,1-0.6,1.4-0.9c0.2-0.1,0-0.4-0.2-0.4
		c-0.6,0.2-1.2,0.6-1.7,1.1c-0.4,0.4-0.9,0.9-1.1,1.4c-0.1,0.2,0.3,0.3,0.3,0.1C21.1,25.5,21.1,25.4,21.1,25.3L21.1,25.3z"/>
	<path d="M31.5,22.4C31.5,22.4,31.4,22.4,31.5,22.4c-0.2,0-0.3,0.3-0.1,0.4c0.5,0.3,0.9,0.6,1.3,0.9c0.4,0.3,0.8,0.7,1.2,1.1
		c0.2,0.1,0.4-0.1,0.3-0.3C33.7,23.5,32.5,22.9,31.5,22.4c0,0.2,0,0.3,0,0.4c0,0,0,0,0,0C31.7,22.8,31.7,22.4,31.5,22.4L31.5,22.4z"
		/>
	<path class="st5" d="M38.1,23.7c1.3-2.2,1.3-4.9,0-7.2c-4-5.8-12.6-2.7-17.5-0.9c-1.8,0.9-4,2.7-4.9,4.5c-0.7,1.8,0,3.6,1.5,4.7
		c0.2,0,0.4,0.1,0.6,0.2c0,0,0.8-1,0.7-2.4c0-0.1,0-0.1,0-0.2c-0.1-1.4,1.5-0.8,1.8-2.3c0,0,0-0.1,0-0.1c0.2-1.6,1.6-0.3,2.2-1.6
		c0,0,2.4,2.1,3.8,0.2c0,0,1.8,1.7,3.1,0.5c0.1,0,0.1-0.1,0.2-0.2c0.4-0.3,1.7,2.2,3.8,0.8c0,0,0,2.9,1.5,2.5c0,0-0.1,2.3,1.9,2.4
		C37.4,24.4,37.8,24.2,38.1,23.7z"/>
	<path class="st5" d="M17.7,39.3c0.7-0.4,0.9-0.9,0.9-0.9s1.6,2.5,3.9,1s3.2-0.7,3.2-0.7l0.4-1.4c0,0-3.2-0.5-5.2-2.6
		c-0.7-0.8-1.2-1.6-1.6-2.3C18.9,34.6,17.4,37,17.7,39.3z"/>
	<path class="st6" d="M45.6,29.5c0,0,2.8-3.2,1.2-5.5S45,22.1,45,22.1s1.2-2-1.9-4.2c0,0,1.5-3.9-1.2-6.5s-4.8-2.2-4.8-2.2
		s0.1-2.4-1.9-3.2c-2.1-0.7-3.3,0.4-3.3,0.4S30.3,4.5,27.1,5c-3.2,0.6-4.4,2.7-4.4,2.7s-2.2-1.3-4.7,0s-2.4,3.9-2.4,3.9
		s-4.2,0.5-5.5,3.2s-0.8,4.7-0.7,4.6S7.7,20.2,8,23.1c0.3,2.9,1,3.8,1,3.8s-1.7,1-1.3,3.6c0.4,2.6,1.8,2.7,1.8,2.7s-0.8,2.3,1,3.9
		c1.4,0.9,2.5,0.7,2.5,0.7s0.2,2,2.5,2c0.9,0,1.6-0.2,2-0.5c-0.2-2.3,1.2-4.7,1.5-7c-0.6-1.3-0.8-2.2-0.8-2.2s-2.7,1-3.8-1.8
		c-0.6-1.6,1.1-3.5,2.5-3.5c-1.5-1.1-2.2-2.9-1.5-4.7c0.9-1.8,3.1-3.6,4.9-4.5c4.9-1.8,13.5-4.9,17.5,0.9c1.3,2.2,1.3,4.9,0,7.2
		c-0.3,0.4-0.7,0.7-1.2,1c0,0,0.1,0,0.1,0c2.1,0.1,3.2,1.1,3.4,2.8c0.2,1.7-1.8,3.2-3.8,2.6c0,0-0.1,0.4-0.4,1.1
		c1.3,2.2,3.5,4.5,4.1,6.6c1.3-0.9,1-3.2,1-3.2s2,0.7,3.8-1.9S45.6,29.5,45.6,29.5z"/>
	<path class="st5" d="M29.3,37.3c0,0,0.1,1.1,0.3,1.5c0.2,0.4,2.4,1.7,4.9,0.4c2.5-1.3,4.2-0.4,5.6-1.2c0.1,0,0.1-0.1,0.2-0.1
		c-0.6-2.2-2.8-4.4-4.1-6.6C35.5,32.8,33.7,35.7,29.3,37.3z"/>
</g>
</svg>
