<?xml version="1.0" encoding="utf-8"?>
<!-- Generator: Adobe Illustrator 24.3.0, SVG Export Plug-In . SVG Version: 6.00 Build 0)  -->
<svg version="1.1" id="WordPress" xmlns="http://www.w3.org/2000/svg" xmlns:xlink="http://www.w3.org/1999/xlink" x="0px" y="0px"
	 viewBox="0 0 55 55" style="enable-background:new 0 0 55 55;" xml:space="preserve">
<style type="text/css">
	.st0{fill:#FCCEB6;}
	.st1{fill:#3793B5;}
	.st2{fill:#64AD99;}
	.st3{fill:#F9B28F;}
	.st4{fill:#FEB01B;}
	.st5{fill:#F79C0B;}
</style>
<g>
	<g>
		<path d="M19.3,53.4c0.1-1.4,0.1-2.8,0.2-4.1c0-0.2-0.3-0.2-0.3,0C19.1,50.6,19,52,19,53.4C18.9,53.5,19.2,53.5,19.3,53.4
			L19.3,53.4z"/>
		<path d="M36.8,53.4c0-1.4-0.1-2.8-0.1-4.1c0-0.2-0.3-0.2-0.3,0c0,1.4,0.1,2.8,0.1,4.1C36.5,53.5,36.8,53.5,36.8,53.4L36.8,53.4z"
			/>
		<g>
			<path class="st0" d="M20.2,41c-0.5,0.2-1.1,0.5-1.5,0.8c-0.8,0.6-1.4,1.3-1.6,2.2c-0.1,0.4-0.2,0.9-0.2,1.4
				c-0.2,1.1-0.4,2.3-0.5,3.4c-0.3,1.9-0.5,3.4-0.5,3.4s1.3,0.6,3.3,1.2l0.1-3.3C20.2,47.7,20.2,43,20.2,41z"/>
			<path class="st0" d="M39.5,48.4L39,45.1l-0.2-1.3c0,0-0.4-1.1-1.7-2.2c-0.2-0.1-0.4-0.3-0.6-0.4c-0.3-0.2-0.6-0.4-1-0.5
				c0,1.9,0,6.9,1,9.3l0.1,3.5c1.2-0.4,2.3-0.8,3.5-1.4L39.5,48.4z"/>
			<path class="st1" d="M35.6,44.1c-0.1-1.4-0.1-2.6,0-3.4c-0.6-0.3-1.2-0.5-2-0.6C33.1,40,32.7,40,32.2,40l-8,0.1
				c0,0-0.5,0-1.3,0.2c-0.6,0.1-1.3,0.3-2,0.5c-0.2,0.1-0.4,0.2-0.7,0.2c0,0.7,0,1.6,0,2.7C25.1,45.1,30.5,45.2,35.6,44.1z"/>
			<path class="st1" d="M36.5,49.9c-0.3-0.9-0.6-2-0.7-3.3c-5.3,1.6-10.8,2.3-15.9,0.6c-0.1,1-0.4,2-0.7,2.7l0,0.1
				C24.6,52.2,30.7,51.7,36.5,49.9z"/>
			<path class="st2" d="M36.5,49.9c-5.7,1.8-11.9,2.3-17.3,0.2l-0.1,3.2c3.9,1.1,10.6,2.3,17.4,0.1L36.5,50
				C36.5,50,36.5,49.9,36.5,49.9z"/>
			<path class="st2" d="M35.8,46.6c-0.1-0.8-0.2-1.7-0.2-2.5c-5.1,1.1-10.4,1-15.4-0.4c0,1.1-0.1,2.4-0.3,3.6
				C25,48.9,30.5,48.2,35.8,46.6z"/>
		</g>
		<path class="st3" d="M19.6,24.5c0,1.7-1.3,3.1-3,3.2c-1.7,0-3-1.4-3-3.1c0-1.7,1.3-3.1,3-3.2C18.2,21.4,19.5,22.8,19.6,24.5z"/>
		<path class="st3" d="M42.4,24.4c0,1.7-1.3,3.1-3,3.2c-1.7,0-3-1.4-3-3.1c0-1.7,1.3-3.1,3-3.2C41,21.3,42.3,22.7,42.4,24.4z"/>
		<path class="st0" d="M24.2,40c0,0,1,1.3,3.9,1.3c2.8,0,4.1-1.4,4.1-1.4s-1-0.9-1.7-2.5c-1.6,0.7-3.5,1.1-5.3,1.2
			C25,39.2,24.7,39.7,24.2,40z"/>
		<path class="st3" d="M26.1,35.4c0,0-0.1,1.8-0.9,3.3c1.8-0.1,3.7-0.5,5.3-1.2c-0.3-0.6-0.5-1.4-0.5-2.2
			C30,35.3,27.8,35.8,26.1,35.4z"/>
		<g>
			<path d="M14.4,24.6C14.4,24.6,14.4,24.6,14.4,24.6c0.1,0,0.1,0,0.1,0c0.3-0.4,0.6-0.7,1.1-0.7c0.6-0.1,0.9,0.3,1.2,0.8
				c0.1,0.1,0.3,0.1,0.3-0.1c0-0.6-0.7-1.1-1.3-1.1c-0.4,0-0.7,0.1-1,0.4c-0.1,0.1-0.4,0.6-0.4,0.6C14.3,24.5,14.3,24.6,14.4,24.6
				L14.4,24.6z"/>
			<path d="M15.5,25.4c0.2-0.1,0.4-0.3,0.6-0.4c0.2-0.1,0.5-0.1,0.8-0.1c0.3,0,0.3-0.4,0-0.4c-0.3,0-0.6,0-0.9,0.1
				c-0.1,0.1-0.3,0.2-0.4,0.3c-0.1,0.1-0.1,0.2-0.2,0.3C15.3,25.3,15.4,25.4,15.5,25.4L15.5,25.4z"/>
		</g>
		<g>
			<path d="M41.2,24.4c0.1,0-0.3-0.6-0.4-0.6c-0.3-0.2-0.7-0.4-1-0.4c-0.6,0-1.3,0.5-1.3,1.2c0,0.2,0.2,0.2,0.3,0.1
				c0.3-0.5,0.6-0.9,1.2-0.8c0.5,0,0.8,0.3,1.1,0.7c0,0,0.1,0,0.1,0c0,0,0,0,0,0C41.3,24.5,41.3,24.4,41.2,24.4L41.2,24.4z"/>
			<path d="M40.3,25.2c-0.1-0.1-0.1-0.2-0.2-0.3c-0.1-0.1-0.3-0.2-0.4-0.3c-0.3-0.1-0.6-0.1-0.9-0.1c-0.3,0-0.3,0.4,0,0.4
				c0.3,0,0.5,0,0.8,0.1c0.2,0.1,0.4,0.3,0.6,0.4C40.3,25.4,40.4,25.3,40.3,25.2L40.3,25.2z"/>
		</g>
		<path d="M19.3,53.4c0.1-1.4,0.1-2.8,0.2-4.1c0-0.2-0.3-0.2-0.3,0C19.1,50.6,19,52,19,53.4C18.9,53.5,19.2,53.5,19.3,53.4
			L19.3,53.4z"/>
		<path d="M36.8,53.4c0-1.4-0.1-2.8-0.1-4.1c0-0.2-0.3-0.2-0.3,0c0,1.4,0.1,2.8,0.1,4.1C36.5,53.5,36.8,53.5,36.8,53.4L36.8,53.4z"
			/>
		<g>
			<path class="st0" d="M38.7,23.3C38.6,16.8,36.6,10,27.8,10c-7.7,0-10.7,6.7-10.8,13.1c0,0.2,0,0.3,0,0.5c0,4.8,2.6,8.9,6.4,10.8
				c5.9,0.2,11.3-3,14.9-7.6c0.3-1,0.4-2.1,0.4-3.3C38.7,23.5,38.7,23.4,38.7,23.3z"/>
			<path class="st3" d="M23.4,34.5c1.4,0.7,2.9,1.1,4.5,1.1c5,0,9.1-3.7,10.4-8.7C34.7,31.5,29.3,34.6,23.4,34.5z"/>
		</g>
		<path d="M23.9,23.8c0,0.5-0.3,0.8-0.7,0.8c-0.4,0-0.7-0.4-0.7-0.8c0-0.5,0.3-0.8,0.7-0.8C23.6,23,23.9,23.3,23.9,23.8z"/>
		<path d="M34.2,23.8c0,0.5-0.3,0.8-0.7,0.8c-0.4,0-0.7-0.4-0.7-0.8c0-0.5,0.3-0.8,0.7-0.8C33.9,23,34.2,23.3,34.2,23.8z"/>
		<path class="st4" d="M19.6,16c0-0.2,0.1-0.4,0.1-0.5c0,0-0.1,0-0.1,0C19.6,15.7,19.6,15.8,19.6,16z"/>
		<path class="st4" d="M19.6,15.6C19.6,15.6,19.6,15.6,19.6,15.6C19.6,15.4,19.6,15.4,19.6,15.6z"/>
		<path d="M27.8,27.3c-0.1,0.4,0.2,0.9,0.5,1.2c0.3,0.2,0.9,0.4,1.2,0.2c0.1-0.1,0.1-0.2,0-0.3c-0.3-0.2-0.7,0-1-0.2
			c-0.3-0.2-0.4-0.6-0.5-0.9C27.9,27.3,27.8,27.3,27.8,27.3L27.8,27.3z"/>
		<path d="M28.3,19.9c0.2,0-0.7,4.7,0.3,5.3c0.2,0.1,0.3,0.2,0.6,0c0.3-0.2,0.3-1,1-0.5c0.3,0.3-0.7,1.3-0.9,1.5
			c0.1,0.1,0.3,0.1,0.4,0.2c0,0,0,0,0-0.1c0-0.3-0.4-0.3-0.4,0c0,0,0,0,0,0.1c0,0.2,0.2,0.3,0.4,0.2c0.5-0.4,1.9-2.2,0.6-2.6
			c-0.7-0.2-0.7,0.7-1.1,0.8c-0.8,0.3-0.5-2.5-0.5-2.7c0-0.7,0-1.5,0-2.3c0-0.1-0.1-0.1-0.1-0.1c0,0,0,0-0.1,0
			C28.1,19.7,28.1,19.9,28.3,19.9L28.3,19.9z"/>
	</g>
	<path class="st4" d="M19.9,20.8c-0.1-0.1,1-2.7,2.2-2.9c0.7,0,0.7,0.3,0.7,0.3s0.9-1.1,1.5-0.4c0.2,0.3-0.4,0.8-0.4,0.8
		s1-0.2,0.5,0.6c-0.5,0.9-3,0.4-4.2,1.5"/>
	<path class="st4" d="M36.5,20.8c0.1-0.1-1-2.7-2.2-2.9c-0.7,0-0.7,0.3-0.7,0.3s-0.9-1.1-1.5-0.4c-0.2,0.3,0.4,0.8,0.4,0.8
		s-1-0.2-0.5,0.6c0.5,0.9,3,0.4,4.2,1.5"/>
	<path class="st4" d="M40.6,13.9c0,0.2-0.1,0.4-0.1,0.6c0.2,0,0.4-0.1,0.6-0.1L40.6,13.9z"/>
	<path class="st5" d="M40.5,14.6c-4.6,0.9-7-3.8-9.4-6.7c-2,4.5-8.5,6.5-13.5,5c0,3-0.6,6.3-2.5,8.6c0.3,0.1,0.4,0.1,0.4,0.1
		c0.9-0.5,1.7,0.2,1.7,0.2c2.1-0.5,3.1-7.8,3.1-7.8s2.4,0.5,5.6,1.5c3.3,1,6.8-1.8,6.8-1.8s0.6,1,1.6,3.4s3.8,1.4,4.1,1.9
		c0.3,0.5,0.4,4.3,0.8,3.3c0.4-1,2.3-0.2,2.3-0.2c0.8-0.5,1.3-1.2,1.6-1.9C41.3,18.9,40.2,17,40.5,14.6z"/>
	<path class="st4" d="M31.1,7.9c2.4,2.9,4.8,7.6,9.4,6.7c0-0.2,0.1-0.4,0.1-0.6l0.5,0.5c-0.2,0.1-0.4,0.1-0.6,0.1
		c-0.3,2.4,0.8,4.3,2.4,5.6c1-2.6-1.2-5.8-1.2-5.8s0.9-0.3,1.1-2.2S39.7,10,39.7,10s1.3-2.5-0.2-4.2c-1.5-1.8-4.4-0.6-8.1,0
		s-3.6-1-8.8-0.9c-5.1,0.1-7.2,4.8-7.2,4.8s-0.5,0.9-1.7,2.1c-1.2,1.2-2.5,5.1-1.7,7.3c0.6,1.6,2.2,2.2,3,2.3c2-2.3,2.5-5.6,2.5-8.6
		C22.6,14.4,29.1,12.4,31.1,7.9z"/>
</g>
</svg>
