<?xml version="1.0" encoding="utf-8"?>
<!-- Generator: Adobe Illustrator 24.3.0, SVG Export Plug-In . SVG Version: 6.00 Build 0)  -->
<svg version="1.1" id="WordPress" xmlns="http://www.w3.org/2000/svg" xmlns:xlink="http://www.w3.org/1999/xlink" x="0px" y="0px"
	 viewBox="0 0 55 55" style="enable-background:new 0 0 55 55;" xml:space="preserve">
<style type="text/css">
	.st0{fill:#2C2945;}
	.st1{fill:#3793B5;}
	.st2{fill:#FAD8B4;}
	.st3{fill:#F9B28F;}
	.st4{fill:#FCCEB6;}
	.st5{fill:#FEB01B;}
	.st6{fill:#F79C0B;}
</style>
<g>
	<path d="M18.4,53.2c0.1-1.4,0.2-2.9,0.2-4.3c0-0.2-0.3-0.2-0.3,0c-0.1,1.4-0.2,2.9-0.2,4.3C18.1,53.4,18.4,53.4,18.4,53.2
		L18.4,53.2z"/>
	<path d="M36.8,53.2c-0.1-1.4-0.1-2.9-0.2-4.3c0-0.2-0.3-0.2-0.3,0c0.1,1.4,0.1,2.9,0.2,4.3C36.5,53.4,36.8,53.4,36.8,53.2
		L36.8,53.2z"/>
	<g>
		<path class="st0" d="M27.8,41.9c2.9,0,4.5-1,5.6-2.3c-0.4-0.1-0.9-0.1-1.3-0.1l-8.4,0.1c0,0-0.6,0-1.4,0.2
			C23,40.6,24.6,41.9,27.8,41.9z"/>
		<path class="st1" d="M27.7,48.1c-5.6,0-9.7-1.8-11.8-3.1c-0.2,1.1-0.4,2.4-0.6,3.5c2,1.3,6.2,3.3,12.2,3.3c5.6,0,9.8-2.2,12.1-3.8
			l-0.5-3.4C36.8,46.2,32.8,48.1,27.7,48.1z"/>
		<path class="st1" d="M37.1,41.1c-0.9-0.7-2.1-1.3-3.8-1.6c-1,1.3-2.7,2.3-5.6,2.3c-3.2,0-4.8-1.2-5.6-2.2
			c-1.3,0.2-3.1,0.7-4.4,1.6c1.8,1.6,5,3.3,9.9,3.3C32,44.6,35.1,42.8,37.1,41.1z"/>
		<path class="st2" d="M15.3,48.5C15,50.4,14.8,52,14.8,52s13.2,5.9,25.4-0.1l-0.6-3.9c-2.3,1.6-6.4,3.8-12.1,3.8
			C21.5,51.8,17.3,49.8,15.3,48.5z"/>
		<path class="st2" d="M39.1,44.7l-0.2-1.3c0,0-0.5-1.2-1.8-2.3c-2,1.7-5.1,3.5-9.5,3.5c-4.9,0-8.1-1.8-9.9-3.3
			c-0.8,0.6-1.5,1.3-1.7,2.3c-0.1,0.5-0.2,1-0.2,1.5c2.1,1.3,6.1,3,11.8,3.1C32.8,48.1,36.8,46.2,39.1,44.7z"/>
	</g>
	<path class="st3" d="M18.7,23.4c0,1.8-1.4,3.3-3.1,3.3c-1.7,0-3.2-1.4-3.2-3.2c0-1.8,1.4-3.3,3.1-3.3
		C17.3,20.1,18.7,21.6,18.7,23.4z"/>
	<path class="st3" d="M42.6,23.3c0,1.8-1.4,3.3-3.1,3.3c-1.7,0-3.2-1.4-3.2-3.2c0-1.8,1.4-3.3,3.1-3.3
		C41.2,20.1,42.6,21.5,42.6,23.3z"/>
	<path class="st4" d="M23.6,39.4c0,0,1.1,1.3,4.1,1.3c3,0,4.3-1.4,4.3-1.4s-1.1-1-1.8-2.6c-1.7,0.8-3.6,1.2-5.6,1.3
		C24.4,38.6,24,39.1,23.6,39.4z"/>
	<path class="st3" d="M25.6,34.6c0,0-0.1,1.9-0.9,3.4c1.9-0.1,3.9-0.5,5.6-1.3c-0.3-0.6-0.5-1.4-0.6-2.2
		C29.7,34.5,27.3,35.1,25.6,34.6z"/>
	<g>
		<path d="M13.3,23.5C13.3,23.5,13.3,23.5,13.3,23.5c0.1,0,0.1,0,0.1,0c0.3-0.4,0.6-0.7,1.1-0.7c0.6-0.1,1,0.4,1.3,0.8
			c0.1,0.1,0.3,0.1,0.3-0.1c0-0.7-0.8-1.2-1.4-1.2c-0.4,0-0.8,0.1-1.1,0.4c-0.1,0.1-0.5,0.7-0.4,0.7C13.2,23.3,13.2,23.5,13.3,23.5
			L13.3,23.5z"/>
		<path d="M14.4,24.3c0.2-0.1,0.4-0.3,0.7-0.4c0.2-0.1,0.5-0.1,0.8-0.1c0.3,0,0.3-0.4,0-0.4c-0.3,0-0.6,0-0.9,0.1
			c-0.1,0.1-0.3,0.2-0.4,0.3c-0.1,0.1-0.1,0.2-0.2,0.3C14.2,24.2,14.3,24.3,14.4,24.3L14.4,24.3z"/>
	</g>
	<g>
		<path d="M41.5,23.2c0.1,0-0.3-0.6-0.4-0.6c-0.3-0.2-0.7-0.4-1.1-0.4c-0.6,0-1.4,0.5-1.4,1.2c0,0.2,0.2,0.2,0.3,0.1
			c0.3-0.5,0.6-0.9,1.3-0.8c0.5,0,0.9,0.3,1.2,0.7c0,0,0.1,0.1,0.1,0c0,0,0,0,0,0C41.6,23.4,41.6,23.2,41.5,23.2L41.5,23.2z"/>
		<path d="M40.5,24.1c-0.1-0.1-0.1-0.2-0.2-0.3c-0.1-0.1-0.3-0.2-0.4-0.3c-0.3-0.2-0.6-0.1-0.9-0.1c-0.3,0-0.3,0.4,0,0.4
			c0.3,0,0.6-0.1,0.8,0.1c0.2,0.1,0.4,0.3,0.7,0.4C40.5,24.2,40.5,24.2,40.5,24.1L40.5,24.1z"/>
	</g>
	<path d="M18.4,53.2c0.1-1.4,0.2-2.9,0.2-4.3c0-0.2-0.3-0.2-0.3,0c-0.1,1.4-0.2,2.9-0.2,4.3C18.1,53.4,18.4,53.4,18.4,53.2
		L18.4,53.2z"/>
	<path d="M36.8,53.2c-0.1-1.4-0.1-2.9-0.2-4.3c0-0.2-0.3-0.2-0.3,0c0.1,1.4,0.1,2.9,0.2,4.3C36.5,53.4,36.8,53.4,36.8,53.2
		L36.8,53.2z"/>
	<g>
		<path class="st4" d="M20.1,24.8c1.9,2.5,3.2,3.5,5.2,2.8c1.9-0.8,2.6-0.9,3.6-1c1.2-0.1,2,0.9,3.1,1.1c1.2,0.3,2.1-2.3,3.7-3.9
			c1.4-1.5,2-1.8,3.1-1.7c-0.1-6.7-2.2-13.8-11.4-13.7C19.3,8.4,16.2,15.4,16,22C17.1,22.3,18.9,23.1,20.1,24.8z"/>
		<path class="st5" d="M38.4,25.8c0.3-1.1,0.4-2.2,0.4-3.4c0-0.1,0-0.2,0-0.3c-1-0.1-1.6,0.2-3.1,1.7c-1.6,1.6-2.5,4.2-3.7,3.9
			c-1.2-0.3-2-1.2-3.1-1.1c-1,0.1-1.6,0.2-3.6,1c-1.9,0.8-3.3-0.2-5.2-2.8c-1.2-1.7-3-2.5-4.1-2.8c0,0.2,0,0.3,0,0.5
			c0,5,2.8,9.3,6.7,11.2C28.9,33.9,34.6,30.6,38.4,25.8z"/>
		<path class="st6" d="M22.7,33.7c1.4,0.7,3,1.1,4.7,1.1c5.2,0,9.6-3.8,10.9-9C34.6,30.6,28.9,33.9,22.7,33.7z"/>
	</g>
	<path d="M23.3,22.6c0,0.5-0.3,0.9-0.7,0.9c-0.4,0-0.7-0.4-0.7-0.9c0-0.5,0.3-0.9,0.7-0.9C23,21.8,23.3,22.2,23.3,22.6z"/>
	<path d="M34.1,22.6c0,0.5-0.3,0.9-0.7,0.9c-0.4,0-0.7-0.4-0.7-0.9c0-0.5,0.3-0.9,0.7-0.9C33.8,21.8,34.1,22.2,34.1,22.6z"/>
	<path class="st5" d="M18.8,14.6c0-0.2,0.1-0.4,0.1-0.5c0,0-0.1,0-0.1,0C18.7,14.2,18.7,14.4,18.8,14.6z"/>
	<path class="st5" d="M18.7,14.1C18.7,14.1,18.7,14.1,18.7,14.1C18.7,14,18.7,14,18.7,14.1z"/>
	<path class="st5" d="M39.6,9.6c1.8-2.2-2.4-4.8-10.4-4.5c-8.1,0.3-12.1,3.3-12.1,3.3S17,5.7,16,6.1c-0.9,0.4-0.1,3.6-0.1,3.6
		s-1.5-2.2-2.1-1.3c-0.6,1,1.7,2.7,1.7,2.7c-2.7,2.5-1.4,9.4-1.4,9.4c0.9-0.1,2,1.5,2,1.5c1.5-0.4,2.5-5.6,2.7-7.4
		c0-0.2-0.1-0.4-0.1-0.5c0,0,0,0,0,0c0-0.2,0-0.1,0,0c0,0,0.1,0,0.1,0c0-0.1,0-0.1,0-0.1c0.1,0.1,0.2,0.1,0.3,0.2
		C26.2,14.5,33.7,13,39.6,9.6C39.6,9.6,39.6,9.6,39.6,9.6z"/>
	<path class="st6" d="M19.1,14.1c3.8,2.1,16.4,0.8,16.5,1.1c0.4,1.8,2.3,6.9,3.2,6.9c0.3-1.4,1.5-2,1.5-2c0.4-2.9-0.8-7.1-0.8-7.1
		c1.7-1.9,0.4-3.3,0.2-3.5C33.7,13,26.2,14.5,19.1,14.1z"/>
	<path d="M27.4,28c-0.1,0.4,0.2,1,0.5,1.2c0.3,0.2,1,0.4,1.3,0.2c0.1-0.1,0.1-0.2,0-0.3c-0.3-0.2-0.7,0-1-0.2
		c-0.3-0.2-0.4-0.6-0.6-0.9C27.6,27.9,27.5,28,27.4,28L27.4,28z"/>
	<path d="M29.2,25.7c0.6-0.4,2.1-2.3,0.8-2.8c-1.1-0.4-1.4,1.8-2.4-0.2c-0.2-0.5,0-1.7,0-2.3c0-0.7-0.1-2.2,0.3-2.8
		c0.1-0.1-0.1-0.3-0.2-0.2c-0.4,0.3-0.4,1.5-0.4,1.9c-0.1,1.2-0.3,2.8,0.1,4c0.1,0.5,0.2,0.9,0.8,0.9c0.3,0,0.5-0.3,0.8-0.4
		c0.4-0.5,0.8-0.3,1.1,0.4c-0.2,0.5-0.5,0.9-0.9,1.3C29,25.7,29.1,25.8,29.2,25.7L29.2,25.7z"/>
	<path class="st5" d="M18.5,20.1c0,0,2.4-3,4.1-3.4c0.9-0.3,1,0.3,0.9,0.5c0,0,0.4,0.5-0.2,0.9c0,0-0.2,0.5-1,0.6
		C21.5,19,18,20.9,18.5,20.1z"/>
	<path class="st5" d="M36.6,20.1c0,0-2.4-3-4.1-3.4c-0.9-0.3-1,0.3-0.9,0.5c0,0-0.4,0.5,0.2,0.9c0,0,0.2,0.5,1,0.6
		C33.6,19,37,20.9,36.6,20.1z"/>
</g>
</svg>
