<?xml version="1.0" encoding="utf-8"?>
<!-- Generator: Adobe Illustrator 24.3.0, SVG Export Plug-In . SVG Version: 6.00 Build 0)  -->
<svg version="1.1" id="WordPress" xmlns="http://www.w3.org/2000/svg" xmlns:xlink="http://www.w3.org/1999/xlink" x="0px" y="0px"
	 viewBox="0 0 55 55" style="enable-background:new 0 0 55 55;" xml:space="preserve">
<style type="text/css">
	.st0{fill:#F9B28F;}
	.st1{fill:#E95F33;}
	.st2{fill:#F2A381;}
	.st3{fill:#FEB01B;}
	.st4{fill:#F79C0B;}
	.st5{fill:#FFB640;}
</style>
<g>
	<path d="M17.9,53c0.1-1.4,0.2-2.8,0.2-4.3c0-0.2-0.3-0.2-0.3,0c-0.1,1.4-0.2,2.8-0.2,4.3C17.6,53.2,17.9,53.2,17.9,53L17.9,53z"/>
	<path d="M35.9,53c-0.1-1.4-0.1-2.8-0.2-4.3c0-0.2-0.3-0.2-0.3,0c0.1,1.4,0.1,2.8,0.2,4.3C35.6,53.2,35.9,53.2,35.9,53L35.9,53z"/>
	<g>
		<path class="st0" d="M19.2,43.9c0.1,0.6,5.7,3.7,7.8,4.3c2,0.6,6.4-3.6,6.7-4.3c0.2-0.5,0-2.7-0.1-4.2c-0.3-0.1-0.7-0.2-1-0.2
			c-0.4-0.1-0.8-0.1-1.3-0.1L23,39.4c0,0-0.6,0-1.4,0.2c-0.7,0.1-1.6,0.3-2.4,0.6C19.2,41.5,19.2,43.5,19.2,43.9z"/>
		<path class="st1" d="M38.7,47.9l-0.5-3.3l-0.2-1.3c0,0-0.4-1.2-1.8-2.3c-0.7-0.5-1.5-1-2.7-1.3c0.1,1.5,0.3,3.8,0.1,4.2
			c-0.3,0.7-4.7,4.9-6.7,4.3c-2-0.6-7.6-3.7-7.8-4.3c-0.1-0.4-0.1-2.4,0-3.7c-0.7,0.2-1.3,0.5-1.9,0.9c-0.8,0.6-1.5,1.3-1.6,2.3
			c-0.1,0.5-0.2,1-0.2,1.5c-0.2,1.1-0.4,2.3-0.5,3.4c-0.3,1.9-0.5,3.5-0.5,3.5s13,5.9,24.9-0.1L38.7,47.9z"/>
	</g>
	<path class="st2" d="M18.2,23.4c0,1.8-1.4,3.2-3.1,3.2c-1.7,0-3.1-1.4-3.1-3.2c0-1.8,1.4-3.2,3.1-3.2
		C16.8,20.2,18.2,21.6,18.2,23.4z"/>
	<path class="st2" d="M41.7,23.3c0,1.8-1.4,3.2-3.1,3.2c-1.7,0-3.1-1.4-3.1-3.2c0-1.8,1.4-3.2,3.1-3.2
		C40.3,20.1,41.7,21.5,41.7,23.3z"/>
	<path class="st0" d="M23,39.4c0,0,1.1,1.3,4,1.3c2.9,0,4.2-1.4,4.2-1.4s-1-1-1.7-2.6c-1.7,0.8-3.6,1.2-5.5,1.3
		C23.8,38.5,23.5,39,23,39.4z"/>
	<path class="st2" d="M25,34.6c0,0-0.1,1.8-0.9,3.4c1.9-0.1,3.8-0.5,5.5-1.3c-0.3-0.6-0.5-1.4-0.5-2.2C29,34.5,26.7,35,25,34.6z"/>
	<g>
		<path d="M13,23.5C13,23.5,13,23.5,13,23.5c0.1,0,0.1,0,0.1,0c0.3-0.4,0.6-0.7,1.1-0.7c0.6-0.1,0.9,0.4,1.2,0.8
			c0.1,0.1,0.3,0.1,0.3-0.1c0-0.7-0.7-1.2-1.4-1.2c-0.4,0-0.8,0.1-1,0.4c-0.1,0.1-0.5,0.7-0.4,0.6C12.9,23.3,12.9,23.5,13,23.5
			L13,23.5z"/>
		<path d="M14,24.3c0.2-0.1,0.4-0.3,0.7-0.4c0.2-0.1,0.5-0.1,0.8-0.1c0.3,0,0.3-0.4,0-0.4c-0.3,0-0.6,0-0.9,0.1
			c-0.1,0.1-0.3,0.2-0.4,0.3c-0.1,0.1-0.1,0.2-0.2,0.3C13.9,24.2,14,24.3,14,24.3L14,24.3z"/>
	</g>
	<g>
		<path d="M40.5,23.2c0.1,0-0.3-0.6-0.4-0.6c-0.3-0.2-0.7-0.4-1-0.4c-0.6,0-1.3,0.5-1.4,1.2c0,0.2,0.2,0.2,0.3,0.1
			c0.3-0.5,0.6-0.9,1.2-0.8c0.5,0,0.8,0.3,1.1,0.7c0,0,0.1,0.1,0.1,0c0,0,0,0,0,0C40.6,23.4,40.6,23.2,40.5,23.2L40.5,23.2z"/>
		<path d="M39.6,24.1c-0.1-0.1-0.1-0.2-0.2-0.3c-0.1-0.1-0.3-0.2-0.4-0.3c-0.3-0.2-0.6-0.1-0.9-0.1c-0.3,0-0.3,0.4,0,0.4
			c0.3,0,0.6-0.1,0.8,0.1c0.2,0.1,0.4,0.3,0.7,0.4C39.5,24.2,39.6,24.2,39.6,24.1L39.6,24.1z"/>
	</g>
	<path d="M17.9,53c0.1-1.4,0.2-2.8,0.2-4.3c0-0.2-0.3-0.2-0.3,0c-0.1,1.4-0.2,2.8-0.2,4.3C17.6,53.2,17.9,53.2,17.9,53L17.9,53z"/>
	<path d="M35.9,53c-0.1-1.4-0.1-2.8-0.2-4.3c0-0.2-0.3-0.2-0.3,0c0.1,1.4,0.1,2.8,0.2,4.3C35.6,53.2,35.9,53.2,35.9,53L35.9,53z"/>
	<g>
		<path class="st0" d="M37.9,22.2c-0.1-6.7-2.2-13.7-11.2-13.6c-7.9,0-11,6.9-11.1,13.5c0,0.2,0,0.3,0,0.5c0,4.9,2.7,9.2,6.6,11.1
			c6.1,0.2,11.6-3.1,15.3-7.8c0.3-1.1,0.4-2.2,0.4-3.4C37.9,22.4,37.9,22.3,37.9,22.2z"/>
		<path class="st2" d="M22.2,33.6c1.4,0.7,3,1.1,4.6,1.1c5.1,0,9.4-3.8,10.7-8.9C33.8,30.5,28.2,33.8,22.2,33.6z"/>
	</g>
	<path d="M22.7,22.6c0,0.5-0.3,0.9-0.7,0.9c-0.4,0-0.7-0.4-0.7-0.9c0-0.5,0.3-0.9,0.7-0.9C22.4,21.8,22.7,22.2,22.7,22.6z"/>
	<path d="M32.6,22.6c0,0.5-0.3,0.9-0.7,0.9c-0.4,0-0.7-0.4-0.7-0.9c0-0.5,0.3-0.9,0.7-0.9C32.3,21.8,32.6,22.2,32.6,22.6z"/>
	<path d="M26,26.8c-0.1,0.4,0.2,1,0.5,1.2c0.3,0.2,0.9,0.4,1.3,0.2c0.1-0.1,0.1-0.2,0-0.3c-0.3-0.2-0.7,0-1-0.2
		c-0.3-0.2-0.4-0.6-0.6-0.9C26.1,26.7,26,26.7,26,26.8L26,26.8z"/>
	<path d="M26.5,20.7c0.1,0.2,0,1.2,0,1.5c0,0.3,0,0.6,0,1c0,0.4-0.1,0.9,0.1,1.3c0.1,0.2,0.2,0.3,0.5,0.4c0.2,0,0.3-0.1,0.4-0.2
		c1-0.3,0.9,1,0,1.1c-0.2,0-0.1,0.4,0.1,0.4c1-0.2,1.4-2.2,0.2-2.1c-0.5,0.1-0.8,0.6-1-0.1c-0.1-0.3,0-0.6,0-0.9
		c0-0.5,0.3-2.1-0.2-2.4C26.6,20.4,26.5,20.6,26.5,20.7L26.5,20.7z"/>
	<path d="M19.9,20.4C19.9,20.4,19.8,20.4,19.9,20.4c0,0.1,0.1,0.2,0.2,0.1c0.5-0.6,1-1.1,1.6-1.6c0.6-0.4,1.2-0.7,1.7-1.2
		c0.1-0.1,0-0.3-0.2-0.2C21.9,18.3,20.7,19.2,19.9,20.4c0.1,0,0.1,0,0.2,0c0,0,0,0,0,0C20,20.3,19.9,20.3,19.9,20.4L19.9,20.4z"/>
	<path d="M31.2,18.2c0,0,0,0.1,0.1,0.1c0-0.1,0.1-0.1,0.1-0.2c0,0,0,0,0,0c-0.1,0-0.2,0.2-0.1,0.2c0.5,0.3,1.1,0.6,1.6,1
		c0.4,0.4,0.7,0.9,1.1,1.3c0.1,0.1,0.3,0,0.2-0.2c-0.7-1.1-1.6-1.8-2.8-2.3c0,0.1,0,0.2-0.1,0.2c0,0,0,0,0,0c0.1,0,0.2-0.1,0.1-0.2
		c0,0-0.1,0-0.1-0.1C31.2,18,31.1,18.1,31.2,18.2L31.2,18.2z"/>
	<path class="st2" d="M24,27.4c-0.3,0.9-1.6,1.3-2.9,0.9c-1.3-0.4-2.1-1.5-1.8-2.5c0.3-0.9,1.6-1.3,2.9-0.9
		C23.5,25.4,24.3,26.5,24,27.4z"/>
	<path class="st2" d="M35,26.1c0.3,0.9-0.6,2-1.9,2.4c-1.3,0.4-2.6,0-2.9-1c-0.3-0.9,0.6-2,1.9-2.4C33.4,24.7,34.7,25.1,35,26.1z"/>
	<path d="M22.3,41.9c0,0.1,0,0.1,0.1,0.1c0.1,0.1,0.4,0.1,0.5,0.2c0.2,0.1,0.4,0.2,0.6,0.3c0.6,0.2,1.2,0.4,1.8,0.5
		c0.1,0,0.2-0.2,0.1-0.2c-1-0.4-2.1-0.6-3-1C22.3,41.8,22.2,41.8,22.3,41.9L22.3,41.9z"/>
	<path d="M28.6,43.2c0.9-0.3,1.7-0.8,2.5-1.3c0.1-0.1,0-0.3-0.1-0.2c-0.8,0.5-1.6,1-2.4,1.3C28.4,43,28.5,43.2,28.6,43.2L28.6,43.2z
		"/>
	<path class="st3" d="M44.4,14.7c-0.5-1.5-1.3-2.9-2.3-4.1c-2.4-2.9-11.2-8.4-21-3.6C27.5,12.6,35.9,14.9,44.4,14.7z"/>
	<path class="st3" d="M8,43.9c6.2-4.4,9.4-10.4,8.5-16.9c-0.2-0.4-0.3-0.6-0.3-0.6s-3.4,0.9-3.8-3.1c-0.2-3,2.9-3.2,3.3-3.2
		c0,0,5.6-3.6,6.3-6.7c0,0,0.3-0.2,0.7-0.4c-1.8-1.2-3.5-2.6-5-4.1c-0.2,0.1-0.3,0.2-0.5,0.4c0,0-8.5,0.4-9.5,9.1
		C7,24.9,9.3,25,10.8,29c0,0,1.8,4.3,0,7.2c-1.8,2.9-5.2,4.7-3.7,8.1c0.1,0.2,0.1,0.3,0.2,0.5C7.5,44.4,7.7,44.1,8,43.9z"/>
	<path class="st4" d="M19.4,31.4c-1.6-1.6-2.6-3.5-3-4.4c0.9,6.5-2.3,12.5-8.5,16.9c-0.3,0.2-0.5,0.5-0.7,0.8
		c1.5,2.8,3.6,2.1,3.6,2.1s-0.7,3.4,3.4,5l1-6.2c0,0,0.1-4,2.8-5c2.7-0.9,4.9-1.3,4.9-1.3s1.5-0.8,2-4.7
		C25,34.6,21.7,33.7,19.4,31.4z"/>
	<path class="st4" d="M39.4,34.7c-2.3-1.3-2.7-4.1-2.6-7c-0.9,2-3.1,5.4-7.8,6.8c0,0,0.2,3.3,2.2,4.8c0,0,5.2,0.3,6.9,4.3
		c0.4,2.6,1.2,8,1.2,8s3.6,0.1,4.3-3.2c0,0,0,0,0.1,0C44.9,43.2,45.2,37.5,39.4,34.7z"/>
	<path class="st3" d="M48.1,41.7c-1.2-6.1-4.5-5.1-4.9-8c-0.3-2.9,1.5-5.6,1.9-10.7c0.1-1.1,0.1-2.1,0.1-3.1
		c-4.5,0.2-9.2-0.6-13.6-2.2c1.8,2.3,3.7,3.8,6.2,3.4c0,0,3.4-0.6,3.8,1.8c0.4,2.5-2.3,4.4-4.3,3.4c0,0-0.1,0.6-0.5,1.4
		c-0.1,2.9,0.3,5.6,2.6,7c5.8,2.9,5.5,8.5,4.3,13.8C44.4,48.3,49.2,47.3,48.1,41.7z"/>
	<path class="st5" d="M45.2,19.8c-0.1-1.9-0.3-3.6-0.8-5.2c-8.5,0.2-16.9-2-23.3-7.7c-1.1,0.5-2.2,1.2-3.3,2c1.5,1.5,3.2,2.9,5,4.1
		c1.4-0.6,4.6-1.6,6.6,1.3c0.8,1.2,1.6,2.3,2.3,3.2C36,19.2,40.7,20,45.2,19.8z"/>
	<path d="M14.6,25.4c-0.9-0.2-1.8,0.4-2.2,1.3c-0.4,1.1,0.2,2.3,1,3c1.3,1,3.3,0.5,3.7-1.3c0.1-0.3-0.4-0.4-0.5-0.1
		c-0.3,1-1.3,1.7-2.3,1.4c-2-0.7-2.4-3.9,0.2-4C14.7,25.7,14.8,25.4,14.6,25.4L14.6,25.4z"/>
	<path d="M38.8,25.9c2,0.1,2.3,2.4,1,3.5c-1.1,0.9-2.3,0.6-3-0.6c-0.2-0.3-0.6,0-0.4,0.3c0.9,1.7,2.9,1.8,4.1,0.3
		c0.6-0.7,0.8-1.7,0.4-2.6c-0.4-0.8-1.2-1.3-2.1-1.1C38.6,25.7,38.7,25.9,38.8,25.9L38.8,25.9z"/>
</g>
</svg>
