<?xml version="1.0" encoding="utf-8"?>
<!-- Generator: Adobe Illustrator 24.3.0, SVG Export Plug-In . SVG Version: 6.00 Build 0)  -->
<svg version="1.1" id="WordPress" xmlns="http://www.w3.org/2000/svg" xmlns:xlink="http://www.w3.org/1999/xlink" x="0px" y="0px"
	 viewBox="0 0 55 55" style="enable-background:new 0 0 55 55;" xml:space="preserve">
<style type="text/css">
	.st0{fill:#F9B28F;}
	.st1{fill:#FEB01B;}
	.st2{fill:#DB4D28;}
	.st3{fill:#FCCFB6;}
	.st4{fill:#FCCEB6;}
	.st5{fill:#E95F33;}
	.st6{fill:#2C2945;}
</style>
<g>
	<g>
		<path class="st0" d="M17.9,24.2c0,1.7-1.3,3.2-3,3.2s-3-1.4-3-3.2c0-1.7,1.3-3.2,3-3.2S17.9,22.4,17.9,24.2z"/>
		<path class="st0" d="M40.8,24.2c0,1.7-1.3,3.2-3,3.2s-3-1.4-3-3.2c0-1.7,1.3-3.2,3-3.2S40.8,22.4,40.8,24.2z"/>
		<path class="st1" d="M22.6,39.8c0,0-6.6,0.5-7.2,3.9c-0.5,3.1-1.3,8.2-1.3,8.2s12.6,5.8,24.3,0l-1.2-8.3c0,0-1.4-3.7-6.6-3.9
			L22.6,39.8z"/>
		<path class="st2" d="M28.2,34.4c-0.2,0,0.7,3.6,0.3,4c-0.5,0.4,3.1,0.2,4.6,0.2c1.5,0,3.6,0.8,4.4-0.5c0.8-1.3-0.9-3.7-1-5.4
			c-0.1-1.7-0.2-3.8-0.2-3.8S29.8,34.4,28.2,34.4z"/>
		<path class="st3" d="M22.6,39.8c0,0,1,1.3,3.9,1.3s4.1-1.3,4.1-1.3s-1-1-1.7-2.5c-1.6,0.7-3.5,1.1-5.3,1.2
			C23.4,38.9,23,39.4,22.6,39.8z"/>
		<path class="st0" d="M24.5,35.1c0,0-0.1,1.8-0.9,3.3c1.8-0.1,3.7-0.5,5.3-1.2c-0.3-0.6-0.5-1.4-0.5-2.2
			C28.4,35,26.3,35.4,24.5,35.1z"/>
		<path class="st4" d="M37.1,23.3c0,6.6-4.9,11.9-10.9,11.9c-6,0-10.9-5.3-10.9-11.9S18.4,9.7,26.3,9.7
			C35.2,9.7,37.1,16.7,37.1,23.3z"/>
		<path class="st0" d="M23.5,27.5c-0.3,1.1-1.8,1.6-3.4,1.1c-1.6-0.4-2.6-1.7-2.3-2.7c0.3-1.1,1.8-1.6,3.4-1.1
			C22.8,25.2,23.8,26.4,23.5,27.5z"/>
		<path class="st0" d="M35,26.2c0.2,1.1-0.9,2.2-2.6,2.5c-1.6,0.3-3.1-0.4-3.3-1.4c-0.2-1.1,0.9-2.2,2.6-2.5
			C33.3,24.4,34.8,25.1,35,26.2z"/>
		<g>
			<path d="M12.8,24.3C12.8,24.4,12.8,24.4,12.8,24.3c0.1,0,0.1,0,0.2,0c0.3-0.3,0.6-0.6,1.1-0.6c0.6,0,0.8,0.4,1.1,0.8
				c0.1,0.1,0.4,0.1,0.5-0.1c0.1-0.8-0.8-1.4-1.5-1.4c-0.7,0-1.4,0.5-1.5,1.2c0-0.1,0.1-0.1,0.1-0.2c0,0,0,0,0,0
				C12.6,24.1,12.6,24.3,12.8,24.3L12.8,24.3z"/>
			<path d="M13.9,25.1c0.2-0.1,0.5-0.2,0.7-0.3c0.2-0.1,0.5-0.1,0.7-0.1c0.5,0,0.5-0.7,0-0.7c-0.3,0-0.7,0-1,0.2
				c-0.2,0.1-0.3,0.2-0.4,0.3c-0.1,0.1-0.1,0.3-0.2,0.4C13.6,25,13.7,25.2,13.9,25.1L13.9,25.1z"/>
		</g>
		<g>
			<path d="M39.7,24C39.7,24,39.7,24,39.7,24c0,0,0.1,0.1,0.1,0.2c0-0.8-0.8-1.2-1.5-1.2c-0.7,0-1.6,0.6-1.5,1.4
				c0,0.2,0.3,0.3,0.5,0.1c0.3-0.4,0.5-0.8,1.1-0.8c0.5,0,0.8,0.3,1.1,0.6c0,0,0.1,0.1,0.2,0c0,0,0,0,0,0
				C39.9,24.3,39.9,24.1,39.7,24L39.7,24z"/>
			<path d="M38.8,24.9c-0.1-0.1-0.1-0.2-0.2-0.4c-0.1-0.1-0.3-0.3-0.4-0.3c-0.3-0.2-0.7-0.2-1-0.2c-0.5,0-0.5,0.7,0,0.7
				c0.3,0,0.5-0.1,0.7,0.1c0.2,0.1,0.4,0.2,0.7,0.3C38.8,25.2,38.9,25,38.8,24.9L38.8,24.9z"/>
		</g>
		<path class="st5" d="M15.7,27.2c-1,0.3-3.6-0.2-3.8-3c0.3-3.4,3.6-3.2,3.6-3.2c3.1-2.7,2.9-8.6,2.9-8.6l-0.1-1.2
			c0,0-0.9-4.6-1.8-4.3c-0.8,0.3,0.5,4.3,0.5,4.3s-2.4-2.9-3-2.2c-0.6,0.7,2.9,2.8,2.9,2.8C11,11,9,15.9,9.5,17.5s2.8,3.4,0.4,5.4
			s-2.6,4.7-1.7,5.9c0.9,1.2,2.6,1.9,2.3,3.9s-1.3,4.2-0.3,5.2c0.4,0.4,2.6,0.7,3.8,0.7c0.6,0,0.8-2.4,0.8-2.4
			c0.5,0,0.1,2.3,0.7,2.2c0.4,0,1.1,0,1.8,0.1C18.6,35,16.2,31,15.7,27.2z"/>
		<path class="st2" d="M23.3,34.8c-5.5-2-7.3-7.7-7.3-7.7c-0.1,0-0.2,0.1-0.3,0.1c0.5,3.8,2.8,7.8,1.7,11.3c0.6,0.1,1.2,0.1,1.6,0.1
			c2.9,0,4.5,0.1,4.6-0.1c0.8-1.1,0.9-3.4,0.9-3.4L23.3,34.8z"/>
		<g>
			<path class="st1" d="M14.6,26.3c-0.8,0-1.2,0.9-1.4,1.6c-0.2,0.9,0,1.9,0.6,2.6c1.1,1.2,2.9,1.8,4.1,0.5c0.2-0.2-0.1-0.6-0.4-0.4
				c-0.9,0.9-2.1,0.7-3.1,0c-1.2-0.9-1.6-3.5,0.1-4.1C14.7,26.4,14.7,26.3,14.6,26.3L14.6,26.3z"/>
		</g>
		<path d="M26.2,41.1c0,4.5,0.1,8.9,0.1,13.4c0,0.3,0.5,0.3,0.5,0c0-4.5-0.1-8.9-0.1-13.4C26.7,40.7,26.2,40.7,26.2,41.1L26.2,41.1z
			"/>
		<path d="M17.8,53.1c0.1-1.4,0.1-2.8,0.2-4.1c0-0.3-0.5-0.3-0.5,0c-0.1,1.4-0.1,2.8-0.2,4.1C17.3,53.5,17.8,53.5,17.8,53.1
			L17.8,53.1z"/>
		<path d="M35.4,53.1c0-1.4-0.1-2.8-0.1-4.2c0-0.3-0.6-0.3-0.5,0c0,1.4,0.1,2.8,0.1,4.2C34.9,53.5,35.4,53.5,35.4,53.1L35.4,53.1z"
			/>
		<path class="st5" d="M28,44.6c0,0.3-0.2,0.5-0.4,0.5c-0.2,0-0.4-0.2-0.4-0.5c0-0.3,0.2-0.5,0.4-0.5C27.8,44.1,28,44.3,28,44.6z"/>
		<ellipse class="st5" cx="27.8" cy="52.6" rx="0.4" ry="0.5"/>
		<path class="st5" d="M28,48.7c0,0.3-0.2,0.5-0.4,0.5c-0.2,0-0.4-0.2-0.4-0.5c0-0.3,0.2-0.5,0.4-0.5C27.8,48.2,28,48.4,28,48.7z"/>
		<path class="st6" d="M23.5,38.6c0,0-1.7,0.3-2.2,0.9c-0.5,0.7-0.2,5,1,5.6c1.2,0.6,4-4,4-4s2.3,3.1,3.9,3.5
			c1.5,0.5,2.2-4.9,1.6-5.5c-0.6-0.5-2.1-0.7-2.1-0.7l1,1.3c0,0-1.7,1.1-4.4,1.1c-2.4,0-3.5-0.8-3.5-0.8L23.5,38.6z"/>
		<path d="M24.8,26.7c0.2,0.8,0.8,1.5,1.6,1.7c0.8,0.2,1.9,0.2,2.2-0.7c0.1-0.3-0.3-0.7-0.6-0.6c-0.2,0.1-0.3,0.2-0.5,0.3
			c-0.3,0.1-0.7,0.1-1,0c-0.5-0.1-1-0.5-1.3-1C25.1,26.3,24.7,26.4,24.8,26.7L24.8,26.7z"/>
		<path d="M26.8,26.3c1-0.2,2.3-1.7,1.2-2.5c-0.3-0.2-0.4,0-0.7-0.2c-0.8-0.4-0.7-0.7-0.7-1.6c0-1.4,0-2.8,0.2-4.2
			c0.1-0.4-0.7-0.5-0.8-0.1c-0.2,1.2-0.2,2.5-0.2,3.8c0,0.9-0.2,2,0.3,2.8c0.1,0.1,0.2,0.2,0.3,0.2c0.9,0,0.7,0.8,0.2,1.3
			C26.4,26.1,26.6,26.4,26.8,26.3L26.8,26.3z"/>
		<path d="M18,20.8c0.7-0.1,1.3-0.6,1.9-0.9c0.9-0.4,1.7-0.7,2.7-0.9c0.3-0.1,0.3-0.5,0.1-0.7c-0.7-0.5-2,0-2.6,0.4
			c-0.9,0.5-1.6,0.9-2.2,1.7C17.8,20.6,17.8,20.8,18,20.8L18,20.8z"/>
		<path d="M30.1,18.3c0.7,0.1,1.8,0.9,2.3,1.3c0.5,0.4,0.9,1.1,1.5,1.4c0.3,0.1,0.6-0.1,0.5-0.4c-0.2-0.8-1.1-1.4-1.8-1.8
			c-0.6-0.4-1.8-1.1-2.6-1C29.8,17.8,29.7,18.2,30.1,18.3L30.1,18.3z"/>
		<ellipse cx="21.1" cy="22.8" rx="0.8" ry="1"/>
		<ellipse cx="31.9" cy="22.8" rx="0.8" ry="1"/>
		<g>
			<path class="st6" d="M20.3,28.6c-2.8,0-5.1-2.3-5.1-5.1c0-2.8,2.3-5.1,5.1-5.1c2.8,0,5.1,2.3,5.1,5.1
				C25.4,26.3,23.1,28.6,20.3,28.6z M20.3,18.9c-2.5,0-4.6,2.1-4.6,4.6c0,2.5,2.1,4.6,4.6,4.6c2.5,0,4.6-2.1,4.6-4.6
				C24.9,21,22.8,18.9,20.3,18.9z"/>
		</g>
		<g>
			<path class="st6" d="M32.8,28.6c-2.8,0-5.1-2.3-5.1-5.1c0-2.8,2.3-5.1,5.1-5.1c2.8,0,5.1,2.3,5.1,5.1
				C37.9,26.3,35.6,28.6,32.8,28.6z M32.8,18.9c-2.5,0-4.6,2.1-4.6,4.6c0,2.5,2.1,4.6,4.6,4.6c2.5,0,4.6-2.1,4.6-4.6
				C37.4,21,35.3,18.9,32.8,18.9z"/>
		</g>
		<g>
			<path class="st6" d="M25.2,23.6l-0.3-0.3c0,0,1-1,3-0.2l-0.1,0.4C26.1,22.9,25.2,23.6,25.2,23.6z"/>
		</g>
		<g>
			<path class="st2" d="M25,8c-2.5,0.2-5,1.2-6.7,2c-0.1,0.1-0.1,0.3-0.2,0.4c0,0,0.1,1,0.3,2.9c0,0,3.8-3.6,9.5-1.9
				c1.6,0.4,2.6,1.2,2.7,2.3C31.5,11,29,7.7,25,8z"/>
			<path class="st5" d="M45.6,28.9c1.1-2,3-4.6,0.2-8.1c-2.7-3.5-3.8-1.5-4.2-6c-0.3-3.8-2.8-8-7.6-9.3C29.5,4.2,20.7,4.7,18.3,10
				C20,9.2,22.5,8.3,25,8c4-0.3,6.5,3,5.6,5.7c0,0.4,0,0.8-0.2,1.2c-0.7,1.8,0.6,4.3,4.4,7.1c3.3,2.5,1.9,4.1,0.7,7.7s-1.4,5,1,7
				c0.9,0.7,0.7,2.4,0.7,2.4s2.4-0.2,3.5,0c0.4,0.1-0.4-2,0.1-1.9c0.4,0,0.8,1.9,1.2,1.9c1.3,0,3,0.1,4.1-0.2
				c1.1-0.3,0.4-3.9-0.1-5.1S44.9,30.1,45.6,28.9z"/>
		</g>
	</g>
	<path d="M27.7,54.5c0.1-1.4,0.1-2.8,0.2-4.1c0-0.3-0.5-0.3-0.5,0c-0.1,1.4-0.1,2.8-0.2,4.1C27.1,54.8,27.6,54.8,27.7,54.5
		L27.7,54.5z"/>
	<path d="M27.8,54.5c0-1.4-0.1-2.8-0.1-4.2c0-0.3-0.6-0.3-0.5,0c0,1.4,0.1,2.8,0.1,4.2C27.3,54.8,27.9,54.8,27.8,54.5L27.8,54.5z"/>
</g>
</svg>
