<?xml version="1.0" encoding="utf-8"?>
<!-- Generator: Adobe Illustrator 24.3.0, SVG Export Plug-In . SVG Version: 6.00 Build 0)  -->
<svg version="1.1" id="WordPress" xmlns="http://www.w3.org/2000/svg" xmlns:xlink="http://www.w3.org/1999/xlink" x="0px" y="0px"
	 viewBox="0 0 55 55" style="enable-background:new 0 0 55 55;" xml:space="preserve">
<style type="text/css">
	.st0{fill:#E95F33;}
	.st1{fill:#FEB01B;}
	.st2{fill:#6B4E45;}
	.st3{fill:#826459;}
	.st4{fill:#2C2945;}
	.st5{fill:#1E1D35;}
	.st6{fill:#BF674F;}
	.st7{fill:#CD7659;}
	.st8{fill:#D67B63;}
</style>
<g>
	<g>
		<path d="M19.1,53.2c0.1-1.3,0.1-2.7,0.2-4c0-0.2-0.3-0.2-0.3,0c-0.1,1.3-0.1,2.7-0.2,4C18.8,53.4,19.1,53.4,19.1,53.2L19.1,53.2z"
			/>
		<path d="M36.2,53.2c0-1.3-0.1-2.7-0.1-4c0-0.2-0.3-0.2-0.3,0c0,1.3,0.1,2.7,0.1,4C35.9,53.4,36.2,53.4,36.2,53.2L36.2,53.2z"/>
		<g>
			<path class="st0" d="M27.9,42.5c2.7,0,4.2-1,5.2-2.2c-0.4-0.1-0.8-0.1-1.2-0.1L24,40.2c0,0-0.5,0-1.3,0.2
				C23.4,41.3,24.9,42.5,27.9,42.5z"/>
			<path class="st1" d="M38.9,48.3l-0.5-3.2l-0.2-1.3c0,0-0.4-1.1-1.7-2.1c-0.8-0.6-1.9-1.2-3.5-1.5c-1,1.3-2.5,2.2-5.2,2.2
				c-3,0-4.5-1.2-5.2-2.1c-1.2,0.2-2.9,0.6-4.1,1.5c-0.8,0.5-1.4,1.2-1.5,2.2c-0.1,0.4-0.2,0.9-0.2,1.4c-0.2,1.1-0.4,2.2-0.5,3.3
				C16,50.6,15.8,52,15.8,52s12.3,5.6,23.6-0.1L38.9,48.3z"/>
		</g>
		<path class="st2" d="M19.4,25.1c0,1.7-1.3,3.1-2.9,3.1c-1.6,0-2.9-1.4-2.9-3.1c0-1.7,1.3-3.1,2.9-3.1
			C18.1,22.1,19.4,23.4,19.4,25.1z"/>
		<path class="st2" d="M41.6,25c0,1.7-1.3,3.1-2.9,3.1c-1.6,0-2.9-1.4-2.9-3.1c0-1.7,1.3-3.1,2.9-3.1C40.3,22,41.6,23.3,41.6,25z"/>
		<path class="st3" d="M24,40.2c0,0,1,1.3,3.8,1.2c2.8,0,4-1.3,4-1.3s-1-0.9-1.6-2.4c-1.6,0.7-3.4,1.1-5.2,1.2
			C24.7,39.4,24.4,39.9,24,40.2z"/>
		<path class="st2" d="M25.8,35.7c0,0-0.1,1.7-0.8,3.2c1.8-0.1,3.6-0.5,5.2-1.2c-0.3-0.6-0.5-1.3-0.5-2.1
			C29.6,35.6,27.5,36.1,25.8,35.7z"/>
		<g>
			<path d="M14.5,25.2C14.5,25.2,14.5,25.2,14.5,25.2c0.1,0,0.1,0,0.1,0c0.3-0.4,0.6-0.6,1.1-0.7c0.6-0.1,0.9,0.3,1.2,0.8
				c0.1,0.1,0.3,0.1,0.3-0.1c0-0.6-0.7-1.1-1.3-1.1c-0.3,0-0.7,0.1-1,0.3c-0.1,0-0.4,0.6-0.3,0.6C14.4,25.1,14.4,25.2,14.5,25.2
				L14.5,25.2z"/>
			<path d="M15.5,26c0.2-0.1,0.4-0.2,0.6-0.4c0.2-0.1,0.5-0.1,0.8-0.1c0.2,0,0.2-0.4,0-0.4c-0.3,0-0.6,0-0.9,0.1
				c-0.1,0.1-0.3,0.2-0.4,0.3c-0.1,0.1-0.1,0.2-0.2,0.3C15.3,25.9,15.4,26,15.5,26L15.5,26z"/>
		</g>
		<g>
			<path d="M40.6,25c0.1,0-0.3-0.6-0.4-0.6c-0.3-0.2-0.6-0.3-1-0.3c-0.6,0-1.3,0.5-1.3,1.1c0,0.2,0.2,0.2,0.3,0.1
				c0.3-0.4,0.6-0.8,1.2-0.8c0.5,0,0.8,0.3,1.1,0.7c0,0,0.1,0,0.1,0c0,0,0,0,0,0C40.6,25.1,40.6,25,40.6,25L40.6,25z"/>
			<path d="M39.6,25.8c-0.1-0.1-0.1-0.2-0.2-0.3c-0.1-0.1-0.3-0.2-0.4-0.3c-0.3-0.1-0.6-0.1-0.9-0.1c-0.2,0-0.2,0.4,0,0.4
				c0.3,0,0.5,0,0.8,0.1c0.2,0.1,0.4,0.3,0.6,0.4C39.6,25.9,39.7,25.8,39.6,25.8L39.6,25.8z"/>
		</g>
		<path d="M19.1,53.2c0.1-1.3,0.1-2.7,0.2-4c0-0.2-0.3-0.2-0.3,0c-0.1,1.3-0.1,2.7-0.2,4C18.8,53.4,19.1,53.4,19.1,53.2L19.1,53.2z"
			/>
		<path d="M36.2,53.2c0-1.3-0.1-2.7-0.1-4c0-0.2-0.3-0.2-0.3,0c0,1.3,0.1,2.7,0.1,4C35.9,53.4,36.2,53.4,36.2,53.2L36.2,53.2z"/>
		<g>
			<path class="st3" d="M20.8,26.5c1.7,2.4,3,3.3,4.8,2.6c1.8-0.7,2.4-0.8,3.3-0.9c1.1-0.1,1.8,0.8,2.9,1.1c1.1,0.2,2-2.2,3.4-3.7
				c1.3-1.4,1.9-1.7,2.9-1.6C38,17.6,36,11,27.5,11c-7.5,0-10.4,6.5-10.5,12.8C18,24.1,19.6,24.9,20.8,26.5z"/>
			<path class="st4" d="M37.7,27.4c0.3-1,0.4-2.1,0.4-3.2c0-0.1,0-0.2,0-0.3c-1-0.1-1.5,0.2-2.9,1.6c-1.5,1.5-2.3,3.9-3.4,3.7
				c-1.1-0.2-1.8-1.1-2.9-1.1c-0.9,0.1-1.5,0.2-3.3,0.9c-1.8,0.7-3-0.2-4.8-2.6c-1.2-1.6-2.8-2.3-3.8-2.7c0,0.2,0,0.3,0,0.5
				c0,4.7,2.6,8.7,6.2,10.5C28.9,35,34.2,31.9,37.7,27.4z"/>
			<path class="st5" d="M23.2,34.8c1.3,0.7,2.8,1,4.4,1c4.8,0,8.9-3.6,10.1-8.4C34.2,31.9,28.9,35,23.2,34.8z"/>
		</g>
		<path d="M23.7,24.4c0,0.4-0.3,0.8-0.6,0.8c-0.4,0-0.6-0.4-0.6-0.8c0-0.5,0.3-0.8,0.6-0.8C23.4,23.6,23.7,24,23.7,24.4z"/>
		<ellipse cx="33.1" cy="24.4" rx="0.6" ry="0.8"/>
		<path class="st1" d="M19.5,16.9c0-0.2,0.1-0.4,0.1-0.5c0,0-0.1,0-0.1,0C19.5,16.5,19.5,16.7,19.5,16.9z"/>
		<path class="st1" d="M19.4,16.4C19.4,16.4,19.4,16.4,19.4,16.4C19.4,16.3,19.4,16.3,19.4,16.4z"/>
		<path class="st4" d="M38.2,12.1c1.7-2.1-2.1-4.5-9.4-4.2C21.5,8.2,17.9,11,17.9,11l-1.1,1.2l-0.3,1.3c-2.4,2.3-1.3,8.9-1.3,8.9
			c0.8-0.1,1.8,1.4,1.8,1.4c1.4-0.4,2.2-5.3,2.5-7c0-0.2-0.1-0.4-0.1-0.5c0,0,0,0,0,0c0-0.1,0-0.1,0,0c0,0,0.1,0,0.1,0
			c0-0.1,0-0.1,0-0.1c0.1,0,0.1,0.1,0.2,0.1C26.1,16.8,32.9,15.4,38.2,12.1C38.2,12.1,38.2,12.1,38.2,12.1z"/>
		<path class="st5" d="M19.7,16.4c3.4,2,14.8,0.8,14.9,1c0.3,1.7,2.7,6.5,3.5,6.5c0.2-1.3,0.7-1.8,0.7-1.8c0.3-2.8-0.8-6.7-0.8-6.7
			c1.5-1.8,0.3-3.1,0.2-3.3C32.9,15.4,26.1,16.8,19.7,16.4z"/>
		<path d="M27.6,29.5c-0.1,0.4,0.2,0.9,0.4,1.1c0.3,0.2,0.9,0.3,1.2,0.2c0.1-0.1,0.1-0.2,0-0.3c-0.3-0.2-0.6,0-0.9-0.2
			c-0.3-0.2-0.4-0.6-0.5-0.9C27.7,29.4,27.6,29.4,27.6,29.5L27.6,29.5z"/>
		<path d="M29.2,27.3c0.6-0.4,2-2.2,0.8-2.6c-1-0.4-1.3,1.7-2.2-0.2c-0.2-0.5,0-1.6,0-2.1c0-0.7-0.1-2.1,0.2-2.6
			c0.1-0.1-0.1-0.3-0.2-0.2c-0.4,0.2-0.3,1.4-0.4,1.8c-0.1,1.1-0.3,2.7,0.1,3.8c0.1,0.4,0.2,0.8,0.7,0.9c0.3,0,0.4-0.3,0.7-0.4
			c0.4-0.5,0.7-0.3,1,0.4c-0.2,0.5-0.5,0.9-0.9,1.2C29,27.3,29.1,27.4,29.2,27.3L29.2,27.3z"/>
		<path class="st4" d="M19.2,22.1c0,0,2.2-2.8,3.8-3.2c0.8-0.3,0.9,0.3,0.8,0.5c0,0,0.4,0.5-0.2,0.9c0,0-0.1,0.5-0.9,0.6
			C22,21,18.8,22.8,19.2,22.1z"/>
		<path class="st4" d="M36.1,22.1c0,0-2.2-2.8-3.8-3.2c-0.8-0.3-0.9,0.3-0.8,0.5c0,0-0.4,0.5,0.2,0.9c0,0,0.1,0.5,0.9,0.6
			C33.3,21,36.5,22.8,36.1,22.1z"/>
	</g>
	<path class="st6" d="M14.7,17.1c0,0-0.8-5.7,0.7-7C17,8.9,28.1,4.6,34.3,5c3.9-0.2,4.6,7.6,4.7,7.3C39,12,14.7,17.1,14.7,17.1z"/>
	<g>
		<path class="st7" d="M35.8,13.4c-9.4-0.3-18.8,3.3-23,6.7c-2.1,1.7-0.9,3.3,0.9,4.3c0.1-0.7,0.4-1.6,1.2-1.9
			c1.9-0.6,2.4,1.3,2.4,1.3l0.2-3.7c5.2-2.8,14.9-5.7,19.5-3.9c1.3,0.5,1.2,6.4,1.2,6.4s2.4-0.6,4.3-1.7C44,17,43.3,13.7,35.8,13.4z
			"/>
		<path class="st8" d="M46.2,13.9c-3.3-5.1-18.7-2-27.2,1c-8.5,3-11.3,4.7-10.7,7.4c0.6,2.7,5.3,2.9,5.3,2.9s0-0.3,0.1-0.6
			c-1.8-1.1-3-2.6-0.9-4.3c4.2-3.4,13.7-7,23-6.7c7.5,0.2,8.2,3.6,6.6,7.5C45.2,19.4,48.1,16.8,46.2,13.9z"/>
	</g>
</g>
</svg>
