<?xml version="1.0" encoding="utf-8"?>
<!-- Generator: Adobe Illustrator 24.3.0, SVG Export Plug-In . SVG Version: 6.00 Build 0)  -->
<svg version="1.1" id="WordPress" xmlns="http://www.w3.org/2000/svg" xmlns:xlink="http://www.w3.org/1999/xlink" x="0px" y="0px"
	 viewBox="0 0 55 55" style="enable-background:new 0 0 55 55;" xml:space="preserve">
<style type="text/css">
	.st0{fill:#F9B28F;}
	.st1{fill:#FAD8B4;}
	.st2{fill:#F2A381;}
	.st3{fill:#FEB01B;}
	.st4{fill:#BF674F;}
	.st5{fill:#CD7659;}
	.st6{fill:#D67B63;}
</style>
<g>
	<g>
		<path d="M17.7,53.4c0.1-1.4,0.2-2.9,0.2-4.3c0-0.4-0.6-0.4-0.6,0c-0.1,1.4-0.2,2.9-0.2,4.3C17.1,53.7,17.7,53.7,17.7,53.4
			L17.7,53.4z"/>
		<path d="M36,53.4c-0.1-1.4-0.1-2.9-0.2-4.3c0-0.4-0.6-0.4-0.6,0c0.1,1.4,0.1,2.9,0.2,4.3C35.4,53.7,36,53.7,36,53.4L36,53.4z"/>
		<path class="st0" d="M31.2,39.4c0,0-0.1,0-0.1,0l-8.4,0.1c0,0-0.4,0-0.9,0.1c1.6,3.5,2.7,7,5.4,9.6C28.6,46,30.3,42.8,31.2,39.4z"
			/>
		<g>
			<path class="st0" d="M14.4,49.5C14.2,51,14,52.1,14,52.1s1.4,0.6,3.6,1.3l0.1-2.8L14.4,49.5z"/>
			<path class="st1" d="M38.9,49.5l-0.2-1.3l-0.5-3.4L38,43.4c0,0-0.5-1.2-1.8-2.3c-0.9-0.7-2.1-1.3-3.7-1.6
				c-0.4-0.1-0.8-0.1-1.2-0.1c-0.9,3.4-2.6,6.6-4,9.8c-2.7-2.7-3.8-6.1-5.4-9.6c-0.1,0-0.3,0-0.4,0.1c-1.2,0.2-3.1,0.7-4.4,1.6
				c-0.8,0.6-1.5,1.3-1.6,2.3c-0.1,0.5-0.2,1-0.2,1.5c-0.2,1.1-0.4,2.4-0.5,3.5c0,0.3-0.1,0.6-0.1,0.9l3.3,1.2l-0.1,2.8
				c4,1.1,11,2.3,18,0.1l-0.1-2.9L38.9,49.5z"/>
			<path class="st0" d="M38.9,49.5l-3.3,1.2l0.1,2.9c1.2-0.4,2.4-0.9,3.6-1.5L38.9,49.5z"/>
		</g>
		<path class="st2" d="M17.9,23.3c0,1.8-1.4,3.3-3.1,3.3c-1.7,0-3.1-1.5-3.1-3.3c0-1.8,1.4-3.3,3.1-3.3C16.5,20,17.9,21.5,17.9,23.3
			z"/>
		<path class="st2" d="M41.6,23.2c0,1.8-1.4,3.3-3.1,3.3c-1.7,0-3.1-1.5-3.1-3.3c0-1.8,1.4-3.3,3.1-3.3C40.2,20,41.6,21.4,41.6,23.2
			z"/>
		<path class="st0" d="M22.7,39.5c0,0,1.1,1.3,4,1.3c3,0,4.3-1.4,4.3-1.4s-1.1-1-1.7-2.6c-1.7,0.8-3.6,1.2-5.5,1.3
			C23.6,38.6,23.2,39.1,22.7,39.5z"/>
		<path class="st2" d="M24.7,34.6c0,0-0.1,1.9-0.9,3.4c1.9-0.1,3.8-0.5,5.5-1.3c-0.3-0.7-0.5-1.4-0.6-2.2
			C28.8,34.6,26.5,35.1,24.7,34.6z"/>
		<g>
			<path d="M12.5,23.5c0.3,0.1,0.6-0.4,0.8-0.5c0.3-0.2,0.7-0.2,1-0.1c0.3,0.2,0.4,0.5,0.7,0.7c0.2,0.2,0.5,0.1,0.5-0.1
				c0.1-0.8-0.8-1.5-1.5-1.5c-0.8,0-1.5,0.5-1.6,1.3c0-0.1,0.1-0.1,0.1-0.2c0,0,0,0,0,0C12.4,23.2,12.4,23.5,12.5,23.5L12.5,23.5z"
				/>
			<path d="M13.6,24.3c0.3-0.1,0.5-0.2,0.7-0.3c0.2-0.1,0.5-0.1,0.8-0.1c0.5,0,0.5-0.8,0-0.8c-0.4,0-0.8,0-1.1,0.2
				c-0.2,0.1-0.3,0.2-0.4,0.4c-0.1,0.1-0.1,0.1-0.1,0.2c0,0,0,0.1,0,0.1c0,0.1,0,0.1,0,0C13.4,24.2,13.5,24.4,13.6,24.3L13.6,24.3z"
				/>
		</g>
		<g>
			<path d="M40.5,23.1C40.5,23.1,40.5,23.1,40.5,23.1c0,0.1,0.1,0.1,0.1,0.2c0-0.8-0.8-1.3-1.6-1.3c-0.7,0-1.7,0.7-1.5,1.5
				c0,0.2,0.4,0.3,0.5,0.1c0.2-0.2,0.3-0.5,0.6-0.7c0.3-0.2,0.8-0.2,1.1,0c0.2,0.1,0.5,0.6,0.8,0.5C40.7,23.4,40.7,23.1,40.5,23.1
				L40.5,23.1z"/>
			<path d="M39.6,24C39.6,24.1,39.6,24.1,39.6,24c0,0,0-0.1,0-0.1c0-0.1,0-0.1-0.1-0.2c-0.1-0.2-0.3-0.3-0.5-0.4
				c-0.3-0.2-0.7-0.2-1.1-0.2c-0.5,0-0.5,0.8,0,0.8c0.3,0,0.5-0.1,0.8,0.1c0.2,0.1,0.5,0.2,0.7,0.3C39.5,24.3,39.7,24.1,39.6,24
				L39.6,24z"/>
		</g>
		<path d="M17.7,53.4c0.1-1.4,0.2-2.9,0.2-4.3c0-0.4-0.6-0.4-0.6,0c-0.1,1.4-0.2,2.9-0.2,4.3C17.1,53.7,17.7,53.7,17.7,53.4
			L17.7,53.4z"/>
		<path d="M36,53.4c-0.1-1.4-0.1-2.9-0.2-4.3c0-0.4-0.6-0.4-0.6,0c0.1,1.4,0.1,2.9,0.2,4.3C35.4,53.7,36,53.7,36,53.4L36,53.4z"/>
		<g>
			<path class="st0" d="M37.8,22.1c-0.1-6-1.7-12.2-8.4-13.5c-1.8,7-6.8,12.9-14.2,13.6c0,0.1,0,0.2,0,0.4c0,5,2.7,9.3,6.7,11.3
				c6.1,0.2,11.8-3.2,15.5-7.9c0.3-1.1,0.4-2.2,0.4-3.4C37.8,22.3,37.8,22.2,37.8,22.1z"/>
			<path class="st2" d="M29.4,8.5c-0.9-0.2-1.9-0.3-2.9-0.3c-8,0-11.1,7-11.2,13.7c0,0.1,0,0.1,0,0.2C22.6,21.5,27.6,15.5,29.4,8.5z
				"/>
			<path class="st2" d="M21.9,33.7c1.4,0.7,3,1.1,4.7,1.1c5.2,0,9.5-3.8,10.8-9C33.7,30.5,28,33.9,21.9,33.7z"/>
		</g>
		<path d="M22.4,22.6c0,0.5-0.3,0.9-0.7,0.9c-0.4,0-0.7-0.4-0.7-0.9s0.3-0.9,0.7-0.9C22.1,21.7,22.4,22.1,22.4,22.6z"/>
		<ellipse cx="32.5" cy="22.6" rx="0.7" ry="0.9"/>
		<path class="st3" d="M18,14.5c0-0.2,0.1-0.4,0.1-0.5c0,0-0.1,0-0.1,0C17.9,14.1,17.9,14.3,18,14.5z"/>
		<path class="st3" d="M17.9,14C17.9,14,17.9,14,17.9,14C17.9,13.9,17.9,13.8,17.9,14z"/>
		<path d="M26,27c-0.3,0.3,0,1,0.2,1.3c0.3,0.4,0.9,0.5,1.4,0.4c0.2,0,0.4-0.1,0.4-0.3c0-0.1,0-0.1,0-0.2c0-0.2-0.2-0.3-0.4-0.3
			c-0.3,0-0.7,0.1-0.9-0.2c-0.2-0.3-0.2-0.6-0.5-0.8C26.2,26.9,26.1,26.9,26,27L26,27z"/>
		<path d="M28.1,26.6c0.7-0.4,2.3-2.6,0.8-3.1c-1.1-0.3-1.7,1.6-2.2-0.5c-0.3-1.1-0.1-3.6,0.2-4.6c0.1-0.2-0.2-0.5-0.4-0.4
			C26,18.2,26,19,26,19.5c-0.1,1.4-0.3,3.2,0,4.6c0.1,0.5,0.3,1.1,0.9,1.1c0.3,0,0.5-0.2,0.7-0.3c0.4-0.2,0.4-0.5,0.8-0.1
			c0.5,0.5-0.2,1.1-0.6,1.5C27.7,26.4,27.9,26.7,28.1,26.6L28.1,26.6z"/>
	</g>
	<path class="st4" d="M15.2,44.3c0,0,0.2-2.5,3.4-3.9c2.1-1.2,4.1-0.9,4.1-0.9s2-1.1,2-4.8c0,0-6.7-1.2-8.9-8.2c0,0,0,0-0.1,0
		c0,5.9-0.2,12-1.4,17.7L15.2,44.3z"/>
	<path class="st4" d="M37.3,26.3c0,0-1.9,6.6-8.5,8.3c0,0,0,2.8,2.3,4.9c0,0,5,0.2,6.8,3.9c1.9,3.7,0,0.1,0,0.1l0.6,4.1
		c0,0,2.5-0.4,4.6-1.4c-3.2-5.8-3.6-13-5.2-19.7C37.7,26.4,37.5,26.4,37.3,26.3z"/>
	<path class="st5" d="M42,13.7c-1.5-3.4-3.7-6.3-6.9-7.8C31.7,4.3,29,5,27.6,5.6C30.8,10.4,36.2,12.8,42,13.7z"/>
	<path class="st6" d="M43.9,19.1c-0.5-1.8-1.1-3.7-1.9-5.4c-5.7-1-11.2-3.4-14.3-8.2c-0.7,0.3-1,0.5-1,0.5s-0.4-0.1-1-0.2
		C28.6,13.3,35.9,19.3,43.9,19.1z"/>
	<path class="st5" d="M43.9,19.1c-8,0.2-15.4-5.8-18.3-13.2c-2.9-0.4-11.1-0.8-14,7.1c-3.5,9.6-3.3,19.7-4.2,23
		c-0.9,3.3-2.1,5.6-2.1,5.6l4.6,1.2l1.6-3.8v4.6l2.7,0.5c1.2-5.8,1.4-11.9,1.4-17.7c-0.5,0-3.6,0.2-3.8-2.9
		c-0.1-3.3,2.4-3.5,3.3-3.2c0,0,8.6-2.1,11.7-8.6c0,0,4.9,7.3,11,8.6c0,0,3.4-0.6,3.5,2.6c0.1,2.7-2,3.6-3.4,3.4
		c1.6,6.7,2,13.9,5.2,19.7c0.4-0.2,0.8-0.4,1.2-0.6l-1-5.4l2.5,4.4l3.8-2.4c0,0-3.1-11.4-4.4-17.6C44.9,22.9,44.5,21,43.9,19.1z"/>
	<path class="st2" d="M23.2,27c-0.2,0.8-1.5,1.2-2.9,0.8c-1.4-0.3-2.4-1.2-2.2-2c0.2-0.8,1.5-1.2,2.9-0.8
		C22.4,25.3,23.4,26.2,23.2,27z"/>
	<path class="st2" d="M34.7,24.9c0.4,0.7-0.3,1.9-1.5,2.6c-1.2,0.7-2.6,0.8-3,0.1c-0.4-0.7,0.3-1.9,1.5-2.6
		C33,24.3,34.3,24.2,34.7,24.9z"/>
	<path d="M19.2,20.8c0-0.1,0.9-0.9,1-1.1c0.6-0.6,1.4-0.9,2-1.4c0.2-0.1,0.1-0.5-0.2-0.4c-0.7,0.3-1.4,0.7-2,1.2
		c-0.5,0.4-1,1.1-1.2,1.7c-0.1,0.2,0.2,0.3,0.3,0.1C19.2,20.9,19.2,20.8,19.2,20.8L19.2,20.8z"/>
	<path d="M31.3,17.3C31.3,17.3,31.3,17.3,31.3,17.3c-0.3,0-0.3,0.3-0.1,0.4c0.5,0.3,1,0.6,1.5,1c0.5,0.4,1,0.9,1.5,1.3
		c0.2,0.1,0.5,0,0.4-0.3C33.8,18.6,32.4,17.9,31.3,17.3c0,0.2,0,0.3,0,0.4c0,0,0,0,0,0C31.6,17.7,31.6,17.3,31.3,17.3L31.3,17.3z"/>
</g>
</svg>
