<?xml version="1.0" encoding="utf-8"?>
<!-- Generator: Adobe Illustrator 24.3.0, SVG Export Plug-In . SVG Version: 6.00 Build 0)  -->
<svg version="1.1" id="WordPress" xmlns="http://www.w3.org/2000/svg" xmlns:xlink="http://www.w3.org/1999/xlink" x="0px" y="0px"
	 viewBox="0 0 55 55" style="enable-background:new 0 0 55 55;" xml:space="preserve">
<style type="text/css">
	.st0{fill:#1E1D35;}
	.st1{fill:#549E87;}
	.st2{fill:#F9B28F;}
	.st3{fill:#64AD99;}
	.st4{fill:#FCCEB6;}
	.st5{fill:#2C2945;}
	.st6{fill:#343351;}
</style>
<g>
	<path class="st0" d="M13.4,19.9c0,0,0.3,11-1.7,14.4c0,0,1.8,2.1,6.7,2.3c0,0,0.8-2.3,0.8-3.1c0,0,0.3,2.9,0.2,3.3
		c0,0,10.7,1.1,16.7,0.2c0,0,0-2.5,0.4-3.2c0,0,0.3,2.5,1,2.9c0,0,3.5,0.1,5.8-1.2c0,0-1.8-6.6-2-8.7s0.5-6.7,0.5-6.7"/>
	<g>
		<path class="st1" d="M24.3,36.5c0,0,2.9-0.7,7.4,0l1.5,2.7l-10.3,0.1L24.3,36.5z"/>
		<path class="st2" d="M18.8,23c0,1.8-1.4,3.3-3.1,3.3c-1.7,0-3.2-1.5-3.2-3.3c0-1.8,1.4-3.3,3.1-3.3C17.3,19.7,18.8,21.1,18.8,23z"
			/>
		<path class="st2" d="M42.7,22.9c0,1.8-1.4,3.3-3.1,3.3c-1.7,0-3.2-1.5-3.2-3.3c0-1.8,1.4-3.3,3.1-3.3
			C41.3,19.6,42.7,21.1,42.7,22.9z"/>
		<path class="st1" d="M34.7,41.4c0.5-0.3,1-0.8,1.4-1.2c-1-0.6-2.3-1-4.1-1.1l-8.4,0.1c0,0-0.7,0.1-1.7,0.3
			C24.9,43.2,30.4,43.8,34.7,41.4z"/>
		<path class="st3" d="M39,43.2c0,0-0.7-1.8-2.9-3c-0.4,0.4-0.9,0.8-1.4,1.2c-4.3,2.4-9.8,1.7-12.8-1.9c-2.1,0.4-5.3,1.5-5.7,3.9
			c-0.5,3.2-1.3,8.6-1.3,8.6s13.2,6,25.4-0.1L39,43.2z"/>
		<path class="st4" d="M23.7,39.2c0,0,1.1,1.4,4.1,1.3c3,0,4.3-1.4,4.3-1.4s-1.1-1-1.8-2.6c-1.7,0.8-3.6,1.2-5.6,1.3
			C24.5,38.4,24.1,38.9,23.7,39.2z"/>
		<path class="st2" d="M25.7,34.4c0,0-0.1,1.9-0.9,3.5c1.9-0.1,3.9-0.5,5.6-1.3c-0.3-0.7-0.5-1.4-0.6-2.3
			C29.8,34.3,27.4,34.8,25.7,34.4z"/>
		<path class="st4" d="M38.8,22c0,6.9-5,12.5-11.3,12.5c-6.3,0-11.4-5.5-11.4-12.4c0-6.9,3-14.3,11.3-14.3
			C36.8,7.8,38.8,15.1,38.8,22z"/>
		<g>
			<path d="M13.4,23.1C13.4,23.1,13.4,23.1,13.4,23.1c0.1,0,0.1,0,0.1,0c0.3-0.4,0.6-0.7,1.1-0.7c0.6-0.1,1,0.4,1.3,0.9
				c0.1,0.1,0.3,0.1,0.3-0.1c0-0.7-0.8-1.2-1.4-1.2c-0.4,0-0.8,0.1-1.1,0.4c-0.1,0.1-0.5,0.7-0.4,0.7C13.3,22.9,13.3,23.1,13.4,23.1
				L13.4,23.1z"/>
			<path d="M14.5,23.9c0.2-0.1,0.4-0.3,0.7-0.4c0.2-0.1,0.5-0.1,0.8-0.1c0.3,0,0.3-0.4,0-0.4c-0.3,0-0.6,0-0.9,0.1
				c-0.1,0.1-0.3,0.2-0.4,0.3c-0.1,0.1-0.1,0.2-0.2,0.3C14.3,23.8,14.4,23.9,14.5,23.9L14.5,23.9z"/>
		</g>
		<g>
			<path d="M41.5,22.8c0.1,0-0.3-0.6-0.4-0.7c-0.3-0.2-0.7-0.4-1.1-0.4c-0.6,0-1.4,0.5-1.4,1.2c0,0.2,0.2,0.2,0.3,0.1
				c0.3-0.5,0.6-0.9,1.3-0.9c0.5,0,0.9,0.3,1.2,0.7c0,0,0.1,0.1,0.1,0c0,0,0,0,0,0C41.6,23,41.6,22.8,41.5,22.8L41.5,22.8z"/>
			<path d="M40.5,23.7c-0.1-0.1-0.1-0.2-0.2-0.3c-0.1-0.1-0.3-0.2-0.4-0.3c-0.3-0.2-0.6-0.1-0.9-0.1c-0.3,0-0.3,0.4,0,0.4
				c0.3,0,0.6-0.1,0.8,0.1c0.2,0.1,0.4,0.3,0.7,0.4C40.5,23.8,40.6,23.7,40.5,23.7L40.5,23.7z"/>
		</g>
		<path d="M18.5,53.2c0.1-1.4,0.2-2.9,0.2-4.3c0-0.2-0.3-0.2-0.3,0c-0.1,1.4-0.2,2.9-0.2,4.3C18.1,53.4,18.4,53.4,18.5,53.2
			L18.5,53.2z"/>
		<path d="M36.8,53.2c-0.1-1.4-0.1-2.9-0.2-4.3c0-0.2-0.3-0.2-0.3,0c0.1,1.4,0.1,2.9,0.2,4.3C36.5,53.4,36.8,53.4,36.8,53.2
			L36.8,53.2z"/>
		<path class="st3" d="M27.7,37.2c-2,0-2.7-0.7-3.3-0.7c-1,0-1.7,1.5-2.1,2.8c0.5,1.1,2.6,2.1,4.9,2.1c2.2,0,4.3,0.1,6.2-2.1
			c0,0-0.3-3.3-2.2-2.7C29.2,37.2,30,37.2,27.7,37.2z"/>
	</g>
	<ellipse cx="22.6" cy="22.6" rx="0.7" ry="0.9"/>
	<path d="M33.9,22.7c0,0.5-0.3,0.9-0.7,0.9c-0.4,0-0.7-0.4-0.7-0.9c0-0.5,0.3-0.9,0.7-0.9C33.6,21.9,33.9,22.2,33.9,22.7z"/>
	<path d="M27.3,26.2c-0.1,0.4,0.2,1,0.5,1.2c0.3,0.2,1,0.4,1.3,0.2c0.1-0.1,0.1-0.2,0-0.3c-0.3-0.2-0.7,0-1-0.2
		c-0.3-0.2-0.4-0.6-0.6-0.9C27.5,26.1,27.4,26.2,27.3,26.2L27.3,26.2z"/>
	<path d="M28.7,25.1c0.6,0.7,1.8-1,1.6-1.6c-0.1-0.5-0.5-0.8-1-0.7c-0.4,0-0.3,0.3-0.7-0.1c-0.3-0.3-0.3-0.4-0.3-0.7
		c0-0.7,0-1.6,0.2-2.3c0.1-0.2-0.3-0.3-0.3-0.1c-0.2,0.6-0.2,1.4-0.2,2c0,0.4-0.1,1,0.1,1.4c0.2,0.3,0.4,0.2,0.7,0.3
		c0.1,0,0.3,0,0.4-0.1c0.7,0.5,0.8,0.9,0.4,1.3c-0.1,0.2-0.6,0.6-0.8,0.5C28.7,24.9,28.6,25,28.7,25.1L28.7,25.1z"/>
	<path d="M32.7,18.1c0,0,0,0.1,0,0.1c0,0.1,0.1,0.1,0.1,0.1c1.4,0.1,2.6,1.7,3.1,2.9c0.1,0.2,0.4,0.2,0.4,0
		c-0.1-0.8-0.9-1.8-1.5-2.3c-0.4-0.3-0.8-0.6-1.3-0.8c-0.2-0.1-0.3-0.1-0.5-0.1c-0.1,0,0,0.2-0.1,0C32.8,18.1,32.7,18.1,32.7,18.1
		L32.7,18.1z"/>
	<path d="M22.6,18.5c-0.7,0-1.4,0.2-1.9,0.7c-0.6,0.5-1.3,1.3-1.7,2c-0.1,0.2,0.1,0.4,0.3,0.2c1-1.1,1.8-2.4,3.4-2.6
		C22.8,18.7,22.8,18.5,22.6,18.5L22.6,18.5z"/>
	<path class="st5" d="M40,10.8c-1-1.8-2.4-3.4-4.6-4.4C29.8,4,25.8,5.4,24.1,6.3C28.5,9.9,34.2,11,40,10.8z"/>
	<path class="st5" d="M37,18.9c0.9,0.1,1.7,0.8,1.7,0.8c1.7-0.4,3.1,1,3.1,1c-0.1-0.1,0.1-1.7-0.1-3.9c-1.8-0.1-3.5-0.4-5.3-0.9
		C36.9,17.1,37,18.9,37,18.9z"/>
	<path class="st5" d="M22.6,6.8c-4.2-0.2-8.3,2.9-9.6,6.1c-1.4,3.3,0.6,7.5,0.6,7.5c1.7-1.1,2.6-0.7,2.6-0.7c2.4-1,6-1.5,6-1.5
		l0.4-3.4c0.4,0.7,0.8,3.4,0.8,3.4s1.3,0,4,0c2.6,0,8.6,0.5,8.6,0.5l0.3-2.8C31.1,14.3,26.2,11.1,22.6,6.8z"/>
	<path class="st6" d="M24.1,6.3c-0.6,0.3-0.9,0.6-0.9,0.6c-0.2,0-0.3,0-0.5,0c3.5,4.2,8.4,7.4,13.7,8.9l0-0.2c0,0.1,0.1,0.2,0.1,0.2
		c1.7,0.5,3.5,0.8,5.3,0.9c-0.2-1.8-0.6-4-1.7-6C34.2,11,28.5,9.9,24.1,6.3z"/>
	<path class="st2" d="M25.7,26.8c-0.2,1-1.6,1.5-3.1,1.1c-1.5-0.3-2.6-1.4-2.3-2.3c0.2-1,1.6-1.5,3.1-1.1
		C24.9,24.8,25.9,25.8,25.7,26.8z"/>
	<path class="st2" d="M36.3,25.4c0.3,0.9-0.7,2.1-2.1,2.5c-1.5,0.5-2.9,0.1-3.2-0.8c-0.3-0.9,0.7-2.1,2.1-2.5
		C34.6,24.1,36,24.5,36.3,25.4z"/>
	<path d="M22.9,40.1c2.5,1.9,7.6,2.4,9.9,0c0.1-0.1,0-0.3-0.2-0.2C29.9,41.8,25.9,41.6,22.9,40.1C22.9,39.9,22.9,40,22.9,40.1
		L22.9,40.1z"/>
	<path d="M23.3,39.7c0.3-0.8,0.7-1.5,1-2.3c0.1-0.1-0.1-0.3-0.2-0.2c-0.5,0.6-0.8,1.6-1,2.4C23,39.8,23.2,39.8,23.3,39.7L23.3,39.7z
		"/>
	<path d="M24.8,40.3C24.8,40.3,24.8,40.3,24.8,40.3c0.1,0.1,0.2,0.1,0.2,0c0-0.8,0.2-1.6,0.3-2.4c0-0.2-0.2-0.2-0.3-0.1
		C24.9,38.6,24.8,39.4,24.8,40.3c0.1-0.1,0.1-0.1,0.1-0.1c0,0,0,0,0,0C24.9,40.1,24.8,40.2,24.8,40.3L24.8,40.3z"/>
	<path d="M26.4,40.5C26.4,40.5,26.4,40.5,26.4,40.5c0,0.1,0.2,0.1,0.2,0c-0.1-0.9,0.1-1.7,0-2.6c0-0.1-0.2-0.2-0.3,0
		C26.2,38.7,26.2,39.7,26.4,40.5c0.1,0,0.1,0,0.1-0.1c0,0,0,0,0,0C26.5,40.3,26.4,40.4,26.4,40.5L26.4,40.5z"/>
	<path d="M27.8,37.7c0,0.4,0.1,0.9,0.1,1.3c0,0.4,0,0.8,0.1,1.2c0,0.2,0.3,0.1,0.3,0c0-0.8-0.1-1.7-0.3-2.5c0,0-0.1-0.1-0.1-0.1
		C27.9,37.6,27.9,37.6,27.8,37.7C27.9,37.6,27.8,37.7,27.8,37.7L27.8,37.7z"/>
	<path d="M29.8,40.8C29.8,40.8,29.8,40.8,29.8,40.8c0.1,0,0.1,0,0.2,0c0-1,0.1-2.2-0.3-3.2c-0.1-0.2-0.3-0.1-0.3,0.1
		C29.5,38.7,29.5,39.8,29.8,40.8c0,0.1,0.2,0.1,0.2,0c0,0,0,0,0,0C29.9,40.7,29.8,40.7,29.8,40.8L29.8,40.8z"/>
	<path d="M30.3,37.4c0.1,0.4,0.3,0.7,0.4,1.1c0.1,0.4,0.2,0.7,0.3,1.1c0,0.1,0.2,0.1,0.2,0c-0.1-0.8-0.4-1.6-0.7-2.2
		C30.4,37.2,30.2,37.3,30.3,37.4L30.3,37.4z"/>
	<path d="M31.5,37C31.5,37,31.6,37,31.5,37c0.1,0.1,0.2,0.1,0.2,0c0,0,0,0,0,0C31.7,37,31.6,37,31.5,37c0.2,0.4,0.5,0.7,0.6,1
		c0.1,0.3,0.2,0.7,0.3,1.1c0,0.1,0.2,0.1,0.2,0c0-0.8-0.4-1.5-0.9-2.2C31.7,36.8,31.5,36.8,31.5,37C31.5,36.9,31.5,36.9,31.5,37
		c0.1,0,0.1-0.1,0.2-0.1c0,0,0,0-0.1,0C31.6,36.8,31.5,36.9,31.5,37L31.5,37z"/>
</g>
</svg>
