<?xml version="1.0" encoding="utf-8"?>
<!-- Generator: Adobe Illustrator 24.3.0, SVG Export Plug-In . SVG Version: 6.00 Build 0)  -->
<svg version="1.1" id="WordPress" xmlns="http://www.w3.org/2000/svg" xmlns:xlink="http://www.w3.org/1999/xlink" x="0px" y="0px"
	 viewBox="0 0 55 55" style="enable-background:new 0 0 55 55;" xml:space="preserve">
<style type="text/css">
	.st0{fill:#3793B5;}
	.st1{fill:#FCCEB6;}
	.st2{fill:#F9B28F;}
	.st3{fill:#FEB01B;}
	.st4{fill:#2C2945;}
	.st5{fill:#1E1D35;}
</style>
<g>
	<g>
		<path d="M18,53.3c0.1-1.4,0.2-2.9,0.2-4.3c0-0.2-0.3-0.2-0.3,0c-0.1,1.4-0.2,2.9-0.2,4.3C17.6,53.5,17.9,53.5,18,53.3L18,53.3z"/>
		<path d="M36.3,53.3c-0.1-1.4-0.1-2.9-0.2-4.3c0-0.2-0.3-0.2-0.3,0c0.1,1.4,0.1,2.9,0.2,4.3C36,53.5,36.4,53.5,36.3,53.3L36.3,53.3
			z"/>
		<path class="st0" d="M23.2,39.3c0,0-0.6,0-1.4,0.2c-1.3,0.2-3.1,0.7-4.4,1.6c-0.8,0.6-1.5,1.3-1.7,2.3c-0.1,0.5-0.2,1-0.2,1.5
			c-0.2,1.1-0.4,2.4-0.6,3.5c-0.3,2-0.5,3.6-0.5,3.6s5.7,2.6,13,2.6c-0.4-5.2,0.1-10.9-2.7-15.4L23.2,39.3z"/>
		<path class="st1" d="M24.6,39.3c1.7,2.7,2.2,6,2.4,9.2c0.7-3.1,1.7-6.2,2.9-9.3L24.6,39.3z"/>
		<path class="st0" d="M39.8,52L39.2,48l-0.5-3.4l-0.2-1.4c0,0-0.5-1.2-1.8-2.3c-0.9-0.7-2.1-1.3-3.8-1.6c-0.4-0.1-0.9-0.1-1.3-0.1
			l-1.7,0c-1.2,3-2.2,6.1-2.9,9.3c0.1,2.1,0.2,4.2,0.3,6.1C31.2,54.7,35.6,54.1,39.8,52z"/>
		<path class="st2" d="M18.3,23c0,1.8-1.4,3.3-3.1,3.3c-1.7,0-3.2-1.5-3.2-3.3c0-1.8,1.4-3.3,3.1-3.3C16.8,19.7,18.3,21.2,18.3,23z"
			/>
		<path class="st2" d="M42.2,22.9c0,1.8-1.4,3.3-3.1,3.3c-1.7,0-3.2-1.5-3.2-3.3c0-1.8,1.4-3.3,3.1-3.3
			C40.8,19.6,42.2,21.1,42.2,22.9z"/>
		<path class="st1" d="M23.2,39.3c0,0,1.1,1.4,4.1,1.3c3,0,4.3-1.4,4.3-1.4s-1.1-1-1.8-2.6c-1.7,0.8-3.6,1.2-5.6,1.3
			C24,38.4,23.6,38.9,23.2,39.3z"/>
		<path class="st2" d="M25.2,34.4c0,0-0.1,1.9-0.9,3.5c1.9-0.1,3.9-0.5,5.6-1.3c-0.3-0.7-0.5-1.4-0.6-2.3
			C29.3,34.3,26.9,34.9,25.2,34.4z"/>
		<g>
			<path d="M12.9,23.1C12.9,23.1,12.9,23.1,12.9,23.1c0.1,0,0.1,0,0.1,0c0.3-0.4,0.6-0.7,1.1-0.7c0.6-0.1,1,0.4,1.3,0.9
				c0.1,0.1,0.3,0.1,0.3-0.1c0-0.7-0.8-1.2-1.4-1.2c-0.4,0-0.8,0.1-1.1,0.4c-0.1,0.1-0.5,0.7-0.4,0.7C12.8,23,12.8,23.1,12.9,23.1
				L12.9,23.1z"/>
			<path d="M14,23.9c0.2-0.1,0.4-0.3,0.7-0.4c0.2-0.1,0.5-0.1,0.8-0.1c0.3,0,0.3-0.4,0-0.4c-0.3,0-0.6,0-0.9,0.1
				c-0.1,0.1-0.3,0.2-0.4,0.3c-0.1,0.1-0.1,0.2-0.2,0.3C13.8,23.9,13.9,24,14,23.9L14,23.9z"/>
		</g>
		<g>
			<path d="M41,22.9c0.1,0-0.3-0.6-0.4-0.7c-0.3-0.2-0.7-0.4-1.1-0.4c-0.6,0-1.4,0.5-1.4,1.2c0,0.2,0.2,0.2,0.3,0.1
				c0.3-0.5,0.6-0.9,1.3-0.9c0.5,0,0.9,0.3,1.2,0.7c0,0,0.1,0.1,0.1,0c0,0,0,0,0,0C41.1,23,41.1,22.9,41,22.9L41,22.9z"/>
			<path d="M40,23.7c-0.1-0.1-0.1-0.2-0.2-0.3c-0.1-0.1-0.3-0.2-0.4-0.3c-0.3-0.2-0.6-0.1-0.9-0.1c-0.3,0-0.3,0.4,0,0.4
				c0.3,0,0.6-0.1,0.8,0.1c0.2,0.1,0.4,0.3,0.7,0.4C40,23.9,40.1,23.8,40,23.7L40,23.7z"/>
		</g>
		<path d="M18,53.3c0.1-1.4,0.2-2.9,0.2-4.3c0-0.2-0.3-0.2-0.3,0c-0.1,1.4-0.2,2.9-0.2,4.3C17.6,53.5,17.9,53.5,18,53.3L18,53.3z"/>
		<path d="M36.3,53.3c-0.1-1.4-0.1-2.9-0.2-4.3c0-0.2-0.3-0.2-0.3,0c0.1,1.4,0.1,2.9,0.2,4.3C36,53.5,36.4,53.5,36.3,53.3L36.3,53.3
			z"/>
		<g>
			<path class="st1" d="M38.4,21.8c-0.1-6.8-2.2-14-11.4-13.9c-8.1,0-11.2,7-11.3,13.8c0,0.2,0,0.3,0,0.5c0,5.1,2.8,9.4,6.7,11.3
				c6.2,0.2,11.8-3.2,15.6-8c0.3-1.1,0.4-2.2,0.4-3.4C38.4,22,38.4,21.9,38.4,21.8z"/>
			<path class="st2" d="M22.3,33.5c1.4,0.7,3,1.1,4.7,1.1c5.2,0,9.6-3.9,10.9-9.1C34.2,30.3,28.5,33.6,22.3,33.5z"/>
		</g>
		<path d="M22.8,22.3c0,0.5-0.3,0.9-0.7,0.9c-0.4,0-0.7-0.4-0.7-0.9c0-0.5,0.3-0.9,0.7-0.9C22.5,21.4,22.8,21.8,22.8,22.3z"/>
		<ellipse cx="33" cy="22.3" rx="0.7" ry="0.9"/>
		<path class="st3" d="M18.3,13.6C18.3,13.6,18.3,13.6,18.3,13.6C18.3,13.5,18.3,13.5,18.3,13.6z"/>
		<path d="M26.5,26.8c-0.1,0.4,0.2,1,0.5,1.2c0.3,0.2,1,0.4,1.3,0.2c0.1-0.1,0.1-0.2,0-0.3c-0.3-0.2-0.7,0-1-0.2
			c-0.3-0.2-0.4-0.6-0.6-1C26.6,26.7,26.5,26.7,26.5,26.8L26.5,26.8z"/>
		<path d="M28.5,25.7c0.6-0.4,2.1-2.1,0.9-2.6c-0.9-0.4-1.8,1.4-2.4,0c-0.2-0.6-0.1-1.5-0.1-2.1c0-0.8-0.2-2.3,0.3-2.9
			c0.1-0.1-0.1-0.3-0.2-0.2c-0.4,0.2-0.4,1.3-0.4,1.8c-0.1,1.2-0.2,2.5,0.1,3.7c0.1,0.4,0.2,0.9,0.8,1c0.2,0,0.4-0.2,0.6-0.3
			c0.5-0.3,0.4-0.6,0.9,0.1c0.4,0.7,0.1,0.9-0.5,1.4C28.3,25.6,28.4,25.7,28.5,25.7L28.5,25.7z"/>
		<path class="st4" d="M18.3,19.6c0,0,1.4-2.4,2.3-2.6c0,0,1.5-1.5,2.4-0.8c0.9,0.7,0,1.2,0,1.2s0.3,0.3-0.5,0.9
			C21.6,18.9,17.2,20.9,18.3,19.6z"/>
		<path class="st4" d="M35.2,19.6c0,0-1.4-2.4-2.3-2.6c0,0-1.5-1.5-2.4-0.8c-0.9,0.7,0,1.2,0,1.2s-0.3,0.3,0.5,0.9
			C31.9,18.9,36.3,20.9,35.2,19.6z"/>
	</g>
	<path class="st4" d="M28.1,10.4c0,1.1,1.1,1.1,1.6,1.6c2.1,1.1,4.2,0.5,6.3,0c0,2.6,2.6,3.7,4.7,3.7c-1.5,2.3,0.2,3.7,2.3,4.4
		c0.1-1.3-0.9-2.4-0.9-2.4c0.7-5.7-3.7-5.8-3.7-5.8s1.3-1.9-0.8-4.8s-7.8-1.3-7.8-1.3c-3.2-3-6.4,0.7-6.4,0.7s-3.4-0.9-7,1.7
		c-3.6,2.6-2.5,7-2.5,7s-2.4,1.3-2,3.8c0.4,2.4,2.8,1.7,2.8,1.7c2-0.3,3-3,3-3c2-0.4,2.1-1.9,2-2.8c-0.5-0.7-1-1.5-1-2.4
		C21.8,15.1,25.5,13,28.1,10.4z"/>
	<path class="st5" d="M40.8,15.6c-2.1,0-4.7-1.1-4.7-3.7c-2.1,0.5-4.2,1.1-6.3,0c-0.5-0.5-1.6-0.5-1.6-1.6c-2.6,2.6-6.3,4.7-9.5,2.1
		c0,0.9,0.5,1.6,1,2.4c-0.1-0.5-0.2-0.8-0.2-0.8c1.1,1.6,3.8,0.1,3.8,0.1c3.9,1.2,5.6-0.5,5.6-0.5c1.5,3.1,7.4,3.5,7.4,3.5
		c1.2,4.3,3.3,6.4,5.6,4.6c0.7-0.5,1-1.1,1.1-1.7C40.9,19.3,39.3,17.9,40.8,15.6z"/>
	<path class="st5" d="M14.7,26.2c0,0-1.6,2.6,0.4,3.8s3.2,0.1,3.2,0.1s-1.7-2.6-2.1-4C16.2,26.1,15.5,26.4,14.7,26.2z"/>
	<path class="st5" d="M37.9,26c0,0-1,2.6-2,3.8c0.6,1,1.3,1.6,2-0.5c0,0,2.6-1,2.7-3.6C40.6,25.8,39.3,26.6,37.9,26z"/>
	<path class="st4" d="M23.9,38.4l-0.7,0.8c0,0,0.9,0.9,2,1.2c-1,1.2-1.4,3.3-1.8,3.5c-0.3,0.2-1.6-1.4-2.4-2.8
		c-0.8-1.4,1-2.4,1.6-2.7C23.4,38.1,23.9,38.4,23.9,38.4z"/>
	<path class="st4" d="M30.8,38.4l0.7,0.8c0,0-1,0.9-2.1,1.1c1,1.2,1.5,3.4,1.9,3.6c0.3,0.2,1.6-1.4,2.4-2.8c0.8-1.4-1-2.4-1.6-2.7
		C31.4,38.1,30.8,38.4,30.8,38.4z"/>
	<path d="M29.5,40.5c-1.2-0.1-2.5,6-2.6,6.8c-0.3,2.3-0.2,4.8,0.1,7.1c0,0.2,0.4,0.3,0.4,0c-0.2-2.7-0.4-5.7,0.2-8.3
		c0.3-1.5,0.9-2.9,1.5-4.2c0.2-0.5,0.6-0.9,0.6-1.5c0-0.1-0.1-0.2-0.2-0.2c0,0,0,0,0,0C29.3,40.2,29.3,40.5,29.5,40.5L29.5,40.5z"/>
	<path d="M28.2,54.6c-0.4-4.5,0.2-9.4,1.9-13.6c0.1-0.1-0.2-0.2-0.3-0.1c-1.8,3.8-2.7,9.6-1.8,13.7C28.1,54.7,28.2,54.7,28.2,54.6
		L28.2,54.6z"/>
	<path d="M24.6,41.4c0.8,2.2,1.1,4.5,1.8,6.7c0,0.1,0.1,0,0.1,0c-0.1-1.2-0.4-2.4-0.7-3.6c-0.2-1-0.4-2.2-1.1-3.1
		C24.8,41.2,24.6,41.3,24.6,41.4L24.6,41.4z"/>
	<path d="M24.3,42.1c0.2,0.1,0.5,0.1,0.7,0.1c0.2,0,0.4,0,0.7-0.1c0.2-0.1,0.1-0.3-0.1-0.3c-0.4,0.1-0.9,0-1.3,0.1
		C24.2,41.9,24.2,42,24.3,42.1L24.3,42.1z"/>
	<path d="M28.9,42.3c0.5,0,1,0.3,1.5,0c0.1-0.1,0.1-0.3-0.1-0.3c-0.3,0-0.5,0-0.8,0c-0.2,0-0.5-0.1-0.6,0
		C28.8,42.1,28.8,42.3,28.9,42.3L28.9,42.3z"/>
	<g>
		<path d="M30,52.4c0-1.4-0.1-2.8-0.2-4.1c0-0.2-0.3-0.2-0.3,0c0,1.4,0.1,2.8,0.3,4.2C29.8,52.5,30,52.5,30,52.4L30,52.4z"/>
		<path d="M29.6,48.1c0.3,0.3,1.4,0,1.8,0c1-0.1,2.1-0.1,3.1-0.3c0.1,0,0.1-0.2,0-0.2c-0.8-0.1-1.7,0-2.6,0.1
			C31.1,47.8,30.3,48.1,29.6,48.1C29.6,48.1,29.5,48.1,29.6,48.1L29.6,48.1z"/>
		<path d="M34.4,47.9c-0.1,0.5,0.1,1,0.2,1.5c0.1,0.6,0.2,1.2,0.4,1.8c0,0.1,0.2,0.1,0.2,0c0.1-1.1-0.4-2.3-0.6-3.3
			C34.5,47.8,34.4,47.8,34.4,47.9L34.4,47.9z"/>
		<path d="M29.8,52.4c0.1,0.3,0.8,0.4,1.1,0.6c0.6,0.2,1.1,0.6,1.7,0.7c0.1,0,0.1-0.1,0-0.2c-0.9-0.4-1.9-0.8-2.8-1.2
			C29.9,52.2,29.8,52.3,29.8,52.4L29.8,52.4z"/>
		<path d="M32.7,53.6c0.1,0,0.2-0.1,0.3-0.2c0.3-0.2,0.6-0.5,0.9-0.8c0.4-0.4,0.9-0.8,1.2-1.3c0-0.1,0-0.2-0.1-0.1
			c-0.2,0.1-0.3,0.3-0.5,0.5c-0.2,0.2-0.5,0.4-0.7,0.6c-0.4,0.4-0.8,0.8-1.2,1.2C32.6,53.5,32.7,53.6,32.7,53.6L32.7,53.6z"/>
	</g>
</g>
</svg>
